<?xml version="1.0" encoding="UTF-8"?> <!-- Generator: Adobe Illustrator 22.1.0, SVG Export Plug-In . SVG Version: 6.00 Build 0) --> <svg xmlns="http://www.w3.org/2000/svg" xmlns:xlink="http://www.w3.org/1999/xlink" id="Layer_1" x="0px" y="0px" viewBox="0 0 32.4 24.9" style="enable-background:new 0 0 32.4 24.9;" xml:space="preserve"> <style type="text/css"> .st0{fill:#358F8E;} .st1{fill:#156D69;} .st2{fill:#FFDF13;} .st3{fill-rule:evenodd;clip-rule:evenodd;fill:#156D69;} .st4{opacity:0.36;fill-rule:evenodd;clip-rule:evenodd;fill:#156D69;} .st5{fill:#FFFFFF;} .st6{clip-path:url(#SVGID_2_);stroke:#4794E0;stroke-width:5.52;} .st7{fill:#D31515;} .st8{fill:none;stroke:#2C2C2B;stroke-width:0.3354;stroke-linecap:round;stroke-linejoin:round;} .st9{fill:#2C2C2B;} .st10{fill:none;stroke:#2C2C2B;stroke-width:0.6653;} .st11{fill:#D31515;stroke:#2C2C2B;stroke-width:0.8559;stroke-linejoin:round;} .st12{fill:#FFFFFF;stroke:#2C2C2B;stroke-width:0.3354;stroke-linejoin:round;} .st13{fill:#FFFFFF;stroke:#2C2C2B;stroke-width:0.8559;stroke-linejoin:round;} .st14{fill:#FFFFFF;stroke:#2C2C2B;stroke-width:0.5596;} .st15{fill:#FFFFFF;stroke:#2C2C2B;stroke-width:7.289221e-02;} .st16{fill:#009B3A;} .st17{fill:#FEDF00;} .st18{fill:#002776;} .st19{fill:#212125;} .st20{fill:#C40008;} .st21{fill:#FFEC00;} .st22{fill:#294292;} .st23{opacity:0.38;} .st24{opacity:0.26;fill-rule:evenodd;clip-rule:evenodd;fill:#156D69;} .st25{opacity:0.51;fill-rule:evenodd;clip-rule:evenodd;fill:#156D69;} </style> <path class="st1" d="M29.9,4.8c-0.2-0.6-0.7-1.2-1.2-1.6c0.1-0.5,0.3-1.1,0.5-1.5c0.3-0.7,0.6-1.3,0.1-1.5c-0.3-0.1-0.6-0.1-0.9,0 L28.4,0l-0.3,0c-1.2,0.2-2.2,1.1-2.5,2.3c-1.4,0.2-2.6,1.4-2.8,1.6l-3.7,2.8C18,6.7,9.7,6.6,7.3,6.2C5.8,6,3.7,6,2.4,7 C1.7,7.6,1.3,8.5,1.3,9.5c0,0.2,0,0.5,0,0.7C1,10.6,0,13.2,0.6,15.8c0.5,2.5,0.1,3.3,0.1,3.3L0,20l1-0.4c0.3-0.1,0.6-0.3,0.8-0.5 c-0.2,1,0.1,3.7,0.2,4.4c-0.2,0.3-0.2,0.7-0.1,1.1l0,0.3h2.6v-0.3c0-0.4-0.1-0.8-0.4-1.1v-2.2l0.7,2c-0.1,0.3-0.4,1.1-0.1,1.5 l0.1,0.2h2.5v-0.3c-0.1-0.7-0.3-1.4-0.7-2c-0.5-0.8-0.4-2.3-0.2-2.7c0.2-0.4,1.2-2.8,1.6-3.7c1.3,0.6,3.5,1.2,7.3,1.2 c0.9,0,1.8,0,2.9-0.1c0.2,1,0.5,2.5,0.5,3.1c0,1-0.1,2.4-0.1,2.9c-0.3,0.4-0.4,0.9-0.3,1.3l0.1,0.3h2.6v-0.1l0,0.1h2.4v-0.3 c0-0.7-0.2-1-0.4-1.2c-0.2-0.5-0.3-1.1-0.2-1.6c0.2-1.2,0.2-2.5-0.1-3.7c-0.2-1.3,0.5-2.6,0.5-2.6L26,9.3c0.3,0.1,0.7,0.3,1,0.3 c0.3,0.2,2.2,1.2,3.6,1.2c0.2,0,0.4,0,0.7-0.1c0.4-0.1,0.7-0.4,0.9-0.7C33,8.1,31.8,7,30.9,6C30.5,5.7,30.1,5.3,29.9,4.8z M28.9,0.7 c-0.1,0.2-0.2,0.5-0.3,0.7c-0.2,0.4-0.4,0.9-0.5,1.4l-0.2-0.1c0.1-0.3,0.2-0.6,0.3-0.8c0.2-0.3,0.3-0.6,0.4-1 C28.7,0.8,28.8,0.7,28.9,0.7L28.9,0.7z M2.3,16.8c-0.1-1-0.2-2.1-0.2-3.1L2.2,14c0.3,0.5,0.4,1.1,0.6,1.7c0.1,0.8-0.1,1.5-0.4,2.2 C2.4,17.7,2.3,17.3,2.3,16.8z M1.4,18.6c0.1-1,0-1.9-0.2-2.9C1,14.3,1,13,1.4,11.7c0.1,0.3,0.2,0.7,0.3,1c-0.4,0.5-0.3,1.8-0.1,4.2 c0.1,0.5,0.1,1,0.1,1.2C1.7,18.2,1.6,18.4,1.4,18.6z M5.8,19.5c-0.3,0.6-0.4,2.4,0.2,3.4c0.3,0.4,0.4,0.8,0.5,1.3H5.2 c0-0.3,0.1-0.6,0.2-0.9l0.1-0.1L4.4,20l2.5-4.5c0.2,0.1,0.3,0.2,0.5,0.3C6.9,17,5.9,19.2,5.8,19.5z M20.8,23.9 c0-0.3-0.2-0.5-0.4-0.6c0-1.1,0.1-1.7,0.2-1.9c0,0,0,0,0.1-0.1c0.2,0.7,0.3,1.4,0.3,2.1C20.9,23.5,20.8,23.7,20.8,23.9z M31.5,9.7 c-0.1,0.2-0.3,0.3-0.5,0.4c-1,0.3-3.1-0.7-3.8-1l0,0h-0.1c0,0-2.2-0.4-2.6-2L24,7.2c0.2,0.8,0.7,1.4,1.4,1.8l-2.8,6.2 c-0.5,0.9-0.7,2-0.6,3c0.2,1.2,0.3,2.3,0.1,3.5c-0.1,0.7,0,1.5,0.3,2.1l0,0.1l0.1,0c0,0,0.1,0.1,0.1,0.3h-1.3c0-0.2,0-0.3,0.1-0.4 l0.1-0.1l0-0.1c0-0.3-0.2-2.6-0.7-3.5c0.1-0.6,0.1-1.5,0.1-3c0.7-0.7,1.1-1.7,1.3-2.7l-0.7-0.1c-0.1,0.9-0.5,1.7-1.2,2.4l-0.1,0.1 V17c0,1.6-0.1,3.5-0.3,3.9c-0.2,0.1-0.4,0.5-0.4,2.5v0.3l0.3,0.1c0.1,0,0.2,0.2,0.2,0.4h-1.3c0-0.2,0-0.4,0.2-0.5l0.2-0.1v-0.2 c0,0,0.1-1.8,0.1-3c0-1.2-0.8-4.4-0.8-4.6L17.8,16c0,0,0.1,0.2,0.2,0.6C10.7,17.2,7.9,15.5,7.2,15l0.2-0.4l-0.6-0.3l-3.4,6.1v3.2 v0.2l0.1,0.1c0.1,0.1,0.2,0.2,0.2,0.3H2.5c0-0.1,0-0.2,0-0.3l0.2-0.1l-0.1-0.2c-0.1-0.4-0.4-3.9-0.2-4.4c0.7-1,1.1-2.2,1-3.5 c-0.1-0.6-0.3-1.3-0.6-1.9c-0.5-1.2-1-2.5-0.9-4.3c0-0.8,0.4-1.5,0.9-1.9c1.1-0.9,3-0.9,4.4-0.7c2.5,0.4,11.6,0.4,12,0.5h0.1l3.9-3 l0,0c0,0,1-1.1,2.1-1.3c0,0.3-0.1,0.6,0,0.9l0.7,0c0-0.1-0.2-2.5,1.9-3.1c0,0.3-0.1,0.6-0.3,0.8c-0.4,0.6-0.6,1.4-0.5,2.1l0.7-0.1 c0-0.1,0-0.2,0-0.2C28.5,3.8,29,4.3,29.3,5c0.2,0.5,0.6,1,1.1,1.5l0.2,0.2l-1.2,2.1L30,9.1l1.1-1.9C31.6,7.9,32,8.6,31.5,9.7z"></path> </svg> 