<?xml version="1.0" encoding="UTF-8"?> <!-- Generator: Adobe Illustrator 22.1.0, SVG Export Plug-In . SVG Version: 6.00 Build 0) --> <svg xmlns="http://www.w3.org/2000/svg" xmlns:xlink="http://www.w3.org/1999/xlink" id="Layer_1" x="0px" y="0px" viewBox="0 0 21.8 24.4" style="enable-background:new 0 0 21.8 24.4;" xml:space="preserve"> <style type="text/css"> .st0{fill:#358F8E;} .st1{fill:#156D69;} .st2{fill:#FFDF13;} .st3{fill-rule:evenodd;clip-rule:evenodd;fill:#156D69;} .st4{opacity:0.36;fill-rule:evenodd;clip-rule:evenodd;fill:#156D69;} .st5{fill:#FFFFFF;} .st6{clip-path:url(#SVGID_2_);stroke:#4794E0;stroke-width:5.52;} .st7{fill:#D31515;} .st8{fill:none;stroke:#2C2C2B;stroke-width:0.3354;stroke-linecap:round;stroke-linejoin:round;} .st9{fill:#2C2C2B;} .st10{fill:none;stroke:#2C2C2B;stroke-width:0.6653;} .st11{fill:#D31515;stroke:#2C2C2B;stroke-width:0.8559;stroke-linejoin:round;} .st12{fill:#FFFFFF;stroke:#2C2C2B;stroke-width:0.3354;stroke-linejoin:round;} .st13{fill:#FFFFFF;stroke:#2C2C2B;stroke-width:0.8559;stroke-linejoin:round;} .st14{fill:#FFFFFF;stroke:#2C2C2B;stroke-width:0.5596;} .st15{fill:#FFFFFF;stroke:#2C2C2B;stroke-width:7.289221e-02;} .st16{fill:#009B3A;} .st17{fill:#FEDF00;} .st18{fill:#002776;} .st19{fill:#212125;} .st20{fill:#C40008;} .st21{fill:#FFEC00;} .st22{fill:#294292;} .st23{opacity:0.38;} .st24{opacity:0.26;fill-rule:evenodd;clip-rule:evenodd;fill:#156D69;} .st25{opacity:0.51;fill-rule:evenodd;clip-rule:evenodd;fill:#156D69;} </style> <path class="st1" d="M11.3,24.4l-0.2-5.8c0-0.1-0.1-0.3-0.1-0.7c0-0.2-0.1-0.8-0.1-0.8l-0.1,0c-0.4,0-0.9-0.1-1.3-0.1l-0.1,0l0,0.1 c-1,1.3-2.2,2.3-3.5,2.8l-0.1,0l0.4,2.2l0.9,2.2H1.3L0,18.1L0.2,18c0,0,2.4-1.8,1.3-3.8c-0.4-0.7-0.5-1.6-0.3-2.6l0-0.1l-0.1,0 c-0.6-0.3-1-0.9-1.1-1.6C-0.1,8.6,0.9,6.9,2.3,6l0.5-0.3l0.1,0.6C3,6.6,3.1,6.8,3.2,7l0,0.1C3.5,7.5,3.7,8,3.7,8.5l0,0.2l0.2,0 c0.2-0.1,0.5-0.1,0.7-0.1c0.1,0,0.3,0,0.5,0c0.1,0,0.3,0,0.5,0c0.7,0,2.5,0.2,3.9,0.2c1.1,0,1.8-0.1,2-0.2c1.1-0.6,1.5-1.9,1.7-2.7 l0,0c0,0,0-0.1,0-0.1V5.7l0,0c-0.2-0.2-0.3-0.4-0.4-0.6c-0.2-0.5-0.1-1.2,0.2-2L13.2,3L13,3c-1.1,0.2-2.8,1.5-3.6,2.3L8.6,6.2L8.7,5 l0,0c0.1-0.7,0.7-3.3,2.6-4.4C12,0.2,12.7,0,13.5,0c0.7,0,1.5,0.2,2.3,0.5l0,0l0,0c0.3-0.1,0.6-0.1,0.8-0.1c1.4,0,2.7,0.9,3,1.4 c0.1,0.3,0.6,0.6,1,0.8l0.2,0.1c0.6,0.3,1,0.5,1,0.9c0.1,0.9-0.3,2-1.2,2.3c-0.1,0-0.4,0-0.7,0c-0.4,0-0.8,0-1.2,0l-0.3,0l0.1,0.2 c1.3,4.6,0.2,7.3-0.6,8.5c-0.3,0.4-0.5,0.7-0.8,1l0,0l0,0c-0.5,2.5-0.8,4.8-0.7,6.6l0,0l0.9,2.2H11.3z M14.6,23.7h1.4l-0.4-0.9h-1.4 L14.6,23.7z M12.1,23.7h1.7l-0.4-0.9H12L12.1,23.7z M4.5,23.7h1.4l-0.4-0.9H4.1L4.5,23.7z M1.9,23.7h1.8l-0.4-0.9H1.7L1.9,23.7z M11.3,15c0.2,1.2,0.4,2.6,0.5,3.3c0,0.2,0,0.3,0.1,0.3l0,0l0.1,3.3h1.2l0.2-2.8l0,0c0.2-0.8,0.7-1.8,1.1-2.9 c0.1-0.2,0.2-0.4,0.2-0.5c0.2-0.4,0.3-0.7,0.4-1l0.8,0.2c0,0.1-0.1,0.3-0.2,0.5l-0.1,0.4l0.3-0.2c0.5-0.3,1-0.8,1.3-1.3 c0.7-1.1,1.7-3.6,0.4-8.1L18,5.9l-0.4,0c-0.2,0-0.4,0-0.5-0.1L17.1,5c1,0.1,2.2,0.2,2.9,0.2c0.2,0,0.3,0,0.4,0C20.8,5,21,4.4,21,3.8 l0-0.1l-0.1,0c-0.1-0.1-0.4-0.2-0.5-0.3l0,0c-0.6-0.3-1.2-0.6-1.5-1.2c-0.2-0.3-1.2-1-2.3-1l-0.1,0c-0.9,0-1.6,0.5-2.2,1.3 c0,0,0,0,0,0.1c0,0,0,0,0,0.1c-0.1,0.1-0.1,0.1-0.1,0.2c-0.4,0.7-0.7,1.5-0.5,2.1c0.1,0.2,0.2,0.4,0.5,0.5c0.1,0,0.1,0,0.2,0 c0.2,0,0.3-0.1,0.4-0.2c0.4-0.5,0.5-1.6,0.3-2.1l0.7-0.4C16,3.4,16,5,15.4,5.7c-0.3,0.3-0.6,0.5-1,0.5c-0.1,0-0.1,0-0.2,0l-0.1,0 l0,0.1c-0.2,0.8-0.7,2.3-2.1,3c-0.4,0.2-1.2,0.3-2.4,0.3c-0.9,0-2.1,0-3.9-0.2l-0.4,0c-0.3,0-0.5,0-0.6,0c-0.9,0-1.8,0.5-2.3,1.5 c-0.6,1-0.6,2.2-0.2,2.9c1.4,2.3-0.8,4.3-1.2,4.7l-0.1,0l0.7,3.4h1.5l-0.5-3l0.3-0.1c1.5-0.5,1.8-1.1,2.8-2.6l0.1-0.1 c0.1-0.1,0.1-0.2,0.2-0.4l0.2-0.3l0.3,0.1c1,0.4,2.8,0.8,4.1,0.9l0.2,0l0-0.2c-0.1-0.4-0.1-0.8-0.2-1.2l0,0L11.3,15z M15.9,16.3 c-0.2,0.1-0.4,0.1-0.6,0.2l-0.1,0l0,0.1L15,17.1c-0.3,0.8-0.6,1.5-0.8,2.1l0,0L14,21.9h1.5v-0.1c0-1.4,0.2-3.2,0.5-5.3l0-0.2 L15.9,16.3z M6.4,16.4C6.4,16.5,6.4,16.5,6.4,16.4c-0.1,0.1-0.1,0.1-0.1,0.1l0,0l-0.1,0.1c-0.9,1.4-1.3,2.1-2.7,2.7l-0.1,0l0.4,2.5 h1.5l-0.5-2.4l0.3-0.1c1.2-0.4,2.2-1.2,3.2-2.3l0.1-0.2l-0.2,0c-0.6-0.1-1.2-0.3-1.7-0.4L6.4,16.4L6.4,16.4z M2.2,7.2 C1.3,8,0.7,9.1,0.8,9.8c0,0.4,0.2,0.7,0.5,0.8l0.1,0.1l0-0.1c0,0,0-0.1,0-0.1c0,0,0-0.1,0.1-0.1c0.3-0.5,0.7-0.9,1.2-1.3l0,0l0-0.1 c0.1-0.6,0-1-0.3-1.5L2.3,7L2.2,7.2z M13.5,0.8c-0.6,0-1.2,0.2-1.8,0.5c-0.7,0.4-1.3,1.1-1.8,2.2l0.2,0.2c0.7-0.5,2-1.4,3.1-1.4 c0.1,0,0.2,0,0.2,0l0.1,0l0.1-0.1l0,0c0,0,0,0,0,0c0,0,0,0,0-0.1c0.2-0.3,0.5-0.6,0.8-0.9L14.8,1l-0.3-0.1 C14.2,0.9,13.9,0.8,13.5,0.8z"></path> </svg> 