<?xml version="1.0" encoding="UTF-8"?> <!-- Generator: Adobe Illustrator 22.1.0, SVG Export Plug-In . SVG Version: 6.00 Build 0) --> <svg xmlns="http://www.w3.org/2000/svg" xmlns:xlink="http://www.w3.org/1999/xlink" id="Layer_1" x="0px" y="0px" viewBox="0 0 41.5 35.4" style="enable-background:new 0 0 41.5 35.4;" xml:space="preserve"> <style type="text/css"> .st0{fill:#358F8E;} .st1{fill:#156D69;} .st2{fill:#FFDF13;} .st3{fill-rule:evenodd;clip-rule:evenodd;fill:#156D69;} .st4{opacity:0.36;fill-rule:evenodd;clip-rule:evenodd;fill:#156D69;} .st5{fill:#FFFFFF;} .st6{clip-path:url(#SVGID_2_);stroke:#4794E0;stroke-width:5.52;} .st7{fill:#D31515;} .st8{fill:none;stroke:#2C2C2B;stroke-width:0.3354;stroke-linecap:round;stroke-linejoin:round;} .st9{fill:#2C2C2B;} .st10{fill:none;stroke:#2C2C2B;stroke-width:0.6653;} .st11{fill:#D31515;stroke:#2C2C2B;stroke-width:0.8559;stroke-linejoin:round;} .st12{fill:#FFFFFF;stroke:#2C2C2B;stroke-width:0.3354;stroke-linejoin:round;} .st13{fill:#FFFFFF;stroke:#2C2C2B;stroke-width:0.8559;stroke-linejoin:round;} .st14{fill:#FFFFFF;stroke:#2C2C2B;stroke-width:0.5596;} .st15{fill:#FFFFFF;stroke:#2C2C2B;stroke-width:7.289221e-02;} .st16{fill:#009B3A;} .st17{fill:#FEDF00;} .st18{fill:#002776;} .st19{fill:#212125;} .st20{fill:#C40008;} .st21{fill:#FFEC00;} .st22{fill:#294292;} .st23{opacity:0.38;} .st24{opacity:0.26;fill-rule:evenodd;clip-rule:evenodd;fill:#156D69;} .st25{opacity:0.51;fill-rule:evenodd;clip-rule:evenodd;fill:#156D69;} </style> <g> <path class="st1" d="M23.8,33c0.2,0.2,0.4,0.4,0.4,0.6c0,0,0,0,0,0c-0.5,0.1-0.9,0-1.1-0.1c0.1-0.2,0.3-0.5,0.3-0.8 c0-0.1,0-0.2,0-0.2C23.5,32.7,23.6,32.8,23.8,33z"></path> <path class="st1" d="M23,31.5c0.1-0.2,0.1-0.4,0.2-0.7c0,0.4,0,0.7,0,1.1C23.1,31.7,23,31.6,23,31.5z"></path> <path class="st1" d="M10.8,33c0,0,0.1,0.1,0.1,0.1c-0.5,0-0.8,0.2-1,0.3c0,0-0.1,0-0.1,0.1c0-0.1,0-0.2,0-0.3 c0.1-0.3,0.2-0.6-0.1-1C10,32.4,10.3,32.7,10.8,33z"></path> <path class="st1" d="M1.9,23.7c0.2,0.8,0.4,1.1,0.7,1.1c0.5,0,0.5-0.6,0.6-0.9c0-0.1,0.7-2.6,0.5-4.4c0.8,1.5,1.9,2.5,1.9,2.5 c0.4,0.5-0.1,2.9-0.8,4.9c-0.1,0.2,0,0.4,0.1,0.5c0.1,0,0.1,0.1,0.2,0.2c-0.2,0.3-0.2,1.1,0.4,4.9c0,0,0,0.1,0.1,0.1L5.8,33 c0.3,0.4,0.3,0.5,0.3,0.5c0,0,0,0-0.1,0c-0.2,0.2-0.5,0.6-0.2,1.3c0,0,0,0.1,0.1,0.1c0,0.1,0.1,0.1,0.2,0.2 c0.2,0.1,0.4,0.1,0.7,0.1c0.7,0,1.5-0.2,1.8-0.2c0.2,0,0.3-0.2,0.3-0.4c0.1-0.8-1.1-2.2-1.6-2.8c-0.1-0.2,0-1.5,0-2.5 c0-0.2,0-0.3,0-0.5C7.7,29.9,8,31,8,31.2c0,0.4,0.5,0.8,0.7,1c0.4,0.3,0.4,0.5,0.3,0.8c-0.1,0.2-0.2,0.6,0,0.9 c0.3,0.7,0.9,0.4,1.2,0.3c0.3-0.1,0.5-0.2,1-0.2c0.5,0,0.8-0.1,0.9-0.4c0-0.1,0.2-0.5-0.8-1.2c-1.8-1.1-2.1-4.1-2.2-5.1L9,27 c0-0.4,0-1.2,0.2-2.4c0.2-0.4,0.3-0.8,0.2-1.1c-0.1-0.9,0.9-2.3,1.2-2.7c1.2-1.8,2.5-1.3,4-0.5c1.3,0.6,3.1,0.9,3.2,1 c0.2,0.1,0.4,0.1,0.6,0.2c1.4,0.3,3.4,0.5,5,0.6c0.1,0.8,0,2-0.1,2.9c0,0,0,0,0,0.1c0,0.1,0,0.3-0.1,0.4c-0.1,0.3-0.1,0.6-0.1,0.7 c0,0.1,0,0.2,0,0.2c0,0.1,0,0.1,0,0.2c0,0.2,0,0.3,0,0.5c0,0,0,0,0,0c0,0.9-0.3,2.2-0.6,3.2c0,0.1,0,0.1-0.1,0.2 c0,0.1-0.1,0.2-0.1,0.3c0,0.1-0.1,0.2-0.1,0.2c0,0.1-0.1,0.2-0.1,0.3c-0.1,0.1,0,0.3,0.1,0.4c0.1,0.1,0.1,0.1,0.2,0.2c0,0,0,0,0,0 c0,0,0.1,0.1,0.1,0.1c0,0,0,0,0,0.1c0,0,0,0.1,0,0.1c0,0,0,0,0,0.1c0,0,0,0.1,0,0.1c0,0,0,0.1,0,0.1c0,0,0,0,0,0.1 c0,0.1,0,0.1-0.1,0.1c0,0,0,0,0,0c0,0.1-0.1,0.1-0.1,0.1c0,0,0,0,0,0c-0.1,0.1-0.1,0.2-0.1,0.3c0,0.3,0.1,0.5,0.4,0.7 c0.1,0.1,0.3,0.2,0.4,0.2c0.1,0,0.1,0,0.2,0c0.1,0,0.2,0.1,0.4,0.1c0.1,0,0.1,0,0.2,0c0.1,0,0.2,0,0.3,0c0.1,0,0.1,0,0.2,0 c0.1,0,0.1,0,0.2,0c0,0,0,0,0,0c0,0,0,0,0,0s0,0,0,0c0.1,0,0.1,0,0.2-0.1c0.1,0,0.1-0.1,0.2-0.1c0,0,0,0,0,0c0,0,0-0.1,0.1-0.2 c0,0,0,0,0,0c0,0,0-0.1,0.1-0.1c0,0,0,0,0-0.1c0-0.1,0.1-0.2,0.1-0.2c0-0.5-0.5-1-0.8-1.2c-0.9-0.6,0-3.3,0.6-4.5 c0.6-0.8,0.8-2.5,0.8-2.7c0-0.3,0.2-0.8,0.4-1.3l0.3,3.2c0,0,0,0,0,0c0,0,0,0.1,0,0.1c0,0,0,0,0,0.1c0,0.1,0,0.1,0.1,0.2 c0,0,0,0,0.1,0.1l0,0c0.1,0.2,0.1,2.2,0,3.9c-0.3,0.6,0.2,1.2,0.5,1.4c0,0,0.1,0,0.1,0c0.1,0,0.1,0.1,0.1,0.1 c0.1,0.2-0.1,0.8-0.3,1.1c-0.1,0.2,0,0.4,0.2,0.6c1.3,0.8,2.2,0.4,2.7,0.2c0.1,0.1,0.3,0.1,0.5-0.1c0.3-0.3,0-0.6-0.2-0.8 c-0.3-0.3-1-1.4-1.3-2c0-0.1-0.1-0.1-0.1-0.2c-0.2-0.7-0.2-2.3-0.1-3.4l0.3-1.3c0,0,0-0.1,0-0.1c-0.1-1.6,0.5-3.1,0.5-3.1 c0.4-1.5,0.5-2.5,0.5-2.9c1.5-1.2,1.6-5.7,1.6-6.6c-0.2-1.4,1.5-4.1,2.5-5.4c0.9,0.6,2.2,0.3,2.5,0.2l1.3,0.3c0,0,0.1,0,0.1,0 c0.6,0,0.7,0.2,0.7,0.3c0,0.1,0.1,0.2,0.2,0.2c0.1,0,0.3,0.1,0.4,0.1c0,0,0.1,0,0.1,0c0.1,0,0.2,0,0.3,0c0,0,0.1,0,0.1,0 c0.1,0,0.1,0,0.2,0c0,0,0.1,0,0.1,0c0.1,0,0.1,0,0.2,0c0,0,0,0,0.1,0c0.1,0,0.1,0,0.2-0.1c0,0,0,0,0,0c0.1,0,0.1-0.1,0.2-0.1 c0,0,0,0,0,0c0,0,0.1,0,0.1-0.1c0,0,0,0,0,0c0.1,0,0.1-0.1,0.2-0.1c0,0,0,0,0,0c0.1-0.1,0.1-0.1,0.1-0.2c0,0,0.1-0.1,0.1-0.1 c0,0,0,0,0,0c0,0,0,0,0-0.1c0,0,0-0.1,0-0.1c0,0,0-0.1,0.1-0.1c0-0.1,0-0.1,0-0.2c0,0,0-0.1,0-0.1c0-0.1,0-0.1,0-0.2 c0,0,0-0.1,0-0.1c0-0.1,0-0.1,0-0.2c0,0,0-0.1,0-0.1c0-0.1,0-0.1,0-0.1c0,0,0-0.1,0-0.1c0,0,0-0.1,0-0.1c0,0,0-0.1,0-0.1 c0,0,0-0.1,0-0.1c0,0,0-0.1,0-0.1c0-0.1,0-0.1-0.1-0.2l0-0.1c0-0.1-0.1-0.2-0.1-0.2c-1.1-1-2.2-2-2.5-2.3c0-0.3-0.1-0.7-0.1-0.7 c0-0.2-0.2-0.3-0.4-0.4c-0.3,0-0.8-0.5-1.2-1c0.1-0.1,0.2-0.3,0.2-0.4c0,0,0-0.1,0-0.1c0-0.1,0.1-0.2,0.1-0.2c0-0.1,0-0.1,0-0.1 c0-0.1,0-0.1,0-0.2c0,0,0-0.1,0-0.1c0-0.1,0-0.1,0-0.2c0,0,0-0.1,0-0.1c0,0,0-0.1,0-0.1c0,0,0-0.1,0-0.1c0,0,0-0.1,0-0.1 c0,0,0-0.1-0.1-0.1c0,0,0-0.1,0-0.1c0,0,0-0.1-0.1-0.1c0,0,0,0,0,0c0,0,0,0,0,0c0,0,0,0,0,0c0,0,0,0,0,0C37,0.1,37,0,36.9,0 c0,0,0,0,0,0c0,0-0.1,0-0.1,0c0,0,0,0-0.1,0c0,0,0,0-0.1,0c0,0-0.1,0-0.1,0c0,0,0,0,0,0c0,0-0.1,0-0.1,0c0,0-0.1,0.1-0.1,0.1 c0,0-0.1,0.1-0.1,0.1c0,0,0,0,0,0.1c0,0,0,0.1,0,0.1c0,0,0,0,0,0.1c0,0,0,0.1,0,0.1c0,0,0,0,0,0.1c0,0,0,0,0,0c0,0,0,0,0,0.1 c0,0,0,0,0,0.1c0,0-0.1,0.1-0.1,0.1c0,0,0,0.1-0.1,0.1C36,1,36,1,35.9,1.1c0,0,0,0.1-0.1,0.1c-0.1,0.1-0.2,0.2-0.2,0.3h-0.1 l-0.3-1.4c0-0.2-0.2-0.3-0.4-0.3c-0.2,0-0.4,0.1-0.4,0.3l-0.8,2.2c-2.9,1-8.7,5.6-9.6,6.4c-0.8,0-2.1,0.3-2.7,0.8 c-0.1,0.1-0.3,0.2-0.4,0.3c0,0,0,0,0,0c-0.7,0.3-1.6,0.5-2.4,0.6c-0.1,0-0.2,0-0.3,0c0,0-0.1,0-0.1,0c-0.5,0-0.9,0-1.1,0 c0,0-0.1,0-0.1,0c-1.2-0.4-2.3-0.7-3.2-0.9C10.3,8.6,9.1,9,8.9,9.1c-1.6,0.4-2.8,1-3.7,1.8c-0.8,0-3.4,0.1-4.7,4 C-0.5,18.2-0.1,21.2,1.9,23.7z M9.7,32c0.3,0.4,0.6,0.7,1,0.9c0,0,0.1,0.1,0.1,0.1c-0.5,0-0.8,0.2-1,0.3c0,0-0.1,0-0.1,0.1 c0-0.1,0-0.2,0-0.3C9.8,32.8,9.9,32.5,9.7,32z M23.2,31.8c-0.1-0.1-0.1-0.2-0.2-0.4c0.1-0.2,0.1-0.4,0.2-0.7 C23.1,31.1,23.1,31.5,23.2,31.8z M23.8,33c0.2,0.2,0.4,0.4,0.4,0.6c0,0,0,0,0,0c-0.5,0.1-0.9,0-1.1-0.1c0.1-0.2,0.3-0.5,0.3-0.8 c0-0.1,0-0.2,0-0.2C23.5,32.7,23.6,32.8,23.8,33z M1.4,15.1c0.2-0.7,0.5-1.3,0.8-1.7c1.3-1.9,3.1-1.7,3.1-1.7c0.1,0,0.2,0,0.3-0.1 c0.5-0.5,1.6-1.2,3.6-1.7c0.1,0,1.8-0.7,7.5,1.2c0,0,0.1,0,0.2,0c0.1,0,3.5,0.2,5-1.1c0.4-0.3,1.7-0.7,2.3-0.6c0.1,0,0.2,0,0.3-0.1 c0.1-0.1,6.7-5.5,9.6-6.4c0.1,0,0.2-0.1,0.3-0.3l0.4-1L34.8,2c0,0.2,0.2,0.3,0.4,0.3c0,0,0,0,0,0l0.6,0c0.1,0,0.2,0,0.3-0.1 c0.1-0.1,0.2-0.2,0.3-0.3c0,0.1-0.1,0.1-0.1,0.2c-0.1,0.1-0.1,0.3,0,0.5c0.1,0.2,0.8,1.2,1.6,1.5c0,0.2,0.1,0.4,0.1,0.5 c0,0.2,0,0.3,2.6,2.7c0,0,0,0,0,0.1c0.1,0.3,0.3,0.9,0.1,1.3c-0.1,0.1-0.1,0.2-0.1,0.2C40.3,9,40,9.1,39.5,9 c-0.2-0.3-0.6-0.6-1.4-0.6l-1.4-0.3c-0.1,0-0.1,0-0.2,0c-0.4,0.1-1.6,0.3-2.1-0.3c-0.1-0.1-0.2-0.1-0.3-0.2c-0.1,0-0.2,0.1-0.3,0.2 c-0.3,0.4-3.2,4.3-2.9,6.4c0,2-0.4,5.4-1.4,5.9c-0.2,0.1-0.2,0.3-0.2,0.4c0,0,0.1,1-0.4,2.8c0,0-0.7,1.6-0.6,3.4l-0.3,1.3 c0,0.6-0.2,3.4,0.3,4.2c0.1,0.1,0.7,1.3,1.2,1.9c-0.3,0.1-0.7,0.1-1.3-0.1c0.2-0.4,0.3-1,0.1-1.4c-0.1-0.3-0.3-0.5-0.6-0.6 c-0.1-0.1-0.2-0.2-0.1-0.3c0-0.1,0-0.1,0.1-0.2c0-0.9,0.1-3.7-0.1-4.3c0,0-0.1-0.1-0.1-0.2l0,0l-0.5-4.7c0-0.2-0.2-0.3-0.3-0.4 c-0.2,0-0.4,0.1-0.4,0.2c-0.3,0.5-1.1,2.2-1.1,3c0,0.4-0.2,1.7-0.6,2.2c0,0,0,0.1-0.1,0.1c-0.1,0.2-0.3,0.7-0.6,1.4 c0.2-0.8,0.2-1.7,0.1-2.3c0.1-0.5,0.7-3.5,0.3-5c0-0.2-0.2-0.3-0.4-0.3c-1.8-0.1-4.3-0.3-5.7-0.8c-0.1,0-1.8-0.3-3-0.9 c-1.2-0.6-3.4-1.7-5,0.8c0,0-1.5,1.8-1.4,3.3c0,0.2,0,0.4-0.2,0.7c0,0,0,0.1,0,0.1c-0.2,1.3-0.2,2.1-0.2,2.6l0,0.1 c0.1,0.6,0.2,1.6,0.5,2.7c0.2,0.6,0.4,1.3,0.8,1.8c-0.1-0.1-0.2-0.2-0.3-0.3c-0.2-0.1-0.3-0.3-0.3-0.4c0-0.2-0.6-2.5-1.2-4 c-0.1-0.1-0.2-0.2-0.4-0.2c0,0,0,0,0,0c-0.2,0-0.3,0.1-0.4,0.3c-0.2,0.4-0.2,0.7-0.3,1c0,0.4,0,0.8-0.1,1.2c-0.1,1.6-0.2,2.5,0.1,3 c0.6,0.7,1.2,1.5,1.4,2c-0.5,0.1-1.1,0.2-1.4,0.1c-0.1-0.1,0-0.1,0.1-0.2c0.5-0.5,0.4-0.9-0.2-1.6l-0.2-0.4 c-0.3-1.7-0.5-3.8-0.5-4.2c0.1-0.1,0.2-0.3,0.1-0.4c0-0.2-0.2-0.5-0.3-0.6c0.4-1.2,1.5-4.5,0.5-5.5c-0.1-0.1-3.9-3.5-2.1-7.4 c0.1-0.2,0-0.4-0.1-0.5c-0.1-0.1-0.4-0.1-0.5,0c-1.3,1-1.2,4.2-0.7,5.6c0.4,1.2,0,3.2-0.2,4.2C0.7,20.8,0.4,18.2,1.4,15.1z"></path> </g> </svg> 