<?xml version="1.0" encoding="UTF-8"?> <!-- Generator: Adobe Illustrator 22.1.0, SVG Export Plug-In . SVG Version: 6.00 Build 0) --> <svg xmlns="http://www.w3.org/2000/svg" xmlns:xlink="http://www.w3.org/1999/xlink" id="Layer_1" x="0px" y="0px" viewBox="0 0 34.5 34.1" style="enable-background:new 0 0 34.5 34.1;" xml:space="preserve"> <style type="text/css"> .st0{fill:#358F8E;} .st1{fill:#156D69;} .st2{fill:#FFDF13;} .st3{fill-rule:evenodd;clip-rule:evenodd;fill:#156D69;} .st4{opacity:0.36;fill-rule:evenodd;clip-rule:evenodd;fill:#156D69;} .st5{fill:#FFFFFF;} .st6{clip-path:url(#SVGID_2_);stroke:#4794E0;stroke-width:5.52;} .st7{fill:#D31515;} .st8{fill:none;stroke:#2C2C2B;stroke-width:0.3354;stroke-linecap:round;stroke-linejoin:round;} .st9{fill:#2C2C2B;} .st10{fill:none;stroke:#2C2C2B;stroke-width:0.6653;} .st11{fill:#D31515;stroke:#2C2C2B;stroke-width:0.8559;stroke-linejoin:round;} .st12{fill:#FFFFFF;stroke:#2C2C2B;stroke-width:0.3354;stroke-linejoin:round;} .st13{fill:#FFFFFF;stroke:#2C2C2B;stroke-width:0.8559;stroke-linejoin:round;} .st14{fill:#FFFFFF;stroke:#2C2C2B;stroke-width:0.5596;} .st15{fill:#FFFFFF;stroke:#2C2C2B;stroke-width:7.289221e-02;} .st16{fill:#009B3A;} .st17{fill:#FEDF00;} .st18{fill:#002776;} .st19{fill:#212125;} .st20{fill:#C40008;} .st21{fill:#FFEC00;} .st22{fill:#294292;} .st23{opacity:0.38;} .st24{opacity:0.26;fill-rule:evenodd;clip-rule:evenodd;fill:#156D69;} .st25{opacity:0.51;fill-rule:evenodd;clip-rule:evenodd;fill:#156D69;} </style> <path class="st1" d="M3.8,34.1c-2.1,0-3.8-1.7-3.8-3.8v-0.1c0-2.1,1.7-3.8,3.8-3.8c0.1,0,0.2,0,0.2-0.1c0-0.1,0-0.2,0-0.2 c-0.5-0.7-0.8-1.5-0.8-2.4v-0.2c0-1.8,1.3-3.4,3.1-3.7c0.1,0,0.1,0,0.2-0.1c0-0.1,0-0.1,0-0.2c-0.1-0.4-0.3-0.8-0.7-1.2l0,0l-0.1,0 c-0.9-0.2-1.6-0.9-1.9-1.8c0-0.1-0.1-0.1-0.2-0.1h0l-0.1,0c-0.3,0.2-0.6,0.2-1,0.2c-1.3,0-2.3-1.1-2.3-2.4c0-1.3,1-2.4,2.3-2.4 c0.8,0,1.6,0.5,2,1.2c0,0.1,0.1,0.1,0.2,0.1h0.1l0.1,0c0.5-0.3,1-0.5,1.6-0.5c1.3,0,2.4,0.9,2.7,2.1c0,0.1,0.1,0.1,0.1,0.2 c1.9,0.7,3.3,2.2,3.8,4c0.1,0.5,0.5,0.8,1,0.8c0.3,0,0.7-0.2,0.8-0.4c0.2-0.3,0.2-0.6,0.1-0.9c-0.3-0.9-0.9-2-1.4-3 C12.3,13.1,11,10.7,11,8c0-4.6,4.2-8,9.8-8c4.3,0,8.1,2.9,10.9,8.4c0.1,0.2,0.1,0.4-0.1,0.6C31.6,9,31,9.6,30.2,10.2 c-0.1,0.1-0.2,0.3-0.2,0.5c0,0.2,0.1,0.3,0.3,0.4c0.8,0.3,1.5,0.7,2,1.2c0.2,0.1,0.4,0.2,0.6,0.2c0.1,0,0.3,0,0.4-0.1 c0.1-0.1,0.2-0.1,0.3-0.2c0.1-0.1,0.2-0.1,0.3-0.1c0.2,0,0.3,0.1,0.4,0.2c0.1,0.1,0.1,0.3,0.1,0.4c0,0.1-0.1,0.3-0.2,0.3l-0.1,0.1 c-0.4,0.2-0.5,0.7-0.4,1.1c0,0.1,0.1,0.2,0.1,0.2c0,0.1,0,0.3,0,0.4c-0.1,0.1-0.2,0.2-0.4,0.2c0,0-0.1,0-0.1,0 c-0.2,0-0.4-0.1-0.5-0.4c-0.6-1.8-2.4-3-4.8-3.2l0,0l-0.1,0c-0.3,0.1-0.6,0.2-0.9,0.3C26.5,12,26,12,25.4,12c-1.4,0-2.8-0.3-4.1-0.9 c-0.1,0-0.1,0-0.2,0c-0.1,0-0.3,0.1-0.4,0.2c-0.1,0.1-0.1,0.3,0,0.4c0.3,0.6,0.7,1.2,1.1,1.9c1,1.4,2.1,3.1,2.2,5 c0,0.5,0.5,0.9,1,0.9h2.4c2.1,0,3.8,1.7,3.8,3.8v0.2c0,0.9-0.3,1.7-0.8,2.4c-0.1,0.1-0.1,0.2,0,0.2c0,0.1,0.1,0.1,0.2,0.1 c2.1,0,3.8,1.7,3.8,3.8v0.1c0,2.1-1.7,3.8-3.8,3.8H3.8z M3.8,27.3c-1.5,0-2.8,1.2-2.8,2.8v0.1c0,1.5,1.2,2.8,2.8,2.8h26.9 c1.5,0,2.8-1.2,2.8-2.8l0-0.1c0-1.5-1.2-2.8-2.8-2.8H3.8z M7,20.6c-1.5,0-2.8,1.2-2.8,2.8v0.1c0,1.5,1.2,2.8,2.8,2.8h20.6 c1.5,0,2.8-1.2,2.8-2.8v-0.1c0-1.5-1.2-2.8-2.8-2.8H7z M18,9c-0.4,0-0.7,0.2-0.7,0.6c-0.3,1.3,0.4,2.4,1.3,3.8c0.8,1.3,1.8,3,2,5.2 c0,0.5,0.5,0.9,1.1,0.9H22c0.3,0,0.6-0.1,0.8-0.4c0.2-0.2,0.3-0.5,0.2-0.8c-0.2-1.6-1.1-2.9-2-4.2c-0.8-1.2-1.6-2.4-1.7-3.7 c0-0.4-0.2-0.7-0.4-0.9c-0.1-0.1-0.3-0.2-0.4-0.4C18.4,9.1,18.2,9,18,9z M20.9,1.1c-4.2,0-8.8,2.4-8.8,7c0,2.3,1.2,4.5,2.3,6.6 c0.8,1.4,1.5,2.8,1.8,4c0.1,0.5,0.5,0.8,1,0.8h1.3c0.3,0,0.6-0.1,0.8-0.3c0.2-0.2,0.3-0.5,0.2-0.8c-0.2-1.8-1-3.2-1.8-4.4l-0.2-0.3 c-1.1-1.7-2.2-3.5-0.6-6.1c0.1-0.1,0.2-0.3,0.4-0.3c0.1-0.1,0.3-0.1,0.5-0.1c0.3,0,0.6,0.2,0.8,0.4c1.1,1.6,2.8,2.7,4.9,3.2l0,0l0,0 c0.1,0,0.2-0.1,0.2-0.2c0-0.1,0-0.2-0.1-0.3c-1.2-0.8-2.2-1.8-2.6-2.8c-0.1-0.1-0.1-0.3,0-0.4c0.1-0.1,0.2-0.3,0.4-0.3l0.1,0 c0,0,0.1,0,0.1,0c0.2,0,0.3,0.1,0.4,0.3c0.6,1.3,2.4,2.9,5,3.5c0.1,0,0.3,0,0.4,0c0.3,0,0.6-0.1,0.8-0.2c0.8-0.4,1.6-1,2.1-1.4 c0.3-0.3,0.4-0.7,0.2-1.1C27.7,3.4,24.5,1.1,20.9,1.1z M9.5,16.2c-0.3,0-0.6,0.2-0.7,0.5c-0.3,0.5-0.7,1-1.3,1.2 c-0.3,0.1-0.4,0.4-0.3,0.7c0,0.1,0.1,0.2,0.1,0.2c0.1,0.3,0.4,0.7,1.2,0.7h2c0.4,0,0.7-0.2,0.9-0.5c0.2-0.3,0.2-0.7,0-1 c-0.4-0.7-0.9-1.2-1.5-1.7C9.9,16.2,9.7,16.2,9.5,16.2z M6.3,13.5c-1,0-1.7,0.8-1.7,1.8s0.8,1.8,1.7,1.8c1,0,1.7-0.8,1.7-1.8 S7.3,13.5,6.3,13.5z M2.4,12.7c-0.7,0-1.3,0.6-1.3,1.3c0,0.7,0.6,1.3,1.3,1.3c0.7,0,1.3-0.6,1.3-1.3C3.7,13.3,3.1,12.7,2.4,12.7z"></path> </svg> 