<?xml version="1.0" encoding="UTF-8"?> <!-- Generator: Adobe Illustrator 22.1.0, SVG Export Plug-In . SVG Version: 6.00 Build 0) --> <svg xmlns="http://www.w3.org/2000/svg" xmlns:xlink="http://www.w3.org/1999/xlink" id="Layer_1" x="0px" y="0px" viewBox="0 0 34.5 30.5" style="enable-background:new 0 0 34.5 30.5;" xml:space="preserve"> <style type="text/css"> .st0{fill:#358F8E;} .st1{fill:#156D69;} .st2{fill:#FFDF13;} .st3{fill-rule:evenodd;clip-rule:evenodd;fill:#156D69;} .st4{opacity:0.36;fill-rule:evenodd;clip-rule:evenodd;fill:#156D69;} .st5{fill:#FFFFFF;} .st6{clip-path:url(#SVGID_2_);stroke:#4794E0;stroke-width:5.52;} .st7{fill:#D31515;} .st8{fill:none;stroke:#2C2C2B;stroke-width:0.3354;stroke-linecap:round;stroke-linejoin:round;} .st9{fill:#2C2C2B;} .st10{fill:none;stroke:#2C2C2B;stroke-width:0.6653;} .st11{fill:#D31515;stroke:#2C2C2B;stroke-width:0.8559;stroke-linejoin:round;} .st12{fill:#FFFFFF;stroke:#2C2C2B;stroke-width:0.3354;stroke-linejoin:round;} .st13{fill:#FFFFFF;stroke:#2C2C2B;stroke-width:0.8559;stroke-linejoin:round;} .st14{fill:#FFFFFF;stroke:#2C2C2B;stroke-width:0.5596;} .st15{fill:#FFFFFF;stroke:#2C2C2B;stroke-width:7.289221e-02;} .st16{fill:#009B3A;} .st17{fill:#FEDF00;} .st18{fill:#002776;} .st19{fill:#212125;} .st20{fill:#C40008;} .st21{fill:#FFEC00;} .st22{fill:#294292;} .st23{opacity:0.38;} .st24{opacity:0.26;fill-rule:evenodd;clip-rule:evenodd;fill:#156D69;} .st25{opacity:0.51;fill-rule:evenodd;clip-rule:evenodd;fill:#156D69;} </style> <path class="st1" d="M34.6,14.4c0.1-0.8-0.7-1.7-1.7-2.7c-0.6-0.7-1.3-1.4-1.5-1.9c-0.4-1.6-2.4-1.8-3.3-1.9 c-1.3-3.1-4.8-8.2-13.4-7.5l-0.2,0l-0.1,0.2c-0.2,0.6-0.1,1.3,0.1,1.9c-0.6,0.1-1.2,0.2-1.7,0.3l-0.4,0.1l0.2,0.4 c1.9,4.5,5.5,7.1,9.9,7.1c0,0.3,0,0.6-0.2,0.8c-0.3,0.3-1.1,0.7-2.9,0.5c-0.6-0.1-1.3-0.2-2.1-0.4C12.7,10.4,6,9,3.3,20 c-0.1,0.6-0.2,1.3-0.1,1.9c-0.8-0.2-1.6,0-2.3,0.4c-0.8,0.6-1.1,1.6-1,3c0.3,4.5,5.2,4.8,5.3,4.8H20l0.1-0.2c0-0.1,0.7-1.3,0.1-2.3 c-0.4-0.6-1.1-1-2.2-1c-0.3,0-0.7,0-1,0.1c0.7-0.7,1.2-1.6,1.6-2.6c0.8,2,2.4,5.5,4.2,6.1h0.1h4.2l0.1-0.2c0,0,0.6-1.1,0.1-2 c-0.4-0.6-1.1-0.9-2.3-0.9c-0.5,0-1.4-0.1-1.6-0.8c-0.2-0.9,0.9-2.3,2.7-3c2.9-1,3.4-5.1,3.5-6.4C30.8,17,34.2,17,34.6,14.4z M33.9,14.3c-0.4,2.4-4.6,1.9-4.6,1.9l-0.4-0.1v0.4c0,0.1-0.1,5.1-3,6.1c-2,0.7-3.4,2.4-3.2,3.8c0.1,0.4,0.4,1.4,2.3,1.4 c0.9,0,1.5,0.2,1.7,0.5c0.1,0.3,0.1,0.7-0.1,1.1H23c-1.8-0.7-3.6-5.2-4.2-6.9c0-0.2,0-0.5-0.1-0.7L18,21.9c0,0.2,0.1,0.5,0.1,0.7 c0,2.6-2.7,4.7-3,4.9h0l0.4,0.6l0,0c0.7-0.5,1.6-0.8,2.5-0.7c0.8,0,1.4,0.3,1.6,0.7c0.3,0.5,0.1,1.1-0.1,1.4H5.2 c-0.1,0-4.3-0.3-4.5-4.1c-0.1-1.2,0.2-2,0.7-2.4c0.8-0.6,2.2-0.1,2.2-0.1L4.2,23l-0.2-0.7c-0.1-0.7-0.1-1.4,0-2.2 c2.4-10.3,8.5-9,13-8.1c0.8,0.1,1.5,0.3,2.1,0.4c1.8,0.2,3,0,3.6-0.8c0.4-0.5,0.5-1.2,0.3-1.8L23,9.7h-0.3c-4.1,0.1-7.5-2.2-9.3-6.3 c6.7-1.6,12.6,5.9,12.7,6l0.6-0.5c-0.2-0.3-5.2-6.5-11.4-6.5c-0.2-0.4-0.2-0.9-0.2-1.3c8-0.5,11.2,4.2,12.4,7.1l0.1,0.3h0.2 c1.7,0.1,2.7,0.5,2.9,1.3c0.2,0.7,0.9,1.4,1.6,2.3C33.1,12.9,34,13.8,33.9,14.3z"></path> </svg> 