<?xml version="1.0" encoding="UTF-8"?> <!-- Generator: Adobe Illustrator 22.1.0, SVG Export Plug-In . SVG Version: 6.00 Build 0) --> <svg xmlns="http://www.w3.org/2000/svg" xmlns:xlink="http://www.w3.org/1999/xlink" id="Layer_1" x="0px" y="0px" viewBox="0 0 44.4 27.5" style="enable-background:new 0 0 44.4 27.5;" xml:space="preserve"> <style type="text/css"> .st0{fill:#358F8E;} .st1{fill:#156D69;} .st2{fill:#FFDF13;} .st3{fill-rule:evenodd;clip-rule:evenodd;fill:#156D69;} .st4{opacity:0.36;fill-rule:evenodd;clip-rule:evenodd;fill:#156D69;} .st5{fill:#FFFFFF;} .st6{clip-path:url(#SVGID_2_);stroke:#4794E0;stroke-width:5.52;} .st7{fill:#D31515;} .st8{fill:none;stroke:#2C2C2B;stroke-width:0.3354;stroke-linecap:round;stroke-linejoin:round;} .st9{fill:#2C2C2B;} .st10{fill:none;stroke:#2C2C2B;stroke-width:0.6653;} .st11{fill:#D31515;stroke:#2C2C2B;stroke-width:0.8559;stroke-linejoin:round;} .st12{fill:#FFFFFF;stroke:#2C2C2B;stroke-width:0.3354;stroke-linejoin:round;} .st13{fill:#FFFFFF;stroke:#2C2C2B;stroke-width:0.8559;stroke-linejoin:round;} .st14{fill:#FFFFFF;stroke:#2C2C2B;stroke-width:0.5596;} .st15{fill:#FFFFFF;stroke:#2C2C2B;stroke-width:7.289221e-02;} .st16{fill:#009B3A;} .st17{fill:#FEDF00;} .st18{fill:#002776;} .st19{fill:#212125;} .st20{fill:#C40008;} .st21{fill:#FFEC00;} .st22{fill:#294292;} .st23{opacity:0.38;} .st24{opacity:0.26;fill-rule:evenodd;clip-rule:evenodd;fill:#156D69;} .st25{opacity:0.51;fill-rule:evenodd;clip-rule:evenodd;fill:#156D69;} </style> <path class="st1" d="M41,14.5c-0.1-6.1-3.1-11.1-4.4-12.9c-0.8-1.2-4.5-1.1-5.8-1C29.9,0.3,29,0,28,0c-2.2-0.1-5.2,0.1-6.6,1.8H10.9 c-0.2,0-5,0.7-7.3,4.1C3,5.9,2.4,6.1,2,6.4c-1.3,1-1.9,3.1-2,6.3h0.9c0-3.6,0.9-5,1.6-5.6C2.7,7,2.8,7,3,6.9C2.7,7.4,2.6,8,2.4,8.5 c-0.6,2.8-0.1,4.6,0.6,5.8L2.2,27.7h12.2l0-0.4c0.1-0.6-0.1-1.2-0.5-1.7c-0.5-0.7-0.8-1.5-0.9-2.3c-0.2-1.5,0.3-3,1.4-4 c1.7,0.2,3.3,0.2,5,0c0.2,1.2,0.2,2.9,0,3.3c-0.5,1-0.4,3.2-0.4,3.4l0,0.4h4.1v1.2h7.3l-0.1-0.6c0-0.1-0.2-0.8-0.4-1.5 c0.7,0.5,1.6,0.9,2.4,1.1c0.3,0.1,0.7,0.1,1.1,0.1c1.8,0,4.3-0.9,6.1-5.4c0.5-1.3,0.9-2.7,1.1-4.1c1.1,0.2,2.3,0.3,3.4,0.3l0-0.9 c-1.1,0-2.2-0.1-3.3-0.3c0-0.3,0.1-0.6,0.1-0.9c0.5,0.1,1,0.1,1.5,0.1c0.6,0,1.3-0.1,1.9-0.2l-0.2-0.9C43.1,14.7,42,14.7,41,14.5z M12.2,23.4c0.1,1,0.5,1.9,1,2.7c0.2,0.2,0.3,0.4,0.3,0.6H8.9c-0.3-0.9-0.8-2.6-0.7-3.6c0.1-1.2,2.4-4.2,3.7-4.8 c0.4,0.4,0.9,0.6,1.5,0.7C12.3,20.3,11.9,21.9,12.2,23.4L12.2,23.4z M20,25.6c0-0.9,0-2,0.3-2.5c0.4-0.8,0.2-2.9,0.1-3.9 c1-0.1,1.9-0.4,2.8-0.9v7.3H20z M24.1,26.8V16.6l-0.7,0.6c-2,1.5-6.4,1.6-9,1.2c-0.5-0.1-1-0.2-1.5-0.4c0.6-0.4,1.4-1.3,1.6-3.3 l-0.9-0.1c-0.2,2.5-1.5,2.8-1.6,2.8l0,0c-1.9,0.3-4.6,4.1-4.8,5.7c-0.1,1.1,0.4,2.7,0.7,3.6H3.1l0.8-11.3c0.2,0.2,0.5,0.4,0.8,0.6 l0.4-0.8c0,0-2.8-1.5-1.8-6.5c1-4.8,7.2-5.9,7.7-5.9h9.8c-0.4,1-0.3,2.3,0.3,3.8c1.6,3.9,5.8,6.6,10.1,6.7c-1.2,1.2-1.9,3.3-2.3,4.9 c-0.8,1-1.2,2.3-1.3,3.6c0.1,1,0.5,1.9,1.1,2.6l-0.1,0.1c0.4,0.8,0.6,1.5,0.8,2.4L24.1,26.8z M33.9,13.7c1,1.7,1,2.8,0.8,3.4 c-1.9-1.1-3.4-0.8-4.3-0.3c-0.1,0.1-0.2,0.1-0.3,0.2c0.6-2,1.5-3.3,2.6-3.8c0.2,0,0.5-0.1,0.7-0.1C33.6,13.3,33.8,13.5,33.9,13.7z M38.8,21.1c-1.5,3.6-3.7,5.2-6.1,4.7c-2.5-0.5-4.2-2.8-4.2-4.1c0.1-1.2,0.5-2.3,1.2-3.2l0,0c0.3-0.4,0.7-0.7,1.2-1 c1.1-0.6,2.4-0.4,3.8,0.5c0.7,0.5,0.9,1.8,0.6,3c-0.2,0.9-1.1,1.6-2,1.6c-1.4,0-1.7-0.9-1.8-1.3c-0.2-0.9,0.2-1.7,1-2.2 c0.7-0.3,0.8,0,0.9,0.1c0.3,0.5,0.2,1.1-0.2,1.6l0.6,0.7c0.7-0.7,0.9-1.8,0.4-2.7c-0.4-0.7-1.2-0.9-2.1-0.5 c-1.2,0.6-1.8,1.9-1.5,3.2c0.3,1.2,1.4,2.1,2.7,2h0c1.4,0,2.5-0.9,2.9-2.3c0.5-1.4,0.2-2.9-0.6-3.7c0.3-0.7,0.3-1.5,0.1-2.3 c1.3,0.9,2.7,1.5,4.3,1.8C39.7,18.5,39.3,19.8,38.8,21.1L38.8,21.1z M34.6,13.1c-0.1-0.1-0.1-0.2-0.2-0.3l0,0 c-0.1-0.1-0.2-0.3-0.3-0.5L34,12l-0.3,0.1c-0.6,0.1-1.3,0.2-1.9,0.2C31.3,11,31,9.2,31.5,8.7L30.9,8c-1,0.9-0.5,3.1-0.1,4.3 C27,12,23.3,9.6,21.9,6.1c-0.6-1.5-0.6-2.7,0-3.5c0.9-1.2,3-1.8,6-1.7c2.1,0.1,3.1,0.7,3.5,1.2c0.2,0.3,0.4,0.7,0.3,1l0.9,0.1 c0.1-0.6-0.1-1.3-0.5-1.7l0,0c1.8,0,3.5,0.2,3.8,0.7c1.3,1.8,4.7,7.4,4.1,14C37.6,15.7,35.8,14.6,34.6,13.1L34.6,13.1z"></path> </svg> 