<?xml version="1.0" encoding="UTF-8"?> <!-- Generator: Adobe Illustrator 22.1.0, SVG Export Plug-In . SVG Version: 6.00 Build 0) --> <svg xmlns="http://www.w3.org/2000/svg" xmlns:xlink="http://www.w3.org/1999/xlink" id="Layer_1" x="0px" y="0px" viewBox="0 0 57.7 51.6" style="enable-background:new 0 0 57.7 51.6;" xml:space="preserve"> <style type="text/css"> .st0{fill:#358F8E;} .st1{fill:#156D69;} .st2{fill:#FFDF13;} .st3{fill-rule:evenodd;clip-rule:evenodd;fill:#156D69;} .st4{opacity:0.36;fill-rule:evenodd;clip-rule:evenodd;fill:#156D69;} .st5{fill:#FFFFFF;} .st6{clip-path:url(#SVGID_2_);stroke:#4794E0;stroke-width:5.52;} .st7{fill:#D31515;} .st8{fill:none;stroke:#2C2C2B;stroke-width:0.3354;stroke-linecap:round;stroke-linejoin:round;} .st9{fill:#2C2C2B;} .st10{fill:none;stroke:#2C2C2B;stroke-width:0.6653;} .st11{fill:#D31515;stroke:#2C2C2B;stroke-width:0.8559;stroke-linejoin:round;} .st12{fill:#FFFFFF;stroke:#2C2C2B;stroke-width:0.3354;stroke-linejoin:round;} .st13{fill:#FFFFFF;stroke:#2C2C2B;stroke-width:0.8559;stroke-linejoin:round;} .st14{fill:#FFFFFF;stroke:#2C2C2B;stroke-width:0.5596;} .st15{fill:#FFFFFF;stroke:#2C2C2B;stroke-width:7.289221e-02;} .st16{fill:#009B3A;} .st17{fill:#FEDF00;} .st18{fill:#002776;} .st19{fill:#212125;} .st20{fill:#C40008;} .st21{fill:#FFEC00;} .st22{fill:#294292;} .st23{opacity:0.38;} .st24{opacity:0.26;fill-rule:evenodd;clip-rule:evenodd;fill:#156D69;} .st25{opacity:0.51;fill-rule:evenodd;clip-rule:evenodd;fill:#156D69;} </style> <g> <g> <path class="st1" d="M57.5,22.5c-0.4-1.9-1.8-3.5-3.7-4.1c0-0.1,0.1-0.1,0.1-0.2c0.7-1.7,0.5-3.7-0.7-5.2c-1-1.6-2.8-2.5-4.7-2.4 c0-0.1,0-0.2,0-0.3c0.1-1.9-0.8-3.7-2.4-4.7c-1.4-1.1-3.2-1.4-4.8-0.8c-0.6-1.8-2-3.1-3.8-3.5C36,0.8,34.2,1,32.9,2 c-1-1.3-2.6-2.1-4.3-2c-1.7-0.1-3.3,0.6-4.4,1.9c-1.3-0.9-3-1.1-4.5-0.5C18,1.8,16.5,3.1,16,4.9c-1.6-0.6-3.5-0.3-4.8,0.8 c-1.6,1-2.5,2.8-2.5,4.7c0,0.1,0,0.2,0,0.3C6.8,10.5,5,11.4,4,13c-1.2,1.5-1.4,3.5-0.7,5.2c0,0.1,0.1,0.1,0.1,0.2 c-1.9,0.6-3.3,2.2-3.6,4.1c-0.5,1.7-0.1,3.5,1,4.8c2.5,2.8,8.5,3.8,14.3,3.9c-0.3,2.8,0.2,5.7,1.6,8.2c0,0,0,0.1,0.1,0.1 c1.3,2.4,3.3,4.3,5.7,5.5v0.3c0,1.6,0.7,2.8,1.7,3.3v1.3h-1.4c-0.5,0-0.9,0.4-0.9,0.9c0,0.5,0.4,0.9,0.9,0.9H25 c0.5,0,0.9-0.4,0.9-0.9c0,0,0,0,0,0v-2.1c0.8-0.5,1.3-1.3,1.5-2.2c0.8,0.1,1.6,0.1,2.4,0c0.2,0.9,0.7,1.7,1.6,2.2v2.1 c0,0.5,0.4,0.9,0.9,0.9h2.2c0.5,0,0.9-0.4,0.9-0.9c0-0.5-0.4-0.9-0.9-0.9h-1.4v-1.3c1-0.5,1.7-1.8,1.7-3.3V45 c2.4-1.2,4.4-3.1,5.7-5.5c0,0,0-0.1,0.1-0.1c1.4-2.5,2-5.4,1.6-8.2C48,31,54,30.1,56.5,27.3C57.6,26,58,24.2,57.5,22.5z M48.1,12.4c1.4-0.3,2.9,0.3,3.7,1.6c0.8,1,1,2.4,0.6,3.6c-1.3,3.1-6.7,5.9-12.3,8c-0.4-0.7-0.9-1.3-1.5-1.9 C42.7,20.3,46.9,16.1,48.1,12.4z M41.6,6.6c1.2-0.6,2.5-0.4,3.5,0.5c1.1,0.7,1.8,1.9,1.7,3.2c-0.1,3.5-4.7,8.2-9.5,12.1 c-0.4-0.3-0.7-0.6-1.1-0.9c-0.1-0.1-0.3-0.2-0.4-0.3C38.9,16.5,41.8,10.7,41.6,6.6z M37,3c1.3,0.3,2.3,1.3,2.7,2.5 c1,3.3-1.7,9-4.9,14.2c-0.3-0.6-0.4-1.3-0.4-2c0-0.6,0.1-1.3,0.4-1.9c0.4-0.8,0.6-1.7,0.6-2.7c0-1.2-0.3-2.4-0.9-3.4 c0.2-2.1,0-4.2-0.7-6.3C34.6,2.8,35.9,2.6,37,3z M25.3,3.3c0.7-1.1,2-1.7,3.3-1.6c1.2-0.1,2.3,0.5,3,1.4c0.8,1.1,1.1,2.7,1.1,4.7 c-2.5-2-6.1-1.9-8.5,0.3C24.2,6.1,24.5,4.5,25.3,3.3L25.3,3.3z M17.6,5.5C18,4.2,19,3.3,20.2,3c1-0.4,2.2-0.2,3.1,0.4 c-0.8,1.8-1,4.3-0.8,6.9c-0.8,1.7-0.9,3.7-0.1,5.5c0.3,0.6,0.4,1.3,0.4,2c0,0.6-0.1,1.3-0.4,1.9C19.2,14.5,16.6,8.8,17.6,5.5z M12.1,7.1c1-0.8,2.4-1,3.6-0.5c-0.2,4.1,2.7,9.8,5.7,14.6c-0.2,0.2-0.5,0.5-0.7,0.6c-0.3,0.2-0.5,0.4-0.8,0.6 c-4.8-3.9-9.4-8.6-9.5-12.1C10.4,9,11,7.8,12.1,7.1z M5.4,14c0.7-1.3,2.2-1.9,3.7-1.6c1.3,3.7,5.4,7.9,9.5,11.2 c-0.5,0.6-1,1.3-1.5,1.9c-5.6-2.1-11-4.8-12.3-8C4.4,16.4,4.6,15,5.4,14z M15.4,29.5c-5.7-0.2-11.3-1-13.4-3.4 c-0.8-0.9-1-2.1-0.6-3.2c0.3-1.5,1.4-2.7,2.9-3c2.3,2.9,7.2,5.4,12,7.1C16,27.9,15.7,28.7,15.4,29.5z M39.5,37.6 C38.4,36,37.7,34,37.6,32c0-0.5-0.3-0.9-0.8-0.9c-0.5,0-0.9,0.3-0.9,0.8c0,0,0,0.1,0,0.1c0.1,2.6,1.1,5.2,2.8,7.2 c-1.2,2-3,3.5-5.1,4.5c-0.3,0.1-0.5,0.4-0.5,0.8v0.8c0,1.1-0.5,1.8-0.8,1.8s-0.8-0.6-0.8-1.7c0-0.3-0.1-0.5-0.3-0.6 c-0.2-0.1-0.3-0.2-0.5-0.2h-0.1c-0.6,0.1-1.2,0.1-1.8,0.1c-0.6,0-1.2,0-1.8-0.1c-0.2,0-0.5,0-0.6,0.2c-0.2,0.1-0.3,0.4-0.3,0.6 c-0.1,1.1-0.6,1.7-0.8,1.7s-0.8-0.7-0.8-1.8v-0.8c0-0.3-0.2-0.6-0.5-0.8c-2.1-1-3.9-2.5-5.1-4.5c1.7-2,2.7-4.6,2.8-7.2 c0-0.5-0.4-0.9-0.9-0.9c-0.5,0-0.9,0.4-0.9,0.9c0,0,0,0,0,0c-0.1,2-0.8,3.9-1.9,5.6c-2.2-5.1-0.6-11.1,3.9-14.4 c1.8-1.3,2.8-3.3,2.9-5.5c0-0.9-0.1-1.8-0.5-2.7c-1.1-2.5,0.1-5.5,2.6-6.5c2.5-1.1,5.5,0.1,6.5,2.6c0.5,1.3,0.5,2.7,0,3.9 c-0.4,0.8-0.6,1.7-0.5,2.6c0,2.1,0.9,4,2.6,5.3l0,0c3.3,2.2,5.3,5.9,5.3,9.9C40.5,34.5,40.2,36.1,39.5,37.6z M55.2,26.2 c-2.1,2.4-7.7,3.2-13.4,3.4c-0.2-0.8-0.5-1.7-0.9-2.4c4.8-1.8,9.7-4.2,12-7.1c1.5,0.3,2.6,1.5,2.9,3C56.2,24,56,25.3,55.2,26.2z M26.4,13.4c-0.5,0-0.9-0.4-0.9-0.9c0-0.5,0.4-0.9,0.9-0.9c0.5,0,0.9,0.4,0.9,0.9C27.3,13,26.9,13.4,26.4,13.4L26.4,13.4z M31.7,12.5c0,0.5-0.4,0.9-0.9,0.9s-0.9-0.4-0.9-0.9c0-0.5,0.4-0.9,0.9-0.9C31.3,11.6,31.7,12,31.7,12.5L31.7,12.5z M30.7,14.2 c0.4,0.3,0.4,0.8,0.2,1.2c0,0,0,0,0,0l-1.7,2.1c-0.2,0.2-0.4,0.3-0.6,0.3l0,0c-0.3,0-0.5-0.1-0.6-0.3l-1.5-1.9 c-0.3-0.4-0.2-0.9,0.2-1.2c0.4-0.3,0.9-0.2,1.2,0.2l0.9,1.1l1-1.2C29.9,14.1,30.4,14,30.7,14.2z M28.6,19.6L28.6,19.6 c-0.3,0-0.6,0.1-0.7,0.4c-0.4,0.6-2.3,3.8-1.4,5.5c0.4,0.7,1.2,1.1,2.1,1c0.8,0.1,1.6-0.3,2.1-1c1-1.7-0.9-4.9-1.3-5.5 C29.2,19.7,28.9,19.6,28.6,19.6z M29.2,24.7c-0.1,0.1-0.4,0.2-0.6,0.2s-0.5,0-0.6-0.2c-0.2-0.4,0.1-1.4,0.6-2.5 C29.1,23.3,29.4,24.3,29.2,24.7z"></path> </g> </g> </svg> 