<?xml version="1.0" encoding="UTF-8"?> <!-- Generator: Adobe Illustrator 22.1.0, SVG Export Plug-In . SVG Version: 6.00 Build 0) --> <svg xmlns="http://www.w3.org/2000/svg" xmlns:xlink="http://www.w3.org/1999/xlink" id="Layer_1" x="0px" y="0px" viewBox="0 0 60.3 40" style="enable-background:new 0 0 60.3 40;" xml:space="preserve"> <style type="text/css"> .st0{fill:#358F8E;} .st1{fill:#156D69;} .st2{fill:#FFDF13;} .st3{fill-rule:evenodd;clip-rule:evenodd;fill:#156D69;} .st4{opacity:0.36;fill-rule:evenodd;clip-rule:evenodd;fill:#156D69;} .st5{fill:#FFFFFF;} .st6{clip-path:url(#SVGID_2_);stroke:#4794E0;stroke-width:5.52;} .st7{fill:#D31515;} .st8{fill:none;stroke:#2C2C2B;stroke-width:0.3354;stroke-linecap:round;stroke-linejoin:round;} .st9{fill:#2C2C2B;} .st10{fill:none;stroke:#2C2C2B;stroke-width:0.6653;} .st11{fill:#D31515;stroke:#2C2C2B;stroke-width:0.8559;stroke-linejoin:round;} .st12{fill:#FFFFFF;stroke:#2C2C2B;stroke-width:0.3354;stroke-linejoin:round;} .st13{fill:#FFFFFF;stroke:#2C2C2B;stroke-width:0.8559;stroke-linejoin:round;} .st14{fill:#FFFFFF;stroke:#2C2C2B;stroke-width:0.5596;} .st15{fill:#FFFFFF;stroke:#2C2C2B;stroke-width:7.289221e-02;} .st16{fill:#009B3A;} .st17{fill:#FEDF00;} .st18{fill:#002776;} .st19{fill:#212125;} .st20{fill:#C40008;} .st21{fill:#FFEC00;} .st22{fill:#294292;} .st23{opacity:0.38;} .st24{opacity:0.26;fill-rule:evenodd;clip-rule:evenodd;fill:#156D69;} .st25{opacity:0.51;fill-rule:evenodd;clip-rule:evenodd;fill:#156D69;} </style> <g> <path class="st1" d="M60.1,19v-5c0-0.5-0.4-0.9-0.8-1L55,12.3c-0.7-0.1-1.3-0.6-1.6-1.3l-1.2-3.3c-0.2-0.5-0.4-0.9-0.7-1.3 c1.6-1.3,2.6-3.3,2.6-5.4c0-0.6-0.4-1-1-1l-37,0c-7.2,0-13,5.8-13,13v11.5l-2.6,1.7c-0.4,0.2-0.5,0.7-0.4,1.1l3,12 c0.1,0.4,0.5,0.8,1,0.8h5c0,0,0.1,0,0.1,0c0.5-0.1,0.9-0.6,0.9-1.1l-0.9-7.1l3.5-0.6c1-0.2,2-0.6,3-1.1c4.4,1.2,9,1.8,13.7,1.8 c2.8,0,5.6-0.2,8.4-0.7c0.1,0.4,0.3,0.7,0.5,1.1l4,7.2c0.2,0.3,0.5,0.5,0.9,0.5h4c0.1,0,0.1,0,0.2,0c0.5-0.1,0.9-0.6,0.8-1.2 l-1.9-10.6l13.5-8.4C59.9,19.7,60.1,19.3,60.1,19z M58.1,18.4l-12,7.5V22h-2v6c0,0.1,0,0.1,0,0.2l1.8,9.8h-2.2L40,31.3 c-0.6-1-0.9-2.2-0.9-3.4V22h-2v5.9c0,0.5,0,0.9,0.1,1.4c-6.5,1.1-13.2,0.8-19.6-0.8c1.6-1.7,2.5-3.9,2.5-6.2V22h-2v0.3 c0,3.4-2.4,6.3-5.7,6.9L7.9,30c-0.5,0.1-0.9,0.6-0.8,1.1L8,38H4.9L2.3,27.4l2.4-1.6C5,25.6,5.1,25.3,5.1,25v-7.4 c0.5,0.2,1,0.3,1.5,0.4c1.9,0,3.5-1.6,3.5-3.5c0-0.8,0.7-1.5,1.5-1.5h1.5v-2h-1.5c-1.9,0-3.5,1.6-3.5,3.5l0,0 c0,0.8-0.7,1.5-1.5,1.5s-1.5-0.7-1.5-1.5V13c0-6.1,4.9-11,11-11h24.3c0.2,0,0.4,0,0.7,0v0h11c-0.3,1.5-1.3,2.8-2.7,3.4l-0.4,0.2 c-1.3,0.6-2.8,0.5-4.1-0.3l-1.1-0.9L42.5,6L43.6,7c0,0,0.1,0,0.1,0.1c1.8,1.1,4,1.3,6,0.4l0.1-0.1c0.2,0.3,0.4,0.7,0.6,1.1l1.2,3.2 c0.5,1.4,1.7,2.3,3.1,2.6l3.4,0.6V18.4z"></path> </g> </svg> 