<?xml version="1.0" encoding="UTF-8"?> <!-- Generator: Adobe Illustrator 22.1.0, SVG Export Plug-In . SVG Version: 6.00 Build 0) --> <svg xmlns="http://www.w3.org/2000/svg" xmlns:xlink="http://www.w3.org/1999/xlink" id="Layer_1" x="0px" y="0px" viewBox="0 0 49.6 37.5" style="enable-background:new 0 0 49.6 37.5;" xml:space="preserve"> <style type="text/css"> .st0{fill:#358F8E;} .st1{fill:#156D69;} .st2{fill:#FFDF13;} .st3{fill-rule:evenodd;clip-rule:evenodd;fill:#156D69;} .st4{opacity:0.36;fill-rule:evenodd;clip-rule:evenodd;fill:#156D69;} .st5{fill:#FFFFFF;} .st6{clip-path:url(#SVGID_2_);stroke:#4794E0;stroke-width:5.52;} .st7{fill:#D31515;} .st8{fill:none;stroke:#2C2C2B;stroke-width:0.3354;stroke-linecap:round;stroke-linejoin:round;} .st9{fill:#2C2C2B;} .st10{fill:none;stroke:#2C2C2B;stroke-width:0.6653;} .st11{fill:#D31515;stroke:#2C2C2B;stroke-width:0.8559;stroke-linejoin:round;} .st12{fill:#FFFFFF;stroke:#2C2C2B;stroke-width:0.3354;stroke-linejoin:round;} .st13{fill:#FFFFFF;stroke:#2C2C2B;stroke-width:0.8559;stroke-linejoin:round;} .st14{fill:#FFFFFF;stroke:#2C2C2B;stroke-width:0.5596;} .st15{fill:#FFFFFF;stroke:#2C2C2B;stroke-width:7.289221e-02;} .st16{fill:#009B3A;} .st17{fill:#FEDF00;} .st18{fill:#002776;} .st19{fill:#212125;} .st20{fill:#C40008;} .st21{fill:#FFEC00;} .st22{fill:#294292;} .st23{opacity:0.38;} .st24{opacity:0.26;fill-rule:evenodd;clip-rule:evenodd;fill:#156D69;} .st25{opacity:0.51;fill-rule:evenodd;clip-rule:evenodd;fill:#156D69;} </style> <path class="st1" d="M48.7,5.6l-1.2,1.6H43L43.6,6l2.5-2.8c0.2-0.2,0.2-0.5,0-0.7c-0.2-0.2-0.5-0.2-0.7,0l0,0l-2.1,2.4l-0.9-1.4 c-0.1-0.3-0.4-0.4-0.7-0.3c-0.3,0.1-0.4,0.4-0.3,0.7c0,0,0,0.1,0.1,0.1l1.1,1.8l-0.7,1.4l-3.5-0.5l0.7-2.9l2.7-2.6 c0.2-0.2,0.2-0.5,0-0.7c-0.2-0.2-0.5-0.2-0.7,0l0,0l-2.2,2.2L38.3,1c-0.1-0.3-0.4-0.4-0.6-0.3c-0.3,0.1-0.4,0.4-0.3,0.6l0.8,2.2 l-0.7,3.2l-1,0.5L34.1,6l1.1-1.7c0.2-0.2,0.1-0.5-0.1-0.7c-0.2-0.2-0.5-0.1-0.7,0.1c0,0,0,0,0,0l-1.1,1.6l-1.5-1.8l2.1-1.8 c0.2-0.2,0.2-0.5,0.1-0.7c-0.2-0.2-0.5-0.2-0.7-0.1l-2,1.7l-1.2-2.5c-0.1-0.2-0.4-0.3-0.7-0.2c-0.2,0.1-0.3,0.4-0.2,0.6l1.4,3.1 c0,0,0,0.1,0.1,0.1l0,0l2.3,2.8c0,0,0,0,0.1,0.1c0,0,0,0,0,0l0,0l0,0L36,8.2l0,0.1c-0.8-0.5-1.7-0.8-2.2-0.8c-0.5,0.1-0.8,0.5-0.7,1 c0.1,0.7,0.4,1.4,0.9,2l-3.3,3.8c-2.8,0.1-5.7,0.3-8.4,0.8c-1.8,0.3-3.9,0.1-6-0.1c-2.9-0.3-5.7-0.6-7.3,0.7 c-0.5,0.4-0.9,0.9-1.3,1.4c-0.8,0.2-3.1,1.1-3.1,6c0,0.3,0.2,0.5,0.5,0.5c0.5,0,1-0.3,1.4-0.7c0,0.5,0,0.9,0,1.4v0.4 c-0.1,0.3-0.2,0.6-0.4,0.9c-0.2,0.3-0.3,0.7-0.3,1c-0.8,0.4-1.5,0.8-2.2,1.3c-0.1,0.1-0.1,0.1-0.2,0.2L0,35.7c0,0.1,0,0.1,0,0.2V37 c0,0.3,0.2,0.5,0.5,0.5h1.7c0.3,0,0.5-0.2,0.5-0.5l0-0.9c0.2-0.6,1.4-4.2,4.5-6.3c0.6-0.4,1.2-0.8,1.7-1.2c-0.2,0.3-0.4,0.5-0.5,0.8 c-0.1,0.2-0.4,0.8,2.7,6.8L11.1,37c0,0.3,0.2,0.5,0.5,0.5c0,0,0,0,0,0h2c0.3,0,0.5-0.2,0.5-0.4c0.1-0.8-0.5-2-1.5-3.9 c-0.3-0.5-0.5-1.1-0.7-1.5c-0.2-0.3-0.2-0.6-0.2-1c0-0.1,0.1-0.2,0.2-0.2c0.1,0,0.2-0.1,0.2-0.1l4.4-4.2l0.4,0.1 c2,0.8,3.2,1,7.6,0.9c0.2,1,0.8,3.5,1.5,4.6c-0.3,1.6-0.6,5-0.6,5.1c0,0.3,0.2,0.5,0.5,0.5c0,0,0,0,0,0h1.7c0.3,0,0.5-0.2,0.5-0.5 v-0.7c0.3-1.7,0.5-3.3,0.6-5c0-0.9,0.1-2.8,0.2-3.9c1.6,0.9,3.5,1.9,3.5,1.9c0.4,0.3,0.8,0.7,0.9,1.2c0.2,1,1.6,6.5,1.7,6.6 c0.1,0.2,0.3,0.4,0.5,0.4h1.8c0.1,0,0.2,0,0.3-0.1c0.4-0.4,0.3-1.3-0.4-2.8c-0.7-1.9-1.4-3.8-1.8-5.8c0-0.3-0.2-1.1-1.6-2 c-0.3-0.2-0.6-0.4-1-0.5l-0.2-0.1c1-0.3,1.9-0.9,2.6-1.7c0.4-0.4,0.8-0.7,1.2-1.1c1-0.8,1.8-1.9,2.1-3.1l1-4.3 c0.4,0,0.9-0.1,1.3-0.1c0.6-0.1,1.2-0.1,1.8-0.1c1.8,0,2.3-0.3,2.8-0.8c0.5-0.5,0.5-2.2,0.2-2.8c-0.1-0.2-0.3-0.4-0.5-0.4 c-1.4-0.4-3.3-1.3-3.6-1.7c-0.4-0.6-2.1-0.7-3.6-0.7L37.1,8l0.8-0.4l4.2,0.6h5.7c0.2,0,0.3-0.1,0.4-0.2l1.4-1.8 c0.2-0.2,0.1-0.5-0.1-0.7C49.2,5.4,48.9,5.4,48.7,5.6L48.7,5.6z M5.7,22.4c0.1-2.1,0.7-3.1,1.3-3.7c-0.2,0.8-0.4,1.6-0.4,2.5 C6.3,21.6,6,22,5.7,22.4z M11.5,29.6c-0.3,0.1-0.5,0.4-0.7,0.7c-0.2,0.6-0.2,1.3,0.1,1.8c0.2,0.4,0.5,1,0.8,1.5 c0.5,0.9,0.9,1.9,1.3,2.9h-0.9l0-0.3c0-0.1,0-0.2-0.1-0.3c-1.3-2.5-2.7-5.5-2.8-6.1c0.1-0.2,0.4-0.5,0.6-0.8 c0.5-0.6,0.9-1.2,1.2-1.9c0.8-0.6,1.3-0.9,1.5-1.1c0.9-0.2,1.8-0.2,2.7,0L11.5,29.6z M27.1,36.2C27.1,36.2,27.1,36.3,27.1,36.2v0.3 h-0.7c0.1-1.1,0.3-3.6,0.6-4.7c0-0.2,0-0.3-0.1-0.4c-0.5-0.6-1.1-2.7-1.4-4.2l2.4-0.1c-0.1,1.2-0.3,3.2-0.2,4.1 C27.6,33,27.4,34.6,27.1,36.2L27.1,36.2z M40.8,10.4c0.6,0.9,3.4,1.9,4,2.1c0.1,0.5,0,1.1-0.1,1.6c-0.2,0.2-0.4,0.4-2.1,0.5 c-0.6,0-1.3,0.1-1.9,0.1c-1.2,0.1-2.4,0.3-3.2-0.1c-1-0.5-1.2-1.1-1.2-1.1c0-0.3-0.3-0.5-0.6-0.4c-0.3,0-0.5,0.3-0.4,0.6 c0,0.1,0.2,1.1,1.7,1.9c0.4,0.2,0.9,0.3,1.3,0.3l-0.9,4.1c-0.3,1-0.9,1.9-1.7,2.5c-0.5,0.4-0.9,0.7-1.3,1.1 c-0.9,0.9-1.6,1.6-3.1,1.6c-0.3,0-0.5,0.3-0.5,0.5c0,0.1,0,0.1,0.1,0.2c0.3,0.5,0.8,1,1.4,1.2c0.3,0.1,0.6,0.3,0.8,0.4 c1.1,0.7,1.2,1.3,1.2,1.3l0,0c0,0,0,0.1,0,0.1c0,0.2,1,4.1,1.9,6.1c0.2,0.5,0.4,1,0.5,1.5h-1c-0.3-1.3-1.4-5.4-1.6-6.2 c-0.2-0.8-0.7-1.4-1.4-1.8c0,0-2.3-1.2-3.9-2.2h0c-0.1-0.2-0.2-0.3-0.4-0.3c-0.2,0-0.4,0.1-0.5,0.3c-7.7,0.2-8.7,0.1-10.8-0.8 c-1.6-0.6-3.3-0.7-5-0.4c-0.1,0-0.1,0.1-0.2,0.1c0,0-0.6,0.4-1.7,1.2c0,0-0.1,0-0.1,0.1c-0.9,0.6-2.1,1.5-3.7,2.5 c-3.7,2.5-4.9,6.7-5,6.9c0,0.1,0,0.1,0,0.2v0.5H1V36l3.3-7.2c0.7-0.5,1.4-0.9,2.2-1.3c0.3-0.1,0.4-0.3,0.4-0.6 c-0.1-0.3,0-0.4,0.2-0.7c0.2-0.4,0.4-0.8,0.5-1.3c0,0,0-0.1,0-0.1v-0.5c0-1.1-0.1-2.1,0-3c0,0,0,0,0,0c0.1-2,0.5-3.6,2-4.8 c1.3-1,3.9-0.8,6.6-0.5c2.1,0.2,4.3,0.4,6.2,0c2.8-0.5,5.6-0.8,8.5-0.8c0.1,0,0.3-0.1,0.4-0.2l3.4-4c0.3,0.3,0.7,0.5,1.2,0.6H36 c0.3,0,0.5-0.2,0.6-0.5c0-0.3-0.2-0.5-0.5-0.6c-0.7-0.2-1.3-0.7-1.6-1.3c-0.2-0.2-0.3-0.5-0.4-0.8c0.6,0.1,2.3,1.1,3.7,2.1 c0.2,0.2,0.5,0.1,0.7-0.1c0,0,0,0,0,0c0.1-0.1,0.1-0.2,0.1-0.3C39.3,10.1,40.1,10.2,40.8,10.4z"></path> </svg> 