<svg id="draw.id" overflow="visible" v:ver="3" x="500.5" xmlns="http://www.w3.org/2000/svg" xmlns:v="http://vecta.io" xmlns:xlink="http://www.w3.org/1999/xlink" y="500.5" v:layers="{&quot;default&quot;:{&quot;name&quot;:&quot;Default&quot;,&quot;print&quot;:1,&quot;display&quot;:1,&quot;publish&quot;:1}}" v:stencils="{&quot;0&quot;:{&quot;id&quot;:&quot;stencil_25&quot;,&quot;expand&quot;:1,&quot;show_name&quot;:1},&quot;1&quot;:{&quot;id&quot;:&quot;stencil_65&quot;,&quot;expand&quot;:1,&quot;show_name&quot;:1}}"><style xmlns="http://www.w3.org/1999/xhtml"><![CDATA[#draw\.id{stroke:#000;stroke-linecap:round;stroke-linejoin:round;fill:#fff;fill-rule:evenodd;font-family:Roboto;font-size:14px;text-anchor:middle}#draw\.id text{paint-order:stroke;white-space:pre}#draw\.id .Text\.cls{stroke:none}]]></style><defs><style type="text/css">@import url('https://fonts.googleapis.com/css?family=Roboto+Condensed:400,400i,700,700i');@import url('https://fonts.googleapis.com/css?family=Roboto:400,400i,700,700i');@import url('https://fonts.googleapis.com/css?family=Cousine:400,400i,700,700i');@import url('https://fonts.googleapis.com/css?family=Anonymous+Pro:400,400i,700,700i');@import url('https://fonts.googleapis.com/css?family=Lato:400,400i,700,700i');@import url('https://fonts.googleapis.com/css?family=Open+Sans:400,400i,700,700i');</style></defs><title xmlns="http://www.w3.org/1999/xhtml">Untitled drawing</title><desc xmlns="http://www.w3.org/1999/xhtml"></desc><svg height="500" id="kwpfkecs3d" overflow="visible" v:setup="{&quot;paper&quot;:&quot;CUSTOM&quot;,&quot;unit&quot;:&quot;px&quot;,&quot;scale&quot;:{&quot;from&quot;:&quot;1&quot;,&quot;to&quot;:&quot;1&quot;},&quot;width&quot;:&quot;500px&quot;,&quot;height&quot;:&quot;500px&quot;,&quot;margin&quot;:{&quot;top&quot;:&quot;0&quot;,&quot;bottom&quot;:&quot;0&quot;,&quot;left&quot;:&quot;0&quot;,&quot;right&quot;:&quot;0&quot;}}" viewBox="0 0 500 500" width="500"><g id="kwpihei43gg" transform="translate(19.99996256992199 1.1999984741211733)" class=""><path d="M 6.848182919214295 143.1728131651738 L 6.848182919214295 146.09466181696047 L 40.44977679890499 169.46989687677925 L 11.230844435512875 165.08701243771787 L 15.61395179733703 175.31359418035245 C 22.918684888185044 194.30594480110983 31.684453766307826 213.29829542186746 41.91081258617973 230.82961025535016 L 43.371848373454455 232.29064604262484 L 63.82501185872369 238.13434334619808 L 47.75450988975301 239.59537913347296 L 55.05924298060103 249.8219608761076 C 69.66870916229709 268.8143114968649 87.20024691854262 286.3456263303476 106.19237461653717 302.41590537655554 L 107.65341040381193 303.87694116383057 L 107.65341040381193 303.87694116383057 L 114.95814349465985 309.7206384674035 C 126.64598394733218 318.48640734552635 139.79441434175342 327.25217622364886 152.9428447361748 334.5569093144972 L 155.86491631072425 336.0177221790092 L 173.3960082214443 330.17402487543575 L 169.0133467051455 343.3224552698571 L 174.8570440087189 346.2443039216439 C 192.38858176496439 355.01007279976653 206.99804794666048 359.3929572388279 212.84129940470837 360.8537701033399 C 212.84129940470837 432.44028814730825 131.0286454636307 444.1279056772174 128.10657388908132 445.58871854172935 L 113.4971077073851 447.0497543290043 L 123.72391237278262 457.2763360716387 C 145.6381116453268 477.72949955690814 173.3960082214443 489.4171170868179 206.99804794666048 492.3389657386041 L 212.84129940470837 492.3389657386041 L 220.14603249555628 483.57341978324416 L 220.14603249555628 492.3389657386041 L 225.99017564465512 492.3389657386041 C 247.90437491719922 492.3389657386041 259.5917695243458 487.9563042223059 259.5917695243458 487.9563042223059 L 266.8965026151938 485.03423264775626 L 262.5138410988951 477.72949955690814 C 255.20910800804708 460.1981847234257 258.1311795825966 445.58871854172935 261.053251157146 439.74502123815626 C 265.4359126734445 438.2839854508812 269.8185741897431 436.82317258636937 275.6627173388419 435.36213679909474 C 280.04537885514065 441.2058341026682 284.4280403714392 445.58871854172935 290.2721835205381 448.51056719351635 C 290.2721835205381 448.51056719351635 290.2721835205381 448.51056719351635 290.2721835205381 448.51056719351635 C 291.73277346228724 448.51056719351635 291.73277346228724 449.97160298079103 293.1933634040363 449.97160298079103 C 293.1933634040363 449.97160298079103 293.1933634040363 449.97160298079103 293.1933634040363 449.97160298079103 C 294.6548450368366 449.97160298079103 296.1154349785857 449.97160298079103 296.1154349785857 451.43263876806554 C 296.1154349785857 451.43263876806554 296.1154349785857 451.43263876806554 296.1154349785857 451.43263876806554 C 296.1154349785857 451.43263876806554 297.5769166113861 451.43263876806554 297.5769166113861 451.43263876806554 C 297.5769166113861 451.43263876806554 299.0375065531352 449.97160298079103 299.0375065531352 449.97160298079103 C 299.0375065531352 449.97160298079103 299.0375065531352 449.97160298079103 299.0375065531352 449.97160298079103 C 299.0375065531352 449.97160298079103 299.0375065531352 449.97160298079103 299.0375065531352 449.97160298079103 C 299.0375065531352 449.97160298079103 300.4980964948843 451.43263876806554 300.4980964948843 451.43263876806554 L 309.2643112185326 474.8076509051214 L 306.34223964398313 486.4952684350308 L 318.0296342511297 493.8000015258788 L 325.33436734197795 482.11238399596976 L 325.33436734197795 480.6515711314577 C 326.7958489747781 477.72949955690814 331.17851049107657 474.8076509051214 334.1005820656262 471.8858022533348 L 334.1005820656262 473.34683804060967 L 328.2564389165273 482.11238399596976 L 339.943833523674 489.4171170868179 L 350.1706381890714 473.34683804060967 L 350.1706381890714 471.8858022533348 C 356.01478133817034 464.5810691624869 366.2406943125166 452.89345163257735 372.08483746161545 452.89345163257735 C 372.08483746161545 452.89345163257735 372.08483746161545 452.89345163257735 372.08483746161545 452.89345163257735 C 372.08483746161545 452.89345163257735 373.54542740336456 454.354487419852 375.00690903616504 457.2763360716387 L 386.69430364331146 449.97160298079103 C 382.311642127013 442.6668698899429 376.467498977914 441.2058341026682 372.08483746161545 441.2058341026682 C 366.2406943125166 441.2058341026682 361.8580327962182 442.6668698899429 357.4753712799195 445.58871854172935 C 357.4753712799195 445.58871854172935 356.01478133817034 445.58871854172935 356.01478133817034 445.58871854172935 C 356.01478133817034 444.1279056772174 357.4753712799195 444.1279056772174 357.4753712799195 442.6668698899429 C 358.93596122166866 441.2058341026682 361.8580327962182 439.74502123815626 364.78010437076756 439.74502123815626 L 364.78010437076756 425.13555505646 C 358.93596122166866 425.13555505646 351.63122813082066 426.5963679209719 347.2485666145219 430.9792523600334 C 345.7879766727728 432.44028814730825 342.86590509822355 435.36213679909474 341.4053151564742 438.2839854508812 L 341.4053151564742 428.0574037082468 C 338.4832435819249 428.0574037082468 337.0217619491245 428.0574037082468 334.1005820656262 429.5184394955214 C 335.56117200737515 417.830821965612 329.71702885827636 403.22135578391595 325.33436734197795 391.5337382540065 C 335.56117200737515 376.9242720723107 341.4053151564742 363.77584167788933 342.86590509822355 360.8537701033399 C 353.0927097636207 340.4006066180705 361.8580327962182 338.9395708307959 366.2406943125166 338.9395708307959 C 367.7021759453169 338.9395708307959 367.7021759453169 338.9395708307959 367.7021759453169 338.9395708307959 L 367.7021759453169 338.9395708307959 L 367.7021759453169 338.9395708307959 C 377.9289806107144 341.8616424053451 383.7722320687619 343.3224552698571 389.6163752178609 343.3224552698571 C 391.0769651596101 343.3224552698571 392.53844679241035 343.3224552698571 392.53844679241035 343.3224552698571 C 393.99903673415935 343.3224552698571 395.4596266759084 343.3224552698571 395.4596266759084 343.3224552698571 C 407.14791297410613 343.3224552698571 415.9132360067035 359.3929572388279 415.9132360067035 359.3929572388279 L 421.75737915580237 369.61953898146237 L 427.60063061385 359.3929572388279 C 437.82743527924737 343.3224552698571 437.82743527924737 325.7911404363744 426.14004067210107 311.1816742546782 C 417.3738259484527 279.0408932394995 388.15489358506045 260.04854261874215 347.2485666145219 260.04854261874215 C 338.4832435819249 260.04854261874215 329.71702885827636 261.50957840601694 320.9517058256794 262.97039127052875 C 307.80282958573224 262.97039127052875 299.0375065531352 258.58750683146746 293.1933634040363 249.8219608761076 C 278.5838972223403 230.82961025535016 285.88863031318823 198.68882924017134 285.88863031318823 198.68882924017134 L 285.88863031318823 197.22779345289672 C 288.81070188773765 78.89125113481636 224.52958570290593 2.9218486517866524 223.0681040701058 0 L 220.14603249555628 0 L 214.30278103750857 4.38288443906137 C 180.70074131229222 30.679968150666827 169.0133467051455 78.89125113481636 167.55231091787073 105.18811192365898 C 97.42705158393998 48.21128298414949 15.61395179733703 30.679968150666827 9.770254493763737 29.218932363392092 L 2.4655214029157064 27.758119498880163 L 2.4655214029157064 35.06285258972816 C -1.9175859589084465 73.04733090848023 -0.4565501716337292 109.5709963627203 6.848182919214295 143.1728131651738 Z M 294.6548450368366 273.1969730131636 C 262.5138410988951 267.3532757095902 247.90437491719922 217.6811798609287 247.90437491719922 217.6811798609287 L 247.90437491719922 217.6811798609287 C 233.2949087355032 175.31359418035245 208.45863788840956 143.1728131651738 180.70074131229222 116.87572945356837 C 179.23970552501743 105.18811192365898 186.54443861586543 48.21128298414949 217.2248526120579 18.992350620757417 C 231.8343187937541 37.984701241514834 274.2012357060417 106.64914771093373 272.7406457642926 200.14964210468327 C 271.27916413149205 205.9935623310194 265.4359126734445 239.59537913347296 282.96745042969 262.97039127052875 C 287.3501119459887 267.3532757095902 290.2721835205381 270.275124361377 294.6548450368366 273.1969730131636 Z M 405.68643134130605 334.5569093144972 C 410.0690928576045 330.17402487543575 415.9132360067035 328.71298908816095 418.835307581253 327.25217622364886 C 423.21796909755153 333.0958735272224 424.6785590393005 340.4006066180705 421.75737915580237 346.2443039216439 C 418.835307581253 341.8616424053451 412.9911644321539 337.47875796628404 405.68643134130605 334.5569093144972 Z M 372.08483746161545 340.4006066180705 L 373.54542740336456 337.47875796628404 L 372.08483746161545 340.4006066180705 L 372.08483746161545 340.4006066180705 Z M 318.0296342511297 407.6042402229773 C 322.4122957674285 419.29163483012394 323.87377740022873 429.5184394955214 323.87377740022873 433.90110101182006 C 322.4122957674285 433.90110101182006 319.4911158839303 432.44028814730825 316.56904430938073 429.5184394955214 C 316.56904430938073 429.5184394955214 316.56904430938073 428.0574037082468 316.56904430938073 428.0574037082468 C 315.10756267658036 423.6745192691854 315.10756267658036 419.29163483012394 313.6469727348312 414.9089733138251 C 313.6469727348312 411.986901739276 315.10756267658036 410.526088874764 318.0296342511297 407.6042402229773 Z M 318.0296342511297 452.89345163257735 L 315.10756267658036 445.58871854172935 C 316.56904430938073 445.58871854172935 318.0296342511297 447.0497543290043 320.9517058256794 447.0497543290043 C 319.4911158839303 448.51056719351635 319.4911158839303 451.43263876806554 318.0296342511297 452.89345163257735 Z M 341.4053151564742 447.0497543290043 C 341.4053151564742 448.51056719351635 339.943833523674 448.51056719351635 339.943833523674 449.97160298079103 L 338.4832435819249 448.51056719351635 C 339.943833523674 447.0497543290043 341.4053151564742 447.0497543290043 341.4053151564742 447.0497543290043 Z M 15.61395179733703 43.82839854508811 C 50.67658146430248 52.59416742321087 192.38858176496439 97.88337883281095 234.75549867725232 220.60302851271535 C 236.21698031005266 224.98591295177687 255.20910800804708 286.3456263303476 299.0375065531352 286.3456263303476 L 299.0375065531352 286.3456263303476 C 304.8816497022341 286.3456263303476 310.7249011602817 284.88459054307293 316.56904430938073 283.423777678561 C 326.7958489747781 279.0408932394995 338.4832435819249 277.579857452225 350.1706381890714 277.579857452225 C 375.00690903616504 277.579857452225 404.2258413995568 287.80643919485954 412.9911644321539 314.1035229064649 C 410.0690928576045 315.56455869373974 407.14791297410613 317.02537155825166 402.7643597667565 318.48640734552635 C 398.3816982504581 311.1816742546782 380.8501604942128 290.728510769409 380.8501604942128 290.728510769409 L 382.311642127013 312.6427100419531 L 401.30376982500735 319.9474431328011 C 396.921108308709 322.8692917845877 392.53844679241035 327.25217622364886 389.6163752178609 333.0958735272224 C 385.23371370156235 333.0958735272224 380.8501604942128 331.6348377399476 375.00690903616504 330.17402487543575 L 373.54542740336456 330.17402487543575 C 372.08483746161545 330.17402487543575 369.1627658870659 328.71298908816095 366.2406943125166 328.71298908816095 C 357.4753712799195 328.71298908816095 342.86590509822355 334.5569093144972 331.17851049107657 359.3929572388279 L 331.17851049107657 359.3929572388279 C 331.17851049107657 359.3929572388279 322.4122957674285 379.8461207240972 306.34223964398313 398.8384713448546 C 304.8816497022341 395.91662269306784 303.4201680694337 392.99477404128135 301.95957812768467 390.0727024667318 L 288.81070188773765 395.91662269306784 C 290.2721835205381 400.29950713212924 293.1933634040363 404.68216864842805 294.6548450368366 409.06505308748945 L 296.1154349785857 413.44793752655085 C 297.5769166113861 416.36978617833716 297.5769166113861 417.830821965612 297.5769166113861 419.29163483012394 C 297.5769166113861 420.75267061739885 297.5769166113861 420.75267061739885 299.0375065531352 422.21370640467336 C 299.0375065531352 422.21370640467336 299.0375065531352 422.21370640467336 299.0375065531352 422.21370640467336 C 299.0375065531352 423.6745192691854 299.0375065531352 423.6745192691854 300.4980964948843 425.13555505646 C 301.95957812768467 433.90110101182006 301.95957812768467 436.82317258636937 301.95957812768467 438.2839854508812 C 301.95957812768467 438.2839854508812 301.95957812768467 438.2839854508812 301.95957812768467 438.2839854508812 C 301.95957812768467 438.2839854508812 301.95957812768467 438.2839854508812 301.95957812768467 438.2839854508812 C 300.4980964948843 438.2839854508812 299.0375065531352 436.82317258636937 296.1154349785857 435.36213679909474 C 296.1154349785857 435.36213679909474 296.1154349785857 435.36213679909474 296.1154349785857 435.36213679909474 C 296.1154349785857 435.36213679909474 294.6548450368366 433.90110101182006 294.6548450368366 433.90110101182006 C 294.6548450368366 433.90110101182006 293.1933634040363 432.44028814730825 293.1933634040363 432.44028814730825 C 293.1933634040363 432.44028814730825 291.73277346228724 430.9792523600334 291.73277346228724 430.9792523600334 C 290.2721835205381 429.5184394955214 290.2721835205381 429.5184394955214 288.81070188773765 428.0574037082468 C 288.81070188773765 426.5963679209719 287.3501119459887 426.5963679209719 287.3501119459887 425.13555505646 C 284.4280403714392 420.75267061739885 280.04537885514065 414.9089733138251 277.1233072805912 407.6042402229773 L 262.5138410988951 414.9089733138251 C 263.97443104064433 417.830821965612 265.4359126734445 422.21370640467336 268.35798424799395 425.13555505646 C 263.97443104064433 426.5963679209719 261.053251157146 428.0574037082468 256.66969794979644 428.0574037082468 L 253.74851806629792 428.0574037082468 L 252.2870364334978 430.9792523600334 C 252.2870364334978 432.44028814730825 240.5996418263513 451.43263876806554 249.36496485894833 476.26868669239616 C 244.98230334264966 476.26868669239616 242.06023176810038 477.72949955690814 231.8343187937541 477.72949955690814 L 231.8343187937541 438.2839854508812 L 204.075976372111 477.72949955690814 C 180.70074131229222 474.8076509051214 161.7086136142975 467.5029178142735 144.17707585805206 455.81530028436435 C 171.9349724341695 448.51056719351635 230.37283716095376 423.6745192691854 227.45076558640434 355.01007279976653 L 227.45076558640434 349.16637549619304 L 223.0681040701058 347.70533970891853 C 223.0681040701058 347.70533970891853 208.45863788840956 343.3224552698571 188.00592024866577 334.5569093144972 L 196.77124328126308 306.79878981561694 L 158.7865420397481 321.408255997313 C 150.02077316162527 315.56455869373974 141.25545012902828 311.1816742546782 132.4896812509055 305.33797695110496 L 169.0133467051455 280.5017061040114 L 112.03651776563598 290.728510769409 C 97.42705158393998 279.0408932394995 84.27817534399313 265.8922399223155 74.05181652412115 252.7438095278941 L 141.25545012902828 246.90011222432088 L 53.5986530388519 222.06384137722736 C 46.29391994800385 208.915410982806 38.98918685715584 195.7669805883847 34.60607949533171 182.6183272712006 L 97.42705158393998 189.9230603620486 L 19.996613313635613 137.32911586160046 C 14.15291601006231 108.11018349820841 12.691880222787592 77.43021534754159 15.61395179733703 43.82839854508811 Z" stroke="none" stroke-linejoin="miter" stroke-linecap="butt" fill="#F2C2CF" fill-rule="nonzero"/></g></svg></svg>