<svg id="draw.id" overflow="visible" v:ver="3" x="500.5" xmlns="http://www.w3.org/2000/svg" xmlns:v="http://vecta.io" xmlns:xlink="http://www.w3.org/1999/xlink" y="500.5" v:layers="{&quot;default&quot;:{&quot;name&quot;:&quot;Default&quot;,&quot;print&quot;:1,&quot;display&quot;:1,&quot;publish&quot;:1}}" v:stencils="{&quot;0&quot;:{&quot;id&quot;:&quot;stencil_25&quot;,&quot;expand&quot;:1,&quot;show_name&quot;:1},&quot;1&quot;:{&quot;id&quot;:&quot;stencil_65&quot;,&quot;expand&quot;:1,&quot;show_name&quot;:1}}"><style xmlns="http://www.w3.org/1999/xhtml"><![CDATA[#draw\.id{stroke:#000;stroke-linecap:round;stroke-linejoin:round;fill:#fff;fill-rule:evenodd;font-family:Roboto;font-size:14px;text-anchor:middle}#draw\.id text{paint-order:stroke;white-space:pre}#draw\.id .Text\.cls{stroke:none}]]></style><defs><style type="text/css">@import url('https://fonts.googleapis.com/css?family=Roboto+Condensed:400,400i,700,700i');@import url('https://fonts.googleapis.com/css?family=Roboto:400,400i,700,700i');@import url('https://fonts.googleapis.com/css?family=Cousine:400,400i,700,700i');@import url('https://fonts.googleapis.com/css?family=Anonymous+Pro:400,400i,700,700i');@import url('https://fonts.googleapis.com/css?family=Lato:400,400i,700,700i');@import url('https://fonts.googleapis.com/css?family=Open+Sans:400,400i,700,700i');</style></defs><title xmlns="http://www.w3.org/1999/xhtml">Untitled drawing</title><desc xmlns="http://www.w3.org/1999/xhtml"></desc><svg height="500" id="kwpfkecs3d" overflow="visible" v:setup="{&quot;paper&quot;:&quot;CUSTOM&quot;,&quot;unit&quot;:&quot;px&quot;,&quot;scale&quot;:{&quot;from&quot;:&quot;1&quot;,&quot;to&quot;:&quot;1&quot;},&quot;width&quot;:&quot;500px&quot;,&quot;height&quot;:&quot;500px&quot;,&quot;margin&quot;:{&quot;top&quot;:&quot;0&quot;,&quot;bottom&quot;:&quot;0&quot;,&quot;left&quot;:&quot;0&quot;,&quot;right&quot;:&quot;0&quot;}}" viewBox="0 0 500 500" width="500"><g id="kwpfksglki" transform="translate(40 6.057313000160093)" class=""><path d="M 187.90412050041516 324.22701725405244 C 240.99441800233484 318.7818765113152 281.83301251958073 301.0851366418208 306.33600305726225 269.7755578977238 C 351.2584985693989 215.32407257691676 340.36816515496696 133.646883542425 333.561732735426 91.44702331285411 C 332.20057088101765 80.55674182738024 330.83920131077656 68.3051427006232 330.83920131077656 65.58255934701518 C 332.20057088101765 62.86002792236527 333.561732735426 61.498710281082225 336.28447187590876 58.77612692747409 L 341.72953472520817 54.69227786154113 C 349.8973367149907 50.60842879560824 353.981029994049 49.247163083283425 364.87136340848076 49.247163083283425 C 371.6777958280222 49.247163083283425 378.4842282475634 49.247163083283425 383.92949881269624 49.247163083283425 C 385.29066066710396 49.247163083283425 385.29066066710396 49.247163083283425 386.6520302373457 47.88584544200028 C 386.6520302373457 46.524579729675274 386.6520302373457 46.524579729675274 385.29066066710396 45.16326208839213 C 370.31663397361314 34.272980602918324 356.7037691345318 22.021433405119552 343.0909042954494 9.769834278362426 C 334.92310230566744 1.6021361464965742 319.9488678963436 -2.4817648483946377 306.33600305726225 1.6021361464965742 C 288.63944493912174 5.685985212429504 277.74911152468945 19.298850051511426 277.74911152468945 36.995563956526404 C 277.74911152468945 49.247163083283425 279.1102733790978 62.86002792236527 280.4716429493393 79.19542418609701 C 283.19417437398926 117.31148727869335 288.63944493912174 167.67904564012997 272.3038409595568 178.569379054562 C 265.49740854001544 182.65322812049504 253.24591327117514 178.569379054562 243.71694942698443 173.12421234734606 C 183.82021950552382 140.45331596196607 123.92369729989642 139.0920502496412 73.5561389384599 169.04036328141302 C 27.27227385608126 196.26609295957675 -1.3146176764909359 247.994968962297 0.04654417791739281 301.0851366418208 C 0.04654417791739281 303.80771999542924 1.407913748158835 306.53027738455796 4.13044517280861 307.89156906136196 C 6.852976597458365 309.252860738166 9.575715737941275 309.252860738166 12.298247162591041 307.89156906136196 C 29.99501299656416 297.00128757588845 47.69157111470424 295.63999589908383 64.02717509426905 302.44642831862484 C 62.66580552402755 309.252860738166 59.94327409937785 314.69800148090303 59.94327409937785 320.14314222364015 C 58.58190452913638 324.22701725405244 61.30443595378612 328.31086631998505 65.38833694867739 329.67215799678945 C 95.33659805149111 343.285022835872 129.36876014919616 347.36887190180414 160.67839082225132 331.0334496735936 L 167.48482324179227 326.94957464318134 L 155.2333279729518 373.2333358676433 C 155.2333279729518 374.5946015799685 155.2333279729518 374.5946015799685 155.2333279729518 375.9558932567725 L 164.76229181714245 472.6072388071498 L 153.87195840271025 472.6072388071498 C 149.78805740781908 472.6072388071498 145.70436412876103 476.6910878730832 145.70436412876103 480.7749369390162 C 145.70436412876103 484.8588379339072 149.78805740781908 488.9426869998399 153.87195840271025 488.9426869998399 L 204.2395167641468 488.9426869998399 C 208.32341775903802 488.9426869998399 212.40731875392942 484.8588379339072 212.40731875392942 480.7749369390162 C 212.40731875392942 476.6910878730832 208.32341775903802 472.6072388071498 204.2395167641468 472.6072388071498 L 181.09768808087415 472.6072388071498 L 171.5687242366833 375.9558932567725 L 187.90412050041516 324.22701725405244 Z M 328.1166698861263 45.16326208839213 C 324.03276889123515 47.88584544200028 318.58770604193546 53.331012149216356 317.22633647169414 61.498710281082225 C 315.86517461728585 66.94387698829836 317.22633647169414 76.47289276144728 318.58770604193546 95.5308723787872 C 324.03276889123515 136.36946689603298 334.92310230566744 212.60154115226712 294.0845077884211 261.6078338013791 C 272.3038409595568 287.4722718027388 238.27167886185185 303.80771999542924 193.34939106554796 309.252860738166 C 205.60088633438818 294.27870422228017 213.76868832417082 276.5819903172652 217.85238160322865 257.52398473544594 C 219.21375117347037 253.44010970503388 215.1298501785794 247.994968962297 211.045949183688 247.994968962297 C 206.96225590462956 246.63367728549326 201.51698533949735 250.71755231590518 201.51698533949735 254.80140138183802 C 196.07192249019778 282.0271310600017 179.73652622646583 306.53027738455796 156.59448982736012 318.7818765113152 C 134.8140307143287 329.67215799678945 110.31083246081451 331.0334496735936 83.08510278265052 320.14314222364015 C 87.16900377754185 302.44642831862484 96.69796762173267 279.30454770639415 110.31083246081451 258.88525044777094 C 119.83979630500538 246.63367728549326 133.45266114408736 230.2982550572819 148.42689555341056 224.85308835006592 C 162.03976039249264 220.76923928413305 157.95585939760142 212.60154115226712 144.34299455851965 215.32407257691676 C 128.00759829478758 218.04665593052465 114.39473345570566 227.57567170367366 102.14303047103202 239.8272448659517 C 88.5301656319499 254.80140138183802 80.36257135800065 272.49811528685285 73.5561389384599 288.83356347954305 C 55.85937310448664 282.0271310600017 38.16260727051346 282.0271310600017 20.465841436540334 288.83356347954305 C 24.54974243143153 246.63367728549326 49.052940684945696 207.15637444505097 85.80763420730028 185.37581147410282 C 129.36876014919616 159.51134750826398 183.82021950552382 160.87261322058893 238.27167886185185 189.4596605400359 C 257.3298142660665 200.34994202550993 272.3038409595568 201.7112077378348 284.55554394423064 193.54350960596898 C 309.05874219774495 177.208061413279 304.97484120285395 126.84045112288412 300.8909402079625 79.19542418609701 C 299.5295706377212 64.22129363469016 298.1684087833125 49.247163083283425 298.1684087833125 38.356829668851255 C 298.1684087833125 24.743964829769318 310.419904052153 20.66011576383636 314.50380504704464 19.298850051511426 C 322.6716070368264 17.937532410228304 333.561732735426 19.298850051511426 337.6456337303172 27.466548183377384 C 340.36816515496696 32.91171489059346 340.36816515496696 39.71814731013442 336.28447187590876 42.44073066374245 C 332.20057088101765 41.079413022459285 329.47803945636775 42.44073066374245 328.1166698861263 45.16326208839213 Z M 330.83920131077656 31.550397249310272 C 330.83920131077656 27.466548183377384 326.755300315885 23.382699117444403 322.6716070368264 23.382699117444403 C 318.58770604193546 23.382699117444403 314.50380504704464 27.466548183377384 314.50380504704464 31.550397249310272 C 314.50380504704464 35.63429824420146 318.58770604193546 39.71814731013442 322.6716070368264 39.71814731013442 C 326.755300315885 39.71814731013442 330.83920131077656 35.63429824420146 330.83920131077656 31.550397249310272 Z" fill-rule="nonzero" stroke="none" stroke-linecap="butt" stroke-linejoin="miter" fill="#F2C2CF"/></g></svg></svg>