<svg id="draw.id" overflow="visible" v:ver="3" x="500.5" xmlns="http://www.w3.org/2000/svg" xmlns:v="http://vecta.io" xmlns:xlink="http://www.w3.org/1999/xlink" y="500.5" v:layers="{&quot;default&quot;:{&quot;name&quot;:&quot;Default&quot;,&quot;print&quot;:1,&quot;display&quot;:1,&quot;publish&quot;:1}}" v:stencils="{&quot;0&quot;:{&quot;id&quot;:&quot;stencil_25&quot;,&quot;expand&quot;:1,&quot;show_name&quot;:1},&quot;1&quot;:{&quot;id&quot;:&quot;stencil_65&quot;,&quot;expand&quot;:1,&quot;show_name&quot;:1}}"><style xmlns="http://www.w3.org/1999/xhtml"><![CDATA[#draw\.id{stroke:#000;stroke-linecap:round;stroke-linejoin:round;fill:#fff;fill-rule:evenodd;font-family:Roboto;font-size:14px;text-anchor:middle}#draw\.id text{paint-order:stroke;white-space:pre}#draw\.id .Text\.cls{stroke:none}]]></style><defs><style type="text/css">@import url('https://fonts.googleapis.com/css?family=Roboto+Condensed:400,400i,700,700i');@import url('https://fonts.googleapis.com/css?family=Roboto:400,400i,700,700i');@import url('https://fonts.googleapis.com/css?family=Cousine:400,400i,700,700i');@import url('https://fonts.googleapis.com/css?family=Anonymous+Pro:400,400i,700,700i');@import url('https://fonts.googleapis.com/css?family=Lato:400,400i,700,700i');@import url('https://fonts.googleapis.com/css?family=Open+Sans:400,400i,700,700i');</style></defs><title xmlns="http://www.w3.org/1999/xhtml">Untitled drawing</title><desc xmlns="http://www.w3.org/1999/xhtml"></desc><svg height="500" id="kwpfkecs3d" overflow="visible" v:setup="{&quot;paper&quot;:&quot;CUSTOM&quot;,&quot;unit&quot;:&quot;px&quot;,&quot;scale&quot;:{&quot;from&quot;:&quot;1&quot;,&quot;to&quot;:&quot;1&quot;},&quot;width&quot;:&quot;500px&quot;,&quot;height&quot;:&quot;500px&quot;,&quot;margin&quot;:{&quot;top&quot;:&quot;0&quot;,&quot;bottom&quot;:&quot;0&quot;,&quot;left&quot;:&quot;0&quot;,&quot;right&quot;:&quot;0&quot;}}" viewBox="0 0 500 500" width="500"><g id="kwpigogk3fr" transform="translate(0.1276726372339816 53.226202876394325)" class=""><path d="M 211.21983528029662 204.45286515089057 C 211.21983528029662 184.23923438693237 214.5889879328398 162.3410272967027 219.6422028511342 147.1808684812991 C 223.0113555036775 140.44282020647285 224.6954177694284 135.38960528817861 229.7496608087641 130.33613333962398 C 228.06457042197167 130.33613333962398 226.38050815622083 128.65155701335235 224.6954177694284 126.96723771734105 L 224.6954177694284 126.96723771734105 C 219.6422028511342 121.91376576878643 216.27305019859085 116.86029382023187 214.5889879328398 108.43792624939431 C 202.79746770945903 101.70013500482837 189.32188522032715 89.90861478144743 175.84630273119515 78.11735158832685 C 137.1031034690298 46.11245763124815 88.25347437027592 0.6317241547773029 19.189957477303587 25.898826867290072 C 30.981477700684476 46.11245763124815 37.71926894525039 71.3795603437609 44.457060189816325 96.64666305627375 C 57.93315673946888 150.54976410358216 71.40873922860072 207.82176077317348 150.5792000186824 209.50633709944532 C 153.94783861070505 209.50633709944532 157.31699126324824 212.87523272172822 157.31699126324824 217.92870467028277 C 157.31699126324824 221.29760029256565 153.94783861070505 224.66649591484864 150.5792000186824 224.66649591484864 C 111.83600075651702 234.7734398119579 93.30668928857018 254.987070575916 89.93805069654753 276.8852776661457 C 86.56889804400421 288.6765408592663 89.93805069654753 300.46780405238695 93.30668928857018 312.2593242757677 C 96.67584194111352 322.3660111426166 105.09820951195113 334.157274335737 113.52057708278873 340.8953226105635 C 128.68073589819218 352.68658580368395 148.89462369241073 357.7400577522386 167.42393516035767 345.948794559118 C 175.84630273119515 340.8953226105635 182.58409397576122 332.4729550397257 189.32188522032715 325.73490676489945 C 197.74425279116477 315.6282198980508 206.16662036200228 305.5212760009414 221.32729323792654 298.78348475637557 C 217.9581405853832 290.3611171855379 217.9581405853832 280.25417328842866 217.9581405853832 270.14748642157986 C 217.9581405853832 266.7783337690365 217.9581405853832 260.0405425244707 217.9581405853832 254.987070575916 C 217.9581405853832 251.6181749536329 217.9581405853832 248.24927933135018 219.6422028511342 244.88038370906727 C 214.5889879328398 233.08886348568623 211.21983528029662 221.29760029256565 211.21983528029662 204.45286515089057 Z M 217.9581405853832 93.27776743399072 C 219.6422028511342 88.22429548543612 221.32729323792654 84.85539986315318 224.6954177694284 81.48624721060985 L 224.6954177694284 81.48624721060985 C 224.6954177694284 81.48624721060985 226.38050815622083 79.80192791459847 226.38050815622083 79.80192791459847 C 221.32729323792654 64.64151206893466 212.9049256670889 51.16592957980275 204.4820440357307 39.37440935642191 C 196.05967646489304 27.583146163301382 187.63730889405545 19.160778592463792 179.21494132321797 15.791882970180843 C 175.84630273119515 14.107306643909174 174.16172640492354 9.054091725614892 175.84630273119515 5.684939073071586 C 179.21494132321797 0.6317241547773029 184.26867030203283 -1.0528521714943495 187.63730889405545 0.6317241547773029 C 197.74425279116477 5.684939073071586 207.85068262775323 15.791882970180843 217.9581405853832 29.26772248957303 C 226.38050815622083 41.058985682693574 233.11778534026598 54.534825202085756 239.8560906453527 71.3795603437609 C 241.54015291110366 71.3795603437609 243.2252432978961 71.3795603437609 246.59439595043932 71.3795603437609 C 249.96252048194128 71.3795603437609 251.64761086873335 71.3795603437609 253.3316731344843 73.0638796397722 C 260.0699784395711 56.21914449809705 266.80725562361613 42.74356200896523 275.2296231944537 30.95204178558435 C 285.3370811520836 17.47645929645247 297.1286013754647 5.684939073071586 305.55096894630236 2.3160434507886167 C 308.91909347780404 0.6317241547773029 313.9733365171396 2.3160434507886167 315.6573987828907 5.684939073071586 C 317.3414610486415 9.054091725614892 315.6573987828907 14.107306643909174 312.28824613034743 15.791882970180843 C 305.55096894630236 19.160778592463792 295.44351098867224 27.583146163301382 287.02114341783476 39.37440935642191 C 283.6519907652915 51.16592957980275 275.2296231944537 64.64151206893466 268.49234601040865 79.80192791459847 C 268.49234601040865 79.80192791459847 270.17640827615946 81.48624721060985 270.17640827615946 81.48624721060985 L 270.17640827615946 81.48624721060985 C 273.5455609287028 84.85539986315318 276.914713581246 88.22429548543612 276.914713581246 93.27776743399072 C 287.02114341783476 86.53971915916443 297.1286013754647 78.11735158832685 308.91909347780404 68.01066472147797 C 351.03093133199195 30.95204178558435 408.303442062104 -19.58216363944116 490.84305550472874 14.107306643909174 C 494.2111800362308 15.791882970180843 495.8962704230233 20.845354918735445 494.2111800362308 24.214250541018405 C 494.2111800362308 24.214250541018405 494.2111800362308 25.898826867290072 492.52711777047995 25.898826867290072 C 479.05153528134827 44.427881304976516 470.6291677105106 71.3795603437609 463.8908624054238 100.01555867855673 C 452.0993421820431 152.2343404298537 438.62375969291134 206.13744147716224 376.2980340445047 221.29760029256565 C 401.56513675701734 234.7734398119579 415.04174736719074 253.30275127990464 418.40987189869287 275.20070133987406 C 421.7790245512361 288.6765408592663 418.40987189869287 303.83695670493006 415.04174736719074 317.3125391940619 C 409.98750432785477 330.7883787134541 401.56513675701734 342.5796419065749 389.77464465467807 351.0020094774124 C 369.5607568604594 367.84674461908753 344.2936541479466 372.9002165676421 319.02655143543404 357.7400577522386 C 308.91909347780404 351.0020094774124 300.4967259069666 342.5796419065749 293.75944872292126 334.157274335737 C 287.02114341783476 325.73490676489945 278.5987758469972 315.6282198980508 268.49234601040865 312.2593242757677 C 261.75404070532187 325.73490676489945 251.64761086873335 330.7883787134541 246.59439595043932 330.7883787134541 C 241.54015291110366 330.7883787134541 231.43372307451514 324.0505874688883 224.6954177694284 312.2593242757677 C 212.9049256670889 317.3125391940619 206.16662036200228 325.73490676489945 199.4288291174364 334.157274335737 C 192.69103787287048 342.5796419065749 185.95273256778378 351.0020094774124 174.16172640492354 357.7400577522386 C 148.89462369241073 372.9002165676421 121.9429446536263 367.84674461908753 103.41363318567944 351.0020094774124 C 93.30668928857018 342.5796419065749 83.20025945198162 330.7883787134541 78.14653047316668 317.3125391940619 C 73.09331555487238 303.83695670493006 71.40873922860072 288.6765408592663 74.77789188114404 275.20070133987406 C 78.14653047316668 254.987070575916 91.62262702281917 234.7734398119579 116.88972973533204 221.29760029256565 C 54.56400408692558 206.13744147716224 41.08842159779371 152.2343404298537 29.29690137441284 100.01555867855673 C 22.5591101298469 71.3795603437609 15.821318885280954 44.427881304976516 0.6606460093567511 25.898826867290072 C 0.6606460093567511 25.898826867290072 0.6606460093567511 24.214250541018405 0.6606460093567511 24.214250541018405 C -1.0234162563942215 20.845354918735445 0.6606460093567511 15.791882970180843 4.029798661900057 14.107306643909174 C 86.56889804400421 -19.58216363944116 143.8408947135958 29.26772248957303 185.95273256778378 68.01066472147797 C 197.74425279116477 78.11735158832685 207.85068262775323 86.53971915916443 217.9581405853832 93.27776743399072 Z M 280.2838662337894 110.12250257566596 C 280.2838662337894 116.86029382023187 276.914713581246 123.59808506479776 271.86149866295193 128.65155701335235 L 271.86149866295193 128.65155701335235 C 270.17640827615946 130.33613333962398 268.49234601040865 132.0204526356353 266.80725562361613 132.0204526356353 C 270.17640827615946 137.07392458418985 273.5455609287028 142.12739653274457 276.914713581246 148.86518777731044 C 283.6519907652915 164.02560362297424 285.3370811520836 185.9238107132041 285.3370811520836 206.13744147716224 C 285.3370811520836 221.29760029256565 281.96792849954045 234.7734398119579 278.5987758469972 244.88038370906727 C 278.5987758469972 248.24927933135018 280.2838662337894 251.6181749536329 280.2838662337894 256.6716469021876 C 280.2838662337894 261.7251188507422 280.2838662337894 266.7783337690365 280.2838662337894 270.14748642157986 C 280.2838662337894 281.9387496147004 278.5987758469972 292.04543648154936 276.914713581246 298.78348475637557 C 290.39029607037804 305.5212760009414 298.8126636412155 315.6282198980508 308.91909347780404 325.73490676489945 C 315.6573987828907 332.4729550397257 322.3957040879773 340.8953226105635 330.8180716588148 345.948794559118 C 351.03093133199195 357.7400577522386 369.5607568604594 352.68658580368395 384.72040161534244 340.8953226105635 C 393.1427691861799 334.157274335737 399.88107449126665 324.0505874688883 404.9342894095604 312.2593242757677 C 408.303442062104 302.15238037865834 409.98750432785477 288.6765408592663 408.303442062104 276.8852776661457 C 404.9342894095604 254.987070575916 386.4054920021344 234.7734398119579 345.9777164136975 224.66649591484864 C 342.60856376115436 224.66649591484864 340.92450149540326 221.29760029256565 340.92450149540326 217.92870467028277 C 340.92450149540326 214.55980904799983 344.2936541479466 211.19091342571687 347.6628068004901 209.50633709944532 C 425.1481772037793 206.13744147716224 440.3088500797035 148.86518777731044 452.0993421820431 96.64666305627375 C 458.8376474871296 69.69498401748923 465.5759527922163 44.427881304976516 477.3664448945558 25.898826867290072 C 408.303442062104 2.3160434507886167 357.7692366370785 46.11245763124815 320.71061370118497 79.80192791459847 C 305.55096894630236 91.59319110771905 292.074358336129 103.38445430083965 280.2838662337894 110.12250257566596 Z M 265.1231933578654 263.4094381467537 C 260.0699784395711 268.46291009530813 253.3316731344843 271.83180571759124 248.27845821619027 271.83180571759124 L 248.27845821619027 271.83180571759124 C 243.2252432978961 271.83180571759124 236.48693799280926 268.46291009530813 229.7496608087641 263.4094381467537 C 229.7496608087641 265.0940144730252 229.7496608087641 266.7783337690365 229.7496608087641 268.46291009530813 C 229.7496608087641 281.9387496147004 233.11778534026598 293.73001280782086 236.48693799280926 300.46780405238695 C 241.54015291110366 310.574747949496 246.59439595043932 315.6282198980508 248.27845821619027 315.6282198980508 C 249.96252048194128 315.6282198980508 255.01676352127683 310.574747949496 258.38488805277865 300.46780405238695 C 261.75404070532187 292.04543648154936 265.1231933578654 281.9387496147004 265.1231933578654 268.46291009530813 C 265.1231933578654 266.7783337690365 265.1231933578654 265.0940144730252 265.1231933578654 263.4094381467537 Z M 248.27845821619027 121.91376576878643 L 248.27845821619027 121.91376576878643 L 248.27845821619027 121.91376576878643 L 248.27845821619027 121.91376576878643 C 253.3316731344843 121.91376576878643 256.7008257870277 120.22918944251484 260.0699784395711 116.86029382023187 C 263.4391310921144 113.49139819794888 265.1231933578654 110.12250257566596 265.1231933578654 105.06903062711137 C 265.1231933578654 100.01555867855673 263.4391310921144 94.96208673000206 260.0699784395711 91.59319110771905 C 256.7008257870277 88.22429548543612 253.3316731344843 86.53971915916443 248.27845821619027 86.53971915916443 C 243.2252432978961 86.53971915916443 238.17202837960173 88.22429548543612 236.48693799280926 91.59319110771905 C 233.11778534026598 94.96208673000206 231.43372307451514 98.330982352285 231.43372307451514 105.06903062711137 C 231.43372307451514 110.12250257566596 233.11778534026598 113.49139819794888 236.48693799280926 116.86029382023187 C 238.17202837960173 120.22918944251484 243.2252432978961 121.91376576878643 248.27845821619027 121.91376576878643 Z M 234.80287572705834 153.9186597258651 C 229.7496608087641 167.39449924525724 226.38050815622083 185.9238107132041 226.38050815622083 204.45286515089057 C 226.38050815622083 219.6132809965544 229.7496608087641 233.08886348568623 233.11778534026598 241.5112310565238 C 238.17202837960173 249.93359862736133 243.2252432978961 254.987070575916 246.59439595043932 254.987070575916 L 246.59439595043932 254.987070575916 C 249.96252048194128 254.987070575916 256.7008257870277 249.93359862736133 260.0699784395711 241.5112310565238 C 263.4391310921144 231.40454418967502 266.80725562361613 219.6132809965544 266.80725562361613 204.45286515089057 C 266.80725562361613 185.9238107132041 263.4391310921144 165.7099229189856 258.38488805277865 153.9186597258651 C 255.01676352127683 143.81197285901618 249.96252048194128 137.07392458418985 244.90930556364705 137.07392458418985 L 244.90930556364705 137.07392458418985 L 244.90930556364705 137.07392458418985 L 244.90930556364705 137.07392458418985 C 243.2252432978961 137.07392458418985 238.17202837960173 143.81197285901618 234.80287572705834 153.9186597258651 Z" stroke="none" stroke-linejoin="miter" stroke-linecap="butt" fill="#F2C2CF" fill-rule="nonzero"/></g></svg></svg>