<svg id="draw.id" overflow="visible" v:ver="3" x="500.5" xmlns="http://www.w3.org/2000/svg" xmlns:v="http://vecta.io" xmlns:xlink="http://www.w3.org/1999/xlink" y="500.5" v:layers="{&quot;default&quot;:{&quot;name&quot;:&quot;Default&quot;,&quot;print&quot;:1,&quot;display&quot;:1,&quot;publish&quot;:1}}" v:stencils="{&quot;0&quot;:{&quot;id&quot;:&quot;stencil_25&quot;,&quot;expand&quot;:1,&quot;show_name&quot;:1},&quot;1&quot;:{&quot;id&quot;:&quot;stencil_65&quot;,&quot;expand&quot;:1,&quot;show_name&quot;:1}}"><style xmlns="http://www.w3.org/1999/xhtml"><![CDATA[#draw\.id{stroke:#000;stroke-linecap:round;stroke-linejoin:round;fill:#fff;fill-rule:evenodd;font-family:Roboto;font-size:14px;text-anchor:middle}#draw\.id text{paint-order:stroke;white-space:pre}#draw\.id .Text\.cls{stroke:none}]]></style><defs><style type="text/css">@import url('https://fonts.googleapis.com/css?family=Roboto+Condensed:400,400i,700,700i');@import url('https://fonts.googleapis.com/css?family=Roboto:400,400i,700,700i');@import url('https://fonts.googleapis.com/css?family=Cousine:400,400i,700,700i');@import url('https://fonts.googleapis.com/css?family=Anonymous+Pro:400,400i,700,700i');@import url('https://fonts.googleapis.com/css?family=Lato:400,400i,700,700i');@import url('https://fonts.googleapis.com/css?family=Open+Sans:400,400i,700,700i');</style></defs><title xmlns="http://www.w3.org/1999/xhtml">Untitled drawing</title><desc xmlns="http://www.w3.org/1999/xhtml"></desc><svg height="500" id="kwpfkecs3d" overflow="visible" v:setup="{&quot;paper&quot;:&quot;CUSTOM&quot;,&quot;unit&quot;:&quot;px&quot;,&quot;scale&quot;:{&quot;from&quot;:&quot;1&quot;,&quot;to&quot;:&quot;1&quot;},&quot;width&quot;:&quot;500px&quot;,&quot;height&quot;:&quot;500px&quot;,&quot;margin&quot;:{&quot;top&quot;:&quot;0&quot;,&quot;bottom&quot;:&quot;0&quot;,&quot;left&quot;:&quot;0&quot;,&quot;right&quot;:&quot;0&quot;}}" viewBox="0 0 500 500" width="500"><g id="kwpifop53f2" transform="translate(2.537405057852453 30)" class=""><path d="M 458.19337849716635 73.55611435712538 C 455.1283552847699 64.3615123768191 447.46626491066183 55.16691039651285 439.80417453655383 49.037331628603035 C 441.336218485869 41.375241254495016 444.4012416982654 32.180639274188756 447.46626491066183 26.05106050627897 C 452.0633320723735 15.324180748216055 456.66039923408493 6.129578767909782 448.99830885997704 3.064789383954891 C 444.4012416982654 1.5322777777566496 439.80417453655383 1.5322777777566496 435.20710737484256 3.064789383954891 L 435.20710737484256 0 L 430.6100402131306 0 C 412.22083625251804 3.064789383954891 396.8966555043022 16.856458525972705 392.29958834259077 35.24566248658524 C 370.8453611695818 38.31045187054013 352.4561572089692 56.699422002711074 349.39113399657265 59.764211386665984 L 292.6924134791865 102.67196424735923 C 275.8352534678888 102.67196424735923 148.64474032044896 101.13945264116101 111.86680005610708 95.00987387325122 C 88.88052893378301 91.9450844892963 56.69965583115267 91.9450844892963 36.778407921225046 107.26926523751234 C 26.051294334720552 116.46363338937704 19.92171556681078 130.2555363598364 19.92171556681078 145.5797171080525 C 19.92171556681078 148.6445064920074 19.92171556681078 153.2418074821605 19.92171556681078 156.30659686611543 C 15.324180748216051 162.43617563402518 0 202.2791391107636 9.194601980306262 242.12210258750204 C 16.856692354414292 280.4325544580422 10.72711358650451 292.6917119938616 10.72711358650451 292.6917119938616 L 0 306.483614964321 L 15.324180748216051 300.35380236796965 C 19.92171556681078 298.821524590213 24.51878272852231 295.7567352062581 27.583805940918804 292.6917119938616 C 24.51878272852231 308.0158927420777 29.11631754711704 349.3913678250145 30.648361496432102 360.118247583077 C 27.583805940918804 364.71554857323025 27.583805940918804 370.84512734114014 29.11631754711704 376.9747061090499 L 29.11631754711704 381.5720070992032 L 68.9588133669722 381.5720070992032 L 68.9588133669722 376.9747061090499 C 68.9588133669722 370.84512734114014 67.42676941765717 364.71554857323025 62.829234599062445 360.118247583077 L 62.829234599062445 326.4050967026901 L 73.55634818556697 357.0534581991225 C 72.0238365793687 361.6505253608339 67.42676941765717 373.909916725095 72.0238365793687 380.03972932144615 L 73.55634818556697 383.1045187054013 L 111.86680005610708 383.1045187054013 L 111.86680005610708 378.5072177152481 C 110.33428844990884 367.7803379571852 107.26926523751233 357.0534581991225 101.13968646960257 347.858856218816 C 93.47759609549455 335.5994648545549 95.01010770169277 312.61319373223085 98.07513091408924 306.483614964321 C 101.13968646960257 300.35380236796965 116.46386721781863 263.57586210362786 122.59344598572841 249.78419296160996 C 142.51516155253915 258.97856111347477 176.2280786044846 268.173163093781 234.45977838495224 268.173163093781 C 248.2519151838533 268.173163093781 262.0440519827543 268.173163093781 278.9002766802854 266.6406514875827 C 281.9652998926819 281.9648322357988 286.56236705439346 304.95110335812296 286.56236705439346 314.14570533842914 C 286.56236705439346 329.46988608664515 285.0303231050783 350.923645602771 285.0303231050783 358.58573597687916 C 280.4323206296004 364.71554857323025 278.9002766802854 372.3776389473383 280.4323206296004 378.5072177152481 L 281.9652998926819 383.1045187054013 L 321.8077957125371 383.1045187054013 L 321.8077957125371 381.5720070992032 L 321.8077957125371 383.1045187054013 L 358.5862036337621 383.1045187054013 L 358.5862036337621 378.5072177152481 C 358.5862036337621 367.7803379571852 355.52118042136556 363.1830369670324 352.4561572089692 360.118247583077 C 349.39113399657265 352.4561572089692 347.85909004725767 343.26155522866304 349.39113399657265 335.5994648545549 C 352.4561572089692 317.210494722384 352.4561572089692 297.2890129840148 347.85909004725767 278.90004285184375 C 344.7940668348612 258.97856111347477 355.52118042136556 239.05707937510545 355.52118042136556 239.05707937510545 L 398.4286994536172 142.51492772409756 C 403.0257666153287 144.04720550185425 409.1558130401218 147.11199488580914 413.7528802018334 147.11199488580914 C 418.34994736354474 150.17701809820568 447.46626491066183 165.50119884642166 468.9204920836708 165.50119884642166 C 471.9845799823012 165.50119884642166 475.04960319469734 165.50119884642166 479.6466703564092 163.96868724022332 C 485.77671678120197 162.43617563402518 490.37378394291363 157.83910847231368 493.4388071553103 153.2418074821605 C 505.69796469112964 124.12572376348507 487.3087607305171 107.26926523751234 473.5175592453826 91.9450844892963 C 467.3875128205895 87.34778349914316 461.25840170956286 81.21820473123339 458.19337849716635 73.55611435712538 Z M 442.86919774895034 10.726879758062914 C 441.336218485869 13.791669142017808 439.80417453655383 18.388970132170943 438.2721305872389 21.453759516125828 C 435.20710737484256 27.583572112477217 432.142084162446 35.24566248658524 430.6100402131306 42.90775286069327 L 427.54501700073416 41.375241254495016 C 429.0770609500493 36.777940264341886 430.6100402131306 32.180639274188756 432.142084162446 29.11584989023386 C 435.20710737484256 24.51854890008074 436.73915132415726 19.92148173836919 438.2721305872389 13.791669142017808 C 439.80417453655383 12.259391364261155 441.336218485869 10.726879758062914 442.86919774895034 10.726879758062914 L 442.86919774895034 10.726879758062914 Z M 35.24589631502685 257.4462833357181 C 33.713384708828585 242.12210258750204 32.18087310263034 225.2654102330877 32.18087310263034 209.94122948487166 L 33.713384708828585 214.5385304750247 C 38.31045187054012 222.2006208491329 39.842963476738376 231.39498900099744 42.907986689134844 240.5895909813037 C 44.440498295333114 252.84898234556485 41.37547508293662 263.57586210362786 36.778407921225046 274.30274186169066 C 36.778407921225046 271.2379524777358 35.24589631502685 265.10837370982597 35.24589631502685 257.4462833357181 Z M 21.45422717300902 285.0296216197537 C 22.986271122324077 269.7054408715375 21.45422717300902 255.91377172951974 18.389203960612523 240.5895909813037 C 15.324180748216051 219.13583146517792 15.324180748216051 199.2143497268087 21.45422717300902 179.29286798843958 C 22.986271122324077 183.8901689785926 24.51878272852231 190.01974774650245 26.051294334720552 194.61704873665553 C 19.92171556681078 202.2791391107636 21.45422717300902 222.2006208491329 24.51878272852231 258.97856111347477 C 26.051294334720552 266.6406514875827 26.051294334720552 274.30274186169066 26.051294334720552 277.36753124564564 C 26.051294334720552 278.90004285184375 24.51878272852231 281.9648322357988 21.45422717300902 285.0296216197537 Z M 88.88052893378301 298.821524590213 C 84.28299411518826 308.0158927420777 82.75095016587323 335.5994648545549 91.9450844892963 350.923645602771 C 96.54261930789106 357.0534581991225 98.07513091408924 363.1830369670324 99.6071748634043 370.84512734114014 L 79.68592695347675 370.84512734114014 C 79.68592695347675 366.2478263509871 81.21843855967496 361.6505253608339 82.75095016587323 357.0534581991225 L 84.28299411518826 355.520946592924 L 67.42676941765717 306.483614964321 L 105.73722128819728 237.52480159734873 C 108.80177684371064 239.05707937510545 110.33428844990884 240.5895909813037 113.39931166230534 242.12210258750204 C 105.73722128819728 260.5110727196728 90.41304053998127 294.2242236000599 88.88052893378301 298.821524590213 Z M 318.74277250014063 366.2478263509871 C 318.74277250014063 361.6505253608339 315.67868460151044 358.58573597687916 312.613661389114 357.0534581991225 C 312.613661389114 340.19676584470807 314.14570533842914 331.00216386440195 315.67868460151044 327.93737448044664 C 315.67868460151044 327.93737448044664 315.67868460151044 327.93737448044664 317.2107285508255 326.4050967026901 C 320.2757517632221 337.13197646075315 321.8077957125371 347.858856218816 321.8077957125371 358.58573597687916 C 320.2757517632221 360.118247583077 318.74277250014063 363.1830369670324 318.74277250014063 366.2478263509871 Z M 482.71169356880563 148.6445064920074 C 481.17964961949053 151.70929587596228 478.1146264070939 153.2418074821605 475.04960319469734 154.77408525991714 C 459.7254224464815 159.37138625007037 427.54501700073416 144.04720550185425 416.81790341422976 139.4499045117012 L 416.81790341422976 139.4499045117012 L 415.285859464915 139.4499045117012 C 415.285859464915 139.4499045117012 381.57247475608614 133.32032574379136 375.44242833129323 108.80154301526903 L 367.7803379571852 110.33405462146735 C 370.8453611695818 122.59344598572844 378.50745154368946 131.78781413759313 389.23456513019426 137.91762673394447 L 346.3270460979425 232.92750060719567 C 338.6649557238346 246.7191697492134 335.599932511438 263.57586210362786 337.13197646075304 278.90004285184375 C 340.1969996731495 297.2890129840148 341.72904362246453 314.14570533842914 338.6649557238346 332.5346754706001 C 337.13197646075304 343.26155522866304 338.6649557238346 355.520946592924 343.26202288554606 364.71554857323025 L 343.26202288554606 366.2478263509871 L 344.7940668348612 366.2478263509871 C 344.7940668348612 366.2478263509871 346.3270460979425 367.7803379571852 346.3270460979425 370.84512734114014 L 326.40486287424864 370.84512734114014 C 326.40486287424864 367.7803379571852 326.40486287424864 366.2478263509871 327.93784213733005 364.71554857323025 L 329.4698860866451 363.1830369670324 L 329.4698860866451 361.6505253608339 C 329.4698860866451 357.0534581991225 326.40486287424864 321.8077957125371 318.74277250014063 308.0158927420777 C 320.2757517632221 298.821524590213 320.2757517632221 285.0296216197537 320.2757517632221 262.0433504974296 C 331.0028653497266 251.31647073936665 337.13197646075304 235.99228999115067 340.1969996731495 220.6681092429347 L 329.4698860866451 219.13583146517792 C 327.93784213733005 232.92750060719567 321.8077957125371 245.18689197145687 311.08068212603246 255.91377172951974 L 309.5486381767175 257.4462833357181 L 309.5486381767175 260.5110727196728 C 309.5486381767175 285.0296216197537 308.01659422740244 314.14570533842914 304.951571015006 320.27528410633886 C 301.8865478026094 321.8077957125371 298.8215245902129 327.93737448044664 298.8215245902129 358.58573597687916 L 298.8215245902129 363.1830369670324 L 303.41859175192457 364.71554857323025 C 304.951571015006 364.71554857323025 306.48361496432096 367.7803379571852 306.48361496432096 370.84512734114014 L 286.56236705439346 370.84512734114014 C 286.56236705439346 367.7803379571852 286.56236705439346 364.71554857323025 289.6273902667898 363.1830369670324 L 292.6924134791865 361.6505253608339 L 292.6924134791865 358.58573597687916 C 292.6924134791865 358.58573597687916 294.2244574285015 331.00216386440195 294.2244574285015 312.61319373223085 C 294.2244574285015 294.2242236000599 281.9652998926819 245.18689197145687 281.9652998926819 242.12210258750204 L 272.77023025549244 245.18689197145687 C 272.77023025549244 245.18689197145687 274.30320951857396 248.2516813554118 275.8352534678888 254.38126012332145 C 163.96892106866503 263.57586210362786 121.0614020364134 237.52480159734873 110.33428844990884 229.86271122324078 L 113.39931166230534 223.7328986268895 L 104.20470968199903 219.13583146517792 L 52.102588669441104 312.61319373223085 L 52.102588669441104 361.6505253608339 L 52.102588669441104 364.71554857323025 L 53.634632618756164 366.2478263509871 C 55.16714422495442 367.7803379571852 56.69965583115267 369.3126157349419 56.69965583115267 370.84512734114014 L 38.31045187054012 370.84512734114014 C 38.31045187054012 369.3126157349419 38.31045187054012 367.7803379571852 38.31045187054012 366.2478263509871 L 41.37547508293662 364.71554857323025 L 39.842963476738376 361.6505253608339 C 38.31045187054012 355.520946592924 33.713384708828585 301.88631397416793 36.778407921225046 294.2242236000599 C 47.50505385084639 278.90004285184375 53.634632618756164 260.5110727196728 52.102588669441104 240.5895909813037 C 50.57007706324288 231.39498900099744 47.50505385084639 220.6681092429347 42.907986689134844 211.47374109106983 C 35.24589631502685 193.08453713045733 27.583805940918804 173.16328922052963 29.11631754711704 145.5797171080525 C 29.11631754711704 133.32032574379136 35.24589631502685 122.59344598572844 42.907986689134844 116.46363338937704 C 59.76467904354914 102.67196424735923 88.88052893378301 102.67196424735923 110.33428844990884 105.73675363131416 C 148.64474032044896 111.86656622766547 288.0944110037085 111.86656622766547 294.2244574285015 113.39884400542215 L 295.75650137781645 113.39884400542215 L 355.52118042136556 67.426301760774 L 355.52118042136556 67.426301760774 C 355.52118042136556 67.426301760774 370.8453611695818 50.569843234801304 387.70158586711267 47.50482002240482 C 387.70158586711267 52.10212101255794 386.1695419177978 56.699422002711074 387.70158586711267 61.29672299286422 L 398.4286994536172 61.29672299286422 C 398.4286994536172 59.764211386665984 395.3636762412209 22.986271122324077 427.54501700073416 13.791669142017808 C 427.54501700073416 18.388970132170943 426.01203773765275 22.986271122324077 422.9479498390227 26.05106050627897 C 416.81790341422976 35.24566248658524 413.7528802018334 47.50482002240482 415.285859464915 58.23193360890932 L 426.01203773765275 56.699422002711074 C 426.01203773765275 55.16691039651285 426.01203773765275 53.63463261875617 426.01203773765275 53.63463261875617 C 436.73915132415726 58.23193360890932 444.4012416982654 65.89402398301735 448.99830885997704 76.62090374108026 C 452.0633320723735 84.28299411518829 458.19337849716635 91.9450844892963 465.8554688712745 99.60717486340435 L 468.9204920836708 102.67196424735923 L 450.5312881230584 134.85283734998956 L 459.7254224464815 139.4499045117012 L 476.58258245777887 110.33405462146735 C 484.24467283188704 121.06093437953015 490.37378394291363 131.78781413759313 482.71169356880563 148.6445064920074 Z" stroke="none" stroke-linejoin="miter" stroke-linecap="butt" fill="#F2C2CF" fill-rule="nonzero"/></g></svg></svg>