<svg id="draw.id" overflow="visible" v:ver="3" x="500.5" xmlns="http://www.w3.org/2000/svg" xmlns:v="http://vecta.io" xmlns:xlink="http://www.w3.org/1999/xlink" y="500.5" v:layers="{&quot;default&quot;:{&quot;name&quot;:&quot;Default&quot;,&quot;print&quot;:1,&quot;display&quot;:1,&quot;publish&quot;:1}}" v:stencils="{&quot;0&quot;:{&quot;id&quot;:&quot;stencil_25&quot;,&quot;expand&quot;:1,&quot;show_name&quot;:1},&quot;1&quot;:{&quot;id&quot;:&quot;stencil_65&quot;,&quot;expand&quot;:1,&quot;show_name&quot;:1}}"><style xmlns="http://www.w3.org/1999/xhtml"><![CDATA[#draw\.id{stroke:#000;stroke-linecap:round;stroke-linejoin:round;fill:#fff;fill-rule:evenodd;font-family:Roboto;font-size:14px;text-anchor:middle}#draw\.id text{paint-order:stroke;white-space:pre}#draw\.id .Text\.cls{stroke:none}]]></style><defs><style type="text/css">@import url('https://fonts.googleapis.com/css?family=Roboto+Condensed:400,400i,700,700i');@import url('https://fonts.googleapis.com/css?family=Roboto:400,400i,700,700i');@import url('https://fonts.googleapis.com/css?family=Cousine:400,400i,700,700i');@import url('https://fonts.googleapis.com/css?family=Anonymous+Pro:400,400i,700,700i');@import url('https://fonts.googleapis.com/css?family=Lato:400,400i,700,700i');@import url('https://fonts.googleapis.com/css?family=Open+Sans:400,400i,700,700i');</style></defs><title xmlns="http://www.w3.org/1999/xhtml">Untitled drawing</title><desc xmlns="http://www.w3.org/1999/xhtml"></desc><svg height="500" id="kwpfkecs3d" overflow="visible" v:setup="{&quot;paper&quot;:&quot;CUSTOM&quot;,&quot;unit&quot;:&quot;px&quot;,&quot;scale&quot;:{&quot;from&quot;:&quot;1&quot;,&quot;to&quot;:&quot;1&quot;},&quot;width&quot;:&quot;500px&quot;,&quot;height&quot;:&quot;500px&quot;,&quot;margin&quot;:{&quot;top&quot;:&quot;0&quot;,&quot;bottom&quot;:&quot;0&quot;,&quot;left&quot;:&quot;0&quot;,&quot;right&quot;:&quot;0&quot;}}" viewBox="0 0 500 500" width="500"><g id="kwpicd512d7" transform="translate(28.178151377048266 0)" class=""><path d="M 226.33700790697884 498.429140085289 L 222.33324503347578 379.9501460686688 C 222.33324503347578 377.9074343500727 220.33075270827842 373.8218550639667 220.33075270827842 365.65085234066885 C 220.33075270827842 361.5654289034768 218.32948215997266 349.30900274298705 218.32948215997266 349.30900274298705 L 216.3282116116668 349.30900274298705 C 208.32068586466087 349.30900274298705 198.31188956934884 347.26629102439114 190.30436382234268 347.26629102439114 L 188.30309327403705 347.26629102439114 L 188.30309327403705 349.30900274298705 C 168.28550068341332 375.86456678256246 144.26414521928646 396.2919956663503 118.24151920685378 406.5057101082442 L 116.23963777010226 406.5057101082442 L 124.24655262866261 451.44614716192564 L 142.26287467098066 496.3864283666932 L 26.160471112295188 496.3864283666932 L 0.13784509986257323 369.7364316267748 L 4.14099708491988 367.69371990817893 C 4.14099708491988 367.69371990817893 52.18370801317358 330.9242855777952 30.164233985798255 290.06942781021974 C 22.157319127237884 275.77028993113424 20.155437690486366 257.38557276594247 24.15858967554365 236.95814388215464 L 24.15858967554365 234.91543216355876 L 22.157319127237884 234.91543216355876 C 10.146641395174475 228.7871411588569 2.1397265366141047 216.53071499836702 0.13784509986257323 202.23142127036704 C -1.864036336888959 175.67585723079148 18.153556253734838 140.9491346190039 46.17806370291893 122.56457330272636 L 56.18685999823089 116.43628229802431 L 58.18874143498244 128.6927084585141 C 60.19062287173396 134.82099946321617 62.19250430848552 138.9064229004079 64.19377485679128 142.99200218651407 L 64.19377485679128 145.03471390510987 C 70.19941916704586 153.2057166284079 74.20257115210312 163.4194310703018 74.20257115210312 173.63314551219557 L 74.20257115210312 177.7185689493874 L 78.20633402560622 177.7185689493874 C 82.21009689910923 175.67585723079148 88.21513032091812 175.67585723079148 92.21889319442117 175.67585723079148 C 94.22016374272688 175.67585723079148 98.22392661623 175.67585723079148 102.22768948973302 175.67585723079148 C 104.22896003803879 175.67585723079148 108.23272291154187 175.67585723079148 112.23648578504493 175.67585723079148 C 126.24843406541413 175.67585723079148 162.28046726160454 179.76128066798333 190.30436382234268 179.76128066798333 C 212.32444873816397 179.76128066798333 226.33700790697884 177.7185689493874 230.33954900359043 175.67585723079148 C 252.3596339194113 163.4194310703018 260.36593788952604 136.86371118181205 264.3697007630291 120.52170573521622 L 264.3697007630291 120.52170573521622 C 264.3697007630291 120.52170573521622 264.3697007630291 118.47899401662023 264.3697007630291 118.47899401662023 L 264.3697007630291 116.43628229802431 L 264.3697007630291 116.43628229802431 C 260.36593788952604 112.35085886083246 258.3646673412202 108.26527957472632 256.3633967929144 104.17985613753453 C 252.3596339194113 93.96614169564062 254.36090446771706 79.66684796764078 260.36593788952604 63.324998369959104 L 264.3697007630291 61.28228665136318 L 260.36593788952604 61.28228665136318 C 238.34707475059656 65.36771008855501 204.31692299115767 91.92342997704473 188.30309327403705 108.26527957472632 L 172.28926355691638 126.64999673991821 L 174.29053410522206 102.1371444189386 L 174.29053410522206 102.1371444189386 C 176.29302643041936 87.83785069093867 188.30309327403705 34.72656676287343 226.33700790697884 12.256426160489783 C 240.34834529890222 4.08542343719186 254.36090446771706 0 270.37473418483773 0 C 284.3872933536528 0 300.4011230707736 4.08542343719186 316.41617456478576 10.213714441893863 L 316.41617456478576 10.213714441893863 L 316.41617456478576 10.213714441893863 C 322.4212079865945 8.17084687438372 328.4262414084035 8.17084687438372 332.4300042819064 8.17084687438372 C 360.453900842645 8.17084687438372 386.4777486319689 26.555564039575493 392.48278205377807 36.76927848146939 C 394.4840526020839 42.89756948617136 404.49284889739585 49.02570464195913 412.5003746444021 53.11128392806524 L 416.5041375179051 55.153995646661166 C 428.5142043615228 61.28228665136318 436.5217301085288 65.36771008855501 436.5217301085288 73.53871281185292 C 438.52300065683465 91.92342997704473 430.5154749098286 114.39357057942846 412.5003746444021 120.52170573521622 C 410.4978823192047 120.52170573521622 404.49284889739585 120.52170573521622 398.4878154755869 120.52170573521622 C 390.48028972858066 120.52170573521622 382.4739857584659 120.52170573521622 374.46646001145996 120.52170573521622 L 368.461426589651 120.52170573521622 L 370.4626971379567 124.60728502132226 C 396.4865449272811 218.5734267169629 374.46646001145996 273.7274223636241 358.45263029433943 298.2404305335178 C 352.44759687253037 306.4114332568158 348.4438339990274 312.53956841260344 342.43880057721833 318.6678594173057 L 342.43880057721833 318.6678594173057 L 342.43880057721833 318.6678594173057 C 332.4300042819064 369.7364316267748 326.4249708600977 416.7194245501381 328.4262414084035 453.4888588805217 L 328.4262414084035 453.4888588805217 L 346.4425634507215 498.429140085289 L 226.33700790697884 498.429140085289 Z M 292.3948191006588 484.13000220620313 L 320.4187156613973 484.13000220620313 L 312.4124116912828 465.7452850410115 L 284.3872933536528 465.7452850410115 L 292.3948191006588 484.13000220620313 Z M 242.35083762409957 484.13000220620313 L 276.38098938353806 484.13000220620313 L 268.3734636365322 465.7452850410115 L 240.34834529890222 465.7452850410115 L 242.35083762409957 484.13000220620313 Z M 90.21701175766968 484.13000220620313 L 118.24151920685378 484.13000220620313 L 110.23460434829337 465.7452850410115 L 82.21009689910923 465.7452850410115 L 90.21701175766968 484.13000220620313 Z M 38.17114884435861 484.13000220620313 L 74.20257115210312 484.13000220620313 L 66.1956562935428 465.7452850410115 L 34.16738597085555 465.7452850410115 L 38.17114884435861 484.13000220620313 Z M 226.33700790697884 306.4114332568158 C 230.33954900359043 330.9242855777952 234.34331187709347 359.52271718488095 236.3458042022908 373.8218550639667 C 236.3458042022908 377.9074343500727 236.3458042022908 379.9501460686688 238.34707475059656 379.9501460686688 L 238.34707475059656 379.9501460686688 L 240.34834529890222 447.36056787581964 L 264.3697007630291 447.36056787581964 L 268.3734636365322 390.16386051056264 L 268.3734636365322 390.16386051056264 C 272.37722651003514 373.8218550639667 282.386022805347 353.3944261801791 290.39232677546147 330.9242855777952 C 292.3948191006588 326.8388621406036 294.39608964896473 322.75328285449746 294.39608964896473 320.71057113590143 C 298.3998525224678 312.53956841260344 300.4011230707736 306.4114332568158 302.403615395971 300.2831422521137 L 318.4174451130917 304.36856568930557 C 318.4174451130917 306.4114332568158 316.41617456478576 310.49685669400776 314.4136822395883 314.5822801311997 L 312.4124116912828 322.75328285449746 L 318.4174451130917 318.6678594173057 C 328.4262414084035 312.53956841260344 338.43503770371535 302.32585397070983 344.4400711255243 292.11213952881576 C 358.45263029433943 269.64199892643234 378.4702228849632 218.5734267169629 352.44759687253037 126.64999673991821 L 360.453900842645 120.52170573521622 L 352.44759687253037 120.52170573521622 C 348.4438339990274 120.52170573521622 344.4400711255243 120.52170573521622 342.43880057721833 118.47899401662023 L 342.43880057721833 102.1371444189386 C 362.45639316784235 104.17985613753453 386.4777486319689 106.22256785613048 400.4890860238927 106.22256785613048 C 404.49284889739585 106.22256785613048 406.495341222593 106.22256785613048 408.4966117708989 106.22256785613048 C 416.5041375179051 102.1371444189386 420.5066786145165 89.88056240953459 420.5066786145165 77.6241362490448 L 420.5066786145165 75.58142453044881 L 418.50540806621075 75.58142453044881 C 416.5041375179051 73.53871281185292 410.4978823192047 71.49600109325704 408.4966117708989 69.45313352574686 L 408.4966117708989 69.45313352574686 C 396.4865449272811 63.324998369959104 384.47525630677217 57.19670736525708 378.4702228849632 44.940281204767295 C 374.46646001145996 38.81199020006529 354.4488674208362 24.512852320979565 332.4300042819064 24.512852320979565 L 330.4275119567093 24.512852320979565 C 312.4124116912828 24.512852320979565 298.3998525224678 34.72656676287343 286.38978567885 51.0685722094693 C 286.38978567885 51.0685722094693 286.38978567885 51.0685722094693 286.38978567885 53.11128392806524 C 286.38978567885 53.11128392806524 286.38978567885 53.11128392806524 286.38978567885 55.153995646661166 C 284.3872933536528 57.19670736525708 284.3872933536528 57.19670736525708 284.3872933536528 59.239419083853015 C 276.38098938353806 73.53871281185292 270.37473418483773 89.88056240953459 274.37849705834094 102.1371444189386 C 276.38098938353806 106.22256785613048 278.38225993184386 110.30799129332233 284.3872933536528 112.35085886083246 C 286.38978567885 112.35085886083246 286.38978567885 112.35085886083246 288.3910562271556 112.35085886083246 C 292.3948191006588 112.35085886083246 294.39608964896473 110.30799129332233 296.3985819741618 108.26527957472632 C 304.4048859442766 98.05156513283258 306.4073782694737 75.58142453044881 302.403615395971 65.36771008855501 L 316.41617456478576 57.19670736525708 C 320.4187156613973 69.45313352574686 320.4187156613973 102.1371444189386 308.4086488177797 116.43628229802431 C 302.403615395971 122.56457330272636 296.3985819741618 126.64999673991821 288.3910562271556 126.64999673991821 C 286.38978567885 126.64999673991821 286.38978567885 126.64999673991821 284.3872933536528 126.64999673991821 L 282.386022805347 126.64999673991821 L 282.386022805347 128.6927084585141 C 278.38225993184386 145.03471390510987 268.3734636365322 175.67585723079148 240.34834529890222 189.97499510987717 C 232.34204132878767 194.06057439598334 216.3282116116668 196.10328611457922 192.30685614753997 196.10328611457922 C 174.29053410522206 196.10328611457922 150.26978952954104 196.10328611457922 114.23775633335073 192.01770682847314 L 106.23084147479032 192.01770682847314 C 100.22580805298152 192.01770682847314 96.22204517947843 192.01770682847314 94.22016374272688 192.01770682847314 C 76.20445258885465 192.01770682847314 58.18874143498244 202.23142127036704 48.179945139670494 222.65885015415472 C 36.169267407607094 243.08627903794252 36.169267407607094 267.59928720783626 44.17618226616744 281.898425086922 C 72.20130060379736 328.88157385919936 28.162352549046716 369.7364316267748 20.155437690486366 377.9074343500727 L 18.153556253734838 377.9074343500727 L 32.166115422549794 447.36056787581964 L 62.19250430848552 447.36056787581964 L 52.18370801317358 386.0782812244566 L 58.18874143498244 384.0355695058605 C 88.21513032091812 373.8218550639667 94.22016374272688 361.5654289034768 114.23775633335073 330.9242855777952 L 116.23963777010226 328.88157385919936 C 118.24151920685378 326.8388621406036 118.24151920685378 324.79599457309337 120.24340064360534 320.71057113590143 L 124.24655262866261 314.5822801311997 L 130.25219693891722 316.6251476987096 C 150.26978952954104 324.79599457309337 186.30182272573134 332.9669972963913 212.32444873816397 335.0097090149871 L 216.3282116116668 335.0097090149871 L 216.3282116116668 330.9242855777952 C 214.3257192864697 322.75328285449746 214.3257192864697 314.5822801311997 212.32444873816397 306.4114332568158 L 212.32444873816397 306.4114332568158 L 226.33700790697884 306.4114332568158 Z M 318.4174451130917 332.9669972963913 C 314.4136822395883 335.0097090149871 310.4099193660855 335.0097090149871 306.4073782694737 337.05257658249747 L 304.4048859442766 337.05257658249747 L 304.4048859442766 339.0952883010932 L 300.4011230707736 349.30900274298705 C 294.39608964896473 365.65085234066885 288.3910562271556 379.9501460686688 284.3872933536528 392.20657222915844 L 284.3872933536528 392.20657222915844 L 280.3835304801498 447.36056787581964 L 310.4099193660855 447.36056787581964 L 310.4099193660855 445.31785615722384 C 310.4099193660855 416.7194245501381 314.4136822395883 379.9501460686688 320.4187156613973 337.05257658249747 L 320.4187156613973 332.9669972963913 L 318.4174451130917 332.9669972963913 Z M 128.25031550216562 335.0097090149871 C 128.25031550216562 337.05257658249747 128.25031550216562 337.05257658249747 128.25031550216562 335.0097090149871 C 126.24843406541413 337.05257658249747 126.24843406541413 337.05257658249747 126.24843406541413 337.05257658249747 L 126.24843406541413 337.05257658249747 L 124.24655262866261 339.0952883010932 C 106.23084147479032 367.69371990817893 98.22392661623 381.9928577872646 70.19941916704586 394.24928394775435 L 68.1975377302943 394.24928394775435 L 76.20445258885465 445.31785615722384 L 106.23084147479032 445.31785615722384 L 96.22204517947843 396.2919956663503 L 102.22768948973302 394.24928394775435 C 126.24843406541413 386.0782812244566 146.26602665603798 369.7364316267748 166.2836192466618 347.26629102439114 L 168.28550068341332 343.1807117382851 L 164.28173780991023 343.1807117382851 C 152.2716709662926 341.1380000196891 140.2609932342292 337.05257658249747 130.25219693891722 335.0097090149871 L 128.25031550216562 335.0097090149871 L 128.25031550216562 335.0097090149871 Z M 44.17618226616744 147.07742562370584 C 26.160471112295188 163.4194310703018 14.149793380231781 185.88957167268532 16.151674816983302 200.18870955177118 C 16.151674816983302 208.35971227506906 20.155437690486366 214.4880032797711 26.160471112295188 216.53071499836702 L 28.162352549046716 218.5734267169629 L 28.162352549046716 216.53071499836702 C 28.162352549046716 216.53071499836702 28.162352549046716 214.4880032797711 28.162352549046716 214.4880032797711 C 28.162352549046716 214.4880032797711 28.162352549046716 212.44513571226096 30.164233985798255 212.44513571226096 C 36.169267407607094 202.23142127036704 44.17618226616744 194.06057439598334 54.184978561479355 185.88957167268532 L 54.184978561479355 185.88957167268532 L 54.184978561479355 183.84685995408947 C 56.18685999823089 171.59027794468545 54.184978561479355 163.4194310703018 48.179945139670494 153.2057166284079 L 46.17806370291893 142.99200218651407 L 44.17618226616744 147.07742562370584 Z M 270.37473418483773 16.34184959768164 C 258.3646673412202 16.34184959768164 246.35460049760255 20.427428883787726 234.34331187709347 26.555564039575493 C 220.33075270827842 34.72656676287343 208.32068586466087 49.02570464195913 198.31188956934884 71.49600109325704 L 202.3156524428519 75.58142453044881 C 216.3282116116668 65.36771008855501 242.35083762409957 46.98299292336321 264.3697007630291 46.98299292336321 C 266.37219308822637 46.98299292336321 268.3734636365322 46.98299292336321 268.3734636365322 46.98299292336321 L 270.37473418483773 46.98299292336321 L 272.37722651003514 44.940281204767295 L 272.37722651003514 44.940281204767295 C 272.37722651003514 44.940281204767295 272.37722651003514 44.940281204767295 272.37722651003514 44.940281204767295 C 272.37722651003514 44.940281204767295 272.37722651003514 44.940281204767295 272.37722651003514 42.89756948617136 C 276.38098938353806 36.76927848146939 282.386022805347 30.64114332568159 288.3910562271556 24.512852320979565 L 296.3985819741618 20.427428883787726 L 290.39232677546147 18.384561316277576 C 284.3872933536528 18.384561316277576 278.38225993184386 16.34184959768164 270.37473418483773 16.34184959768164 Z" stroke="none" stroke-linejoin="miter" stroke-linecap="butt" fill="#F2C2CF" fill-rule="nonzero"/></g></svg></svg>