<svg id="draw.id" overflow="visible" v:ver="3" x="500.5" xmlns="http://www.w3.org/2000/svg" xmlns:v="http://vecta.io" xmlns:xlink="http://www.w3.org/1999/xlink" y="500.5" v:layers="{&quot;default&quot;:{&quot;name&quot;:&quot;Default&quot;,&quot;print&quot;:1,&quot;display&quot;:1,&quot;publish&quot;:1}}" v:stencils="{&quot;0&quot;:{&quot;id&quot;:&quot;stencil_25&quot;,&quot;expand&quot;:1,&quot;show_name&quot;:1},&quot;1&quot;:{&quot;id&quot;:&quot;stencil_65&quot;,&quot;expand&quot;:1,&quot;show_name&quot;:1}}"><style xmlns="http://www.w3.org/1999/xhtml"><![CDATA[#draw\.id{stroke:#000;stroke-linecap:round;stroke-linejoin:round;fill:#fff;fill-rule:evenodd;font-family:Roboto;font-size:14px;text-anchor:middle}#draw\.id text{paint-order:stroke;white-space:pre}#draw\.id .Text\.cls{stroke:none}]]></style><defs><style type="text/css">@import url('https://fonts.googleapis.com/css?family=Roboto+Condensed:400,400i,700,700i');@import url('https://fonts.googleapis.com/css?family=Roboto:400,400i,700,700i');@import url('https://fonts.googleapis.com/css?family=Cousine:400,400i,700,700i');@import url('https://fonts.googleapis.com/css?family=Anonymous+Pro:400,400i,700,700i');@import url('https://fonts.googleapis.com/css?family=Lato:400,400i,700,700i');@import url('https://fonts.googleapis.com/css?family=Open+Sans:400,400i,700,700i');</style></defs><title xmlns="http://www.w3.org/1999/xhtml">Untitled drawing</title><desc xmlns="http://www.w3.org/1999/xhtml"></desc><svg height="500" id="kwpfkecs3d" overflow="visible" v:setup="{&quot;paper&quot;:&quot;CUSTOM&quot;,&quot;unit&quot;:&quot;px&quot;,&quot;scale&quot;:{&quot;from&quot;:&quot;1&quot;,&quot;to&quot;:&quot;1&quot;},&quot;width&quot;:&quot;500px&quot;,&quot;height&quot;:&quot;500px&quot;,&quot;margin&quot;:{&quot;top&quot;:&quot;0&quot;,&quot;bottom&quot;:&quot;0&quot;,&quot;left&quot;:&quot;0&quot;,&quot;right&quot;:&quot;0&quot;}}" viewBox="0 0 500 500" width="500"><g id="kwpibk1u2ci" transform="translate(-0.000013726322118046141 40.69999847412109)" class=""><path d="M 493.74725788653757 47.05639763269032 C 488.87856494293897 37.32062110798906 477.5209224129975 34.07527973501189 458.04912176936466 34.07527973501189 C 456.425893995858 34.07527973501189 453.1814192026867 34.07527973501189 451.55819142917983 34.07527973501189 C 446.6904888625021 24.339503210310664 428.84191599237613 3.2452175758620383 381.78514696834054 0 L 381.78514696834054 0 L 381.78514696834054 0 C 380.1629095717547 0 355.82340636144414 3.2452175758620383 336.3516057178113 42.18844747178212 C 334.72837794430467 45.433788844759285 333.106140547719 48.67900642062133 331.4839031511333 53.54695658152949 C 331.4839031511333 53.54695658152949 331.4839031511333 55.169565369460514 331.4839031511333 55.169565369460514 C 313.63433990408623 98.98062162917365 289.29483669377584 121.6975160515533 209.7863870995803 120.07490726362228 C 198.42775419271777 120.07490726362228 185.446388700809 120.07490726362228 174.08825098240712 120.07490726362228 C 131.8996797135098 118.4522984756913 97.82427618138281 121.6975160515533 79.97520812279616 147.659628049795 C 68.61707040439424 142.79180168600192 42.654834609037394 128.18807500039247 42.654834609037394 97.35801284124265 C 42.654834609037394 76.26372720679399 55.63570491248556 68.15055947002378 68.61707040439424 64.90534189416177 C 79.97520812279616 63.28273310623072 91.33384102965873 66.52795068209278 96.20154359633666 77.88645979184014 C 102.69197874806075 95.73540405331165 114.0506116549232 98.98062162917365 122.16377939169341 97.35801284124265 C 133.522412298556 94.11279526538064 140.01284745027996 82.75428615563321 136.76738228018775 71.39590084300096 C 135.14464969514157 60.03739173325357 123.78651197673956 42.18844747178212 105.93744391815301 32.45267094708088 C 92.95657361470485 25.962111998241674 73.48477297107213 19.471553049402477 47.52253717571534 30.830062159149854 C 28.051231720543132 38.94322989592007 13.447133643588332 51.92422399648335 5.333965906818122 69.77329205506993 C -2.7792018299521004 87.62223631654142 -1.1564692449059535 111.96173952685209 6.956698491864268 133.05590136418556 C 13.447133643588332 146.0370192618639 37.78663685389898 176.8670814210138 65.37160523430191 184.98024915778404 C 65.37160523430191 184.98024915778404 65.37160523430191 186.6028579457151 65.37160523430191 186.6028579457151 C 62.126140064209636 209.31975236809467 62.126140064209636 228.79130541749717 62.126140064209636 241.77242331517556 C 62.126140064209636 267.7345353134173 62.126140064209636 280.71565321109557 44.27756719408353 295.31925609959 L 42.654834609037394 296.94198868463604 L 42.654834609037394 300.18720626049816 C 41.03210202399127 306.67776520933717 31.296201702174923 360.2245979937517 49.145269760761494 381.3188836282003 L 50.76800234580764 382.9414924161314 L 96.20154359633666 382.9414924161314 L 110.80514648483089 382.9414924161314 L 164.35235066059073 382.9414924161314 L 164.35235066059073 374.8283246793611 C 164.35235066059073 356.9793804178897 159.4841529054523 345.62099510525746 149.74874777209635 340.75304494434937 C 140.01284745027996 335.88509478344116 130.2769471284637 339.13043615641845 125.40924456178568 340.75304494434937 C 123.78651197673956 339.13043615641845 123.78651197673956 337.50782736848714 123.78651197673956 335.88509478344116 C 123.78651197673956 332.63987720757893 127.0314819583714 329.39465963171676 128.65421454341754 327.771927046671 C 169.22005322726866 298.56459747256696 180.57868613413117 267.7345353134173 183.8236561157629 253.13080862780788 C 206.54092192948804 259.62136757664706 238.9935928765688 266.1119265254864 269.8230360501431 266.1119265254864 C 282.8048967305121 266.1119265254864 294.16253926045346 264.4893177375552 305.5211721673161 262.86658515250923 L 303.89893477073036 326.1493182587398 C 303.89893477073036 331.0172684196478 303.89893477073036 369.9604983155681 320.1252702442709 386.18683378910856 C 324.99297281094874 391.05466015290153 331.4839031511333 394.3000015258789 337.97384311439686 394.3000015258789 L 385.03061213843284 394.3000015258789 L 388.2760773085251 394.3000015258789 L 428.84191599237613 394.3000015258789 L 428.84191599237613 386.18683378910856 C 428.84191599237613 368.3377657305219 423.9732230487772 355.35677162995876 414.23781791542143 348.8662126811195 C 404.50241278206533 342.37565373228034 394.76601727178866 343.9982625202113 386.65284953501833 345.62099510525746 C 370.42651406147803 292.0740385237278 406.12465017865094 207.69714358016364 406.12465017865094 206.07441099511755 L 406.12465017865094 206.07441099511755 C 412.6155805188356 186.6028579457151 417.4832830855137 159.01813715954228 414.23781791542143 123.32012483948428 C 432.0863907855473 121.6975160515533 472.6522294693983 113.58434831478304 484.0108623762609 90.86745389240339 C 493.74725788653757 79.50906857977114 501.86042562330795 61.66012431829971 493.74725788653757 47.05639763269032 Z M 407.74688757523666 365.09254815466005 C 412.6155805188356 368.3377657305219 414.23781791542143 373.2057158914302 415.8600553120068 382.9414924161314 L 389.89831470511064 382.9414924161314 C 389.89831470511064 378.07366605233835 389.89831470511064 371.58310710349923 386.65284953501833 365.09254815466005 C 393.14377987520277 361.8473305787978 401.25694761197315 360.2245979937517 407.74688757523666 365.09254815466005 Z M 376.91744440166246 16.22633547354044 C 386.65284953501833 35.697888522942904 398.0114824418809 64.90534189416177 391.52055210169635 73.01850963093194 C 388.2760773085251 76.26372720679399 381.78514696834054 76.26372720679399 375.2942166281558 74.64111841886296 C 350.9547134178453 69.77329205506993 344.4647734545817 61.66012431829971 344.4647734545817 58.41478294532254 C 344.4647734545817 56.79217415739152 344.4647734545817 56.79217415739152 344.4647734545817 55.169565369460514 C 355.82340636144414 29.207453371218836 370.42651406147803 19.471553049402477 376.91744440166246 16.22633547354044 Z M 21.560301380358563 126.56546621246144 C 13.447133643588332 110.33913073892103 13.447133643588332 90.86745389240339 19.938063983772896 76.26372720679399 C 26.42849913549701 61.66012431829971 36.164399457313344 51.92422399648335 54.012972327439414 45.433788844759285 C 70.23930780097989 38.94322989592007 86.4656432745203 38.94322989592007 99.44700876642891 47.05639763269032 C 114.0506116549232 55.169565369460514 122.16377939169341 68.15055947002378 123.78651197673956 76.26372720679399 C 125.40924456178568 81.13167736770217 122.16377939169341 84.37689494356424 118.91831422160114 84.37689494356424 C 115.67334423996932 84.37689494356424 112.42787906987706 81.13167736770217 110.80514648483089 74.64111841886296 C 104.31471133310691 56.79217415739152 86.4656432745203 47.05639763269032 65.37160523430191 50.30161520855233 C 49.145269760761494 53.54695658152949 29.67346911712878 66.52795068209278 28.051231720543132 97.35801284124265 C 26.42849913549701 133.05590136418556 52.39073493085371 154.15018699863415 71.862040386026 162.26335473540433 C 70.23930780097989 165.50857231126642 70.23930780097989 168.75391368424357 68.61707040439424 171.99913126010566 C 45.899804590669206 162.26335473540433 26.42849913549701 136.30124273716277 21.560301380358563 126.56546621246144 Z M 118.91831422160114 318.03615052196955 C 117.29607682501543 318.03615052196955 109.18290908824525 326.1493182587398 107.56017650319912 337.50782736848714 C 107.56017650319912 345.62099510525746 110.80514648483089 352.1114302569815 117.29607682501543 358.60198920582064 L 122.16377939169341 361.8473305787978 L 127.0314819583714 358.60198920582064 C 128.65421454341754 356.9793804178897 138.3901148652339 353.7341628420276 143.25781743191183 355.35677162995876 C 146.50328260200402 356.9793804178897 148.12601518705026 361.8473305787978 149.74874777209635 368.3377657305219 L 112.42787906987706 368.3377657305219 C 112.42787906987706 361.8473305787978 110.80514648483089 352.1114302569815 105.93744391815301 345.62099510525746 C 101.06974135147506 340.75304494434937 96.20154359633666 339.13043615641845 89.71110844461259 339.13043615641845 C 89.71110844461259 334.2624859955102 91.33384102965873 326.1493182587398 104.31471133310691 316.4135417340386 C 127.0314819583714 298.56459747256696 151.37098516868204 279.09292062604953 159.4841529054523 248.2629822640147 C 162.72961807554464 249.88559105194577 165.97508324563697 249.88559105194577 169.22005322726866 251.5081998398767 C 165.97508324563697 262.86658515250923 159.4841529054523 290.45142973579675 118.91831422160114 318.03615052196955 Z M 372.0497418349847 347.24360389318844 C 368.8042766648922 345.62099510525746 365.5588114947999 345.62099510525746 360.6911089281221 345.62099510525746 C 357.44564375802975 345.62099510525746 355.82340636144414 345.62099510525746 352.5779411913517 345.62099510525746 C 355.82340636144414 322.90410068287787 362.31334632470765 282.33826199902666 375.2942166281558 257.9987587887159 C 368.8042766648922 285.58347957488866 365.5588114947999 319.6587593099007 372.0497418349847 347.24360389318844 Z M 373.67197923157016 236.90447315426738 C 342.84154568107493 267.7345353134173 336.3516057178113 352.1114302569815 336.3516057178113 356.9793804178897 L 336.3516057178113 368.3377657305219 L 347.7102386246737 365.09254815466005 C 359.0678811546152 361.8473305787978 368.8042766648922 361.8473305787978 372.0497418349847 366.71515694259114 C 375.2942166281558 371.58310710349923 376.91744440166246 376.45093346729215 375.2942166281558 382.9414924161314 L 336.3516057178113 382.9414924161314 C 333.106140547719 382.9414924161314 331.4839031511333 381.3188836282003 328.23843798104093 379.6962748402694 C 318.50204247076425 369.9604983155681 316.8798050741785 339.13043615641845 316.8798050741785 329.39465963171676 L 318.50204247076425 245.0176408910376 L 308.7666373374083 248.2629822640147 C 297.40800443054576 251.5081998398767 284.42713412709764 254.75341741573885 268.2007986535571 254.75341741573885 C 214.65408966625824 254.75341741573885 156.23918292382055 232.03664679047432 154.61645033877434 232.03664679047432 L 146.50328260200402 227.16869662956609 L 144.88055001695798 236.90447315426738 C 141.63558003532617 264.4893177375552 122.16377939169341 282.33826199902666 94.57881101129048 303.4324238363601 C 68.61707040439424 322.90410068287787 71.862040386026 343.9982625202113 78.35247553775004 352.1114302569815 L 79.97520812279616 356.9793804178897 L 84.84340587793464 355.35677162995876 C 86.4656432745203 355.35677162995876 88.0883758595664 353.7341628420276 89.71110844461259 353.7341628420276 C 91.33384102965873 353.7341628420276 92.95657361470485 353.7341628420276 92.95657361470485 355.35677162995876 C 94.57881101129048 358.60198920582064 96.20154359633666 363.46993936672897 96.20154359633666 368.3377657305219 L 96.20154359633666 368.3377657305219 L 57.258437497531695 368.3377657305219 C 50.76800234580764 355.35677162995876 52.39073493085371 324.52670947080867 55.63570491248556 305.05515642140637 C 76.73023814116446 285.58347957488866 76.73023814116446 267.7345353134173 76.73023814116446 241.77242331517556 C 76.73023814116446 227.16869662956609 76.73023814116446 210.9423611560257 79.97520812279616 188.22546673364607 C 86.4656432745203 141.16906910095574 112.42787906987706 133.05590136418556 172.465518397361 133.05590136418556 C 182.20141871917735 133.05590136418556 193.55955643757926 133.05590136418556 208.16315932607364 133.05590136418556 C 256.842165746695 134.67863394923165 287.6725992971899 126.56546621246144 308.7666373374083 110.33913073892103 C 320.1252702442709 123.32012483948428 349.3324760212595 146.0370192618639 394.76601727178866 146.0370192618639 C 396.3892450452951 146.0370192618639 398.0114824418809 146.0370192618639 401.25694761197315 146.0370192618639 C 401.25694761197315 209.31975236809467 375.2942166281558 235.2818643663364 373.67197923157016 236.90447315426738 Z M 471.0299920728128 87.62223631654142 C 461.29458693945685 105.47118057801285 420.728748255606 111.96173952685209 404.50241278206533 111.96173952685209 L 396.3892450452951 111.96173952685209 L 398.0114824418809 120.07490726362228 C 398.0114824418809 123.32012483948428 398.0114824418809 126.56546621246144 399.6337198384663 129.81068378832353 C 357.44564375802975 131.43329257625462 329.86067537762665 110.33913073892103 318.50204247076425 100.60323041710465 C 324.99297281094874 92.49006268033445 331.4839031511333 84.37689494356424 336.3516057178113 74.64111841886296 C 342.84154568107493 81.13167736770217 355.82340636144414 87.62223631654142 372.0497418349847 90.86745389240339 C 375.2942166281558 90.86745389240339 380.1629095717547 92.49006268033445 383.407384364926 92.49006268033445 C 393.14377987520277 92.49006268033445 399.6337198384663 89.24484510447242 402.8791850085586 82.75428615563321 C 414.23781791542143 66.52795068209278 401.25694761197315 35.697888522942904 393.14377987520277 16.22633547354044 C 432.0863907855473 22.716894422379642 438.57732112573194 42.18844747178212 438.57732112573194 43.81105625971315 L 440.19955852231766 50.30161520855233 L 446.6904888625021 50.30161520855233 C 464.5390617326284 48.67900642062133 477.5209224129975 50.30161520855233 480.7653972061688 56.79217415739152 C 484.0108623762609 61.66012431829971 475.89769463949074 79.50906857977114 471.0299920728128 87.62223631654142 Z" stroke="none" stroke-linejoin="miter" stroke-linecap="butt" fill="#F2C2CF" fill-rule="nonzero"/></g></svg></svg>