<svg id="draw.id" overflow="visible" v:ver="3" x="500.5" xmlns="http://www.w3.org/2000/svg" xmlns:v="http://vecta.io" xmlns:xlink="http://www.w3.org/1999/xlink" y="500.5" v:layers="{&quot;default&quot;:{&quot;name&quot;:&quot;Default&quot;,&quot;print&quot;:1,&quot;display&quot;:1,&quot;publish&quot;:1}}" v:stencils="{&quot;0&quot;:{&quot;id&quot;:&quot;stencil_25&quot;,&quot;expand&quot;:1,&quot;show_name&quot;:1},&quot;1&quot;:{&quot;id&quot;:&quot;stencil_65&quot;,&quot;expand&quot;:1,&quot;show_name&quot;:1}}"><style xmlns="http://www.w3.org/1999/xhtml"><![CDATA[#draw\.id{stroke:#000;stroke-linecap:round;stroke-linejoin:round;fill:#fff;fill-rule:evenodd;font-family:Roboto;font-size:14px;text-anchor:middle}#draw\.id text{paint-order:stroke;white-space:pre}#draw\.id .Text\.cls{stroke:none}]]></style><defs><style type="text/css">@import url('https://fonts.googleapis.com/css?family=Roboto+Condensed:400,400i,700,700i');@import url('https://fonts.googleapis.com/css?family=Roboto:400,400i,700,700i');@import url('https://fonts.googleapis.com/css?family=Cousine:400,400i,700,700i');@import url('https://fonts.googleapis.com/css?family=Anonymous+Pro:400,400i,700,700i');@import url('https://fonts.googleapis.com/css?family=Lato:400,400i,700,700i');@import url('https://fonts.googleapis.com/css?family=Open+Sans:400,400i,700,700i');</style></defs><title xmlns="http://www.w3.org/1999/xhtml">Untitled drawing</title><desc xmlns="http://www.w3.org/1999/xhtml"></desc><svg height="500" id="kwpfkecs3d" overflow="visible" v:setup="{&quot;paper&quot;:&quot;CUSTOM&quot;,&quot;unit&quot;:&quot;px&quot;,&quot;scale&quot;:{&quot;from&quot;:&quot;1&quot;,&quot;to&quot;:&quot;1&quot;},&quot;width&quot;:&quot;500px&quot;,&quot;height&quot;:&quot;500px&quot;,&quot;margin&quot;:{&quot;top&quot;:&quot;0&quot;,&quot;bottom&quot;:&quot;0&quot;,&quot;left&quot;:&quot;0&quot;,&quot;right&quot;:&quot;0&quot;}}" viewBox="0 0 500 500" width="500"><g id="kwpiaodd2bt" transform="translate(0.000036982284179920555 24.600003051757824)" class=""><path d="M 463.49419167349953 36.81051184212787 C 453.5834906123119 36.81051184212787 442.2573454550195 33.9788675366192 432.34664439383243 31.14733124729614 C 421.0204992365401 28.315794957973065 411.10979817535235 25.48415065246441 399.78365301806025 25.48415065246441 C 387.0411996351786 25.48415065246441 378.54680679958074 31.14733124729614 374.29961038178124 36.81051184212787 C 360.14171290279495 56.63158991594613 370.0524139639825 93.44210175807405 370.0524139639825 97.6894061920586 C 371.46785806008694 100.52105049756726 371.46785806008694 111.8473036710452 367.2206616422883 117.51048426587687 C 364.388909320594 121.75789671604711 358.72540467720546 123.17366486070861 351.64645593771223 123.17366486070861 C 340.3203107804198 123.17366486070861 333.2413620409266 113.26317983189226 324.74696920532847 94.85786990273557 C 316.25171224024587 77.86843613442595 304.92556708295365 58.04735806060768 283.6887208644738 58.04735806060768 C 252.54117358480633 58.04735806060768 245.4622248453132 45.30522872628268 236.9678320097151 29.731563102634617 C 229.8888832702219 15.57366562364807 221.39449043462383 0 194.49413957275542 0 C 166.1783446147825 0 152.02044713579588 21.236846218479798 140.69430197850363 39.64204813145094 C 130.78360091731602 56.63158991594613 123.70465217782281 67.95784308942402 110.96263085968343 67.95784308942402 C 96.80473338069693 67.95784308942402 82.64683590171038 69.37361123408557 68.48893842272386 73.62102368425575 C 54.331040943737285 79.28420427908745 10.441472345930567 97.6894061920586 7.609720024236294 140.16309862901824 C 4.778399767284435 186.8842035161481 0.530771284743032 201.04210099513452 0.530771284743032 201.04210099513452 C -0.8846728113617005 205.28951344530472 0.530771284743032 209.53681787928932 4.778399767284435 210.9525860239508 C 6.194275928131562 210.9525860239508 6.194275928131562 210.9525860239508 7.609720024236294 210.9525860239508 C 10.441472345930567 210.9525860239508 13.273224667624829 209.53681787928932 14.688668763729568 205.28951344530472 C 14.688668763729568 203.87363728445752 18.936297246270964 191.13161596631832 21.767617503222834 150.07369167402015 C 26.015245985764242 195.37892040030283 50.0834124611959 260.5052272004037 54.331040943737285 271.8315883900674 L 52.915164782890145 331.2947145953365 C 52.915164782890145 332.71059075618365 52.915164782890145 334.12635890084516 54.331040943737285 335.5421270455066 L 102.4678059593431 426.1526925142577 C 103.88368212019026 428.98422880358055 106.71500237714203 430.3999969482422 109.54675469883631 430.3999969482422 L 147.77325071799694 430.3999969482422 C 147.77325071799694 430.3999969482422 147.77325071799694 430.3999969482422 147.77325071799694 430.3999969482422 C 152.02044713579588 430.3999969482422 154.85219945749014 427.5684606589192 154.85219945749014 423.3210482087486 C 154.85219945749014 420.4895119194258 153.43632329664297 417.6579756301028 150.6045709749487 416.24209946925583 L 112.3785070205306 392.17371696145284 L 96.80473338069693 325.63164201669036 L 99.6360536376488 270.41582024540554 C 102.4678059593431 264.75263965057394 112.3785070205306 247.76320588226443 112.3785070205306 227.94212780844612 C 112.3785070205306 219.44741092429132 110.96263085968343 210.9525860239508 109.54675469883631 202.45786913979603 C 120.87289985612856 212.3684621847979 135.03079733511512 222.27894721361446 152.02044713579588 227.94212780844612 C 180.3362420937689 237.85261283726243 218.56273811292945 236.4368446926009 235.5523879136104 236.4368446926009 L 224.2253786268334 322.7999977111816 L 221.39449043462383 419.0737437747642 C 221.39449043462383 420.4895119194258 222.8099345307287 423.3210482087486 224.2253786268334 424.7369243695958 C 225.6416868524228 426.1526925142577 227.05713094852757 427.5684606589192 229.8888832702219 427.5684606589192 L 266.699071063793 427.5684606589192 C 272.3625757071815 427.5684606589192 276.6097721249805 421.90528006408744 273.77801980328627 414.8263313245941 L 246.87853307090262 392.17371696145284 L 292.1839778295566 213.7842303294596 L 312.0045158224467 199.62633285047306 C 324.74696920532847 201.04210099513452 370.0524139639825 203.87363728445752 399.78365301806025 179.8052547766548 C 415.3569945931515 165.64735729766824 423.85225155823406 145.82627922384995 423.85225155823406 121.75789671604711 L 423.85225155823406 116.09471612121536 C 423.85225155823406 114.67894797655377 423.85225155823406 92.0263336134125 439.4255931333256 92.0263336134125 C 456.41524293400624 92.0263336134125 464.90963576960417 86.36315301858075 469.157696316888 82.11574056841054 C 476.2366450563814 82.11574056841054 486.14648198808425 82.11574056841054 491.80998663147255 76.45255997357881 C 494.6417389531668 73.62102368425575 497.473491274861 69.37361123408557 497.473491274861 65.12630680010092 C 497.473491274861 45.30522872628268 487.56279021367345 36.81051184212787 463.49419167349953 36.81051184212787 Z M 120.87289985612856 413.4105631799324 L 113.79395111663533 413.4105631799324 L 109.54675469883631 406.3316144404392 L 120.87289985612856 413.4105631799324 Z M 236.9678320097151 411.9947950352712 L 236.9678320097151 404.91584629577784 L 244.04678074920838 411.9947950352712 L 236.9678320097151 411.9947950352712 Z M 466.32594399519377 65.12630680010092 C 463.49419167349953 65.12630680010092 462.078747577395 65.12630680010092 460.66243935180495 66.54207494476249 C 459.2469952557006 67.95784308942402 457.83068703011077 69.37361123408557 457.83068703011077 70.78948739493269 C 456.41524293400624 72.2052555395942 453.5834906123119 76.45255997357881 439.4255931333256 76.45255997357881 C 415.3569945931515 76.45255997357881 408.27804585365794 101.93681864222876 408.27804585365794 114.67894797655377 L 408.27804585365794 120.34212857138556 C 408.27804585365794 120.34212857138556 408.27804585365794 120.34212857138556 408.27804585365794 120.34212857138556 C 408.27804585365794 140.16309862901824 402.6154053397546 157.1526404135134 389.87295195687284 167.06312544232975 C 361.5571569988998 191.13161596631832 312.0045158224467 184.052667226825 310.5890717263421 184.052667226825 C 309.1727635007526 184.052667226825 306.3418753085431 184.052667226825 304.92556708295365 185.46843537148663 L 280.85696854277955 202.45786913979603 C 279.4415244466748 203.87363728445752 278.02608035057006 205.28951344530472 278.02608035057006 206.7052815899662 L 239.79958433140948 359.6105095533096 L 241.2150284275142 324.2157658558434 L 252.54117358480633 227.94212780844612 C 252.54117358480633 225.11048350293734 252.54117358480633 223.6947153582759 251.12572948870184 222.27894721361446 C 249.71028539259697 220.86317906895286 246.87853307090262 219.44741092429132 245.4622248453132 219.44741092429132 C 245.4622248453132 219.44741092429132 193.0782634119084 223.6947153582759 159.0993958752892 212.3684621847979 C 123.70465217782281 201.04210099513452 102.4678059593431 171.3105378925 102.4678059593431 171.3105378925 C 99.6360536376488 168.47889358699138 96.80473338069693 167.06312544232975 92.55710489815556 168.47889358699138 C 89.72578464120373 169.89476974783838 86.89403231950939 174.14207418182306 88.30990848035653 178.38948663199318 C 88.30990848035653 178.38948663199318 96.80473338069693 206.7052815899662 96.80473338069693 226.52635966378452 C 96.80473338069693 244.93156157675568 85.47815615866232 263.3368715059125 85.47815615866232 263.3368715059125 C 84.06271206255752 264.75263965057394 84.06271206255752 266.1684077952356 84.06271206255752 267.58417593989714 L 81.2309597408632 325.63164201669036 C 81.2309597408632 327.0474101613519 81.2309597408632 327.0474101613519 81.2309597408632 328.4631783060133 L 93.97298105900262 373.7684070322962 L 68.48893842272386 328.4631783060133 L 71.32025867967572 270.41582024540554 C 71.32025867967572 269.00005210074426 71.32025867967572 269.00005210074426 71.32025867967572 267.58417593989714 C 71.32025867967572 266.1684077952356 38.75726730390366 184.052667226825 38.75726730390366 138.74733048435672 C 38.75726730390366 113.26317983189226 52.915164782890145 97.6894061920586 71.32025867967572 90.61045745256536 C 75.56788716221712 89.19468930790383 78.39920741916896 87.77892116324227 78.39920741916896 87.77892116324227 C 79.81508358001611 87.77892116324227 79.81508358001611 87.77892116324227 79.81508358001611 86.36315301858075 C 89.72578464120373 83.5315087130721 99.6360536376488 82.11574056841054 110.96263085968343 82.11574056841054 C 133.6153532390103 82.11574056841054 144.9414983963027 63.71053865543943 154.85219945749014 48.13676501560573 C 166.1783446147825 31.14733124729614 174.67316951512282 16.9894337683096 194.49413957275542 16.9894337683096 C 211.48378937343634 16.9894337683096 215.7309857912352 25.48415065246441 222.8099345307287 38.22627998678941 C 231.3043273663266 53.79994561043748 242.63133665310374 75.03679182891729 282.27327676836893 75.03679182891729 C 293.59942192566126 75.03679182891729 300.67837066515443 84.94738487391919 310.5890717263421 103.35258678689037 C 319.0834645619401 120.34212857138556 330.4096097192323 138.74733048435672 351.64645593771223 138.74733048435672 C 364.388909320594 138.74733048435672 372.88330215619203 134.50002605037213 379.9622508956853 127.42107731087886 C 389.87295195687284 114.67894797655377 385.62575553907396 96.27363804739711 385.62575553907396 94.85786990273557 C 382.79400321737955 84.94738487391919 378.54680679958074 58.04735806060768 387.0411996351786 46.72099687094421 C 388.4575078607679 43.88946058162114 391.2892601824622 41.0578162761125 399.78365301806025 41.0578162761125 C 408.27804585365794 41.0578162761125 418.1887469148457 43.88946058162114 428.09944797603305 46.72099687094421 C 439.4255931333256 49.55264117645287 450.7517382906176 53.79994561043748 463.49419167349953 53.79994561043748 C 481.8992855702848 53.79994561043748 481.8992855702848 58.04735806060768 481.8992855702848 65.12630680010092 C 480.4838414741803 65.12630680010092 471.9885845090975 66.54207494476249 466.32594399519377 65.12630680010092 Z" stroke="none" stroke-linejoin="miter" stroke-linecap="butt" fill="#F2C2CF" fill-rule="nonzero"/></g></svg></svg>