<svg id="draw.id" overflow="visible" v:ver="3" x="500.5" xmlns="http://www.w3.org/2000/svg" xmlns:v="http://vecta.io" xmlns:xlink="http://www.w3.org/1999/xlink" y="500.5" v:layers="{&quot;default&quot;:{&quot;name&quot;:&quot;Default&quot;,&quot;print&quot;:1,&quot;display&quot;:1,&quot;publish&quot;:1}}" v:stencils="{&quot;0&quot;:{&quot;id&quot;:&quot;stencil_25&quot;,&quot;expand&quot;:1,&quot;show_name&quot;:1},&quot;1&quot;:{&quot;id&quot;:&quot;stencil_65&quot;,&quot;expand&quot;:1,&quot;show_name&quot;:1}}"><style xmlns="http://www.w3.org/1999/xhtml"><![CDATA[#draw\.id{stroke:#000;stroke-linecap:round;stroke-linejoin:round;fill:#fff;fill-rule:evenodd;font-family:Roboto;font-size:14px;text-anchor:middle}#draw\.id text{paint-order:stroke;white-space:pre}#draw\.id .Text\.cls{stroke:none}]]></style><defs><style type="text/css">@import url('https://fonts.googleapis.com/css?family=Roboto+Condensed:400,400i,700,700i');@import url('https://fonts.googleapis.com/css?family=Roboto:400,400i,700,700i');@import url('https://fonts.googleapis.com/css?family=Cousine:400,400i,700,700i');@import url('https://fonts.googleapis.com/css?family=Anonymous+Pro:400,400i,700,700i');@import url('https://fonts.googleapis.com/css?family=Lato:400,400i,700,700i');@import url('https://fonts.googleapis.com/css?family=Open+Sans:400,400i,700,700i');</style></defs><title xmlns="http://www.w3.org/1999/xhtml">Untitled drawing</title><desc xmlns="http://www.w3.org/1999/xhtml"></desc><svg height="500" id="kwpfkecs3d" overflow="visible" v:setup="{&quot;paper&quot;:&quot;CUSTOM&quot;,&quot;unit&quot;:&quot;px&quot;,&quot;scale&quot;:{&quot;from&quot;:&quot;1&quot;,&quot;to&quot;:&quot;1&quot;},&quot;width&quot;:&quot;500px&quot;,&quot;height&quot;:&quot;500px&quot;,&quot;margin&quot;:{&quot;top&quot;:&quot;0&quot;,&quot;bottom&quot;:&quot;0&quot;,&quot;left&quot;:&quot;0&quot;,&quot;right&quot;:&quot;0&quot;}}" viewBox="0 0 500 500" width="500"><g id="kwpi952s2az" class="Group.cls" transform="translate(-0.0000315732292524018 45.800001525878905)" v:abox="{&quot;x&quot;:-0.0000315732292524018,&quot;y&quot;:45.800001525878905,&quot;width&quot;:498.3904300253983,&quot;height&quot;:394.1999984741211}" fill="#F2C2CF"><g class="Prim.cls"><g id="kwpi951l2an" transform="translate(383.4492093641836 30.949615415414176)" class=""><path d="M 26.06241541617245 87.96201907853285 C 26.06241541617245 79.8173899838016 17.91778632144121 57.01240366311868 14.660730057483752 50.49667553189823 C 14.660730057483752 50.49667553189823 14.660730057483752 48.86777456838746 14.660730057483752 48.86777456838746 L 14.660730057483752 45.60984836418854 C 14.660730057483752 45.60984836418854 14.660730057483752 43.98094740067776 14.660730057483752 43.98094740067776 C 21.175836802817475 30.949615415414176 21.175836802817475 21.175961079994813 3.2580504813762543 13.031331985263575 C 1.628528131978732 13.031331985263575 0 11.402431021752797 0 9.77353005824202 C 0 6.515728131220462 1.628528131978732 4.886702890532334 4.886578613354987 4.886702890532334 L 50.49630270036618 0 C 52.12582504976371 0 53.754353181742445 0 53.754353181742445 1.628900963510778 C 57.01240366311869 -1.628900963510778 89.59092004204363 24.43388728419373 105.88017823150612 40.72314547365618 C 125.4274869023449 60.27020559014023 107.50870636348489 87.96201907853285 105.88017823150612 89.59092004204363 C 105.88017823150612 91.21982100555442 104.25165009952742 92.8487219690652 102.62212775012989 92.8487219690652 L 32.57851637892497 92.8487219690652 C 29.32046589754871 92.8487219690652 26.06241541617245 91.21982100555442 26.06241541617245 87.96201907853285 Z M 97.73554913677492 48.86777456838746 C 83.07481907929117 34.207417342435754 57.01240366311869 13.031331985263575 48.86777456838746 8.144629094731242 L 19.547308670838742 11.402431021752797 C 29.32046589754871 21.175961079994813 30.949988246946234 32.57851637892497 24.43388728419373 47.23887360487668 L 24.43388728419373 48.86777456838746 C 26.06241541617245 53.754477458919766 34.20704451090369 71.67276088907039 35.83656686030121 84.70409287433394 L 99.36407726875362 84.70409287433394 C 102.62212775012989 76.55946377960272 109.13822871288238 58.641304626629456 97.73554913677492 48.86777456838746 Z" stroke="none" stroke-linejoin="miter" stroke-linecap="butt" fill="#F2C2CF" fill-rule="nonzero" fill-opacity="1"/></g><g id="kwpi951p2ao" transform="translate(35.916111730941296 0)" class=""><path d="M 264.4582785539513 307.8670046362763 L 264.4582785539513 307.8670046362763 L 311.69653077294123 304.6090784320776 C 313.3260531223387 304.6090784320776 316.5831093862962 302.98017746856675 316.5831093862962 301.35127650505586 C 319.84115986767233 288.31982024261487 324.7277384810275 267.14385916262023 326.35726083042493 262.25703199491045 C 326.35726083042493 260.62813103139973 327.9857889624037 258.9992300678889 329.61531131180135 257.37032910437813 C 339.38846853851135 242.70997187842644 360.5643053413286 208.50255453599073 363.82235582270494 174.29501291637757 C 367.08040630408135 136.8297936469203 383.3696644935437 123.79833738447938 383.3696644935437 123.79833738447938 C 384.99819262552245 122.16943642096861 384.99819262552245 118.91163449394703 383.3696644935437 117.28260925325891 C 381.74014214414626 115.65370828974815 378.4830858801888 115.65370828974815 376.8535635307913 117.28260925325891 C 376.8535635307913 117.28260925325891 358.93577720934996 133.57186744272144 354.04919859599494 174.29501291637757 C 350.7911481146187 206.87352929530257 329.61531131180135 239.45204567422752 321.47068221706996 252.48350193666846 C 319.84115986767233 255.74130386369004 318.2126317356938 257.37032910437813 318.2126317356938 258.9992300678889 C 314.9545812543175 265.51495819910934 310.06800264096245 288.31982024261487 308.43848029156493 296.46444933734614 L 267.7153348179089 299.72237554154515 L 251.42607662844608 276.9173892208622 C 249.79754849646739 275.2884882573514 248.1690203644887 275.2884882573514 246.5394980150911 275.2884882573514 C 244.91096988311241 275.2884882573514 153.69102460038056 280.1751911478837 129.2571373161869 270.40166108964183 C 117.85445774007941 265.51495819910934 106.45227527268133 267.14385916262023 96.67862093726195 273.6595872938406 C 88.5339918425307 280.1751911478837 82.01838798848756 289.94884548330316 80.38936274779944 299.72237554154515 L 36.40816679276693 299.72237554154515 C 33.150613420100065 298.0934745780344 20.118908603304455 288.31982024261487 20.118908603304455 234.5653427836952 C 20.118908603304455 232.93644182018448 20.118908603304455 232.93644182018448 20.118908603304455 232.93644182018448 L 10.345254267885108 213.38925742652305 C 10.345254267885108 205.2446283317918 5.458675654530111 149.86112563218393 33.150613420100065 120.54053545745784 C 44.552795887498185 107.50907919501688 59.21302883627254 102.62237630448456 78.7603375071113 102.62237630448456 L 231.87976217502617 102.62237630448456 C 231.87976217502617 102.62237630448456 233.5082903070049 102.62237630448456 233.5082903070049 102.62237630448456 C 235.13681843898357 102.62237630448456 277.4894862620375 83.07519191082318 292.1492221021024 55.383502699607895 C 305.1814240276075 21.17608535717216 319.84115986767233 9.77353005824202 339.38846853851135 9.77353005824202 C 365.4508839546838 9.77353005824202 394.7723440696512 16.289258189462483 394.7723440696512 29.320714451903413 C 394.7723440696512 32.57851637892497 396.40087220163 34.207417342435754 399.65892268300615 34.207417342435754 C 402.9169731643825 34.207417342435754 404.5455012963612 32.57851637892497 404.5455012963612 29.320714451903413 C 404.5455012963612 6.515728131220462 370.33845678545765 0 339.38846853851135 0 C 308.43848029156493 0 293.7787444514999 24.43388728419373 282.3760648753924 47.23887360487668 C 270.9733852992851 70.04385992555962 236.7663407883812 86.3331181150221 230.25023982562863 89.59092004204363 L 77.13131226642318 89.59092004204363 C 55.95547546360567 89.59092004204363 38.037192033455064 97.73554913677492 25.005984325368836 110.76700539921579 C -5.944003921577385 146.60332370516232 0.5720970411751246 210.1314554995015 0.5720970411751246 213.38925742652305 C 0.5720970411751246 213.38925742652305 0.5720970411751246 215.01815839003376 0.5720970411751246 215.01815839003376 L 10.345254267885108 232.93644182018448 C 10.345254267885108 299.72237554154515 31.521588179411953 306.23810367276553 34.779141552078805 307.8670046362763 C 34.779141552078805 307.8670046362763 34.779141552078805 307.8670046362763 36.40816679276693 307.8670046362763 L 85.27594136115442 307.8670046362763 C 88.5339918425307 307.8670046362763 90.1630170832188 306.23810367276553 90.1630170832188 302.98017746856675 C 90.1630170832188 293.20664741032465 95.04959569657377 285.0620183155933 103.1942247913051 280.1751911478837 C 109.70982864534822 275.2884882573514 119.48348298076755 275.2884882573514 127.62811207549876 278.5462901843729 C 152.06199935969246 288.31982024261487 230.25023982562863 285.0620183155933 246.5394980150911 283.4331173520827 L 262.8287562045536 306.23810367276553 C 261.20022807257493 307.8670046362763 262.8287562045536 307.8670046362763 264.4582785539513 307.8670046362763 Z" stroke="none" stroke-linejoin="miter" stroke-linecap="butt" fill="#F2C2CF" fill-rule="nonzero" fill-opacity="1"/></g><g id="kwpi951t2ap" transform="translate(300.37439028489246 294.83554837383537)" class=""><path d="M 4.886578613354987 99.36445010028565 L 48.86777456838746 99.36445010028565 C 52.1248308323449 99.36445010028565 53.754353181742445 97.7355491367749 53.754353181742445 94.47774720975333 L 53.754353181742445 74.93056281609192 C 53.754353181742445 73.30166185258116 52.1248308323449 71.67276088907036 50.49630270036618 70.04385992555959 L 40.723145473656196 65.1570327578499 L 40.723145473656196 4.8868271677096855 C 40.723145473656196 1.6289009635107778 39.09362312425869 0 35.83557264288242 0 C 32.57851637892497 0 30.948994029527437 1.6289009635107778 30.948994029527437 4.8868271677096855 L 30.948994029527437 68.41495896204884 C 30.948994029527437 70.04385992555959 32.57851637892497 71.67276088907036 34.20704451090369 73.30166185258116 L 43.98020173761368 78.18848902029083 L 43.98020173761368 89.59092004204362 L 9.773157226709975 89.59092004204362 L 9.773157226709975 8.144629094731238 C 9.773157226709975 4.8868271677096855 8.144629094731242 3.2579262041989048 4.886578613354987 3.2579262041989048 C 1.628528131978732 3.2579262041989048 0 4.8868271677096855 0 8.144629094731238 L 0 94.47774720975333 C 0 97.7355491367749 1.628528131978732 99.36445010028565 4.886578613354987 99.36445010028565 Z" stroke="none" stroke-linejoin="miter" stroke-linecap="butt" fill="#F2C2CF" fill-rule="nonzero" fill-opacity="1"/></g><g id="kwpi951u2aq" transform="translate(70.69525328302011 298.0934745780344)" class=""><path d="M 4.887075722064382 96.10652389608677 L 48.86777456838746 96.10652389608677 C 52.12582504976371 96.10652389608677 53.75485029045183 94.477622932576 53.75485029045183 91.21982100555444 L 53.75485029045183 71.67263661189308 C 53.75485029045183 70.0437356483823 52.12582504976371 68.41483468487152 50.49679980907557 66.78593372136072 L 40.723145473656196 61.899106553651016 L 40.723145473656196 6.515603854043112 C 40.723145473656196 3.257801927021556 39.094617341677484 1.628900963510778 35.83656686030121 1.628900963510778 C 32.57851637892497 1.628900963510778 30.949988246946234 3.257801927021556 30.949988246946234 6.515603854043112 L 30.949988246946234 65.15703275784993 C 30.949988246946234 66.78593372136072 32.57851637892497 68.41483468487152 34.2075416196131 70.0437356483823 L 43.981195955032454 74.93056281609196 L 43.981195955032454 86.33299383784475 L 9.773654335419371 86.33299383784475 L 9.773654335419371 4.886702890532336 C 9.773654335419371 1.628900963510778 8.144629094731242 0 4.887075722064382 0 C 1.6290252406881272 0 0 1.628900963510778 0 4.886702890532336 L 0 91.21982100555444 C 0 94.477622932576 1.6290252406881272 96.10652389608677 4.887075722064382 96.10652389608677 Z" stroke="none" stroke-linejoin="miter" stroke-linecap="butt" fill="#F2C2CF" fill-rule="nonzero" fill-opacity="1"/></g><g id="kwpi951v2ar" transform="translate(-2.893553519360822e-14 112.47220648138851)" class=""><path d="M 43.0038126261595 109.06168003986576 C 46.26136599882636 109.06168003986576 47.89039123951453 107.432779076355 47.89039123951453 104.17497714933344 C 47.89039123951453 100.91705094513456 46.26136599882636 99.28814998162376 43.0038126261595 99.28814998162376 C 31.601133050052006 99.28814998162376 23.456503955320755 96.03034805460223 16.940900101277656 89.51461992338177 C 8.79627100654642 78.1120646244516 8.79627100654642 60.19390547147832 15.31187486058954 35.7600181872846 C 16.940900101277656 24.357587165531772 21.82747871463265 17.841859034311323 28.34357967738514 14.584057107289762 C 41.37478738547139 8.06832897606931 56.03502033424575 12.955031866601633 56.03502033424575 12.955031866601633 C 59.29307081562202 14.584057107289762 60.922096056310146 12.955031866601633 62.55062418828887 9.697229939580087 C 64.179649428977 6.439428012558527 62.55062418828887 4.8104027718704 59.29307081562202 3.181501808359622 C 57.664045574933915 3.181501808359622 39.74576214478325 -4.963127286371618 23.456503955320755 4.8104027718704 C 13.682849619901411 9.697229939580087 7.167245765858298 19.4707599978221 3.9096923931914342 32.50221626026304 C -2.6064085695610753 61.822806434989104 -0.9773833288729458 81.36999082865047 8.79627100654642 94.40132281391408 C 16.940900101277656 104.17497714933344 28.34357967738514 109.06168003986576 43.0038126261595 109.06168003986576 Z" stroke="none" stroke-linejoin="miter" stroke-linecap="butt" fill="#F2C2CF" fill-rule="nonzero" fill-opacity="1"/></g><g id="kwpi951w2as" transform="translate(338.81651466464416 23.759174413345015)" class=""><path d="M 29.97196464205559 77.2341766504515 C 36.4880656048081 77.2341766504515 44.6326946995393 75.60527568694073 54.40585192624927 67.46064659220951 C 65.8085315023568 57.68711653396748 72.32463246510933 47.91358647572546 72.32463246510933 38.140056417483414 C 70.69511011571177 16.963971060311238 43.0041665675606 2.3036138343595445 41.374644218163084 0.6747128708487661 C 38.11659373678684 -0.9541880926620115 36.4880656048081 0.6747128708487661 34.85953747282936 2.3036138343595445 C 33.230015123431855 5.561540038558454 34.85953747282936 7.190441002069229 36.4880656048081 8.819341965580008 C 36.4880656048081 8.819341965580008 36.4880656048081 8.819341965580008 36.4880656048081 8.819341965580008 L 36.4880656048081 8.819341965580008 C 43.0041665675606 12.077143892601562 60.92195288900179 25.10860015504248 60.92195288900179 36.51103117679529 C 60.92195288900179 43.0267593080158 57.66390240762553 51.171388402747006 47.89074518091557 57.68711653396748 C 34.85953747282936 67.46064659220951 25.085386028700608 67.46064659220951 16.94075693396936 57.68711653396748 C 10.425650188635645 51.171388402747006 10.425650188635645 41.39785834450498 12.054178320614376 39.768957380994216 C 16.94075693396936 36.51103117679529 20.198807415345623 34.88213021328452 23.456857896721854 36.51103117679529 C 28.34343651007687 36.51103117679529 31.60148699145312 43.0267593080158 33.230015123431855 44.65566027152655 C 34.85953747282936 47.91358647572546 38.11659373678684 47.91358647572546 39.74611608618433 46.28468551221468 C 41.374644218163084 44.65566027152655 43.0041665675606 41.39785834450498 41.374644218163084 39.768957380994216 C 41.374644218163084 39.768957380994216 34.85953747282936 28.36640208206404 25.085386028700608 26.737501118553265 C 18.570279283366887 25.10860015504248 12.054178320614376 28.36640208206404 3.909549225883136 34.88213021328452 C -2.6065517368693727 41.39785834450498 -0.9770293874718523 56.05821557045669 8.796127839238126 67.46064659220951 C 15.312228801990624 72.34747375991918 21.827335547324346 77.2341766504515 29.97196464205559 77.2341766504515 Z" stroke="none" stroke-linejoin="miter" stroke-linecap="butt" fill="#F2C2CF" fill-rule="nonzero" fill-opacity="1"/></g></g></g></svg></svg>