<svg id="draw.id" overflow="visible" v:ver="3" x="500.5" xmlns="http://www.w3.org/2000/svg" xmlns:v="http://vecta.io" xmlns:xlink="http://www.w3.org/1999/xlink" y="500.5" v:layers="{&quot;default&quot;:{&quot;name&quot;:&quot;Default&quot;,&quot;print&quot;:1,&quot;display&quot;:1,&quot;publish&quot;:1}}" v:stencils="{&quot;0&quot;:{&quot;id&quot;:&quot;stencil_25&quot;,&quot;expand&quot;:1,&quot;show_name&quot;:1},&quot;1&quot;:{&quot;id&quot;:&quot;stencil_65&quot;,&quot;expand&quot;:1,&quot;show_name&quot;:1}}"><style xmlns="http://www.w3.org/1999/xhtml"><![CDATA[#draw\.id{stroke:#000;stroke-linecap:round;stroke-linejoin:round;fill:#fff;fill-rule:evenodd;font-family:Roboto;font-size:14px;text-anchor:middle}#draw\.id text{paint-order:stroke;white-space:pre}#draw\.id .Text\.cls{stroke:none}]]></style><defs><style type="text/css">@import url('https://fonts.googleapis.com/css?family=Roboto+Condensed:400,400i,700,700i');@import url('https://fonts.googleapis.com/css?family=Roboto:400,400i,700,700i');@import url('https://fonts.googleapis.com/css?family=Cousine:400,400i,700,700i');@import url('https://fonts.googleapis.com/css?family=Anonymous+Pro:400,400i,700,700i');@import url('https://fonts.googleapis.com/css?family=Lato:400,400i,700,700i');@import url('https://fonts.googleapis.com/css?family=Open+Sans:400,400i,700,700i');</style></defs><title xmlns="http://www.w3.org/1999/xhtml">Untitled drawing</title><desc xmlns="http://www.w3.org/1999/xhtml"></desc><svg height="500" id="kwpfkecs3d" overflow="visible" v:setup="{&quot;paper&quot;:&quot;CUSTOM&quot;,&quot;unit&quot;:&quot;px&quot;,&quot;scale&quot;:{&quot;from&quot;:&quot;1&quot;,&quot;to&quot;:&quot;1&quot;},&quot;width&quot;:&quot;500px&quot;,&quot;height&quot;:&quot;500px&quot;,&quot;margin&quot;:{&quot;top&quot;:&quot;0&quot;,&quot;bottom&quot;:&quot;0&quot;,&quot;left&quot;:&quot;0&quot;,&quot;right&quot;:&quot;0&quot;}}" viewBox="0 0 500 500" width="500"><g id="kwpi7we629x" class="Group.cls" transform="translate(5.000031480360504 29.599999237060548)" v:abox="{&quot;x&quot;:5.000031480360504,&quot;y&quot;:29.599999237060548,&quot;width&quot;:493.1616839121587,&quot;height&quot;:420.40000076293944}" fill="#F2C2CF"><g class="Prim.cls"><g id="kwpi7wd329p" transform="translate(274.64840864986536 388.3356315489677)" class=""><path d="M 8.313138974157091 5.937852862175856 C 10.688425086138329 8.312957765268473 13.063711198119565 10.688062668361097 13.063711198119565 13.063167571453713 C 13.063711198119565 13.063167571453713 13.063711198119565 13.063167571453713 13.063711198119565 13.063167571453713 C 7.125858335943707 14.250810627444334 2.375286111981236 13.063167571453713 0 11.875705724351713 C 1.1880054737678498 9.500510216814787 3.5632915857490866 5.937852862175856 3.5632915857490866 2.37510490309262 C 3.5632915857490866 1.1874618471020024 3.5632915857490866 0 3.5632915857490866 0 C 4.750572223962472 2.37510490309262 5.937852862175856 3.5626573546389295 8.313138974157091 5.937852862175856 Z" stroke="none" stroke-linejoin="miter" stroke-linecap="butt" fill="#F2C2CF" fill-rule="nonzero" fill-opacity="1"/></g><g id="kwpi7wd429q" transform="translate(273.4611280116519 368.14687745490335)" class=""><path d="M 0 8.313048369712785 C 1.1872806382133851 5.9378528621758555 1.1872806382133851 3.562747959083238 2.3752861119812354 0 C 2.3752861119812354 4.750300410629547 2.3752861119812354 8.313048369712785 2.3752861119812354 13.063258175898024 C 1.1872806382133851 10.688153272805401 0 9.500600821259095 0 8.313048369712785 Z" stroke="none" stroke-linejoin="miter" stroke-linecap="butt" fill="#F2C2CF" fill-rule="nonzero" fill-opacity="1"/></g><g id="kwpi7wd429r" transform="translate(115.51438684488505 384.7728835898844)" class=""><path d="M 13.062986362565093 9.500600821259095 C 13.062986362565093 9.500600821259095 14.250629418555715 10.688062668361097 14.250629418555715 10.688062668361097 C 8.31277655637986 10.688062668361097 4.75020980618524 13.063258175898024 2.374923694204004 14.250810627444334 C 2.374923694204004 14.250810627444334 1.1872806382133856 14.250810627444334 1.1872806382133856 15.43845368343496 C 1.1872806382133856 14.250810627444334 1.1872806382133856 13.063258175898024 1.1872806382133856 11.875705724351713 C 2.374923694204004 8.312957765268473 3.5625667501946205 4.75020980618524 0 0 C 3.5625667501946205 2.37510490309262 7.125133500389241 5.937852862175856 13.062986362565093 9.500600821259095 Z" stroke="none" stroke-linejoin="miter" stroke-linecap="butt" fill="#F2C2CF" fill-rule="nonzero" fill-opacity="1"/></g><g id="kwpi7wd429s" transform="translate(4.219098217231374e-14 0)" class=""><path d="M 22.883664744275364 283.829384932895 C 25.258950856256625 293.32998575415394 27.633874550460625 296.8926431087929 31.196803718432474 296.8926431087929 C 37.13465658060835 296.8926431087929 37.13465658060835 289.7672377950708 38.32229963659898 286.2044898359874 C 38.32229963659898 285.0169373844412 46.63507619297883 255.32767307356187 44.26015249877481 233.95145713239543 C 53.76057211114527 251.7650157189229 66.82392089148755 263.64072144327474 66.82392089148755 263.64072144327474 C 71.57413069767281 269.5785743054506 65.63627783549697 298.08019556033923 57.323138861339885 321.8316070090425 C 56.13585822312651 324.20680251657956 57.323138861339885 326.58190741967235 58.51078191733051 327.76945987121843 C 59.698424973321096 327.76945987121843 59.698424973321096 328.9571029272091 60.88606802931175 330.1446553787553 C 58.51078191733051 333.7073127333943 58.51078191733051 343.2079135546533 65.63627783549697 388.3356315489677 C 65.63627783549697 388.3356315489677 65.63627783549697 389.52309339606956 66.82392089148755 389.52309339606956 L 69.1988445856916 394.27348441114344 C 72.7617737536634 399.0236942173286 72.7617737536634 400.21133727331926 72.7617737536634 400.21133727331926 C 72.7617737536634 400.21133727331926 72.7617737536634 400.21133727331926 71.57413069767281 400.21133727331926 C 69.1988445856916 402.58644217641194 65.63627783549697 407.3366519825971 69.1988445856916 415.64970035231005 C 69.1988445856916 415.64970035231005 69.1988445856916 416.83725280385625 70.3864876416822 416.83725280385625 C 70.3864876416822 418.0248958598469 71.57413069767281 418.0248958598469 72.7617737536634 419.212357706949 C 75.1366974478674 420.40000076293944 77.51198355984864 420.40000076293944 81.07455031004329 420.40000076293944 C 89.3876892842004 420.40000076293944 98.88810889657086 418.0248958598469 102.45103806454276 418.0248958598469 C 104.8259617587467 418.0248958598469 106.01360481473738 415.64970035231005 106.01360481473738 413.27450484477293 C 107.20124787072803 403.7739946279584 92.95025603439498 387.14798849297694 87.01240317221915 380.0225831792548 C 85.82512253400573 377.64747827616225 87.01240317221915 362.2090245927274 87.01240317221915 350.33331886837556 C 87.01240317221915 347.9582139652831 87.01240317221915 346.77066151373657 87.01240317221915 344.39546600619985 C 91.76297539618166 357.4587241820977 95.32554214637628 370.5220729624401 95.32554214637628 372.8971778655326 C 95.32554214637628 377.64747827616225 101.26339500855211 382.3977786867918 103.63868112053338 384.7728835898844 C 108.38889092671863 388.3356315489677 108.38889092671863 390.7107364520604 107.20124787072803 394.27348441114344 C 106.01360481473738 396.64858931423606 104.8259617587467 401.3987991204215 107.20124787072803 404.9615470795045 C 110.76381462092263 413.27450484477293 117.88931053908905 409.7118474901342 121.45223970706094 408.52429503858787 C 125.01480645725557 407.3366519825971 127.39009256923673 406.1491901354954 133.32794543141264 406.1491901354954 C 139.26579829358852 406.1491901354954 142.82836504378312 404.9615470795045 144.01600809977376 401.3987991204215 C 144.01600809977376 400.21133727331926 146.39093179397773 395.4609462582457 134.51522606962598 387.14798849297694 C 113.13910073290378 374.08473031707905 109.5765339827092 338.45761314402387 108.38889092671863 326.58190741967235 L 107.20124787072803 323.0192500650332 C 107.20124787072803 318.2689496544037 107.20124787072803 308.76834883314456 109.5765339827092 294.5175382057001 C 111.95145767691324 289.7672377950708 113.13910073290378 285.0169373844412 111.95145767691324 281.45428002980213 C 110.76381462092263 270.7661267569969 122.63952034527424 254.1401206220156 126.20244951324617 249.389820211386 C 140.4530789318018 228.01360427021945 155.8917138241255 233.95145713239543 173.70527241065295 243.45196734921018 C 189.14354488519936 250.57737266293228 210.52003263969883 254.1401206220156 211.70731327791205 255.32767307356187 C 214.08259938989332 256.51522552510806 216.4578855018748 256.51522552510806 218.8331716138559 257.7028685810987 C 235.4587247266156 261.2655259357377 259.21013617531906 263.64072144327474 278.2117002356146 264.8282738948209 C 279.39898087382784 274.3287841116358 278.2117002356146 288.57968534352443 277.0236947618467 299.2678386163299 C 277.0236947618467 299.2678386163299 277.0236947618467 299.2678386163299 277.0236947618467 300.4553910678762 C 277.0236947618467 301.6429435194222 277.0236947618467 304.0180484225151 275.83641412363306 305.20569147850574 C 274.64840864986525 308.76834883314456 274.64840864986525 312.33109679222787 274.64840864986525 313.5186492437741 C 274.64840864986525 314.7062016953204 274.64840864986525 315.8937541468666 274.64840864986525 315.8937541468666 C 274.64840864986525 317.08139720285726 274.64840864986525 317.08139720285726 274.64840864986525 318.2689496544037 C 274.64840864986525 320.64405455749636 274.64840864986525 321.8316070090425 274.64840864986525 324.20680251657956 C 274.64840864986525 324.20680251657956 274.64840864986525 324.20680251657956 274.64840864986525 324.20680251657956 C 274.64840864986525 334.89495578938505 271.0858418996708 350.33331886837556 267.5232751494761 362.2090245927274 C 267.5232751494761 363.3965770442735 267.5232751494761 363.3965770442735 266.3359945112626 364.58422010026413 C 266.3359945112626 365.77177255181056 265.1479890374947 366.95932500335675 265.1479890374947 368.14687745490335 C 265.1479890374947 369.3344299064494 263.96070839928143 370.5220729624401 263.96070839928143 370.5220729624401 C 263.96070839928143 371.70962541398643 262.7727029255136 372.8971778655326 262.7727029255136 374.08473031707905 C 261.58542228730033 375.2722827686255 262.7727029255136 377.64747827616225 263.96070839928143 378.8350307277085 C 265.1479890374947 380.0225831792548 265.1479890374947 380.0225831792548 266.3359945112626 381.2101356308012 C 266.3359945112626 381.2101356308012 266.3359945112626 381.2101356308012 266.3359945112626 381.2101356308012 C 266.3359945112626 381.2101356308012 267.5232751494761 382.3977786867918 267.5232751494761 382.3977786867918 C 267.5232751494761 382.3977786867918 267.5232751494761 382.3977786867918 267.5232751494761 383.5852405338937 C 267.5232751494761 383.5852405338937 267.5232751494761 384.7728835898844 267.5232751494761 384.7728835898844 C 267.5232751494761 384.7728835898844 267.5232751494761 384.7728835898844 267.5232751494761 385.96043604143074 C 267.5232751494761 385.96043604143074 267.5232751494761 387.14798849297694 267.5232751494761 387.14798849297694 C 267.5232751494761 387.14798849297694 267.5232751494761 388.3356315489677 267.5232751494761 388.3356315489677 C 267.5232751494761 388.3356315489677 267.5232751494761 388.3356315489677 267.5232751494761 389.52309339606956 C 267.5232751494761 390.7107364520604 267.5232751494761 390.7107364520604 266.3359945112626 390.7107364520604 C 266.3359945112626 390.7107364520604 266.3359945112626 390.7107364520604 266.3359945112626 390.7107364520604 C 266.3359945112626 391.89828890360656 265.1479890374947 391.89828890360656 265.1479890374947 391.89828890360656 C 265.1479890374947 391.89828890360656 265.1479890374947 391.89828890360656 265.1479890374947 391.89828890360656 C 263.96070839928143 393.08584135515287 263.96070839928143 394.27348441114344 263.96070839928143 395.4609462582457 C 263.96070839928143 399.0236942173286 265.1479890374947 401.3987991204215 268.7105557876893 403.7739946279584 C 269.89856126145736 404.9615470795045 272.27384737343846 406.1491901354954 273.461128011652 406.1491901354954 C 274.64840864986525 406.1491901354954 274.64840864986525 406.1491901354954 275.83641412363306 406.1491901354954 C 277.0236947618467 406.1491901354954 278.2117002356146 407.3366519825971 280.5862615120414 407.3366519825971 C 281.77426698580916 407.3366519825971 281.77426698580916 407.3366519825971 282.96154762402244 407.3366519825971 C 284.14955309779043 407.3366519825971 285.33683373600354 407.3366519825971 286.5241143742172 407.3366519825971 C 287.7121198479851 407.3366519825971 287.7121198479851 407.3366519825971 288.89940048619826 407.3366519825971 C 290.08740595996613 407.3366519825971 290.08740595996613 407.3366519825971 291.27468659817964 407.3366519825971 C 291.27468659817964 407.3366519825971 291.27468659817964 407.3366519825971 291.27468659817964 407.3366519825971 C 291.27468659817964 407.3366519825971 291.27468659817964 407.3366519825971 291.27468659817964 407.3366519825971 C 291.27468659817964 407.3366519825971 291.27468659817964 407.3366519825971 291.27468659817964 407.3366519825971 C 292.4619672363929 407.3366519825971 292.4619672363929 407.3366519825971 293.64997271016085 406.1491901354954 C 294.83725334837413 406.1491901354954 294.83725334837413 404.9615470795045 296.02525882214195 404.9615470795045 C 296.02525882214195 404.9615470795045 296.02525882214195 404.9615470795045 296.02525882214195 404.9615470795045 C 296.02525882214195 404.9615470795045 296.02525882214195 403.7739946279584 297.2125394603556 402.58644217641194 C 297.2125394603556 402.58644217641194 297.2125394603556 402.58644217641194 297.2125394603556 402.58644217641194 C 297.2125394603556 402.58644217641194 297.2125394603556 401.3987991204215 298.39982009856874 401.3987991204215 C 298.39982009856874 401.3987991204215 298.39982009856874 401.3987991204215 298.39982009856874 400.21133727331926 C 298.39982009856874 399.0236942173286 299.5878255723366 397.8361417657824 299.5878255723366 397.8361417657824 C 299.5878255723366 391.89828890360656 293.64997271016085 385.96043604143074 290.08740595996613 383.5852405338937 C 279.39898087382784 376.45992582461594 290.08740595996613 344.39546600619985 297.2125394603556 330.1446553787553 C 304.33767296074467 320.64405455749636 306.712959072726 300.4553910678762 306.712959072726 298.08019556033923 C 306.712959072726 294.5175382057001 309.0882451847071 288.57968534352443 311.46353129668825 282.64183248134856 L 315.02609804688296 320.64405455749636 C 315.02609804688296 320.64405455749636 315.02609804688296 320.64405455749636 315.02609804688296 320.64405455749636 C 315.02609804688296 320.64405455749636 315.02609804688296 321.8316070090425 315.02609804688296 321.8316070090425 C 315.02609804688296 321.8316070090425 315.02609804688296 321.8316070090425 315.02609804688296 323.0192500650332 C 315.02609804688296 324.20680251657956 315.02609804688296 324.20680251657956 316.21337868509653 325.39435496812587 C 316.21337868509653 325.39435496812587 316.21337868509653 325.39435496812587 317.40138415886435 326.58190741967235 L 317.40138415886435 326.58190741967235 C 318.58866479707757 328.9571029272091 318.58866479707757 352.7085143759125 317.40138415886435 372.8971778655326 C 313.8388174086697 380.0225831792548 319.7766702708455 387.14798849297694 323.33923702104033 389.52309339606956 C 323.33923702104033 389.52309339606956 324.5265176592535 389.52309339606956 324.5265176592535 389.52309339606956 C 325.71452313302126 389.52309339606956 325.71452313302126 390.7107364520604 325.71452313302126 390.7107364520604 C 326.90180377123477 393.08584135515287 324.5265176592535 400.21133727331926 322.15123154727235 403.7739946279584 C 320.9639509090587 406.1491901354954 322.15123154727235 408.52429503858787 324.5265176592535 410.89939994168066 C 339.96479013379974 420.40000076293944 350.6532152199382 415.64970035231005 356.59106808211396 413.27450484477293 C 357.7783487203275 414.4621479007637 360.1536348323087 414.4621479007637 362.5289209442899 412.08704299767106 C 366.09148769448433 408.52429503858787 362.5289209442899 404.9615470795045 360.1536348323087 402.58644217641194 C 356.59106808211396 399.0236942173286 348.27792910795705 385.96043604143074 344.7153623577623 378.8350307277085 C 344.7153623577623 377.64747827616225 343.52808171954877 377.64747827616225 343.52808171954877 376.45992582461594 C 341.15279560756755 368.14687745490335 341.15279560756755 349.1457664168292 342.3400762457811 336.08250824093136 L 345.90264299597567 320.64405455749636 C 345.90264299597567 320.64405455749636 345.90264299597567 319.4565021059501 345.90264299597567 319.4565021059501 C 344.7153623577623 300.4553910678762 351.8404958581516 282.64183248134856 351.8404958581516 282.64183248134856 C 356.59106808211396 264.8282738948209 357.7783487203275 252.9525681704693 357.7783487203275 248.2022677598397 C 375.59190730685503 233.95145713239543 376.77991278062296 180.5107813728127 376.77991278062296 169.8226281000072 C 374.40462666864175 153.19662196502608 394.59347136715047 121.13225275105407 406.4691770915021 105.69379906761907 C 417.15687734208586 112.81920438134131 432.5958746521867 109.25654702670234 436.15844140238164 108.06890397071169 L 451.5967138769277 111.63165192979496 C 451.5967138769277 111.63165192979496 452.78399451514105 111.63165192979496 452.78399451514105 111.63165192979496 C 459.90985285108474 111.63165192979496 461.09713348929824 114.0067568328876 461.09713348929824 115.19439988887827 C 461.09713348929824 116.38195234042458 462.2851389630662 117.56950479197087 463.47241960127957 117.56950479197087 C 464.6597002394928 117.56950479197087 467.0349863514741 118.75705724351717 468.2229918252418 118.75705724351717 C 468.2229918252418 118.75705724351717 469.41027246345527 118.75705724351717 469.41027246345527 118.75705724351717 C 470.5975531016686 118.75705724351717 471.7855585754368 118.75705724351717 472.97283921364993 118.75705724351717 C 472.97283921364993 118.75705724351717 474.16084468741764 118.75705724351717 474.16084468741764 118.75705724351717 C 475.3481253256314 118.75705724351717 475.3481253256314 118.75705724351717 476.5354059638446 118.75705724351717 C 476.5354059638446 118.75705724351717 477.7234114376123 118.75705724351717 477.7234114376123 118.75705724351717 C 478.91069207582564 118.75705724351717 478.91069207582564 118.75705724351717 480.0986975495937 118.75705724351717 C 480.0986975495937 118.75705724351717 480.0986975495937 118.75705724351717 481.2859781878072 118.75705724351717 C 482.47325882602036 118.75705724351717 482.47325882602036 118.75705724351717 483.6612642997882 117.56950479197087 C 483.6612642997882 117.56950479197087 483.6612642997882 117.56950479197087 483.6612642997882 117.56950479197087 C 484.8485449380015 117.56950479197087 484.8485449380015 116.38195234042458 486.03655041176944 116.38195234042458 C 486.03655041176944 116.38195234042458 486.03655041176944 116.38195234042458 486.03655041176944 116.38195234042458 C 486.03655041176944 116.38195234042458 487.2238310499828 116.38195234042458 487.2238310499828 115.19439988887827 C 487.2238310499828 115.19439988887827 487.2238310499828 115.19439988887827 487.2238310499828 115.19439988887827 C 488.41111168819606 115.19439988887827 488.41111168819606 114.0067568328876 489.5991171619641 114.0067568328876 C 489.5991171619641 114.0067568328876 489.5991171619641 114.0067568328876 489.5991171619641 114.0067568328876 C 490.7863978001775 112.81920438134131 490.7863978001775 112.81920438134131 490.7863978001775 111.63165192979496 C 490.7863978001775 111.63165192979496 491.97440327394503 110.44409947824866 491.97440327394503 110.44409947824866 C 491.97440327394503 110.44409947824866 491.97440327394503 110.44409947824866 491.97440327394503 110.44409947824866 C 491.97440327394503 110.44409947824866 491.97440327394503 110.44409947824866 491.97440327394503 109.25654702670234 C 491.97440327394503 109.25654702670234 491.97440327394503 108.06890397071169 491.97440327394503 108.06890397071169 C 491.97440327394503 108.06890397071169 491.97440327394503 106.88135151916539 493.16168391215865 106.88135151916539 C 493.16168391215865 105.69379906761907 493.16168391215865 105.69379906761907 493.16168391215865 104.50624661607277 C 493.16168391215865 104.50624661607277 493.16168391215865 103.31869416452648 493.16168391215865 103.31869416452648 C 493.16168391215865 102.13105110853593 493.16168391215865 102.13105110853593 493.16168391215865 100.9434986569896 C 493.16168391215865 100.9434986569896 493.16168391215865 99.75594620544331 493.16168391215865 99.75594620544331 C 493.16168391215865 98.56839375389696 493.16168391215865 98.56839375389696 493.16168391215865 97.38084130235069 C 493.16168391215865 97.38084130235069 493.16168391215865 96.19319824636003 493.16168391215865 96.19319824636003 C 493.16168391215865 95.0056457948137 493.16168391215865 95.0056457948137 493.16168391215865 95.0056457948137 C 493.16168391215865 95.0056457948137 493.16168391215865 93.8180933432674 493.16168391215865 93.8180933432674 C 493.16168391215865 93.8180933432674 493.16168391215865 92.63054089172108 493.16168391215865 92.63054089172108 C 493.16168391215865 92.63054089172108 493.16168391215865 91.44298844017474 493.16168391215865 91.44298844017474 C 493.16168391215865 91.44298844017474 493.16168391215865 90.25534538418418 493.16168391215865 90.25534538418418 C 493.16168391215865 90.25534538418418 493.16168391215865 89.06779293263786 493.16168391215865 89.06779293263786 C 493.16168391215865 87.88024048109156 493.16168391215865 87.88024048109156 491.97440327394503 86.69268802954524 L 491.97440327394503 85.50513557799894 C 491.97440327394503 84.31749252200834 490.7863978001775 83.12994007046201 490.7863978001775 83.12994007046201 C 477.7234114376123 71.2542343461103 464.6597002394928 59.37852862175858 461.09713348929824 55.815871267119675 C 461.09713348929824 52.253123308036386 459.90985285108474 47.50282289740685 459.90985285108474 47.50282289740685 C 459.90985285108474 45.12771799431422 457.53456673910375 43.940165542767915 455.1592806271224 42.75252248677732 C 451.5967138769277 42.75252248677732 445.658861014752 36.81466962460146 440.90828879078947 30.876816762425594 C 442.0962942645573 29.68926431087929 443.28357490277057 27.314159407786672 443.28357490277057 26.126606956240362 C 443.28357490277057 26.126606956240362 443.28357490277057 24.93896390024974 443.28357490277057 24.93896390024974 C 443.28357490277057 23.751411448703426 444.4715803765386 22.56385899715711 444.4715803765386 22.56385899715711 C 444.4715803765386 21.376306545610806 444.4715803765386 21.376306545610806 444.4715803765386 21.376306545610806 C 444.4715803765386 20.188754094064503 444.4715803765386 20.188754094064503 444.4715803765386 19.001111038073887 C 444.4715803765386 19.001111038073887 444.4715803765386 17.813558586527574 444.4715803765386 17.813558586527574 C 444.4715803765386 16.626006134981257 444.4715803765386 16.626006134981257 444.4715803765386 15.43845368343496 C 444.4715803765386 15.43845368343496 444.4715803765386 14.25090123188864 444.4715803765386 14.25090123188864 C 444.4715803765386 14.25090123188864 444.4715803765386 13.063258175898024 444.4715803765386 13.063258175898024 C 444.4715803765386 13.063258175898024 444.4715803765386 11.875705724351713 444.4715803765386 11.875705724351713 C 444.4715803765386 11.875705724351713 444.4715803765386 10.688153272805403 444.4715803765386 10.688153272805403 C 444.4715803765386 10.688153272805403 444.4715803765386 9.500600821259095 443.28357490277057 9.500600821259095 C 443.28357490277057 9.500600821259095 443.28357490277057 8.313048369712787 443.28357490277057 8.313048369712787 C 443.28357490277057 8.313048369712787 443.28357490277057 7.125405313722167 442.0962942645573 7.125405313722167 C 442.0962942645573 7.125405313722167 442.0962942645573 7.125405313722167 442.0962942645573 7.125405313722167 C 442.0962942645573 7.125405313722167 442.0962942645573 7.125405313722167 442.0962942645573 7.125405313722167 C 442.0962942645573 7.125405313722167 442.0962942645573 7.125405313722167 442.0962942645573 7.125405313722167 C 442.0962942645573 7.125405313722167 442.0962942645573 7.125405313722167 442.0962942645573 7.125405313722167 C 439.72100815257613 3.562747959083238 439.72100815257613 2.375195507536927 438.53372751436257 2.375195507536927 C 438.53372751436257 2.375195507536927 438.53372751436257 2.375195507536927 438.53372751436257 2.375195507536927 C 438.53372751436257 2.375195507536927 437.34572204059486 2.375195507536927 437.34572204059486 2.375195507536927 C 437.34572204059486 2.375195507536927 437.34572204059486 2.375195507536927 436.15844140238164 2.375195507536927 C 436.15844140238164 2.375195507536927 436.15844140238164 2.375195507536927 434.9704359286134 2.375195507536927 C 434.9704359286134 2.375195507536927 433.7831552904001 2.375195507536927 433.7831552904001 2.375195507536927 C 433.7831552904001 2.375195507536927 433.7831552904001 2.375195507536927 433.7831552904001 2.375195507536927 C 433.7831552904001 2.375195507536927 432.5958746521867 2.375195507536927 432.5958746521867 2.375195507536927 C 432.5958746521867 2.375195507536927 431.407869178419 3.562747959083238 431.407869178419 3.562747959083238 C 431.407869178419 3.562747959083238 430.22058854020565 4.750300410629547 430.22058854020565 4.750300410629547 C 430.22058854020565 4.750300410629547 430.22058854020565 4.750300410629547 430.22058854020565 5.937852862175856 C 430.22058854020565 5.937852862175856 430.22058854020565 7.125405313722167 430.22058854020565 7.125405313722167 C 430.22058854020565 7.125405313722167 430.22058854020565 7.125405313722167 430.22058854020565 8.313048369712787 C 430.22058854020565 8.313048369712787 430.22058854020565 9.500600821259095 430.22058854020565 9.500600821259095 C 430.22058854020565 9.500600821259095 430.22058854020565 9.500600821259095 430.22058854020565 10.688153272805403 C 430.22058854020565 10.688153272805403 430.22058854020565 10.688153272805403 430.22058854020565 10.688153272805403 C 430.22058854020565 10.688153272805403 430.22058854020565 10.688153272805403 430.22058854020565 11.875705724351713 C 430.22058854020565 11.875705724351713 430.22058854020565 11.875705724351713 430.22058854020565 13.063258175898024 C 430.22058854020565 13.063258175898024 429.0325830664378 14.25090123188864 429.0325830664378 14.25090123188864 C 429.0325830664378 14.25090123188864 429.0325830664378 15.43845368343496 427.8453024282245 15.43845368343496 C 427.8453024282245 14.25090123188864 427.8453024282245 14.25090123188864 426.65802179001116 15.43845368343496 C 426.65802179001116 15.43845368343496 426.65802179001116 16.626006134981257 425.47001631624306 16.626006134981257 C 424.2827356780296 17.813558586527574 423.0947302042619 19.001111038073887 423.0947302042619 20.188754094064503 L 421.9074495660485 20.188754094064503 L 418.344882815854 3.562747959083238 C 418.344882815854 1.18755245154631 415.96959670387264 0 413.5943105918915 0 C 411.21902447991016 0 408.84446320348343 1.18755245154631 408.84446320348343 3.562747959083238 L 399.34331875555847 29.68926431087929 C 364.90420705627133 41.564970035231006 296.02525882214195 96.19319824636003 285.33683373600354 105.69379906761907 C 275.83641412363306 105.69379906761907 260.3981416490869 109.25654702670234 253.2722833131431 115.19439988887827 C 252.08500267493 116.38195234042458 249.70971656294878 117.56950479197087 248.52243592473516 118.75705724351717 C 248.52243592473516 118.75705724351717 248.52243592473516 118.75705724351717 248.52243592473516 118.75705724351717 C 240.20929695057796 122.31980520260036 229.52087186443973 124.694910105693 220.02045225206936 125.88246255723934 C 218.8331716138559 125.88246255723934 217.64516614008804 125.88246255723934 216.4578855018748 125.88246255723934 C 216.4578855018748 125.88246255723934 215.27024244588395 125.88246255723934 215.27024244588395 125.88246255723934 C 209.33238958370808 125.88246255723934 204.5821797775229 125.88246255723934 202.20689366554168 125.88246255723934 C 202.20689366554168 125.88246255723934 201.01925060955105 125.88246255723934 201.01925060955105 125.88246255723934 C 186.76862119099528 121.13225275105407 173.70527241065295 117.56950479197087 163.0172097422919 115.19439988887827 C 122.63952034527424 104.50624661607277 108.38889092671863 109.25654702670234 106.01360481473738 110.44409947824866 C 87.01240317221915 115.19439988887827 72.7617737536634 122.31980520260036 62.07371108530236 131.82031541941507 C 52.57292905515466 131.82031541941507 21.696021688284763 133.00795847540584 6.2577492137384185 179.32313831682205 C -5.617956510613301 218.51300344896046 -0.8677467044280568 254.1401206220156 22.883664744275364 283.829384932895 Z M 115.51438684488507 382.3977786867918 C 119.07695359507967 387.14798849297694 122.63952034527424 390.7107364520604 127.39009256923673 393.08584135515287 C 127.39009256923673 393.08584135515287 128.57737320745017 394.27348441114344 128.57737320745017 394.27348441114344 C 122.63952034527424 394.27348441114344 119.07695359507967 396.64858931423606 116.7016674830984 397.8361417657824 C 116.7016674830984 397.8361417657824 115.51438684488507 397.8361417657824 115.51438684488507 399.0236942173286 C 115.51438684488507 397.8361417657824 115.51438684488507 396.64858931423606 115.51438684488507 395.4609462582457 C 116.7016674830984 391.89828890360656 117.88931053908905 388.3356315489677 115.51438684488507 382.3977786867918 Z M 275.83641412363306 380.0225831792548 C 274.64840864986525 378.8350307277085 274.64840864986525 377.64747827616225 273.461128011652 375.2722827686255 C 274.64840864986525 372.8971778655326 274.64840864986525 370.5220729624401 275.83641412363306 366.95932500335675 C 274.64840864986525 371.70962541398643 274.64840864986525 376.45992582461594 275.83641412363306 380.0225831792548 Z M 282.96154762402244 394.27348441114344 C 285.33683373600354 396.64858931423606 287.7121198479851 399.0236942173286 287.7121198479851 401.3987991204215 C 287.7121198479851 401.3987991204215 287.7121198479851 401.3987991204215 287.7121198479851 401.3987991204215 C 281.77426698580916 402.58644217641194 277.0236947618467 401.3987991204215 274.64840864986525 400.21133727331926 C 275.83641412363306 397.8361417657824 278.2117002356146 394.27348441114344 278.2117002356146 390.7107364520604 C 278.2117002356146 389.52309339606956 278.2117002356146 388.3356315489677 278.2117002356146 388.3356315489677 C 279.39898087382784 390.7107364520604 280.5862615120414 391.89828890360656 282.96154762402244 394.27348441114344 Z M 16.945811882099516 181.69833382435903 C 19.321097994080745 173.38528545464627 22.883664744275364 166.25988014092403 26.446593912247238 161.50957973029443 C 41.884866386793576 138.94581133758166 63.26099172351575 141.32091624067428 63.26099172351575 141.32091624067428 C 64.4486347795063 141.32091624067428 65.63627783549697 141.32091624067428 66.82392089148755 140.13336378912797 C 72.7617737536634 134.19551092695212 85.82512253400573 125.88246255723934 109.5765339827092 119.94460969506348 C 110.76381462092263 119.94460969506348 130.95265931943135 111.63165192979496 198.64432691534702 134.19551092695212 C 198.64432691534702 134.19551092695212 199.83160755356047 134.19551092695212 201.01925060955105 134.19551092695212 C 202.20689366554168 134.19551092695212 242.58458306255946 136.57061583004474 260.3981416490869 121.13225275105407 C 265.1479890374947 117.56950479197087 280.5862615120414 112.81920438134131 287.7121198479851 114.0067568328876 C 288.89940048619826 114.0067568328876 290.08740595996613 114.0067568328876 291.27468659817964 112.81920438134131 C 292.4619672363929 111.63165192979496 370.84205991844703 47.50282289740685 405.2811716177343 36.81466962460146 C 406.4691770915021 36.81466962460146 407.6564577297155 35.62711717305515 408.84446320348343 33.25201226996251 L 413.5943105918915 21.376306545610806 L 413.5943105918915 26.126606956240362 C 413.5943105918915 28.501711859332985 415.96959670387264 29.68926431087929 418.344882815854 29.68926431087929 C 418.344882815854 29.68926431087929 418.344882815854 29.68926431087929 418.344882815854 29.68926431087929 L 425.47001631624306 29.68926431087929 C 426.65802179001116 29.68926431087929 427.8453024282245 29.68926431087929 429.0325830664378 28.501711859332985 C 430.22058854020565 27.314159407786672 431.407869178419 26.126606956240362 432.5958746521867 24.93896390024974 C 432.5958746521867 26.126606956240362 431.407869178419 26.126606956240362 431.407869178419 27.314159407786672 C 430.22058854020565 28.501711859332985 430.22058854020565 30.876816762425594 431.407869178419 33.25201226996251 C 432.5958746521867 35.62711717305515 440.90828879078947 47.50282289740685 450.4094332387143 51.06557085649009 C 450.4094332387143 53.440675759582696 451.5967138769277 55.815871267119675 451.5967138769277 57.00342371866597 C 451.5967138769277 59.37852862175858 451.5967138769277 60.56608107330489 482.47325882602036 89.06779293263786 C 482.47325882602036 89.06779293263786 482.47325882602036 89.06779293263786 482.47325882602036 90.25534538418418 C 483.6612642997882 93.8180933432674 486.03655041176944 100.9434986569896 483.6612642997882 105.69379906761907 C 482.47325882602036 106.88135151916539 482.47325882602036 108.06890397071169 482.47325882602036 108.06890397071169 C 478.91069207582564 109.25654702670234 475.3481253256314 110.44409947824866 469.41027246345527 109.25654702670234 C 467.0349863514741 105.69379906761907 462.2851389630662 102.13105110853593 452.78399451514105 102.13105110853593 L 436.15844140238164 98.56839375389696 C 434.9704359286134 98.56839375389696 434.9704359286134 98.56839375389696 433.7831552904001 98.56839375389696 C 429.0325830664378 99.75594620544331 414.78231606565924 102.13105110853593 408.84446320348343 95.0056457948137 C 407.6564577297155 93.8180933432674 406.4691770915021 93.8180933432674 405.2811716177343 92.63054089172108 C 404.09389097952106 92.63054089172108 402.9066103413075 93.8180933432674 401.7186048675397 95.0056457948137 C 398.156038117345 99.75594620544331 363.71620158250323 146.0712166513038 367.2794931682522 171.01018055155365 C 367.2794931682522 194.76159200025702 362.5289209442899 235.13900958394174 350.6532152199382 241.0768624461175 C 348.27792910795705 242.26441489766393 348.27792910795705 244.63951980075652 348.27792910795705 245.82716285674707 C 348.27792910795705 245.82716285674707 349.4659345817248 257.7028685810987 343.52808171954877 279.0790845222652 C 343.52808171954877 279.0790845222652 335.21494274539185 298.08019556033923 336.4022233836052 319.4565021059501 L 332.8396566334107 334.89495578938505 C 332.8396566334107 342.0203611031073 330.46437052142926 375.2722827686255 336.4022233836052 384.7728835898844 C 337.5902288573729 385.96043604143074 344.7153623577623 400.21133727331926 350.6532152199382 407.3366519825971 C 347.0906484697436 408.52429503858787 342.3400762457811 408.52429503858787 335.21494274539185 406.1491901354954 C 337.5902288573729 401.3987991204215 338.77750949558646 394.27348441114344 336.4022233836052 389.52309339606956 C 335.21494274539185 385.96043604143074 332.8396566334107 383.5852405338937 329.277089883216 382.3977786867918 C 328.08908440944805 381.2101356308012 326.90180377123477 380.0225831792548 328.08908440944805 378.8350307277085 C 328.08908440944805 377.64747827616225 328.08908440944805 377.64747827616225 329.277089883216 376.45992582461594 C 329.277089883216 365.77177255181056 330.46437052142926 332.51976028184805 328.08908440944805 325.39435496812587 C 328.08908440944805 325.39435496812587 326.90180377123477 324.20680251657956 326.90180377123477 323.0192500650332 L 326.90180377123477 323.0192500650332 L 320.9639509090587 267.20337879791356 C 320.9639509090587 264.8282738948209 318.58866479707757 263.64072144327474 317.40138415886435 262.453078387284 C 315.02609804688296 262.453078387284 312.65081193490187 263.64072144327474 312.65081193490187 264.8282738948209 C 309.0882451847071 270.7661267569969 299.5878255723366 290.9547902466171 299.5878255723366 300.4553910678762 C 299.5878255723366 305.20569147850574 297.2125394603556 320.64405455749636 292.4619672363929 326.58190741967235 C 292.4619672363929 326.58190741967235 292.4619672363929 327.76945987121843 291.27468659817964 327.76945987121843 C 290.08740595996613 330.1446553787553 287.7121198479851 336.08250824093136 284.14955309779043 344.39546600619985 C 286.5241143742172 334.89495578938505 286.5241143742172 324.20680251657956 285.33683373600354 317.08139720285726 C 286.5241143742172 311.14354434068144 293.64997271016085 275.5164271676263 288.89940048619826 257.7028685810987 C 288.89940048619826 255.32767307356187 286.5241143742172 254.1401206220156 284.14955309779043 254.1401206220156 C 262.7727029255136 252.9525681704693 233.08343861463445 250.57737266293228 216.4578855018748 244.63951980075652 C 215.27024244588395 244.63951980075652 195.0813977473753 241.0768624461175 180.83076832881952 233.95145713239543 C 166.57977649248656 226.82596121422898 140.4530789318018 213.76270303833078 121.45223970706094 243.45196734921018 C 121.45223970706094 243.45196734921018 103.63868112053338 264.8282738948209 104.8259617587467 282.64183248134856 C 104.8259617587467 285.0169373844412 104.8259617587467 287.3921328919782 102.45103806454276 290.9547902466171 C 102.45103806454276 290.9547902466171 102.45103806454276 292.14234269816336 102.45103806454276 292.14234269816336 C 100.07575195256152 307.58079638159825 100.07575195256152 317.08139720285726 100.07575195256152 323.0192500650332 L 100.07575195256152 324.20680251657956 C 101.26339500855211 331.3322078303016 102.45103806454276 343.2079135546533 106.01360481473738 356.27117173055143 C 108.38889092671863 363.3965770442735 110.76381462092263 371.70962541398643 115.51438684488507 377.64747827616225 C 114.3267437888944 376.45992582461594 113.13910073290378 375.2722827686255 111.95145767691324 374.08473031707905 C 109.5765339827092 372.8971778655326 108.38889092671863 370.5220729624401 108.38889092671863 369.3344299064494 C 108.38889092671863 366.95932500335675 101.26339500855211 339.64516559557023 94.13789909038567 321.8316070090425 C 92.95025603439498 320.64405455749636 91.76297539618166 319.4565021059501 89.3876892842004 319.4565021059501 C 89.3876892842004 319.4565021059501 89.3876892842004 319.4565021059501 89.3876892842004 319.4565021059501 C 87.01240317221915 319.4565021059501 85.82512253400573 320.64405455749636 84.63747947801514 323.0192500650332 C 82.26219336603391 327.76945987121843 82.26219336603391 331.3322078303016 81.07455031004329 334.89495578938505 C 81.07455031004329 339.64516559557023 81.07455031004329 344.39546600619985 79.8872696718299 349.1457664168292 C 78.69962661583925 368.14687745490335 77.51198355984864 378.8350307277085 81.07455031004329 384.7728835898844 C 88.20004622820979 393.08584135515287 95.32554214637628 402.58644217641194 97.70082825835755 408.52429503858787 C 91.76297539618166 409.7118474901342 84.63747947801514 410.89939994168066 81.07455031004329 409.7118474901342 C 79.8872696718299 408.52429503858787 81.07455031004329 408.52429503858787 82.26219336603391 407.3366519825971 C 88.20004622820979 401.3987991204215 87.01240317221915 396.64858931423606 79.8872696718299 388.3356315489677 L 77.51198355984864 383.5852405338937 C 73.94941680965407 363.3965770442735 71.57413069767281 338.45761314402387 71.57413069767281 333.7073127333943 C 72.7617737536634 332.51976028184805 73.94941680965407 330.1446553787553 72.7617737536634 328.9571029272091 C 72.7617737536634 326.58190741967235 70.3864876416822 323.0192500650332 69.1988445856916 321.8316070090425 C 73.94941680965407 307.58079638159825 87.01240317221915 268.3909312494599 75.1366974478674 256.51522552510806 C 73.94941680965407 255.32767307356187 28.821517606451238 214.95025548987715 50.198005360950646 168.63507564846105 C 51.38528599916404 166.25988014092403 50.198005360950646 163.88477523783143 49.01036230496003 162.69722278628507 C 47.822719248969456 161.50957973029443 44.26015249877481 161.50957973029443 43.07250944278423 162.69722278628507 C 27.633874550460625 174.5729285106368 28.821517606451238 212.5751505867845 34.75937046862708 229.20115672176578 C 39.50958027481235 243.45196734921018 34.75937046862708 267.20337879791356 32.3844467744231 279.0790845222652 C 8.63303532571965 249.389820211386 5.070106157747799 218.51300344896046 16.945811882099516 181.69833382435903 Z" stroke="none" stroke-linejoin="miter" stroke-linecap="butt" fill="#F2C2CF" fill-rule="nonzero" fill-opacity="1"/></g></g></g></svg></svg>