<svg id="draw.id" overflow="visible" v:ver="3" x="500.5" xmlns="http://www.w3.org/2000/svg" xmlns:v="http://vecta.io" xmlns:xlink="http://www.w3.org/1999/xlink" y="500.5" v:layers="{&quot;default&quot;:{&quot;name&quot;:&quot;Default&quot;,&quot;print&quot;:1,&quot;display&quot;:1,&quot;publish&quot;:1}}" v:stencils="{&quot;0&quot;:{&quot;id&quot;:&quot;stencil_25&quot;,&quot;expand&quot;:1,&quot;show_name&quot;:1},&quot;1&quot;:{&quot;id&quot;:&quot;stencil_65&quot;,&quot;expand&quot;:1,&quot;show_name&quot;:1}}"><style xmlns="http://www.w3.org/1999/xhtml"><![CDATA[#draw\.id{stroke:#000;stroke-linecap:round;stroke-linejoin:round;fill:#fff;fill-rule:evenodd;font-family:Roboto;font-size:14px;text-anchor:middle}#draw\.id text{paint-order:stroke;white-space:pre}#draw\.id .Text\.cls{stroke:none}]]></style><defs><style type="text/css">@import url('https://fonts.googleapis.com/css?family=Roboto+Condensed:400,400i,700,700i');@import url('https://fonts.googleapis.com/css?family=Roboto:400,400i,700,700i');@import url('https://fonts.googleapis.com/css?family=Cousine:400,400i,700,700i');@import url('https://fonts.googleapis.com/css?family=Anonymous+Pro:400,400i,700,700i');@import url('https://fonts.googleapis.com/css?family=Lato:400,400i,700,700i');@import url('https://fonts.googleapis.com/css?family=Open+Sans:400,400i,700,700i');</style></defs><title xmlns="http://www.w3.org/1999/xhtml">Untitled drawing</title><desc xmlns="http://www.w3.org/1999/xhtml"></desc><svg height="500" id="kwpfkecs3d" overflow="visible" v:setup="{&quot;paper&quot;:&quot;CUSTOM&quot;,&quot;unit&quot;:&quot;px&quot;,&quot;scale&quot;:{&quot;from&quot;:&quot;1&quot;,&quot;to&quot;:&quot;1&quot;},&quot;width&quot;:&quot;500px&quot;,&quot;height&quot;:&quot;500px&quot;,&quot;margin&quot;:{&quot;top&quot;:&quot;0&quot;,&quot;bottom&quot;:&quot;0&quot;,&quot;left&quot;:&quot;0&quot;,&quot;right&quot;:&quot;0&quot;}}" viewBox="0 0 500 500" width="500"><g id="kwpi3mynly" class="Group.cls" transform="translate(15.673630566494541 3.76510963537109)" v:abox="{&quot;x&quot;:15.673630566494541,&quot;y&quot;:3.76510963537109,&quot;width&quot;:385.32636943350553,&quot;height&quot;:486.2349305507271}" fill="#F2C2CF"><g class="Prim.cls"><g id="kwpi3mx8lu" transform="translate(15.540403048544073 11.504286652104756)" class=""><path d="M 360.4893967419279 458.68794949919044 C 358.1737809237323 448.0450091034486 354.69099680911387 435.77786149940647 353.9090444525962 429.6898295818691 C 350.09504663263897 399.9979609578221 305.2458308105701 368.68098508823135 220.0576657973955 344.2213929712964 C 191.48472347355846 336.01737349600967 157.92269470560512 325.2968498899414 145.47553965300906 320.39776717010193 C 72.23662908973083 291.5728144182897 47.263475722072094 229.24595538634128 79.62953500183418 156.06086705018055 C 87.73995060387283 137.72170819152245 94.37574518735899 118.66953982914283 94.37574518735899 113.72239512053957 C 94.37574518735899 98.51788597099683 62.94968480394473 64.55966080877661 49.09199138448127 64.0687804965705 C 26.40205249427857 63.2650472387779 0 25.886860561484664 0 9.638308210330049 C 0 -2.530555326801914 27.383093088896615 -1.416489227702633 47.90682234320327 3.39835000621361 C 47.90682234320327 3.39835000621361 74.95618162248118 7.151505308559716 83.79418733157418 33.26446584046092 C 86.57062221806757 41.46686524871053 85.00995763910635 45.337025392616624 90.63555042130878 53.86613831999134 C 96.2611432035112 62.39525124736609 114.20428567535099 76.38741023089922 118.93416139354987 84.11098982599583 C 134.5724884941072 109.64648646293652 133.53852570961436 131.14819618523583 118.0992868471575 165.17338411831804 C 111.68202130621553 179.31530929904784 106.37360164836494 199.42016122056987 106.30231869873761 209.8508728344666 C 106.126271414052 235.6279394673666 135.40664301070538 267.9792381363471 173.55670162739716 284.15866762725716 C 190.0241430359932 291.1425966162463 231.96839865330136 310.93153546555624 266.76599854812775 328.1343073014946 C 342.91490952472634 365.77962503244174 359.5133963558695 383.85399293427713 366.78857739661856 437.05141419792426 C 372.3950893892742 478.046670546457 370.04815227503013 486.1077641075919 360.4893967419279 458.68794949919044 Z" stroke="none" stroke-linejoin="miter" stroke-linecap="butt" fill="#F2C2CF" fill-rule="nonzero" fill-opacity="1"/></g><g v:unit="{&quot;rounded&quot;:&quot;px&quot;}" id="kwpi3mxblv" transform="translate(0 0)" class=""><path d="M 21.859384522575635 19.224435490645536 L 7.798642701143537 7.573993405348431 L 5.988487798486823 0 M 8.628117024079309 7.2975019643698396 L 0 4.894222518728457" stroke-linejoin="round" stroke-linecap="round" fill="#F2C2CF" fill-opacity="1" stroke="#F2C2CF" stroke-width="1" stroke-opacity="1" stroke-dasharray="none"/><g transform="translate(0 0)" class="Text.cls"><rect x="0" y="0" width="21.859384522575635" height="19.224435490645536" fill="none" stroke="none"/><text fill="#000000" fill-opacity="1"/></g></g></g><g transform="translate(0 0)" class="Text.cls"><rect x="0" y="0" width="385.32636943350553" height="486.2349305507271" fill="none" stroke="none"/><text fill="#000000" fill-opacity="1"/></g></g></svg></svg>