<svg id="draw.id" overflow="visible" v:ver="3" x="500.5" xmlns="http://www.w3.org/2000/svg" xmlns:v="http://vecta.io" xmlns:xlink="http://www.w3.org/1999/xlink" y="500.5" v:layers="{&quot;default&quot;:{&quot;name&quot;:&quot;Default&quot;,&quot;print&quot;:1,&quot;display&quot;:1,&quot;publish&quot;:1}}" v:stencils="{&quot;0&quot;:{&quot;id&quot;:&quot;stencil_25&quot;,&quot;expand&quot;:1,&quot;show_name&quot;:1},&quot;1&quot;:{&quot;id&quot;:&quot;stencil_65&quot;,&quot;expand&quot;:1,&quot;show_name&quot;:1}}"><style xmlns="http://www.w3.org/1999/xhtml"><![CDATA[#draw\.id{stroke:#000;stroke-linecap:round;stroke-linejoin:round;fill:#fff;fill-rule:evenodd;font-family:Roboto;font-size:14px;text-anchor:middle}#draw\.id text{paint-order:stroke;white-space:pre}#draw\.id .Text\.cls{stroke:none}]]></style><defs><style type="text/css">@import url('https://fonts.googleapis.com/css?family=Roboto+Condensed:400,400i,700,700i');@import url('https://fonts.googleapis.com/css?family=Roboto:400,400i,700,700i');@import url('https://fonts.googleapis.com/css?family=Cousine:400,400i,700,700i');@import url('https://fonts.googleapis.com/css?family=Anonymous+Pro:400,400i,700,700i');@import url('https://fonts.googleapis.com/css?family=Lato:400,400i,700,700i');@import url('https://fonts.googleapis.com/css?family=Open+Sans:400,400i,700,700i');</style></defs><title xmlns="http://www.w3.org/1999/xhtml">Untitled drawing</title><desc xmlns="http://www.w3.org/1999/xhtml"></desc><svg height="500" id="kwpfkecs3d" overflow="visible" v:setup="{&quot;paper&quot;:&quot;CUSTOM&quot;,&quot;unit&quot;:&quot;px&quot;,&quot;scale&quot;:{&quot;from&quot;:&quot;1&quot;,&quot;to&quot;:&quot;1&quot;},&quot;width&quot;:&quot;500px&quot;,&quot;height&quot;:&quot;500px&quot;,&quot;margin&quot;:{&quot;top&quot;:&quot;0&quot;,&quot;bottom&quot;:&quot;0&quot;,&quot;left&quot;:&quot;0&quot;,&quot;right&quot;:&quot;0&quot;}}" viewBox="0 0 500 500" width="500"><g id="kwphrw2ob61" transform="translate(5.000006958522103 5)" class=""><path d="M 494.0658274947284 200.15628320150955 C 495.4894098424812 188.7718028933992 484.1050938986166 175.96425576108942 469.87448182687797 161.73364180458023 C 461.33559344325596 151.77220117792703 451.37399127951267 141.81076055127375 448.52856371927 134.69545357301914 C 442.83597146352207 111.92649295679841 414.37474732004483 109.0803593083997 401.5668490284275 107.65729248420037 C 383.0672270486935 63.54238379047348 333.26008479760844 -9.033725673529615 210.87716840770875 0.9276878103815613 L 208.03087227983482 0.9276878103815613 L 206.60815849971348 3.7738214587802226 C 203.7618623718395 12.31219526123414 205.18457615196098 22.273608745145324 208.03087227983482 30.81198254759923 C 199.49285246384432 32.23504937179858 190.9539640802223 33.6581161959979 183.83865804435288 35.08115587745515 L 178.1469343562363 36.504222701654484 L 180.99236191647884 42.196462855709754 C 208.03087227983482 106.23422566000107 259.2607283110414 143.23382737547314 321.8757688537438 143.23382737547314 C 321.8757688537438 147.50302784807113 321.8757688537438 151.77220117792703 319.0294727258697 154.61833482632576 C 314.7604628178745 158.88750815618164 303.3761468740099 164.579748310237 277.76121885840666 161.73364180458023 C 269.22233047478466 160.31057498038095 259.2607283110414 158.88750815618164 247.87641236717687 156.041374507783 C 182.41594426423154 143.23382737547314 87.07066967005647 123.31097326490888 48.647843362835815 279.8477267865096 C 47.22512958271448 288.3861005889635 45.801547234961824 298.34751407287433 47.22512958271448 306.88588787532854 C 35.84081363884982 304.03978136967186 24.45562912735389 306.88588787532854 14.49489553124191 312.57812802938366 C 3.109711019745939 321.11650183183787 -1.1592988882493847 335.3471157883468 0.26428345950327836 355.2699698989113 C 4.533293367498601 419.3077327032025 74.26277137843917 423.57693317580055 75.68635372619184 423.57693317580055 L 286.29923867439726 423.57693317580055 L 287.72195245451854 420.73079952740176 C 287.72195245451854 419.3077327032025 297.6835546182618 402.2310122410368 289.1455348022713 388.0003982845276 C 283.4529425465231 379.4620244820736 273.4913403827801 373.76978432801843 257.8380145309201 373.76978432801843 C 253.5690046229248 373.76978432801843 247.87641236717687 373.76978432801843 243.60740245918137 375.19285115221766 C 253.5690046229248 365.2314105255644 260.68431065879406 352.4238633932548 266.3760343469107 338.19324943674553 C 277.76121885840666 366.6544773497638 300.52985074613593 416.4616261975459 326.1447787617391 425 L 327.5683611094917 425 L 387.3362369566889 425 L 388.75981930444163 422.1538663516012 C 388.75981930444163 422.1538663516012 397.29783912043195 406.50018557089277 390.1825330845627 393.6926384385827 C 384.49080939644614 385.15426463612874 374.52920723270284 380.885091306273 357.4522990330902 380.885091306273 C 350.336992997221 380.885091306273 337.5290947056037 379.4620244820736 334.6836671453611 369.5005838554203 C 331.837371017487 356.6930367231106 347.49069686934706 336.7701826125463 373.10562488495015 326.80874198589294 C 414.37474732004483 312.57812802938366 421.49005335591386 254.23263252188983 422.91276713603554 235.7328180927826 C 439.9896753356479 237.15588491698188 488.37410380661197 237.15588491698188 494.0658274947284 200.15628320150955 Z M 484.1050938986166 198.73322994868136 C 478.41250164286873 232.88671158712592 418.6437572280402 225.77140460887134 418.6437572280402 225.77140460887134 L 412.9520335399233 224.34833778467205 L 412.9520335399233 230.04057793872732 C 412.9520335399233 231.4636447629266 411.5284511921707 302.6167145454726 370.2601973247076 316.84732850198174 C 341.7989731812302 326.80874198589294 321.8757688537438 351.00079656905535 324.7220649816178 370.92365067961987 C 326.1447787617391 376.615890833675 330.4137886697343 390.8465047901841 357.4522990330902 390.8465047901841 C 370.2601973247076 390.8465047901841 378.7982171406983 393.6926384385827 381.644513268572 397.9618117684386 C 383.0672270486935 402.2310122410368 383.0672270486935 407.92325239509205 380.2209309208197 413.6154925491473 L 328.9910748896131 413.6154925491473 C 303.3761468740099 403.6540790652359 277.76121885840666 339.616316260945 269.22233047478466 315.42426167778245 C 269.22233047478466 312.57812802938366 269.22233047478466 308.3089546995279 267.7996166946634 305.4628210511293 L 257.8380145309201 306.88588787532854 C 257.8380145309201 309.73202152372716 259.2607283110414 314.0011948535832 259.2607283110414 316.84732850198174 C 259.2607283110414 353.84693021745403 220.83877057145207 383.7311978119294 216.56889209582536 386.57733146032825 L 216.56889209582536 386.57733146032825 L 222.2614843515734 395.11570526278194 L 222.2614843515734 395.11570526278194 C 232.2230865153168 388.0003982845276 245.03011623930288 383.7311978119294 257.8380145309201 385.15426463612874 C 269.22233047478466 385.15426463612874 277.76121885840666 389.42346510872704 280.60664641864946 395.11570526278194 C 284.8765248942759 402.2310122410368 282.0302287664018 410.76938604349056 279.18393263852806 415.03855937334635 L 75.68635372619184 415.03855937334635 C 74.26277137843917 415.03855937334635 14.49489553124191 410.76938604349056 11.648599403367905 356.6930367231106 C 10.225017055615252 339.616316260945 14.49489553124191 328.2318088100923 21.610201567111243 322.53956865603703 C 32.99451751097588 314.0011948535832 52.91685327083115 321.11650183183787 52.91685327083115 321.11650183183787 L 61.45574165445312 322.53956865603703 L 58.60944552657912 312.57812802938366 C 57.18673174645782 302.6167145454726 57.18673174645782 292.6552739188195 58.60944552657912 281.2707936107087 C 92.76326192580443 134.69545357301914 179.5696481363576 153.1952680021264 243.60740245918137 166.00281513443628 C 254.99171840304612 167.42588195863553 264.9533205667893 170.27198846429218 273.4913403827801 171.6950552884915 C 299.1071369660146 174.5411889368901 316.18317659799584 171.6950552884915 324.7220649816178 160.31057498038095 C 330.4137886697343 153.1952680021264 331.837371017487 143.23382737547314 328.9910748896131 134.69545357301914 L 328.9910748896131 133.27241389156205 L 324.7220649816178 133.27241389156205 C 266.3760343469107 134.69545357301914 217.99247444357806 101.96505233014516 192.37754642797486 43.61952967990907 C 287.72195245451854 20.85054192094597 371.68291110482886 127.58014659476468 373.10562488495015 129.00321341896407 L 381.644513268572 121.88790644070943 C 378.7982171406983 117.61873311085363 307.6451567820051 29.388915723399904 219.41518822369937 29.388915723399904 C 216.56889209582536 23.69667556934466 216.56889209582536 16.581368591090076 216.56889209582536 10.889128437034813 C 330.4137886697343 3.7738214587802226 375.9519210128241 70.65769076872807 393.0288292124368 111.92649295679841 L 394.45154299255785 116.19566628665433 L 397.29783912043195 116.19566628665433 C 421.49005335591386 117.61873311085363 435.7206654276526 123.31097326490888 438.56696155552675 134.69545357301914 C 441.41325768340073 144.65689419967254 451.37399127951267 154.61833482632576 461.33559344325596 167.42588195863553 C 472.71990938712077 178.81036226674607 485.52780767873776 191.6179229704268 484.1050938986166 198.73322994868136 Z" stroke="none" stroke-linejoin="miter" stroke-linecap="butt" fill="#F2C2CF" fill-rule="nonzero"/></g></svg></svg>