<svg id="draw.id" overflow="visible" v:ver="3" x="500.5" xmlns="http://www.w3.org/2000/svg" xmlns:v="http://vecta.io" xmlns:xlink="http://www.w3.org/1999/xlink" y="500.5" v:layers="{&quot;default&quot;:{&quot;name&quot;:&quot;Default&quot;,&quot;print&quot;:1,&quot;display&quot;:1,&quot;publish&quot;:1}}" v:stencils="{&quot;0&quot;:{&quot;id&quot;:&quot;stencil_25&quot;,&quot;expand&quot;:1,&quot;show_name&quot;:1},&quot;1&quot;:{&quot;id&quot;:&quot;stencil_65&quot;,&quot;expand&quot;:1,&quot;show_name&quot;:1}}"><style xmlns="http://www.w3.org/1999/xhtml"><![CDATA[#draw\.id{stroke:#000;stroke-linecap:round;stroke-linejoin:round;fill:#fff;fill-rule:evenodd;font-family:Roboto;font-size:14px;text-anchor:middle}#draw\.id text{paint-order:stroke;white-space:pre}#draw\.id .Text\.cls{stroke:none}]]></style><defs><style type="text/css">@import url('https://fonts.googleapis.com/css?family=Roboto+Condensed:400,400i,700,700i');@import url('https://fonts.googleapis.com/css?family=Roboto:400,400i,700,700i');@import url('https://fonts.googleapis.com/css?family=Cousine:400,400i,700,700i');@import url('https://fonts.googleapis.com/css?family=Anonymous+Pro:400,400i,700,700i');@import url('https://fonts.googleapis.com/css?family=Lato:400,400i,700,700i');@import url('https://fonts.googleapis.com/css?family=Open+Sans:400,400i,700,700i');</style></defs><title xmlns="http://www.w3.org/1999/xhtml">Untitled drawing</title><desc xmlns="http://www.w3.org/1999/xhtml"></desc><svg height="500" id="kwpfkecs3d" overflow="visible" v:setup="{&quot;paper&quot;:&quot;CUSTOM&quot;,&quot;unit&quot;:&quot;px&quot;,&quot;scale&quot;:{&quot;from&quot;:&quot;1&quot;,&quot;to&quot;:&quot;1&quot;},&quot;width&quot;:&quot;500px&quot;,&quot;height&quot;:&quot;500px&quot;,&quot;margin&quot;:{&quot;top&quot;:&quot;0&quot;,&quot;bottom&quot;:&quot;0&quot;,&quot;left&quot;:&quot;0&quot;,&quot;right&quot;:&quot;0&quot;}}" viewBox="0 0 500 500" width="500"><g id="kwphqpw1azm" transform="translate(1.3814938964843808 67.27882249342028)" class=""><path d="M 462.51926630341603 163.8125700990602 C 461.39144594595086 94.99874525265908 427.5485728017985 38.59395667907185 412.8834654796691 18.288198365829583 C 403.8581484798816 4.75108353491947 362.1191557634406 5.879162093015796 347.45335990629434 7.007240651112123 C 337.3009110840589 3.623004976823141 327.14777372680635 0.23868323565706556 315.86681601208886 0.23868323565706556 C 291.04857133270724 -0.8893953224392613 257.2056981885548 1.366761793753393 241.41277050896028 20.544441548899346 L 122.96271450442705 20.544441548899346 C 120.70638525448014 20.544441548899346 66.55792593083973 28.441077522450726 40.61186089399292 66.79635096586556 C 33.842873144152385 66.79635096586556 27.07457392932861 69.05250808205818 22.561915429434926 72.43682982322424 C 7.896808107305576 83.7177875379417 1.1285088924818067 107.40778152547294 0 143.50681178581794 L 10.153137357252422 143.50681178581794 C 10.153137357252422 102.89538122621049 20.305586179488078 87.10202321223066 28.202394286793645 80.33346579677564 C 30.458723536740496 79.20538723867931 31.58654389420554 79.20538723867931 33.842873144152385 78.07730868058299 C 30.458723536740496 83.7177875379417 29.330903179275456 90.48634495339672 27.07457392932861 96.12682381075543 C 20.305586179488078 127.7135398387152 25.946065036846804 148.01921208508034 33.842873144152385 161.55641298286756 L 24.818244679381767 312.72117750657975 L 162.44606650593815 312.72117750657975 L 162.44606650593815 308.2088632741944 C 163.57388686340317 301.44021979186226 161.3175576134564 294.6716623764072 156.80558764857938 289.0311835190484 C 151.1651087912207 281.1345475454971 147.78095918380876 272.1097469469724 146.65245029132706 263.08503241532475 C 144.39612104138018 246.16359584324843 150.03659989873887 229.24215927117217 162.44606650593815 217.96120155645477 C 181.62383232796114 220.21735867264744 199.6730892575024 220.21735867264744 218.8508550795254 217.96120155645477 C 221.10718432947235 231.49831638736495 221.10718432947235 250.67591007563377 218.8508550795254 255.1883103748961 C 213.2103762221667 266.46926808961365 214.33819657963178 291.28742670211824 214.33819657963178 293.543583818311 L 214.33819657963178 298.05598411757336 L 260.59053633098335 298.05598411757336 L 260.59053633098335 311.59309894848343 L 342.9413899414175 311.59309894848343 L 341.8128810489358 304.82454153302837 C 341.8128810489358 303.69646297493193 339.55724033400577 295.7997409345035 337.3009110840589 287.9031049609522 C 345.1977191913644 293.543583818311 355.3501680136001 298.05598411757336 364.3747964783706 300.3121412337661 C 367.7596346207992 301.44021979186226 372.2716045856763 301.44021979186226 376.78426308556993 301.44021979186226 C 397.08984926505804 301.44021979186226 425.2922435518516 291.28742670211824 445.59782973133946 240.5231169858897 C 451.2383085886983 225.85783753000618 455.75096708859206 210.0644795160264 458.0072963385389 194.27112150204655 C 470.4160744107213 196.52736468511623 483.9533613753856 197.65544324321263 496.3621394475682 197.65544324321263 L 496.3621394475682 187.50256408659146 C 483.9533613753856 187.50256408659146 471.5438947681866 186.37448552849517 459.13511669600393 184.11832841230253 C 459.13511669600393 180.73400667113643 460.262937053469 177.34968492997038 460.262937053469 173.96544925568134 C 465.9034159108277 175.09352781377768 471.5438947681866 175.09352781377768 477.18437362554533 175.09352781377768 C 483.9533613753856 175.09352781377768 491.8501694826914 173.96544925568134 498.618468697515 172.83737069758507 L 496.3621394475682 162.684491540964 C 486.20969062533254 166.06872721525292 473.8002240181333 166.06872721525292 462.51926630341603 163.8125700990602 Z M 137.62782182655639 264.21311097342095 C 138.75564218402144 275.4940686881384 143.26830068391516 285.6469478447595 148.9087795412738 294.6716623764072 C 151.1651087912207 296.927905559477 152.29292914868572 299.18406267566957 152.29292914868572 301.44021979186226 L 100.40079907499207 301.44021979186226 C 97.01664946758025 291.28742670211824 91.37617061022151 272.1097469469724 92.50399096768655 260.82878923225485 C 93.63181132515159 247.2916744013447 119.57856489701511 213.44880125719237 134.2436722191445 206.68024384173734 C 138.75564218402144 211.1925580741228 144.39612104138018 213.44880125719237 151.1651087912207 214.57687981528875 C 138.75564218402144 229.24215927117217 134.2436722191445 247.2916744013447 137.62782182655639 264.21311097342095 L 137.62782182655639 264.21311097342095 Z M 225.61915429434916 289.0311835190484 C 225.61915429434916 278.87830436242734 225.61915429434916 266.46926808961365 229.0033039017611 260.82878923225485 C 233.51596240165475 251.80407470060723 231.25963315170802 228.11399464619893 230.13181279424302 216.8330369314814 C 241.41277050896028 215.704958373385 251.565219331196 212.3207226990961 261.71835668844847 206.68024384173734 L 261.71835668844847 289.0311835190484 L 225.61915429434916 289.0311835190484 Z M 271.87149404570096 302.5683844168357 L 271.87149404570096 187.50256408659146 L 263.97468593839534 194.27112150204655 C 241.41277050896028 211.1925580741228 191.77628115019675 212.3207226990961 162.44606650593815 207.8083223998337 C 156.80558764857938 206.68024384173734 151.1651087912207 205.55207921676393 145.52462993386197 203.29592210057132 C 152.29292914868572 198.78352180130898 161.3175576134564 188.63064264468773 163.57388686340317 166.06872721525292 L 153.42143804116756 164.9406486571565 C 151.1651087912207 193.14304294395032 136.50000146909136 196.52736468511623 135.37149257660954 196.52736468511623 L 135.37149257660954 196.52736468511623 C 113.93808603965637 199.91160035940527 83.4793625029159 242.77927410208233 81.22303325296907 260.82878923225485 C 80.09521289550405 273.23782550506866 85.73569175286276 291.28742670211824 89.11984136027466 301.44021979186226 L 34.97138203663421 301.44021979186226 L 43.99601050140481 173.96544925568134 C 46.252339751351634 176.2216063718741 49.636489358763534 178.47784955494373 53.02063896617543 180.73400667113643 L 57.53329746606911 171.70920607261155 C 57.53329746606911 171.70920607261155 25.946065036846804 154.7877695005354 37.22702275156428 98.38298092694805 C 48.50798046628171 44.23443553643055 118.45005600453332 31.825399263616806 124.09053486189205 31.825399263616806 L 234.6437827591199 31.825399263616806 C 230.13181279424302 43.10635697833423 231.25963315170802 57.77155036734071 238.02862090154844 74.6929869394169 C 256.0778778310897 118.68873924019036 303.4580379399064 149.1472906431767 351.9660184061881 150.2754552681501 C 338.4287314415239 163.8125700990602 330.53192333421833 187.50256408659146 326.0199533693413 205.55207921676393 C 316.99532490457074 216.8330369314814 312.482666404677 231.49831638736495 311.35484604721205 246.16359584324843 C 312.482666404677 257.44455355796595 316.99532490457074 267.59734664770986 323.7636241193945 275.4940686881384 L 322.63580376192937 276.6221472462348 C 327.14777372680635 285.6469478447595 329.4041029767532 293.543583818311 331.6604322267 303.69646297493193 L 271.87149404570096 302.5683844168357 Z M 382.4247419429285 154.7877695005354 C 393.70569965764616 173.96544925568134 393.70569965764616 186.37448552849517 391.4493704076993 193.14304294395032 C 370.0152753357292 180.73400667113643 353.093838763653 184.11832841230253 342.9413899414175 189.75880726966116 C 341.8128810489358 190.88688582775757 340.6850606914708 190.88688582775757 339.55724033400577 192.0149643858538 C 346.3255395488294 169.453048956419 356.47867690608194 154.7877695005354 368.8874549782642 149.1472906431767 C 371.1437842282111 149.1472906431767 374.5279338356231 148.01921208508034 376.78426308556993 148.01921208508034 C 379.04059233551686 150.2754552681501 381.29623305044674 152.53161238434274 382.4247419429285 154.7877695005354 Z M 437.70102162403407 238.26687380281996 C 420.7795850519579 278.87830436242734 395.962028907593 296.927905559477 368.8874549782642 291.28742670211824 C 340.6850606914708 285.6469478447595 321.5072948694476 259.70071067415864 321.5072948694476 245.03543121827505 C 322.63580376192937 231.49831638736495 327.14777372680635 219.08928011455114 335.044581834112 208.93640095793006 L 335.044581834112 208.93640095793006 C 338.4287314415239 204.42400065866764 342.9413899414175 201.03976498437876 348.5818687987762 197.65544324321263 C 360.9906468709588 190.88688582775757 375.6557541930881 193.14304294395032 391.4493704076993 203.29592210057132 C 399.3461785150048 208.93640095793006 401.60250776495155 223.6016804138136 398.21766962252315 237.1387952447236 C 395.962028907593 247.2916744013447 385.80889155034043 255.1883103748961 375.6557541930881 255.1883103748961 C 359.86282651349376 255.1883103748961 356.47867690608194 245.03543121827505 355.3501680136001 240.5231169858897 C 353.093838763653 230.37023782926872 357.6064972635469 221.3454372307438 366.63112572831744 215.704958373385 C 374.5279338356231 212.3207226990961 375.6557541930881 215.704958373385 376.78426308556993 216.8330369314814 C 380.16841269298175 222.47351578884002 379.04059233551686 229.24215927117217 374.5279338356231 234.88263812853103 L 381.29623305044674 242.77927410208233 C 389.19304115775253 234.88263812853103 391.4493704076993 222.47351578884002 385.80889155034043 212.3207226990961 C 381.29623305044674 204.42400065866764 372.2716045856763 202.16784354247503 362.1191557634406 206.68024384173734 C 348.5818687987762 213.44880125719237 341.8128810489358 228.11399464619893 345.1977191913644 242.77927410208233 C 348.5818687987762 256.3163889329925 360.9906468709588 266.46926808961365 375.6557541930881 265.3411895315173 L 375.6557541930881 265.3411895315173 C 391.4493704076993 265.3411895315173 403.8581484798816 255.1883103748961 408.3708069797755 239.39495236091625 C 414.01128583713415 223.6016804138136 410.6271362297223 206.68024384173734 401.60250776495155 197.65544324321263 C 404.9866573723635 189.75880726966116 404.9866573723635 180.73400667113643 402.73032812241655 171.70920607261155 C 417.395435444546 181.86208522923275 433.18905165915726 188.63064264468773 451.2383085886983 192.0149643858538 C 447.8541589812867 208.93640095793006 443.3415004813928 223.6016804138136 437.70102162403407 238.26687380281996 L 437.70102162403407 238.26687380281996 Z M 390.32155005023424 148.01921208508034 C 389.19304115775253 146.89113352698408 389.19304115775253 145.7630549688877 388.0652208002876 144.6349764107914 L 388.0652208002876 144.6349764107914 C 386.9367119078056 143.50681178581794 385.80889155034043 141.25065466962528 384.6810711928754 138.99449755343264 L 383.5525623003935 135.6101758122666 L 380.16841269298175 136.73825437036288 C 373.40011347815823 137.86633292845923 365.5033053708524 138.99449755343264 358.73431762101194 138.99449755343264 C 353.093838763653 124.32921809754913 349.7096891562413 104.02345978430684 355.3501680136001 98.38298092694805 L 348.5818687987762 90.48634495339672 C 337.3009110840589 100.6392241100179 342.9413899414175 125.4572966556454 347.45335990629434 138.99449755343264 C 304.58585829737143 135.6101758122666 262.8461770459135 108.53586008356928 247.05324936631916 69.05250808205818 C 240.2842616164785 52.13107150998198 240.2842616164785 38.59395667907185 247.05324936631916 29.569156080547042 C 257.2056981885548 16.032041249636936 280.8961225104714 9.263483834181876 314.73899565462386 10.391562392278201 C 338.4287314415239 11.519640950374528 349.7096891562413 18.288198365829583 354.2223476561352 23.928677223188323 C 356.47867690608194 27.312998964354403 358.73431762101194 31.825399263616806 357.6064972635469 35.209634937905776 L 367.7596346207992 36.33771349600209 C 368.8874549782642 29.569156080547042 366.63112572831744 21.67252010699568 362.1191557634406 17.160119807733253 L 362.1191557634406 17.160119807733253 C 382.4247419429285 17.160119807733253 401.60250776495155 19.416276923925913 404.9866573723635 25.05675578128466 C 419.65176469449284 45.362514094526915 458.0072963385389 108.53586008356928 451.2383085886983 182.9901637873291 C 424.16442319438653 177.34968492997038 403.8581484798816 164.9406486571565 390.32155005023424 148.01921208508034 L 390.32155005023424 148.01921208508034 Z" stroke="none" stroke-linejoin="miter" stroke-linecap="butt" fill="#F2C2CF" fill-rule="nonzero"/></g></svg></svg>