<svg id="draw.id" overflow="visible" v:ver="3" x="500.5" xmlns="http://www.w3.org/2000/svg" xmlns:v="http://vecta.io" xmlns:xlink="http://www.w3.org/1999/xlink" y="500.5" v:layers="{&quot;default&quot;:{&quot;name&quot;:&quot;Default&quot;,&quot;print&quot;:1,&quot;display&quot;:1,&quot;publish&quot;:1}}" v:stencils="{&quot;0&quot;:{&quot;id&quot;:&quot;stencil_25&quot;,&quot;expand&quot;:1,&quot;show_name&quot;:1},&quot;1&quot;:{&quot;id&quot;:&quot;stencil_65&quot;,&quot;expand&quot;:1,&quot;show_name&quot;:1}}"><style xmlns="http://www.w3.org/1999/xhtml"><![CDATA[#draw\.id{stroke:#000;stroke-linecap:round;stroke-linejoin:round;fill:#fff;fill-rule:evenodd;font-family:Roboto;font-size:14px;text-anchor:middle}#draw\.id text{paint-order:stroke;white-space:pre}#draw\.id .Text\.cls{stroke:none}]]></style><defs><style type="text/css">@import url('https://fonts.googleapis.com/css?family=Roboto+Condensed:400,400i,700,700i');@import url('https://fonts.googleapis.com/css?family=Roboto:400,400i,700,700i');@import url('https://fonts.googleapis.com/css?family=Cousine:400,400i,700,700i');@import url('https://fonts.googleapis.com/css?family=Anonymous+Pro:400,400i,700,700i');@import url('https://fonts.googleapis.com/css?family=Lato:400,400i,700,700i');@import url('https://fonts.googleapis.com/css?family=Open+Sans:400,400i,700,700i');</style></defs><title xmlns="http://www.w3.org/1999/xhtml">Untitled drawing</title><desc xmlns="http://www.w3.org/1999/xhtml"></desc><svg height="500" id="kwpfkecs3d" overflow="visible" v:setup="{&quot;paper&quot;:&quot;CUSTOM&quot;,&quot;unit&quot;:&quot;px&quot;,&quot;scale&quot;:{&quot;from&quot;:&quot;1&quot;,&quot;to&quot;:&quot;1&quot;},&quot;width&quot;:&quot;500px&quot;,&quot;height&quot;:&quot;500px&quot;,&quot;margin&quot;:{&quot;top&quot;:&quot;0&quot;,&quot;bottom&quot;:&quot;0&quot;,&quot;left&quot;:&quot;0&quot;,&quot;right&quot;:&quot;0&quot;}}" viewBox="0 0 500 500" width="500"><g id="kwphpkllajj" class="Group.cls" transform="translate(4.999954386792739 0)" v:abox="{&quot;x&quot;:4.999954386792739,&quot;y&quot;:0,&quot;width&quot;:495.00004561320725,&quot;height&quot;:492.7417898468163}" fill="#F2C2CF"><g class="Prim.cls"><g id="kwphpkkzajd" transform="translate(344.91925289277145 90.33599480524968)" class=""><path d="M 24.637089492340834 49.27417898468167 C 37.77667005777503 49.27417898468167 49.27417898468167 37.77667005777503 49.27417898468167 24.637089492340834 C 49.27417898468167 11.49750892690661 37.77667005777503 0 24.637089492340834 0 C 11.49750892690661 0 0 11.49750892690661 0 24.637089492340834 C 0 37.77667005777503 11.49750892690661 49.27417898468167 24.637089492340834 49.27417898468167 Z M 24.637089492340834 32.84945265645443 C 19.709872091020216 32.84945265645443 16.424726328227216 29.564306893661424 16.424726328227216 24.637089492340834 C 16.424726328227216 19.709872091020216 19.709872091020216 16.424726328227216 24.637089492340834 16.424726328227216 C 29.564306893661424 16.424726328227216 32.84945265645443 19.709872091020216 32.84945265645443 24.637089492340834 C 32.84945265645443 29.564306893661424 29.564306893661424 32.84945265645443 24.637089492340834 32.84945265645443 Z" stroke="none" stroke-linejoin="miter" stroke-linecap="butt" fill="#F2C2CF" fill-rule="nonzero" fill-opacity="1"/></g><g id="kwphpkl0aje" transform="translate(0 0)" class=""><path d="M 73.91126847702246 49.27417898468167 L 0 49.27417898468167 L 0 57.48654214879527 C 0 80.48105875973957 9.854434802641206 100.19093085075978 27.922235255133824 114.97308429759055 L 0 114.97308429759055 L 0 123.18544746170407 C 0 146.17996407264846 9.854434802641206 165.88983616366866 27.922235255133824 180.67198961049937 L 0 180.67198961049937 L 0 188.88435277461286 C 0 226.6610228323879 27.922235255133824 257.8684038503149 65.69890531290888 262.7956212516355 C 70.62612271422947 328.49452656454423 131.39781062581775 404.04836792296356 213.52144226695378 422.1156671325869 L 213.52144226695378 443.4676108621349 L 197.09671593872665 443.4676108621349 L 197.09671593872665 459.8923371903622 L 213.52144226695378 459.8923371903622 L 213.52144226695378 476.3170635185893 L 180.67198961049937 476.3170635185893 L 180.67198961049937 492.7417898468163 L 312.069800236317 492.7417898468163 L 312.069800236317 476.3170635185893 L 279.2203475798627 476.3170635185893 L 279.2203475798627 425.40031165251105 C 369.55634238511215 410.61815820568046 435.255247698021 333.421743965865 435.255247698021 243.08574916061522 L 435.255247698021 233.2313143579741 C 441.8255392236072 236.5159588778981 448.3948282634554 239.8011046406912 454.96511978904124 239.8011046406912 C 474.6749918800615 239.8011046406912 491.09971820828895 223.3763783124639 492.74178984681623 203.66650622144368 L 492.74178984681623 197.09671593872667 C 492.74178984681623 183.9571353732925 486.1714983212304 172.45962644638573 474.6749918800615 165.88983616366866 L 446.7527566249278 149.46510983544147 L 489.45664408402325 131.39781062581775 C 491.09971820828895 129.7552377444212 492.74178984681623 129.7552377444212 494.383861485344 126.47059322449707 C 496.02693560960955 121.54287458030761 494.383861485344 118.25823006038347 489.45664408402325 114.97308429759055 L 431.97010193522806 90.33599480524968 L 431.97010193522806 90.33599480524968 C 425.40081289538006 73.91126847702246 412.26022984420786 60.771687911588295 395.83550351598086 54.20139638600222 C 392.5513602389256 24.637089492340834 367.9142707465849 0 336.70688972865787 0 L 295.64507390808984 0 C 290.71785650676935 0 287.43271074397614 3.2851457627930056 287.43271074397614 8.21236316411361 C 287.43271074397614 32.84945265645444 303.8574370722034 54.20139638600222 326.8524549260165 62.41375955011586 C 316.9970176376376 68.98405107570191 308.7846544735241 78.83848587834309 303.8574370722034 90.33599480524968 L 246.37089492340812 210.23629650416086 L 210.23629650416083 134.68295638861073 C 185.59920701181986 82.12363164113606 131.39781062581775 49.27417898468167 73.91126847702246 49.27417898468167 Z M 376.1266339106983 49.27417898468167 L 344.9192528927714 49.27417898468167 C 325.20938080175125 49.27417898468167 308.7846544735241 36.134598419247425 305.499508710731 16.42472632822722 L 336.70688972865787 16.42472632822722 C 356.41676181967796 16.42472632822722 372.84148814790535 29.564306893661428 376.1266339106983 49.27417898468167 Z M 463.1774829531548 123.18544746170407 L 435.255247698021 136.3250280271383 L 435.255247698021 111.68793853479748 L 463.1774829531548 123.18544746170407 Z M 435.255247698021 200.38186170151957 L 435.255247698021 162.60469040087563 L 466.46262871594803 180.67198961049937 C 473.03191775579614 183.9571353732925 476.3170635185892 190.52692565600944 476.3170635185892 198.73928882012305 L 476.3170635185892 202.02393334004708 C 476.3170635185892 213.52144226695378 466.46262871594803 221.73380543106745 456.607191427569 221.73380543106745 C 446.7527566249278 221.73380543106745 435.255247698021 211.87886938555724 435.255247698021 200.38186170151957 Z M 229.94616859518104 425.40031165251105 C 236.5164601207669 427.04288453390757 243.0857491606152 427.04288453390757 249.6560406862012 427.04288453390757 C 252.94118644899407 427.04288453390757 257.8684038503149 427.04288453390757 261.15354961310777 427.04288453390757 L 261.15354961310777 443.4676108621349 L 244.7288232848805 443.4676108621349 L 244.7288232848805 459.8923371903622 L 261.15354961310777 459.8923371903622 L 261.15354961310777 476.3170635185893 L 228.30409695665344 476.3170635185893 L 228.30409695665344 425.40031165251105 Z M 16.42472632822722 65.69890531290888 L 73.91126847702246 65.69890531290888 C 126.47059322449704 65.69890531290888 172.4596264463857 95.26321220657029 195.454644300199 142.8953195527243 L 246.37089492340812 249.65604068620127 L 318.64009176190325 98.54835796936334 C 326.8524549260165 80.48105875973957 343.2771812542439 68.98405107570191 362.9860508595263 67.34147819430537 L 366.2711966223193 67.34147819430537 C 395.83550351598086 67.34147819430537 418.83052136979404 90.33599480524968 418.83052136979404 119.90030169891115 L 418.83052136979404 244.72832204201165 C 418.83052136979404 338.34946261005445 343.2771812542439 412.26073108707675 251.29811232472872 412.26073108707675 C 174.10169808491335 410.61815820568046 82.12363164113606 338.34946261005445 82.12363164113606 254.58325808752178 L 82.12363164113606 246.37089492340814 L 73.91126847702246 246.37089492340814 C 45.98903322188862 246.37089492340814 21.351943729547813 225.01895119386046 16.42472632822722 197.09671593872667 L 73.91126847702246 197.09671593872667 L 73.91126847702246 180.67198961049937 C 45.98903322188862 180.67198961049937 21.351943729547813 159.32004588095162 16.42472632822722 131.39781062581775 L 73.91126847702246 131.39781062581775 L 73.91126847702246 114.97308429759055 C 45.98903322188862 114.97308429759055 21.351943729547813 93.62114056804266 16.42472632822722 65.69890531290888 Z" stroke="none" stroke-linejoin="miter" stroke-linecap="butt" fill="#F2C2CF" fill-rule="nonzero" fill-opacity="1"/></g><g id="kwphpkl4ajf" transform="translate(105.11864949494931 246.37089492340814)" class=""><path d="M 116.61515593611803 16.42472632822722 L 19.708869605282413 16.42472632822722 C 27.921232769396024 41.06181582056803 50.916250623209244 57.486542148795266 75.55334011555006 57.486542148795266 L 100.19042960789086 57.486542148795266 L 100.19042960789086 73.91126847702247 L 52.55832226173684 73.91126847702247 C 60.77068542585043 98.54835796936334 83.76570327966365 114.97308429759053 108.40279277200443 114.97308429759053 L 141.25224542845896 114.97308429759053 C 200.38085921578173 114.97308429759053 248.01296656193583 67.34147819430532 248.01296656193583 8.21236316411361 L 248.01296656193583 0 L 264.4376928901631 0 L 264.4376928901631 8.21236316411361 C 264.4376928901631 75.55384135841896 208.59322237989537 131.39781062581775 141.25224542845896 131.39781062581775 L 108.40279277200443 131.39781062581775 C 70.62612271422948 131.39781062581775 39.41874169630261 103.4755753706839 34.49152429498203 67.34147819430532 L 32.84945265645443 60.771687911588266 C 14.781652203961803 49.27417898468167 3.2841432770551977 29.564306893661424 1.6420716385275989 9.854936045510108 L 0 0 L 116.61515593611803 0 L 116.61515593611803 16.42472632822722 Z" stroke="none" stroke-linejoin="miter" stroke-linecap="butt" fill="#F2C2CF" fill-rule="nonzero" fill-opacity="1"/></g></g></g></svg></svg>