<svg id="draw.id" overflow="visible" v:ver="3" x="500.5" xmlns="http://www.w3.org/2000/svg" xmlns:v="http://vecta.io" xmlns:xlink="http://www.w3.org/1999/xlink" y="500.5" v:layers="{&quot;default&quot;:{&quot;name&quot;:&quot;Default&quot;,&quot;print&quot;:1,&quot;display&quot;:1,&quot;publish&quot;:1}}" v:stencils="{&quot;0&quot;:{&quot;id&quot;:&quot;stencil_25&quot;,&quot;expand&quot;:1,&quot;show_name&quot;:1},&quot;1&quot;:{&quot;id&quot;:&quot;stencil_65&quot;,&quot;expand&quot;:1,&quot;show_name&quot;:1}}"><style xmlns="http://www.w3.org/1999/xhtml"><![CDATA[#draw\.id{stroke:#000;stroke-linecap:round;stroke-linejoin:round;fill:#fff;fill-rule:evenodd;font-family:Roboto;font-size:14px;text-anchor:middle}#draw\.id text{paint-order:stroke;white-space:pre}#draw\.id .Text\.cls{stroke:none}]]></style><defs><style type="text/css">@import url('https://fonts.googleapis.com/css?family=Roboto+Condensed:400,400i,700,700i');@import url('https://fonts.googleapis.com/css?family=Roboto:400,400i,700,700i');@import url('https://fonts.googleapis.com/css?family=Cousine:400,400i,700,700i');@import url('https://fonts.googleapis.com/css?family=Anonymous+Pro:400,400i,700,700i');@import url('https://fonts.googleapis.com/css?family=Lato:400,400i,700,700i');@import url('https://fonts.googleapis.com/css?family=Open+Sans:400,400i,700,700i');</style></defs><title xmlns="http://www.w3.org/1999/xhtml">Untitled drawing</title><desc xmlns="http://www.w3.org/1999/xhtml"></desc><svg height="500" id="kwpfkecs3d" overflow="visible" v:setup="{&quot;paper&quot;:&quot;CUSTOM&quot;,&quot;unit&quot;:&quot;px&quot;,&quot;scale&quot;:{&quot;from&quot;:&quot;1&quot;,&quot;to&quot;:&quot;1&quot;},&quot;width&quot;:&quot;500px&quot;,&quot;height&quot;:&quot;500px&quot;,&quot;margin&quot;:{&quot;top&quot;:&quot;0&quot;,&quot;bottom&quot;:&quot;0&quot;,&quot;left&quot;:&quot;0&quot;,&quot;right&quot;:&quot;0&quot;}}" viewBox="0 0 500 500" width="500"><g id="kwphnq27922" transform="translate(82.54382738199695 1.482519975957318)" class=""><path d="M 281.8885016464249 84.14039330155553 C 281.8885016464249 82.5226981588215 280.26981889981863 82.5226981588215 280.26981889981863 80.90450921415125 C 273.7980507250098 74.43224723740636 264.08891705698824 67.95949145872534 254.38077099283908 61.48722948198047 L 264.08891705698824 12.944523953489753 C 264.08891705698824 11.326335008819505 264.08891705698824 11.326335008819505 264.08891705698824 9.708639866085367 C 262.47122191425416 6.472261976744877 259.2348440249136 6.472261976744877 257.6171488821796 6.472261976744877 L 231.72711337132785 17.799090787500493 L 230.1094182285937 4.854073032074624 C 230.1094182285937 4.854073032074624 230.1094182285937 3.2358840874043757 230.1094182285937 3.2358840874043757 C 228.4917230858595 0 226.87304033925327 0 223.63666244991285 0 C 207.4557606070825 8.090450921415123 196.12991940019904 21.034974874904865 191.27485876425217 37.21587671773511 C 176.71263966802843 43.68813869448 154.0589820465171 63.10541842665073 152.44128690378307 108.41174606580104 C 149.20490901444242 124.59264790863119 129.7876292822718 135.9194767193868 105.51627651802637 150.48218961754682 C 68.30039980029126 171.51765829438784 21.37538941453468 199.0248951460376 3.5767924289703164 254.0398626512731 C -10.986414271125795 299.34668409235957 22.994072161141055 354.36165159759514 32.70221822529031 367.30617555108495 C 26.23045005048155 378.6330043618407 8.430865461044935 414.23118593684154 22.994072161141055 446.5929896225024 C 34.32090097189668 470.8643423867473 61.827644021610304 485.42705528490745 105.51627651802637 491.89931726165224 C 115.22541018604791 493.51750620632254 126.55125139293123 493.51750620632254 136.26038506095279 493.51750620632254 C 181.56671270010307 493.51750620632254 205.83806546434846 478.9547933081621 213.92851638576343 462.7738914653323 C 218.78258941783818 454.68344054391696 217.16489427510413 443.35661173316157 210.6921384964229 435.2661608117464 C 200.98399243227368 425.557520945661 183.18440784283715 423.9393320009908 163.76811571453845 432.0297829224058 C 128.1699341395377 448.2106847652362 97.4258255966113 449.8288737099065 79.62722861104696 436.88434975641695 C 69.91809494302538 428.79389883500164 63.44632676821664 417.4670700242458 65.06402191095074 401.2861681814158 L 234.9634912606684 401.2861681814158 C 236.5821740072746 401.2861681814158 238.19986915000877 401.2861681814158 238.19986915000877 399.66797923674557 C 239.81756429274276 398.0502840940113 252.7630758501048 383.48707739391534 247.908015214158 370.5425534404255 C 244.67262492868966 360.8339135743399 233.34579611793407 355.9798405422658 215.54621152849776 354.36165159759514 C 205.83806546434846 333.3266767226901 200.98399243227368 288.01985528160384 233.34579611793407 241.09533869778338 C 262.47122191425416 197.40670620136737 251.1443931034984 142.39173869613165 246.29032007142402 126.21083685330146 C 259.2348440249136 121.35676382122686 286.74257467849975 106.79405092306689 281.8885016464249 84.14039330155553 Z M 246.29032007142402 55.014967505235624 C 239.81756429274276 51.778589615895115 234.9634912606684 46.9245165838205 233.34579611793407 45.306327639150226 L 231.72711337132785 29.125425796319977 L 252.7630758501048 21.034974874904865 L 246.29032007142402 55.014967505235624 Z M 225.25534519651913 53.39677856056538 C 225.25534519651913 53.39677856056538 255.99846613557307 74.43224723740636 272.17936797840366 87.3767711908961 C 273.7980507250098 105.17586197839655 239.81756429274276 119.7385748765566 239.81756429274276 119.7385748765566 C 236.5821740072746 121.35676382122686 236.5821740072746 122.97495276589704 236.5821740072746 126.21083685330146 C 236.5821740072746 126.21083685330146 255.99846613557307 190.93444422462258 225.25534519651913 236.24126566570865 C 194.51123665359282 283.1657822495295 194.51123665359282 333.3266767226901 209.0744433536888 362.45210251901017 C 209.0744433536888 364.0702914636805 210.6921384964229 365.6884804083507 213.92851638576343 365.6884804083507 C 230.1094182285937 367.30617555108495 239.81756429274276 370.5425534404255 241.4362470393492 375.39662647250015 C 243.05394218208346 380.25119330651097 238.19986915000877 388.34164422792594 234.9634912606684 391.5775283153302 L 197.74761454293332 391.5775283153302 C 197.74761454293332 391.5775283153302 197.74761454293332 391.5775283153302 197.74761454293332 389.9598331725961 C 184.80309058944349 373.77893132976584 179.9490175573689 304.2007571244342 179.9490175573689 279.9294043601888 C 179.9490175573689 276.6935202727843 178.3303348107625 275.07533132811415 175.093956921422 275.07533132811415 L 175.093956921422 275.07533132811415 C 171.8585666359538 275.07533132811415 170.23988388934734 276.6935202727843 170.23988388934734 279.9294043601888 C 170.23988388934734 307.4371350137747 173.47626177868784 334.9443718654245 178.3303348107625 362.45210251901017 C 171.8585666359538 360.8339135743399 167.0035060000068 360.8339135743399 162.14943296793214 360.8339135743399 C 137.87808020368695 360.8339135743399 131.40631202887815 367.30617555108495 129.7876292822718 368.9243644957553 L 129.7876292822718 368.9243644957553 C 128.1699341395377 370.5425534404255 128.1699341395377 373.77893132976584 129.7876292822718 375.39662647250015 C 131.40631202887815 377.0148154171703 134.64170231434633 377.0148154171703 136.26038506095279 375.39662647250015 L 136.26038506095279 375.39662647250015 C 136.26038506095279 375.39662647250015 142.73215323576147 370.5425534404255 160.53173782519804 370.5425534404255 C 168.62218874661318 370.5425534404255 173.47626177868784 372.16074238509566 176.71263966802843 377.0148154171703 C 178.3303348107625 381.8693822511813 178.3303348107625 388.34164422792594 176.71263966802843 393.1957172600005 L 61.827644021610304 393.1957172600005 C 58.5922537361421 393.1957172600005 56.973570989535745 394.81390620467096 56.973570989535745 398.0502840940113 C 55.35587584680159 419.085258968916 61.827644021610304 436.88434975641695 76.3908507217064 446.5929896225024 C 97.4258255966113 461.155702520662 131.40631202887815 459.5375135759919 170.23988388934734 443.35661173316157 C 176.71263966802843 440.12023384382127 183.18440784283715 438.502538701087 191.27485876425217 438.502538701087 C 196.12991940019904 438.502538701087 202.601687575008 440.12023384382127 205.83806546434846 443.35661173316157 C 209.0744433536888 448.2106847652362 210.6921384964229 453.06525159924684 207.4557606070825 457.9193246313216 C 199.36530968566743 472.4820375294813 170.23988388934734 488.6629393723118 110.37034955010098 480.5724884508966 C 69.91809494302538 475.7184154188217 45.64674217878007 462.7738914653323 34.32090097189668 441.73842278849116 C 19.757694271800553 409.3766191028309 44.02904703604595 370.5425534404255 44.02904703604595 370.5425534404255 C 45.64674217878007 368.9243644957553 45.64674217878007 367.30617555108495 44.02904703604595 364.0702914636805 C 44.02904703604595 364.0702914636805 0.3404145396298184 304.2007571244342 14.903621239725954 257.27624054061386 C 31.084523082556192 205.49715712278248 74.77315557897231 179.608109215803 111.98903229670732 160.19082948363203 C 139.49676295029326 144.00992764080192 162.14943296793214 131.06540368731225 162.14943296793214 111.64812395514147 C 162.14943296793214 67.95949145872534 183.18440784283715 53.39677856056538 196.12991940019904 48.54270552849074 C 197.74761454293332 48.54270552849074 199.36530968566743 46.9245165838205 199.36530968566743 45.306327639150226 C 202.601687575008 33.97999263033075 210.6921384964229 22.653163819575113 220.40127216444446 16.180901842830245 L 223.63666244991285 50.160894473161015 C 222.01896730717866 50.160894473161015 223.63666244991285 51.778589615895115 225.25534519651913 53.39677856056538 L 225.25534519651913 53.39677856056538 Z" stroke="none" stroke-linejoin="miter" stroke-linecap="butt" fill="#F2C2CF" fill-rule="nonzero"/></g></svg></svg>