<svg id="draw.id" overflow="visible" v:ver="3" x="500.5" xmlns="http://www.w3.org/2000/svg" xmlns:v="http://vecta.io" xmlns:xlink="http://www.w3.org/1999/xlink" y="500.5" v:layers="{&quot;default&quot;:{&quot;name&quot;:&quot;Default&quot;,&quot;print&quot;:1,&quot;display&quot;:1,&quot;publish&quot;:1}}" v:stencils="{&quot;0&quot;:{&quot;id&quot;:&quot;stencil_25&quot;,&quot;expand&quot;:1,&quot;show_name&quot;:1},&quot;1&quot;:{&quot;id&quot;:&quot;stencil_65&quot;,&quot;expand&quot;:1,&quot;show_name&quot;:1}}"><style xmlns="http://www.w3.org/1999/xhtml"><![CDATA[#draw\.id{stroke:#000;stroke-linecap:round;stroke-linejoin:round;fill:#fff;fill-rule:evenodd;font-family:Roboto;font-size:14px;text-anchor:middle}#draw\.id text{paint-order:stroke;white-space:pre}#draw\.id .Text\.cls{stroke:none}]]></style><defs><style type="text/css">@import url('https://fonts.googleapis.com/css?family=Roboto+Condensed:400,400i,700,700i');@import url('https://fonts.googleapis.com/css?family=Roboto:400,400i,700,700i');@import url('https://fonts.googleapis.com/css?family=Cousine:400,400i,700,700i');@import url('https://fonts.googleapis.com/css?family=Anonymous+Pro:400,400i,700,700i');@import url('https://fonts.googleapis.com/css?family=Lato:400,400i,700,700i');@import url('https://fonts.googleapis.com/css?family=Open+Sans:400,400i,700,700i');</style></defs><title xmlns="http://www.w3.org/1999/xhtml">Untitled drawing</title><desc xmlns="http://www.w3.org/1999/xhtml"></desc><svg height="500" id="kwpfkecs3d" overflow="visible" v:setup="{&quot;paper&quot;:&quot;CUSTOM&quot;,&quot;unit&quot;:&quot;px&quot;,&quot;scale&quot;:{&quot;from&quot;:&quot;1&quot;,&quot;to&quot;:&quot;1&quot;},&quot;width&quot;:&quot;500px&quot;,&quot;height&quot;:&quot;500px&quot;,&quot;margin&quot;:{&quot;top&quot;:&quot;0&quot;,&quot;bottom&quot;:&quot;0&quot;,&quot;left&quot;:&quot;0&quot;,&quot;right&quot;:&quot;0&quot;}}" viewBox="0 0 500 500" width="500"><g id="kwphmo698un" transform="translate(-0.0000420163291892095 141.23021564727048)" class=""><path d="M 94.83649599019175 56.46714820036042 C 124.77490994449415 38.91722272017155 179.48935570199396 29.62597450771512 200.1363639196683 44.07897477459014 L 214.5888916140285 53.37006546287499 L 208.39504118740086 37.884809299619185 C 201.16846229187755 22.399553136363394 153.680595429901 -7.538545769595764 91.73957077687787 1.7525449186890631 C 58.70423160926164 6.914296973107653 29.798546123854806 22.399553136363394 13.280561491703514 44.07897477459014 C 2.9570573828663362 57.49940409674116 -2.204694671552257 75.04948710110165 0.8928606384479636 92.59941258129052 C 7.086711065075749 131.82875969970613 45.28380228711059 168.99327997701704 96.9013228312965 168.99327997701704 C 99.99824804461038 168.99327997701704 103.09517325792432 168.99327997701704 107.22482694013371 168.99327997701704 C 108.25692531234276 171.0579492939502 110.32175215344753 173.12277613505498 112.38657899455215 175.18744545198803 C 118.58042942118006 181.3814534027875 125.80700831670332 187.57561887775836 133.03358721222665 192.73737093217704 L 134.06568558443584 193.76978435272952 L 208.39504118740086 190.6727016152438 L 178.45662723309843 173.12277613505498 L 252.78598283606345 173.12277613505498 C 253.81871130495898 174.1550320314356 253.81871130495898 175.18744545198803 254.85080967716806 175.18744545198803 C 261.0446601037958 181.3814534027875 268.2712389993193 187.57561887775836 275.4978178948424 192.73737093217704 L 276.5299162670516 193.76978435272952 L 350.85927187001687 190.6727016152438 L 320.92148801240074 173.12277613505498 C 346.73024828449365 173.12277613505498 393.18601677426085 173.12277613505498 429.31828115519073 173.12277613505498 C 457.1912381717026 173.12277613505498 478.8709748582721 173.12277613505498 482.99999844379533 172.09036271450253 C 487.1296521260046 172.09036271450253 491.2593058082146 168.99327997701704 493.32350255263276 165.8961972395316 C 494.3562310215282 161.76685860566545 494.3562310215282 157.6375199717991 493.32350255263276 154.54043723431366 C 497.4531562348422 150.41094107627578 499.5179830759468 145.24918902185715 500.550081448156 140.08743696743863 C 501.58280991705175 135.95809833357245 501.58280991705175 130.79634627915388 498.48525460705144 126.66700764528753 C 494.3562310215282 122.53751148724979 488.16175049821396 123.56992490780209 479.9030732304816 124.6021808041829 C 472.67649433495825 125.6345942247353 465.4505455361213 126.66700764528753 457.1912381717026 126.66700764528753 C 444.8035373184467 125.6345942247353 432.41520636850476 113.24642079896495 422.0917022596676 101.89050326957543 C 411.76819815083053 91.56699916073826 403.50952088309816 82.27590847245338 394.2181151464701 81.24349505190098 C 386.9915362509468 80.21123915552022 379.7649573554235 82.27590847245338 374.6032053010049 85.37299120993886 C 362.21550444774937 80.21123915552022 314.72700748908653 59.56423093784593 277.56264473594723 62.66115615115976 C 238.33345514170327 66.7906523091976 117.54833104897081 74.01707368054934 107.22482694013371 74.01707368054934 C 97.93342120350569 71.95240436361618 88.64264556356396 66.7906523091976 87.60991709466846 63.69356957171215 C 86.57781872245927 63.69356957171215 87.60991709466846 60.59648683422667 94.83649599019175 56.46714820036042 Z M 33.92756970937787 133.89342901663926 C 41.15414860490119 136.9905117541247 49.41282587263364 139.0551810710579 57.67213323705252 140.08743696743863 C 71.09256255920356 141.119850387991 82.44816504024995 141.119850387991 91.73957077687787 141.119850387991 C 98.96614967240119 141.119850387991 106.19209847123815 141.119850387991 111.3538505256567 141.119850387991 L 108.25692531234276 145.24918902185715 C 105.16000009902896 149.3786851798951 103.09517325792432 154.54043723431366 104.12790172681977 159.70218928873226 C 77.28641298583132 160.73444518511292 52.510381182633886 151.4433544968282 33.92756970937787 133.89342901663926 Z M 160.90717432542436 161.76685860566545 C 160.90717432542436 161.76685860566545 160.90717432542436 161.76685860566545 160.90717432542436 161.76685860566545 C 160.90717432542436 159.70218928873226 161.93927269763356 158.66977586817978 164.00409953873825 157.6375199717991 C 171.23067843426153 153.50802381376127 177.42452886088932 147.3140158629619 182.58628091530784 140.08743696743863 L 254.85080967716806 138.0227676505056 L 250.72115599495865 143.18451970492418 C 246.59213240943575 148.34627175934259 245.55940394054016 154.54043723431366 246.59213240943575 161.76685860566545 L 160.90717432542436 161.76685860566545 Z M 484.03272691269075 160.73444518511292 C 484.03272691269075 160.73444518511292 482.99999844379533 161.76685860566545 481.9679000715862 161.76685860566545 C 472.67649433495825 162.79927202621772 352.92409871112153 161.76685860566545 304.4035033802493 161.76685860566545 C 304.4035033802493 161.76685860566545 304.4035033802493 160.73444518511292 304.4035033802493 160.73444518511292 C 304.4035033802493 159.70218928873226 305.4362318491449 158.66977586817978 307.50042859356324 157.6375199717991 C 316.79183433019114 152.47576791738052 322.985684756819 145.24918902185715 328.1474368112374 135.95809833357245 C 340.5357677611795 139.0551810710579 368.40935487437713 146.28160244240962 385.9594378787378 141.119850387991 C 402.47679241420263 135.95809833357245 416.92995020524916 155.57269313069435 416.92995020524916 155.57269313069435 L 417.9620485774583 157.6375199717991 L 478.8709748582721 157.6375199717991 C 480.93580169937684 157.6375199717991 481.9679000715862 157.6375199717991 484.03272691269075 157.6375199717991 C 484.03272691269075 158.66977586817978 484.03272691269075 159.70218928873226 484.03272691269075 160.73444518511292 Z M 76.25431461362213 65.75823888864525 C 78.31914145472686 78.14641231441556 99.99824804461038 83.30816436883417 104.12790172681977 84.34057778938644 L 105.16000009902896 84.34057778938644 L 106.19209847123815 84.34057778938644 C 107.22482694013371 85.37299120993886 236.26862830059844 77.11415641803478 277.56264473594723 72.98466025999691 C 308.5331570624587 69.8877350466831 349.8271734978077 86.40524710631962 365.31242966106333 92.59941258129052 C 364.2797011921678 93.63166847767134 364.2797011921678 93.63166847767134 364.2797011921678 94.66408189822367 L 372.5390085565865 99.82583395264227 C 376.66803214210967 93.63166847767134 384.92670940984215 90.53474326435743 392.1532883053655 90.53474326435743 C 397.3150403597841 91.56699916073826 405.57371762751654 99.82583395264227 413.8330249919355 108.08466874454639 C 426.220725845191 120.47284217031668 439.64178526402804 134.92568491302012 456.15913979949346 135.95809833357245 C 464.4178170672258 135.95809833357245 472.67649433495825 135.95809833357245 480.93580169937684 133.89342901663926 C 484.03272691269075 132.86101559608696 487.1296521260046 132.86101559608696 490.2265773393189 132.86101559608696 C 490.2265773393189 133.89342901663926 490.2265773393189 134.92568491302012 490.2265773393189 135.95809833357245 C 490.2265773393189 140.08743696743863 488.16175049821396 143.18451970492418 485.06482528490005 146.28160244240962 C 484.03272691269075 147.3140158629619 481.9679000715862 147.3140158629619 480.93580169937684 147.3140158629619 L 479.9030732304816 147.3140158629619 L 422.0917022596676 147.3140158629619 C 416.92995020524916 143.18451970492418 401.44469404199344 126.66700764528753 381.82978419652835 132.86101559608696 C 367.377256502168 136.9905117541247 339.5036693889703 129.76393285860158 329.18016528013317 127.69926354166834 C 329.18016528013317 121.50525559086896 327.11533843902833 115.3110901158981 322.985684756819 110.14933806147948 L 314.72700748908653 115.3110901158981 C 317.8239327024003 119.4404287497644 319.88875954350516 125.6345942247353 317.8239327024003 130.79634627915388 C 315.75973595798195 140.08743696743863 305.4362318491449 147.3140158629619 301.3065781669356 149.3786851798951 C 297.176924484726 151.4433544968282 294.07999927141225 155.57269313069435 293.0479008992029 159.70218928873226 C 293.0479008992029 163.8315279225984 294.07999927141225 167.96102408063632 296.1448261125169 171.0579492939502 L 313.69490911687734 182.41386682333973 L 277.56264473594723 184.47853614027292 C 271.368164212633 180.34919750640665 265.17431378600526 175.18744545198803 260.01256173158663 168.99327997701704 C 250.72115599495865 160.73444518511292 255.88290804937742 153.50802381376127 256.9156365182728 152.47576791738052 L 283.75649516257494 120.47284217031668 L 276.5299162670516 112.21400737841263 L 263.10948694490054 127.69926354166834 L 185.68320612862175 129.76393285860158 C 186.71593459751728 122.53751148724979 184.65110775641259 115.3110901158981 180.52145407420315 109.11692464092714 L 172.26277680647073 114.2786766953457 C 175.35970201978458 118.40817285338355 177.42452886088932 124.6021808041829 175.35970201978458 129.76393285860158 C 173.29487517867986 139.0551810710579 162.9713710698427 146.28160244240962 158.8423474843196 148.34627175934259 C 154.71269380211015 150.41094107627578 151.61576858879636 154.54043723431366 150.5836702165872 158.66977586817978 C 150.5836702165872 162.79927202621772 151.61576858879636 166.92861066008396 153.680595429901 170.02569339756957 L 171.23067843426153 181.3814534027875 L 135.09841405333137 183.44628024389215 C 128.9039335300173 179.3167840858543 122.71008310338944 174.1550320314356 117.54833104897081 167.96102408063632 C 108.25692531234276 159.70218928873226 113.41867736676141 152.47576791738052 114.45140583565694 151.4433544968282 L 141.29226447995913 119.4404287497644 L 134.06568558443584 112.21400737841263 L 119.61315789007558 129.76393285860158 C 98.96614967240119 130.79634627915388 79.35123982693605 130.79634627915388 58.70423160926164 129.76393285860158 C 40.12205023269201 128.73167696222063 22.571967228331506 119.4404287497644 13.280561491703514 102.92291669012776 C 12.248463119494335 98.79342053208997 11.216364747285148 94.66408189822367 10.183636278389626 90.53474326435743 C 9.15153790618045 76.0817429974824 12.248463119494335 61.62890025477902 21.53986885612232 50.272982725389525 C 35.99239655048258 29.62597450771512 61.80115682257556 16.20538766139248 92.77166914908706 11.043635606973893 C 122.71008310338944 6.914296973107653 153.680595429901 12.076049027526237 180.52145407420315 26.528891770229656 C 152.64786696100555 23.43196655691576 113.41867736676141 32.72305724520061 88.64264556356396 47.175899987904025 C 85.54509025356377 49.240726829008736 74.18948777251742 56.46714820036042 76.25431461362213 65.75823888864525 Z" stroke="none" stroke-linejoin="miter" stroke-linecap="butt" fill-rule="nonzero" fill="#F2C2CF"/></g></svg></svg>