<svg id="draw.id" overflow="visible" v:ver="3" x="500.5" xmlns="http://www.w3.org/2000/svg" xmlns:v="http://vecta.io" xmlns:xlink="http://www.w3.org/1999/xlink" y="500.5" v:layers="{&quot;default&quot;:{&quot;name&quot;:&quot;Default&quot;,&quot;print&quot;:1,&quot;display&quot;:1,&quot;publish&quot;:1}}" v:stencils="{&quot;0&quot;:{&quot;id&quot;:&quot;stencil_25&quot;,&quot;expand&quot;:1,&quot;show_name&quot;:1},&quot;1&quot;:{&quot;id&quot;:&quot;stencil_65&quot;,&quot;expand&quot;:1,&quot;show_name&quot;:1}}"><style xmlns="http://www.w3.org/1999/xhtml"><![CDATA[#draw\.id{stroke:#000;stroke-linecap:round;stroke-linejoin:round;fill:#fff;fill-rule:evenodd;font-family:Roboto;font-size:14px;text-anchor:middle}#draw\.id text{paint-order:stroke;white-space:pre}#draw\.id .Text\.cls{stroke:none}]]></style><defs><style type="text/css">@import url('https://fonts.googleapis.com/css?family=Roboto+Condensed:400,400i,700,700i');@import url('https://fonts.googleapis.com/css?family=Roboto:400,400i,700,700i');@import url('https://fonts.googleapis.com/css?family=Cousine:400,400i,700,700i');@import url('https://fonts.googleapis.com/css?family=Anonymous+Pro:400,400i,700,700i');@import url('https://fonts.googleapis.com/css?family=Lato:400,400i,700,700i');@import url('https://fonts.googleapis.com/css?family=Open+Sans:400,400i,700,700i');</style></defs><title xmlns="http://www.w3.org/1999/xhtml">Untitled drawing</title><desc xmlns="http://www.w3.org/1999/xhtml"></desc><svg height="500" id="kwpfkecs3d" overflow="visible" v:setup="{&quot;paper&quot;:&quot;CUSTOM&quot;,&quot;unit&quot;:&quot;px&quot;,&quot;scale&quot;:{&quot;from&quot;:&quot;1&quot;,&quot;to&quot;:&quot;1&quot;},&quot;width&quot;:&quot;500px&quot;,&quot;height&quot;:&quot;500px&quot;,&quot;margin&quot;:{&quot;top&quot;:&quot;0&quot;,&quot;bottom&quot;:&quot;0&quot;,&quot;left&quot;:&quot;0&quot;,&quot;right&quot;:&quot;0&quot;}}" viewBox="0 0 500 500" width="500"><g id="kwphlctq81f" transform="translate(0.000038198450141635476 0)" class=""><path d="M 499.0520031996315 83.09025898179195 L 497.7627783754569 76.64256129745486 L 491.3150801094995 75.35302913939182 C 475.84044685669255 71.48440806918812 460.36581360388556 67.6157869989844 456.49735205881973 63.74716592878067 C 451.3388786170366 52.141315016176826 447.47041707197036 45.69361733183975 442.3127307027296 40.535464103573005 C 441.0227188060128 26.350524278828477 431.99578381916336 16.034217822295037 417.81116246307334 8.296975681887574 C 385.5726711332849 -7.177508598927338 331.41184828473234 0.5597335414801163 306.9110671176186 18.613282138421024 C 259.19794253502346 53.43085947224723 259.19794253502346 107.59151756107728 281.1202740537881 142.40908259689604 C 256.61870581413194 165.62079672011112 207.6163564073622 166.9103288781741 188.27326160948914 166.9103288781741 C 184.40480006442291 166.9103288781741 181.82556334353146 166.9103288781741 179.24632662264 166.9103288781741 C 150.8762968379178 169.4894177903148 130.24397721587013 178.5161920887853 116.05856878723797 191.41158745745946 C 107.03242087293108 186.25342193118533 95.42624916519037 184.96388977312247 86.39931417834113 190.1220430013892 C 70.92468092553429 197.85928514179648 60.608521114510495 218.49191035287066 61.89853301122738 242.99315663414882 C 61.89853301122738 246.86179000235978 61.89853301122738 250.73039877455628 61.89853301122738 254.59903214276733 C 63.187757835401996 270.07349182756735 63.187757835401996 284.25843165231197 55.4508347452697 297.1538270209863 C 43.84466303752901 294.57473810884545 32.238491329788324 299.7329159331271 25.790793063830655 308.75967793359 C 15.474633252806845 322.94461775833474 14.185408428632197 337.1295575830792 14.185408428632197 350.02495295175345 C 14.185408428632197 359.05171495221646 12.895396531915328 368.0785015486943 9.026934986849177 375.8157436891018 L 0 392.57974782997235 L 15.474633252806845 392.57974782997235 C 29.66004168143905 392.57974782997235 41.26542631663751 388.7111390577759 50.29236130348667 383.55298582950934 L 50.29236130348667 469.95214463803217 L 112.19010724217183 469.95214463803217 L 122.50626705319564 469.95214463803217 L 175.37786507757377 469.95214463803217 L 186.98324971277225 424.8182608476728 L 165.06170526655004 417.0809941112507 L 170.21939163579077 396.4483811981834 C 197.30019659633822 386.13205014563533 215.35327949749444 373.2366547769611 233.40714947119292 348.73540849568303 C 241.14407256132512 350.02495295175345 248.88178272399955 351.3144974078238 255.3294809899573 351.3144974078238 L 266.93486562515574 469.95214463803217 L 328.83261156384077 469.95214463803217 L 339.1495584474068 469.95214463803217 L 392.0203693992429 469.95214463803217 L 404.91576593115826 424.8182608476728 L 377.83574804315293 415.7914742511948 C 372.67727460136996 378.39480800522773 375.2565113222615 344.8667997234865 388.1519078541765 313.917831161857 C 470.68197341490975 264.9153385993007 470.68197341490975 193.9906640715929 453.91811533792804 141.11953814082577 C 469.39274859073475 139.8300059827628 482.28814512265023 135.9613849125589 490.02506821278257 126.9346106140886 C 499.0520031996315 116.61829185954775 501.63123992052317 103.72289649087357 499.0520031996315 83.09025898179195 Z M 81.24162780910038 255.8885520028231 C 81.24162780910038 252.0199432306267 81.24162780910038 248.1513344584304 81.24162780910038 244.2827010902191 C 81.24162780910038 224.9396080372079 87.68932607505802 213.33375712460392 95.42624916519037 209.4651483524076 C 98.00548588608186 208.17560389633744 100.58472260697334 208.17560389633744 103.16317225532262 209.4651483524076 C 95.42624916519037 222.36054372108188 91.55778762012419 237.83500340588208 92.84701244429874 253.30948768669703 C 95.42624916519037 279.1002784240453 87.68932607505802 302.3119802492531 79.95161591238349 319.07600898613833 C 77.37237919149202 315.20737561792726 74.79392954314274 312.62831130180115 72.21469282225114 310.0492223896604 C 83.82007745744964 290.7061293366491 82.53085263327502 271.36303628363794 81.24162780910038 255.8885520028231 Z M 153.4555335588093 380.9738969173685 L 143.13937374778556 431.2659585320097 L 165.06170526655004 437.713656216347 L 162.48246854565843 449.31948253293575 L 130.24397721587013 449.31948253293575 L 136.6916754818278 424.8182608476728 L 119.92781740484635 417.0809941112507 L 125.08550377408713 383.55298582950934 C 135.40166358511092 373.2366547769611 153.4555335588093 380.9738969173685 153.4555335588093 380.9738969173685 Z M 312.06875348685935 429.97638947992476 L 327.54338673966606 436.42408716426195 L 323.6749251946001 449.31948253293575 L 284.9887355988541 449.31948253293575 L 275.96180061200505 356.47265063609046 C 281.1202740537881 346.15631958354226 297.8841321307694 312.62831130180115 299.1733569549439 271.36303628363794 L 278.54103733289645 270.07349182756735 C 277.2510254361797 294.57473810884545 270.80332717022185 317.7864645300679 264.3556289042641 331.9714043548126 C 239.85484773715046 331.9714043548126 212.7740427766029 325.5237066704754 185.69402488859748 315.20737561792726 L 177.95710179846532 312.62831130180115 L 172.79862835668226 319.07600898613833 C 149.58707201374312 356.47265063609046 135.40166358511092 360.3412594082871 110.90088241799718 366.7889570926237 L 104.45318415203944 368.0785015486943 L 94.13702434101569 428.68686961986924 L 109.61087052128035 435.1345673042061 L 107.03242087293108 448.02996267288023 L 70.92468092553429 448.02996267288023 L 70.92468092553429 368.0785015486943 C 82.53085263327502 356.47265063609046 117.34858068395476 311.3387668457309 112.19010724217183 249.44085431848606 C 109.61087052128035 223.65006358113746 126.37551567080399 191.41158745745946 179.24632662264 187.54296638725555 C 180.53555144681465 187.54296638725555 184.40480006442291 187.54296638725555 186.98324971277225 187.54296638725555 C 210.1955931282537 187.54296638725555 259.19794253502346 184.96388977312247 290.1464219680949 160.4626311938369 C 295.3048954098781 170.77894994837786 295.3048954098781 175.9371154746519 296.59412023405247 184.96388977312247 C 296.59412023405247 190.1220430013892 296.59412023405247 193.9906640715929 299.1733569549439 200.43836175592995 L 301.7525936758356 212.04421266853365 L 312.06875348685935 209.4651483524076 C 324.9641500187748 205.59651498419657 341.7280080957561 199.14881729985962 354.6234046276714 190.1220430013892 C 355.9134165243883 195.28020852766318 355.9134165243883 199.14881729985962 355.9134165243883 201.7279062120001 L 355.9134165243883 208.17560389633744 L 361.0711028936293 210.75466821246334 C 373.9664994255445 217.20236589680047 381.70420958821927 224.9396080372079 381.70420958821927 244.2827010902191 C 381.70420958821927 302.3119802492531 348.175706361714 329.39231544267176 318.5164517528172 353.8935617239497 C 315.93721503192563 355.18310618002 314.64799020775087 357.7621950921609 312.06875348685935 359.05171495221646 L 309.48951676596806 360.3412594082871 L 312.06875348685935 429.97638947992476 Z M 380.4141976915022 437.713656216347 L 377.83574804315293 449.31948253293575 L 345.5972567133645 449.31948253293575 L 352.0449549793224 424.8182608476728 L 332.70186018144926 415.7914742511948 L 331.41184828473234 368.0785015486943 C 332.70186018144926 368.0785015486943 332.70186018144926 366.7889570926237 333.99108500562403 365.49941263655376 C 366.2295763354123 353.8935617239497 355.9134165243883 395.1588367421129 361.0711028936293 423.5286917955876 L 362.3611147903462 429.97638947992476 L 380.4141976915022 437.713656216347 Z M 395.8888309443092 282.9688871962417 C 399.7572924893754 271.36303628363794 402.3365292102665 257.17809645889344 402.3365292102665 241.7036367740932 C 402.3365292102665 214.62330158067437 388.1519078541765 201.7279062120001 375.2565113222615 193.9906640715929 C 373.9664994255445 182.38481315898892 370.0980378804783 169.4894177903148 370.0980378804783 168.1998733342444 L 364.9403515112373 150.14632473730344 L 352.0449549793224 163.0417201059777 C 344.3072448166479 170.77894994837786 328.83261156384077 178.5161920887853 315.93721503192563 183.67434531705192 C 315.93721503192563 183.67434531705192 315.93721503192563 182.38481315898892 315.93721503192563 181.09526870291856 C 314.64799020775087 168.1998733342444 314.64799020775087 157.88355457970368 296.59412023405247 130.80323168429223 C 278.54103733289645 103.72289649087357 279.8302621570711 61.16808931464729 317.2272269286423 34.087766419235955 C 336.5703217265154 19.902826594491394 382.9934344123937 13.455128910154308 407.4950026520497 26.350524278828477 C 412.6526890212905 28.92961319096921 415.2319257421823 31.50867750709524 417.81116246307334 34.087766419235955 C 411.3634641971158 34.087766419235955 403.6265411069834 35.37729857729892 393.30959422341755 36.666843033369304 L 392.0203693992429 36.666843033369304 C 376.54573614643624 40.535464103573005 372.67727460136996 66.32625484092137 373.9664994255445 84.37980343786231 C 376.54573614643624 117.90783631561813 398.46806766520046 138.54046152669233 430.7065589949889 138.54046152669233 C 431.99578381916336 138.54046152669233 431.99578381916336 138.54046152669233 433.28579571588045 138.54046152669233 C 460.36581360388556 219.78145480894122 424.2588607290314 262.3362496871601 395.8888309443092 282.9688871962417 Z M 475.84044685669255 114.03921524541437 C 469.39274859073475 121.77644508781445 450.04965379286193 121.77644508781445 431.99578381916336 121.77644508781445 L 431.99578381916336 121.77644508781445 C 415.2319257421823 121.77644508781445 403.6265411069834 114.03921524541437 398.46806766520046 99.85427542066981 C 392.0203693992429 81.80072682372894 395.8888309443092 63.74716592878067 398.46806766520046 58.589012700513926 C 412.6526890212905 56.00993608638058 422.96963590485643 54.72039163031022 426.8380974499227 57.29946824444357 C 429.41733417081423 58.589012700513926 431.99578381916336 63.74716592878067 438.4434820851214 75.35302913939182 C 439.733493981838 77.93210575352519 443.6019555269042 85.66934789393264 479.7089084017588 94.69612219240314 C 480.9989202984759 102.43335203480319 479.7089084017588 110.17059417521064 475.84044685669255 114.03921524541437 Z" stroke="none" stroke-linejoin="miter" stroke-linecap="butt" fill="#F2C2CF" fill-rule="nonzero"/></g></svg></svg>