<svg id="draw.id" overflow="visible" v:ver="3" x="500.5" xmlns="http://www.w3.org/2000/svg" xmlns:v="http://vecta.io" xmlns:xlink="http://www.w3.org/1999/xlink" y="500.5" v:layers="{&quot;default&quot;:{&quot;name&quot;:&quot;Default&quot;,&quot;print&quot;:1,&quot;display&quot;:1,&quot;publish&quot;:1}}" v:stencils="{&quot;0&quot;:{&quot;id&quot;:&quot;stencil_25&quot;,&quot;expand&quot;:1,&quot;show_name&quot;:1},&quot;1&quot;:{&quot;id&quot;:&quot;stencil_65&quot;,&quot;expand&quot;:1,&quot;show_name&quot;:1}}"><style xmlns="http://www.w3.org/1999/xhtml"><![CDATA[#draw\.id{stroke:#000;stroke-linecap:round;stroke-linejoin:round;fill:#fff;fill-rule:evenodd;font-family:Roboto;font-size:14px;text-anchor:middle}#draw\.id text{paint-order:stroke;white-space:pre}#draw\.id .Text\.cls{stroke:none}]]></style><defs><style type="text/css">@import url('https://fonts.googleapis.com/css?family=Roboto+Condensed:400,400i,700,700i');@import url('https://fonts.googleapis.com/css?family=Roboto:400,400i,700,700i');@import url('https://fonts.googleapis.com/css?family=Cousine:400,400i,700,700i');@import url('https://fonts.googleapis.com/css?family=Anonymous+Pro:400,400i,700,700i');@import url('https://fonts.googleapis.com/css?family=Lato:400,400i,700,700i');@import url('https://fonts.googleapis.com/css?family=Open+Sans:400,400i,700,700i');</style></defs><title xmlns="http://www.w3.org/1999/xhtml">Untitled drawing</title><desc xmlns="http://www.w3.org/1999/xhtml"></desc><svg height="500" id="kwpfkecs3d" overflow="visible" v:setup="{&quot;paper&quot;:&quot;CUSTOM&quot;,&quot;unit&quot;:&quot;px&quot;,&quot;scale&quot;:{&quot;from&quot;:&quot;1&quot;,&quot;to&quot;:&quot;1&quot;},&quot;width&quot;:&quot;500px&quot;,&quot;height&quot;:&quot;500px&quot;,&quot;margin&quot;:{&quot;top&quot;:&quot;0&quot;,&quot;bottom&quot;:&quot;0&quot;,&quot;left&quot;:&quot;0&quot;,&quot;right&quot;:&quot;0&quot;}}" viewBox="0 0 500 500" width="500"><g id="kwphk1ko7og" transform="translate(4.033088003309359 145)" class=""><path d="M 0.062173586512937126 231.01689234910853 C -0.687116265565553 236.26317927891628 5.308574876798774 238.5116206375419 19.548284159675056 242.2589847817586 C 29.291796888168232 245.2568303529408 39.03485217474932 246.7557531385318 48.77790746133035 246.7557531385318 C 78.75682061506416 246.7557531385318 95.99460419007865 228.7684509904828 111.73380806093617 186.0485226185078 C 122.9759004935864 154.57057231870485 153.70410349939857 124.59165916497112 174.68925121862983 106.60435701692204 C 173.19021407256068 122.34333216682347 172.44092422048226 147.82536260330602 180.68494236099406 165.0632605387986 C 161.94812163991054 177.05475718400518 142.4620110667485 187.54744540409877 122.22615319959577 197.29061505115777 C 118.478789055379 198.78953783674893 116.2304620572314 201.78738340793103 115.48117220515299 205.53474755214785 C 112.48309791301469 220.5242041290148 136.46631992438412 248.2546759241229 141.71272121466993 253.5010772144088 C 142.4620110667485 254.25048142696534 143.96104821281747 255 145.46008535888666 255 L 193.42607193971338 255 C 193.42607193971338 255 194.175819233704 255 194.175819233704 255 C 197.1734360839301 254.25048142696534 198.67247322999933 252.0020400683396 198.67247322999933 249.00419449715756 C 196.42414623185175 236.26317927891628 185.1820537992014 226.52000963185716 172.44092422048226 225.7704910588226 C 168.69356007626553 225.7704910588226 164.94619593204877 225.02108684626606 161.94812163991054 223.52216406067498 C 181.4346896549848 222.02312691460574 214.41121965894467 216.02743577224152 227.152349237664 195.04217369253215 C 234.64707752609735 183.80008125988215 239.89347881638326 170.30954746860618 241.39251596245225 156.81901367733047 C 243.64084296059994 157.56853225036508 245.8891699587475 158.31793646292155 248.13749695689512 159.06745503595607 C 244.39013281267853 176.30535297144863 238.39444167031417 214.52839862617233 238.39444167031417 216.02743577224152 C 238.39444167031417 217.52635855783254 238.39444167031417 219.02528134342367 239.14418896430467 219.77479991645816 L 264.6259906798312 252.7515586413742 C 265.37573797382186 254.25048142696534 266.87431767797887 255 268.37335482404796 255 L 315.59005155279635 255 C 316.3397988467869 255 317.0890886988654 255 317.83883599285576 254.25048142696534 C 320.08716299100365 252.7515586413742 321.58620013707275 249.753713070192 320.08716299100365 247.50527171156642 C 320.08716299100365 246.7557531385318 310.3441077044226 227.26952820489169 290.8575396893484 225.7704910588226 C 284.11255869490543 225.02108684626606 278.116410110629 220.5242041290148 275.86808311248143 213.77899441361583 C 275.118793260403 210.78103448195566 275.118793260403 208.53270748380805 275.86808311248143 207.78318891077353 C 290.8575396893484 192.7937323339065 300.60059497592925 173.30739303978842 305.09770641413655 153.0716495331138 L 332.82829256972286 153.0716495331138 L 362.05745842946607 251.25263585578324 C 362.80720572345666 253.5010772144088 365.0555327216041 255 367.30385971975187 255 L 420.5162475908646 255 C 421.2659948848551 255 421.2659948848551 255 422.01528473693355 255 C 425.0133590290718 254.25048142696534 426.5123961751408 251.25263585578324 425.76264888115026 249.00419449715756 C 422.01528473693355 237.01258349147272 411.5229395982739 229.51785520303926 398.78181001955454 228.7684509904828 L 385.291390588757 228.0189324174482 L 377.0469150063329 165.0632605387986 L 389.0387547329737 150.82320817448812 L 389.0387547329737 180.8021213282219 C 389.0387547329737 181.5516399012565 389.0387547329737 183.05056268684754 389.7880445850521 183.80008125988215 L 435.50570416773115 252.7515586413742 C 436.25545146172203 254.25048142696534 437.75448860779113 255 440.00281560593874 255 L 485.72047518861785 255 C 488.7185494807561 255 490.9668764789035 252.7515586413742 490.9668764789035 249.753713070192 L 490.9668764789035 241.50946620872398 C 490.21758662682527 226.52000963185716 466.98365446753445 224.2715682732315 456.49130932887465 224.2715682732315 L 429.51001302536713 165.81266475135496 C 431.7583400235148 148.57488117634048 433.2573771695836 131.33698324084796 433.2573771695836 114.09908530535544 C 433.2573771695836 94.61274601123726 451.2449080385888 84.12017215162166 465.484617321465 75.87592529015367 C 467.73340176152504 74.37700250456257 469.9817287596724 73.62759829200606 472.2300557578202 72.12856114593689 C 477.47645704810583 69.13071557475475 481.2238211923227 64.6338328575035 481.97311104440104 58.63814171513917 C 482.7228583383916 51.1434134267057 478.97549419417527 42.89916656523771 469.9817287596724 33.155996918178595 C 467.73340176152504 30.907555559552957 471.48076590574163 24.911864417188625 472.9793456098985 22.663423058562998 L 472.9793456098985 22.663423058562998 C 472.9793456098985 22.663423058562998 472.9793456098985 21.91390448552843 473.72909290388895 21.91390448552843 C 474.4783827559678 20.41498169993735 474.4783827559678 18.16654034131171 473.72909290388895 16.66761755572063 C 472.9793456098985 15.168694770129548 463.23629032331746 2.427679551888299 433.2573771695836 0.17923819326265952 C 410.0239024522048 -1.3196845923284217 400.28084716562375 6.9244479086615485 396.53348302140694 12.170734838469343 C 392.0363715831995 12.170734838469343 387.5397175869044 13.66977198453847 383.7923534426879 17.417136128755175 C 380.7942791505497 21.91390448552843 380.0449892984712 28.659228561405353 383.042606148697 33.155996918178595 L 376.29762515425455 44.39808935082879 C 365.0555327216041 44.39808935082879 326.08285413336796 43.648685138272256 267.62406497196946 40.65072520661206 C 193.42607193971338 36.90336106239535 146.20937521096502 75.12652107759715 119.22853634936965 108.10327980251314 C 104.23907977250268 126.09069631104013 93.74627719193104 150.07380396193165 84.75251175742846 171.05906604164082 C 76.50849361691654 192.7937323339065 67.51472818241393 212.28007162802473 60.01999989398053 216.77683998479796 C 52.5252716055471 221.2737227020493 33.03916103238498 222.7726454876405 20.29803145366568 224.2715682732315 C 5.308574876798774 225.02108684626606 0.8114634385914276 225.7704910588226 0.062173586512937126 231.01689234910853 Z M 27.043012448108485 234.01473792029063 C 40.53388932081841 233.2652193472561 56.272635749763815 231.01689234910853 65.26640118426637 225.7704910588226 C 76.50849361691654 219.02528134342367 84.75251175742846 199.5389420493054 94.49556704400952 177.05475718400518 C 103.48933247851207 156.06960946477398 113.98213505908375 132.835906026439 127.47255448988163 116.34752666398109 C 152.9548136473201 85.61909493721278 197.9231833779207 48.89497206808005 267.62406497196946 52.64233621229681 C 335.82590941994874 55.640181783478965 379.2952420044804 56.38970035651352 379.2952420044804 56.38970035651352 L 379.2952420044804 56.38970035651352 C 380.7942791505497 56.38970035651352 383.042606148697 55.640181783478965 383.7923534426879 54.14125899788791 L 389.0387547329737 44.39808935082879 C 391.28708173112113 47.39604928248898 394.2846985813473 49.644376280636585 398.032062725564 51.1434134267057 C 400.28084716562375 51.892817639262255 402.5291741637715 52.64233621229681 404.77750116191896 52.64233621229681 C 408.52486530613567 52.64233621229681 411.5229395982739 51.892817639262255 414.5205564485004 50.393894853671156 C 416.7688834466478 48.89497206808005 418.2679205927166 45.89701213641986 416.7688834466478 43.648685138272256 C 415.27030374249085 41.40024377964664 412.2722294503526 39.90132099405551 410.0239024522048 41.40024377964664 C 407.0258281600667 42.89916656523771 404.0282113098405 42.89916656523771 401.7794268697809 42.14964799220312 C 398.032062725564 40.65072520661206 395.034445875338 36.90336106239535 393.53540872926885 33.155996918178595 C 391.28708173112113 28.659228561405353 391.28708173112113 25.661268629745155 392.0363715831995 24.911864417188625 C 393.53540872926885 22.663423058562998 400.28084716562375 23.412827271119514 404.0282113098405 24.162345844154075 C 404.0282113098405 24.162345844154075 404.0282113098405 24.162345844154075 404.0282113098405 24.162345844154075 C 407.0258281600667 24.911864417188625 409.2741551582141 23.412827271119514 410.0239024522048 20.41498169993735 C 410.0239024522048 18.91605891434627 410.0239024522048 16.66761755572063 408.52486530613567 15.918098982686075 C 416.01959359456913 12.170734838469343 424.26361173508127 10.671812052878265 432.5080873175054 12.170734838469343 C 442.25114260408634 12.170734838469343 451.2449080385888 15.168694770129548 459.4889261791008 19.665463126902797 C 459.4889261791008 20.41498169993735 459.4889261791008 21.164500272971903 459.4889261791008 21.91390448552843 C 459.4889261791008 23.412827271119514 460.2386734730913 24.911864417188625 461.7372531772485 25.661268629745155 C 458.73963632702225 30.907555559552957 459.4889261791008 37.652879635429905 463.98603761730817 42.14964799220312 C 469.9817287596724 48.89497206808005 472.9793456098985 54.89077757092243 472.9793456098985 58.63814171513917 C 472.2300557578202 61.635987286321324 470.73101861175104 63.88442864494699 467.73340176152504 64.6338328575035 L 461.7372531772485 68.38119700172021 C 445.9985067483029 77.37496243622275 424.26361173508127 90.11597765446405 424.26361173508127 115.59800809094654 C 424.26361173508127 132.835906026439 422.76503203092426 150.07380396193165 420.5162475908646 167.31170189742414 C 420.5162475908646 168.06110610998059 420.5162475908646 169.56002889557172 421.2659948848551 170.30954746860618 L 450.49516074459814 232.5158151346995 C 451.2449080385888 234.01473792029063 453.4932350367365 235.51366070588173 454.99227218280566 235.51366070588173 L 454.99227218280566 235.51366070588173 C 467.73340176152504 235.51366070588173 481.97311104440104 238.5116206375419 481.97311104440104 243.00838899431514 L 481.97311104440104 246.00634892597532 L 443.75017975015527 246.00634892597532 L 399.53109987163316 179.3031985426309 L 399.53109987163316 138.83171152928153 L 414.5205564485004 122.34333216682347 L 414.5205564485004 122.34333216682347 C 416.01959359456913 120.09489080819786 416.01959359456913 117.09693087653766 413.77126659642147 114.84860387839005 C 411.5229395982739 113.34956673232095 408.52486530613567 113.34956673232095 406.2765383079883 115.59800809094654 L 389.0387547329737 135.08434738506466 L 389.0387547329737 135.08434738506466 L 368.05314957183043 159.8169736089907 C 367.30385971975187 161.31589639458178 366.5545698676734 162.81481918017295 367.30385971975187 164.31374196576394 L 377.0469150063329 234.01473792029063 C 377.7966623003235 236.26317927891628 379.2952420044804 238.5116206375419 382.2933162966186 238.5116206375419 L 400.28084716562375 239.26102485009832 C 405.52679101399764 239.26102485009832 410.0239024522048 241.50946620872398 413.77126659642147 245.2568303529408 L 372.5502610100377 245.2568303529408 L 343.3206377083823 149.3242853888971 L 356.81105713918004 124.59165916497112 C 358.31009428524925 122.34333216682347 357.5608044331709 118.59596802260668 354.5627301410327 117.84644944957218 C 352.3144031428849 116.34752666398109 348.567038998668 117.09693087653766 347.81774914658973 120.09489080819786 L 335.0766195678703 144.07799845908914 L 307.34603341228427 144.07799845908914 C 308.09532326436295 137.3327887436904 308.09532326436295 129.8380604552569 306.59674356020594 123.09273637937999 L 306.59674356020594 123.09273637937999 C 305.8469962662152 120.09489080819786 303.5986692680675 118.59596802260668 300.60059497592925 118.59596802260668 C 297.6029781257034 119.34537223516325 296.10394097963405 121.59381359378891 296.10394097963405 124.59165916497112 C 302.0996321219985 163.56433775320738 274.3690459664123 196.54109647812325 269.12310211803856 201.78738340793103 C 264.6259906798312 206.28426612518234 263.87670082775276 213.02947584058128 266.12502782590025 218.27576277038912 C 269.87239197011706 228.7684509904828 278.86615740461957 236.26317927891628 290.1082498372698 237.01258349147272 C 296.10394097963405 237.7621020645074 302.0996321219985 240.75994763568949 305.8469962662152 246.00634892597532 L 270.6216818221955 246.00634892597532 L 248.88724425088583 216.77683998479796 C 250.38628139695493 207.03367033773884 256.3819725393192 167.31170189742414 259.3795893895454 157.56853225036508 C 259.3795893895454 157.56853225036508 259.3795893895454 156.81901367733047 259.3795893895454 156.81901367733047 C 260.12933668353594 153.82116810614835 257.8810096853884 151.57272674752272 254.88293539325022 150.82320817448812 C 249.63653410296428 150.07380396193165 244.39013281267853 147.82536260330602 239.14418896430467 144.82751703212384 L 239.14418896430467 144.82751703212384 C 229.4006762358116 138.0821929562469 220.40736824322124 129.8380604552569 213.6619298068662 120.84429502075427 C 212.1628926607971 118.59596802260668 209.165275810571 117.84644944957218 206.16720151843273 119.34537223516325 C 203.16912722629456 120.84429502075427 203.16912722629456 123.84225495241455 204.66816437236352 126.84010052359675 C 212.1628926607971 136.5832701706559 221.15665809529963 145.57692124468042 230.89971338188073 152.32224532055724 C 230.89971338188073 156.81901367733047 230.15042352980214 170.30954746860618 217.4092939510829 190.54529097528095 C 202.41983737421594 216.02743577224152 146.95866506304364 214.52839862617233 146.20937521096502 214.52839862617233 C 143.96104821281747 214.52839862617233 142.4620110667485 215.27791719920688 141.71272121466993 216.77683998479796 C 140.9629739206794 218.27576277038912 140.9629739206794 220.5242041290148 141.71272121466993 222.02312691460574 C 141.71272121466993 222.7726454876405 149.95673935518184 234.7642564933251 170.9418870744131 236.26317927891628 C 176.9375782167774 236.26317927891628 182.1839795070632 240.01054342313296 185.1820537992014 245.2568303529408 L 146.95866506304364 245.2568303529408 C 134.96728277831494 231.7662965616649 123.72519034566487 214.52839862617233 124.47448019774338 207.78318891077353 C 124.47448019774338 207.03367033773884 124.47448019774338 207.03367033773884 125.22422749173406 207.03367033773884 C 146.95866506304364 196.54109647812325 167.944270224187 184.54948547243865 188.92941794341823 171.80847025419737 C 188.92941794341823 171.80847025419737 188.92941794341823 171.80847025419737 188.92941794341823 171.80847025419737 C 191.17774494156575 170.30954746860618 191.9270347936443 167.31170189742414 190.4284550894874 165.0632605387986 C 177.687325510768 145.57692124468042 183.68301665313243 107.3538755899566 185.1820537992014 98.36011015545405 C 191.9270347936443 93.11382322564624 195.67439893786096 90.11597765446405 195.67439893786096 90.11597765446405 C 197.9231833779207 88.61705486887294 198.67247322999933 85.61909493721278 197.1734360839301 82.6212493660306 C 195.67439893786096 80.37280800740494 192.67678208763496 79.62328943437035 189.67870779549676 81.12232658043949 C 186.6810909452705 83.3706535785871 119.97782620144818 129.8380604552569 100.491715628286 183.05056268684754 C 84.75251175742846 230.26737377607384 66.76543833033546 243.00838899431514 27.043012448108485 234.01473792029063 Z" stroke="none" stroke-linejoin="miter" stroke-linecap="butt" fill="#F2C2CF" fill-rule="nonzero"/></g></svg></svg>