<svg id="draw.id" overflow="visible" v:ver="3" x="500.5" xmlns="http://www.w3.org/2000/svg" xmlns:v="http://vecta.io" xmlns:xlink="http://www.w3.org/1999/xlink" y="500.5" v:layers="{&quot;default&quot;:{&quot;name&quot;:&quot;Default&quot;,&quot;print&quot;:1,&quot;display&quot;:1,&quot;publish&quot;:1}}" v:stencils="{&quot;0&quot;:{&quot;id&quot;:&quot;stencil_25&quot;,&quot;expand&quot;:1,&quot;show_name&quot;:1},&quot;1&quot;:{&quot;id&quot;:&quot;stencil_65&quot;,&quot;expand&quot;:1,&quot;show_name&quot;:1}}"><style xmlns="http://www.w3.org/1999/xhtml"><![CDATA[#draw\.id{stroke:#000;stroke-linecap:round;stroke-linejoin:round;fill:#fff;fill-rule:evenodd;font-family:Roboto;font-size:14px;text-anchor:middle}#draw\.id text{paint-order:stroke;white-space:pre}#draw\.id .Text\.cls{stroke:none}]]></style><defs><style type="text/css">@import url('https://fonts.googleapis.com/css?family=Roboto+Condensed:400,400i,700,700i');@import url('https://fonts.googleapis.com/css?family=Roboto:400,400i,700,700i');@import url('https://fonts.googleapis.com/css?family=Cousine:400,400i,700,700i');@import url('https://fonts.googleapis.com/css?family=Anonymous+Pro:400,400i,700,700i');@import url('https://fonts.googleapis.com/css?family=Lato:400,400i,700,700i');@import url('https://fonts.googleapis.com/css?family=Open+Sans:400,400i,700,700i');</style></defs><title xmlns="http://www.w3.org/1999/xhtml">Untitled drawing</title><desc xmlns="http://www.w3.org/1999/xhtml"></desc><svg height="500" id="kwpfkecs3d" overflow="visible" v:setup="{&quot;paper&quot;:&quot;CUSTOM&quot;,&quot;unit&quot;:&quot;px&quot;,&quot;scale&quot;:{&quot;from&quot;:&quot;1&quot;,&quot;to&quot;:&quot;1&quot;},&quot;width&quot;:&quot;500px&quot;,&quot;height&quot;:&quot;500px&quot;,&quot;margin&quot;:{&quot;top&quot;:&quot;0&quot;,&quot;bottom&quot;:&quot;0&quot;,&quot;left&quot;:&quot;0&quot;,&quot;right&quot;:&quot;0&quot;}}" viewBox="0 0 500 500" width="500"><g id="kwphj3e77bh" transform="translate(5.063061126702536 59.145296307220576)" class=""><path d="M 488.14305763965103 189.73025534635556 C 484.77128195556605 173.71509253805897 472.97058152200634 160.22901872319585 456.9559331744488 155.1716124274375 C 456.9559331744488 154.32866850641616 457.79861986510093 154.32866850641616 457.79861986510093 153.48572458539485 C 463.6989700818805 139.15670684951044 462.01308223983796 122.29885735056213 451.898269648321 109.6554702263509 C 443.469344898847 96.16913918111831 428.2973832419413 88.58315835266541 412.28273489438374 89.42584504331717 C 412.28273489438374 88.58315835266541 412.28273489438374 87.74021443164406 412.28273489438374 86.89727051062279 C 413.12542158503544 70.88236493269575 405.53918352621315 55.71014604542051 392.0531097113502 47.28122129594634 C 380.25240927779066 38.009609855820415 365.0804476208848 35.48077809275644 351.59437380602174 40.538184388514836 C 346.53671027989384 25.366222731609156 334.7365243070733 14.408466219070977 319.5645626501676 11.036947765355219 C 306.9211755259565 6.82248539061814 291.7486994083115 8.508373232660785 280.7912001261429 16.937297982134982 C 272.36227537666883 5.979541469596812 258.8762015618057 -0.7634954378347087 244.54692659555187 0.07944848318661943 C 230.21765162929816 -0.7634954378347087 216.73157781443513 5.136597548575485 207.45945191357015 16.094354061113656 C 196.5019526314016 8.508373232660785 182.17267766514752 6.82248539061814 169.52929054093624 11.87989168637654 C 155.20053003542148 15.251410140092315 142.55714291121026 26.208909422260945 138.34268053647313 41.38112830953615 C 124.85609226087094 36.32372201377777 108.84144391331355 38.85229654647216 97.88343017040582 48.1241652169677 C 84.39735635554271 56.553089966441846 76.81111829672032 71.72530885371704 76.81111829672032 87.74021443164406 C 76.81111829672032 88.58315835266541 76.81111829672032 89.42584504331717 76.81111829672032 90.26878896433855 C 60.796469949162855 88.58315835266541 45.62450829225711 96.16913918111831 37.19558354278294 109.6554702263509 C 27.08077095126615 122.29885735056213 25.394883109223482 139.15670684951044 31.29523332600319 153.48572458539485 C 31.29523332600319 154.32866850641616 32.137920016654974 154.32866850641616 32.137920016654974 155.1716124274375 C 16.123271669097537 160.22901872319585 4.322571235538032 173.71509253805897 1.7939967028436028 189.73025534635556 C -2.420465671893483 204.05927308223994 0.9507955514527234 219.23149196951516 10.222921452317777 230.18899125168383 C 31.29523332600319 253.78987765806355 81.86878182284826 262.2188024075376 130.75644247765075 263.0617463285591 C 128.22786794495633 286.6628899653082 132.4423303196934 311.1067202927094 144.24251629251387 332.17903216639496 C 144.24251629251387 332.17903216639496 144.24251629251387 333.02197608741625 145.08571744390468 333.02197608741625 C 156.04321672607333 353.2513440400802 172.90106622502148 369.2662496180073 193.1306914080552 379.3810622095243 L 193.1306914080552 381.9096367422188 C 193.1306914080552 395.3959677874514 199.03052716409587 405.5105231485985 207.45945191357015 409.72498552333576 L 207.45945191357015 420.68274203587384 L 195.6592659407498 420.68274203587384 C 191.4448035660127 420.68274203587384 188.07302788192726 424.05426048958964 188.07302788192726 428.2687228643267 C 188.07302788192726 432.48318523906374 191.4448035660127 435.8547036927795 195.6592659407498 435.8547036927795 L 214.20300328174073 435.8547036927795 C 218.41746565647782 435.8547036927795 221.78872687982405 432.48318523906374 221.78872687982405 428.2687228643267 C 221.78872687982405 428.2687228643267 221.78872687982405 428.2687228643267 221.78872687982405 428.2687228643267 L 221.78872687982405 410.5679294443571 C 228.53176378725558 406.35346706962 232.74622616199258 399.6104301621885 234.43211400403527 392.0244493337355 C 241.1751509114668 392.8671360243874 247.91870227963724 392.8671360243874 254.66173918706883 392.0244493337355 C 256.3476270291114 399.6104301621885 260.56208940384823 406.35346706962 268.1478130019317 410.5679294443571 L 268.1478130019317 428.2687228643267 C 268.1478130019317 432.48318523906374 271.519588686017 435.8547036927795 275.73405106075427 435.8547036927795 L 294.27778840174517 435.8547036927795 C 298.4922507764823 435.8547036927795 301.8635119998284 432.48318523906374 301.8635119998284 428.2687228643267 C 301.8635119998284 424.05426048958964 298.4922507764823 420.68274203587384 294.27778840174517 420.68274203587384 L 282.4770879681857 420.68274203587384 L 282.4770879681857 409.72498552333576 C 290.90601271765973 405.5105231485985 296.8063629344397 394.5530238664303 296.8063629344397 381.9096367422188 L 296.8063629344397 379.3810622095243 C 317.0354736567339 369.2662496180073 333.8933231556824 353.2513440400802 344.85133689859015 333.02197608741625 C 344.85133689859015 333.02197608741625 344.85133689859015 332.17903216639496 345.6940235892419 332.17903216639496 C 357.49472402280134 311.1067202927094 362.55187308819023 286.6628899653082 359.18009740410486 263.0617463285591 C 408.0682725196465 261.376115716886 458.6418210164915 253.78987765806355 479.7141328901771 230.18899125168383 C 488.9857443303031 219.23149196951516 492.3575200143883 204.05927308223994 488.14305763965103 189.73025534635556 Z M 408.9109592102984 104.59806393059247 C 420.7116596438579 102.06923216752857 433.3550467680694 107.12663846328694 440.0980836755006 118.08439497582508 C 446.8411205829321 126.51331972529925 448.5270084249748 138.31376292848918 445.15523274088923 148.42831828963642 C 434.1977334587209 174.55803645908028 388.6813340272648 198.15918009582973 341.47956121450466 215.85971628542993 C 338.10778553041945 209.95962329901977 333.8933231556824 204.90221700326134 328.83617409029375 199.84481070750283 C 363.39455977884217 171.1865180053645 398.7961466187818 135.78493116542518 408.9109592102984 104.59806393059247 Z M 354.1229483387161 55.71014604542051 C 364.23776093023304 50.65299698003168 375.1952602124016 52.33862759170479 383.62418496187604 59.92460842015761 C 392.89579640200174 65.8249586369373 398.7961466187818 75.93977122845418 397.95345992812986 86.89727051062279 C 397.1102587767388 116.39850713378237 358.3374107134532 156.01455634845888 317.87867480812497 188.8873114253342 C 314.50689912403953 186.3584796622702 311.9783245913452 183.82990512957588 308.6065489072599 181.30133059688131 C 307.76386221660806 180.45838667585994 306.07797437456554 179.61544275483874 305.2352876839136 178.77249883381728 C 331.36474862298786 139.15670684951044 355.80883618075865 90.26878896433855 354.1229483387161 55.71014604542051 Z M 315.3501002754305 25.366222731609156 C 326.307599557599 27.894797264303595 334.7365243070733 36.32372201377777 338.10778553041945 46.43853460529459 C 346.53671027989384 74.25388338641154 323.7790250249046 122.29885735056213 296.8063629344397 166.1291117096061 C 294.27778840174517 161.07170541384775 293.43458725035424 155.1716124274375 293.43458725035424 149.2712622106577 C 293.43458725035424 144.21385591489934 294.27778840174517 138.31376292848918 296.8063629344397 133.25635663273073 C 300.1776241577857 126.51331972529925 301.8635119998284 118.92708166647688 301.8635119998284 110.49815691700272 C 301.8635119998284 100.38360155585544 299.33493746713395 90.26878896433855 294.27778840174517 81.83986421486436 C 295.96316178304875 64.13907079489474 294.27778840174517 46.43853460529459 288.3774381849653 28.737741185324932 C 295.1204750923969 23.68033488956649 306.07797437456554 21.99444704752386 315.3501002754305 25.366222731609156 Z M 216.73157781443513 27.894797264303595 C 222.63192803121498 18.622928593808087 233.58942731338348 13.565522298049647 244.54692659555187 14.408466219070977 C 254.66173918706883 13.565522298049647 263.93335062719467 18.622928593808087 269.83370084397427 26.208909422260945 C 276.57673775140603 35.48077809275644 279.10531228410036 48.96710913798905 279.10531228410036 65.8249586369373 C 258.03300041041484 48.96710913798905 227.68907709660377 49.81005305901036 207.45945191357015 68.35353316963175 C 207.45945191357015 51.49568367068343 209.98854090700354 38.009609855820415 216.73157781443513 27.894797264303595 L 216.73157781443513 27.894797264303595 Z M 151.82875435133624 46.43853460529459 C 155.20053003542148 35.48077809275644 163.6294547848957 27.894797264303595 173.74375291567333 25.366222731609156 C 182.17267766514752 21.99444704752386 192.2874902566644 23.68033488956649 199.87372831548674 28.737741185324932 C 193.1306914080552 43.909702842230594 191.4448035660127 64.98201471591602 193.1306914080552 86.89727051062279 C 186.38714003988463 101.22654547687677 185.5444533492329 118.08439497582508 192.2874902566644 133.25635663273073 C 194.8160647893588 138.31376292848918 195.6592659407498 144.21385591489934 195.6592659407498 150.11420613167908 C 195.6592659407498 155.1716124274375 194.8160647893588 161.07170541384775 192.2874902566644 166.1291117096061 C 165.31482816619922 122.29885735056213 143.399829601862 74.25388338641154 151.82875435133624 46.43853460529459 Z M 105.46966822922819 59.92460842015761 C 113.89859297870237 53.1815715127261 125.69929341226195 51.49568367068343 135.81359154303965 55.71014604542051 C 134.12821816173604 90.26878896433855 158.57179125876763 138.31376292848918 183.85856550719024 178.77249883381728 C 182.17267766514752 180.45838667585994 179.64410313245307 182.98696120855445 177.95821529041046 183.82990512957588 C 175.429640757716 185.51579297161845 173.74375291567333 187.20142358329167 171.21517838297888 188.8873114253342 C 130.75644247765075 156.01455634845888 91.9835944143651 116.39850713378237 91.14039326297427 86.89727051062279 C 91.14039326297427 75.93977122845418 96.19805678910222 65.8249586369373 105.46966822922819 59.92460842015761 Z M 48.99576951560332 118.08439497582508 C 54.89611973238309 107.12663846328694 67.53950685659439 102.06923216752857 80.18289398080562 104.59806393059247 C 91.14039326297427 135.78493116542518 125.69929341226195 171.1865180053645 160.25767910081035 199.00186678648154 C 156.04321672607333 204.05927308223994 151.82875435133624 209.95962329901977 147.61429197659913 215.01702959477802 C 100.41251916383938 197.31623617480838 54.89611973238309 174.55803645908028 43.938620450214444 147.5856315989847 C 40.56684476612916 138.31376292848918 42.25273260817182 126.51331972529925 48.99576951560332 118.08439497582508 Z M 133.28501701034526 248.7327285926745 C 85.24004304619449 247.04684075063204 38.0382702334347 240.3038038432007 20.337734043834622 220.07417866016706 C 13.594182675663983 212.48819783171413 11.908809294360436 202.37364247056684 15.28007051770666 193.10177380007138 C 17.808645050401086 180.45838667585994 27.08077095126615 170.3435740843432 39.72415807547738 167.8149995516486 C 59.11058210712018 192.25882987904993 100.41251916383938 213.33114175273548 140.87125506916763 227.66041671898924 C 138.34268053647313 235.24639754744214 135.81359154303965 241.98943445487376 133.28501701034526 248.7327285926745 Z M 336.422412149116 317.0068132791196 C 327.15028624825095 303.52073946425685 321.24993603147107 286.6628899653082 320.40724934081936 269.80504046636025 C 320.40724934081936 265.5905780916231 317.87867480812497 262.2188024075376 313.66421243338795 262.2188024075376 C 309.44975005865086 262.2188024075376 306.07797437456554 264.7476341706016 306.07797437456554 268.9620965453388 C 306.07797437456554 268.9620965453388 306.07797437456554 269.80504046636025 306.07797437456554 269.80504046636025 C 306.9211755259565 291.72003903069736 315.3501002754305 313.63529482540395 329.67886078094523 330.4931443243522 C 319.5645626501676 347.35099382330054 304.3920865325228 359.9943809475119 286.6915503429229 368.42330569698595 C 284.1629758102284 369.2662496180073 282.4770879681857 371.79482415070197 282.4770879681857 375.16659983478723 L 282.4770879681857 381.9096367422188 C 282.4770879681857 391.1815054127143 278.26262559344855 397.0815983991247 275.73405106075427 397.0815983991247 C 273.20547652805976 397.0815983991247 268.9910141533227 392.0244493337355 268.9910141533227 382.75258066324 C 268.9910141533227 380.22374890017596 268.1478130019317 378.5381182885028 266.46192515988906 377.69517436748157 C 264.77655177858543 376.8522304464602 263.93335062719467 376.00928652543894 262.247462785152 376.00928652543894 L 261.4047760945002 376.00928652543894 C 256.3476270291114 376.8522304464602 251.28996350298328 376.8522304464602 246.2328144375948 376.8522304464602 C 241.1751509114668 376.8522304464602 236.11800184607802 376.8522304464602 231.060852780689 376.00928652543894 C 229.37496493864637 376.00928652543894 226.84639040595212 376.00928652543894 226.00318925456122 377.69517436748157 C 224.31730141251862 378.5381182885028 223.47461472186677 381.0666928211975 223.47461472186677 382.75258066324 C 222.63192803121498 392.0244493337355 218.41746565647782 397.0815983991247 216.73157781443513 397.0815983991247 C 215.04568997239255 397.0815983991247 209.98854090700354 391.1815054127143 209.98854090700354 381.9096367422188 L 209.98854090700354 375.16659983478723 C 209.98854090700354 372.63776807172337 208.30265306496102 370.1091935390289 205.77407853226654 368.42330569698595 C 188.07302788192726 359.9943809475119 172.90106622502148 347.35099382330054 162.78625363350486 330.4931443243522 C 177.11552859975862 313.63529482540395 185.5444533492329 291.72003903069736 186.38714003988463 269.80504046636025 C 186.38714003988463 265.5905780916231 183.0158788165384 262.2188024075376 178.80141644180128 262.2188024075376 C 174.5869540670642 262.2188024075376 171.21517838297888 265.5905780916231 171.21517838297888 269.80504046636025 C 171.21517838297888 269.80504046636025 171.21517838297888 269.80504046636025 171.21517838297888 269.80504046636025 C 170.37249169232715 286.6628899653082 164.4721414755474 302.6777955432353 155.20053003542148 317.0068132791196 C 136.6567926944305 274.01950284109705 150.14286650929358 223.44595434425236 188.07302788192726 195.63034833276572 C 203.244989538833 184.67284905059705 211.6739142883073 167.8149995516486 212.51711543969805 149.2712622106577 C 212.51711543969805 141.6852813822049 211.6739142883073 134.09930055375207 208.30265306496102 126.51331972529925 C 199.03052716409587 105.44100785161382 209.1453397556128 80.15423360319126 230.21765162929816 71.72530885371704 C 251.28996350298328 62.453440183221616 276.57673775140603 72.56799554436887 285.00566250087996 93.64030741805433 C 289.2201248756171 104.59806393059247 289.2201248756171 116.39850713378237 285.00566250087996 126.51331972529925 C 281.6344012775339 133.25635663273073 279.9485134354913 140.8423374611836 280.7912001261429 148.42831828963642 C 280.7912001261429 166.1291117096061 288.3774381849653 182.1440172875331 302.7067131512193 193.10177380007138 L 302.7067131512193 193.10177380007138 C 330.5220619323362 211.64525391069276 347.3799114312845 242.83237837589496 347.3799114312845 276.5480773737916 C 344.85133689859015 290.8773523400453 342.3222479051564 304.3634261549085 336.422412149116 317.0068132791196 Z M 468.75611914726943 220.91712258118832 C 451.0555829576692 241.14649053385224 403.85381014490974 247.88978467165336 355.80883618075865 249.57541528332652 C 354.1229483387161 242.83237837589496 351.59437380602174 235.24639754744214 348.2225981219362 229.3460473306624 C 388.6813340272648 214.17408567375682 429.98327108398394 193.94471772109267 449.3696951156265 169.5006301633218 C 462.01308223983796 172.02946192638584 471.285208140703 182.1440172875331 473.8137826733974 194.78740441174455 C 477.18504389674354 202.37364247056684 475.49967051544024 213.33114175273548 468.75611914726943 220.91712258118832 Z M 226.00318925456122 113.02698868006665 C 221.78872687982405 113.02698868006665 218.41746565647782 109.6554702263509 218.41746565647782 105.44100785161382 C 218.41746565647782 101.22654547687677 221.78872687982405 97.85476979279149 226.00318925456122 97.85476979279149 C 230.21765162929816 97.85476979279149 233.58942731338348 101.22654547687677 233.58942731338348 105.44100785161382 C 233.58942731338348 109.6554702263509 230.21765162929816 113.02698868006665 226.00318925456122 113.02698868006665 L 226.00318925456122 113.02698868006665 Z M 270.6763875346261 105.44100785161382 C 270.6763875346261 109.6554702263509 267.30512631128 113.02698868006665 263.09066393654285 113.02698868006665 C 258.8762015618057 113.02698868006665 255.50442587772054 109.6554702263509 255.50442587772054 105.44100785161382 C 255.50442587772054 101.22654547687677 258.8762015618057 97.85476979279149 263.09066393654285 97.85476979279149 C 267.30512631128 97.85476979279149 270.6763875346261 101.22654547687677 270.6763875346261 105.44100785161382 L 270.6763875346261 105.44100785161382 Z M 262.247462785152 119.77002558749821 C 265.6192384692373 122.29885735056213 265.6192384692373 126.51331972529925 263.93335062719467 129.88483817901502 C 263.93335062719467 129.88483817901502 263.93335062719467 129.88483817901502 263.93335062719467 129.88483817901502 L 249.6040756609407 147.5856315989847 C 247.91870227963724 149.2712622106577 246.2328144375948 150.11420613167908 244.54692659555187 150.11420613167908 L 244.54692659555187 150.11420613167908 C 242.01835206285767 150.11420613167908 240.33246422081487 149.2712622106577 239.4897775301631 147.5856315989847 L 226.84639040595212 131.57046879068807 C 224.31730141251862 128.1989503369723 225.16050256390943 123.98448796223522 228.53176378725558 121.45591342954079 C 231.90353947134082 118.92708166647688 236.11800184607802 119.77002558749821 238.64657637877218 123.14154404121389 L 246.2328144375948 132.4134127117095 L 254.66173918706883 122.29885735056213 C 255.50442587772054 118.92708166647688 259.71888825245736 118.08439497582508 262.247462785152 119.77002558749821 Z M 244.54692659555187 165.28616778858478 L 244.54692659555187 165.28616778858478 C 242.01835206285767 165.28616778858478 239.4897775301631 166.1291117096061 238.64657637877218 168.65794347267015 C 235.27531515542617 173.71509253805897 219.26015234712958 200.6877546285242 226.84639040595212 215.01702959477802 C 230.21765162929816 220.91712258118832 236.96068853672975 224.28864103490406 244.54692659555187 223.44595434425236 C 251.28996350298328 224.28864103490406 258.03300041041484 220.91712258118832 262.247462785152 215.01702959477802 C 270.6763875346261 200.6877546285242 254.66173918706883 173.71509253805897 251.28996350298328 168.65794347267015 C 249.6040756609407 166.1291117096061 247.07550112824657 165.28616778858478 244.54692659555187 165.28616778858478 Z M 249.6040756609407 208.27373545697702 C 248.761388970289 209.11667937799834 246.2328144375948 209.95962329901977 244.54692659555187 209.95962329901977 C 242.86103875350935 209.95962329901977 240.33246422081487 209.95962329901977 239.4897775301631 208.27373545697702 C 237.80388968812053 204.90221700326134 240.33246422081487 196.4732922537871 244.54692659555187 187.20142358329167 C 248.761388970289 196.4732922537871 251.28996350298328 204.90221700326134 249.6040756609407 208.27373545697702 Z" stroke="none" stroke-linejoin="miter" stroke-linecap="butt" fill="#F2C2CF" fill-rule="nonzero"/></g></svg></svg>