<svg id="draw.id" overflow="visible" v:ver="3" x="500.5" xmlns="http://www.w3.org/2000/svg" xmlns:v="http://vecta.io" xmlns:xlink="http://www.w3.org/1999/xlink" y="500.5" v:layers="{&quot;default&quot;:{&quot;name&quot;:&quot;Default&quot;,&quot;print&quot;:1,&quot;display&quot;:1,&quot;publish&quot;:1}}" v:stencils="{&quot;0&quot;:{&quot;id&quot;:&quot;stencil_25&quot;,&quot;expand&quot;:1,&quot;show_name&quot;:1},&quot;1&quot;:{&quot;id&quot;:&quot;stencil_65&quot;,&quot;expand&quot;:1,&quot;show_name&quot;:1}}"><style xmlns="http://www.w3.org/1999/xhtml"><![CDATA[#draw\.id{stroke:#000;stroke-linecap:round;stroke-linejoin:round;fill:#fff;fill-rule:evenodd;font-family:Roboto;font-size:14px;text-anchor:middle}#draw\.id text{paint-order:stroke;white-space:pre}#draw\.id .Text\.cls{stroke:none}]]></style><defs><style type="text/css">@import url('https://fonts.googleapis.com/css?family=Roboto+Condensed:400,400i,700,700i');@import url('https://fonts.googleapis.com/css?family=Roboto:400,400i,700,700i');@import url('https://fonts.googleapis.com/css?family=Cousine:400,400i,700,700i');@import url('https://fonts.googleapis.com/css?family=Anonymous+Pro:400,400i,700,700i');@import url('https://fonts.googleapis.com/css?family=Lato:400,400i,700,700i');@import url('https://fonts.googleapis.com/css?family=Open+Sans:400,400i,700,700i');</style></defs><title xmlns="http://www.w3.org/1999/xhtml">Untitled drawing</title><desc xmlns="http://www.w3.org/1999/xhtml"></desc><svg height="500" id="kwpfkecs3d" overflow="visible" v:setup="{&quot;paper&quot;:&quot;CUSTOM&quot;,&quot;unit&quot;:&quot;px&quot;,&quot;scale&quot;:{&quot;from&quot;:&quot;1&quot;,&quot;to&quot;:&quot;1&quot;},&quot;width&quot;:&quot;500px&quot;,&quot;height&quot;:&quot;500px&quot;,&quot;margin&quot;:{&quot;top&quot;:&quot;0&quot;,&quot;bottom&quot;:&quot;0&quot;,&quot;left&quot;:&quot;0&quot;,&quot;right&quot;:&quot;0&quot;}}" viewBox="0 0 500 500" width="500"><g id="kwphh6d56n6" transform="translate(10.598448579615052 5)" class=""><path d="M 388.4258684928434 34.56790774647425 C 383.4875959852294 34.56790774647425 378.5493234776157 38.51846549299556 378.5493234776157 44.44445281689543 C 378.5493234776157 50.37028943667744 382.49957979382566 54.32099788731665 388.4258684928434 54.32099788731665 L 398.30241350807114 54.32099788731665 C 403.2406860156849 54.32099788731665 408.1789585232988 50.37028943667744 408.1789585232988 44.44445281689543 C 408.1789585232988 38.51846549299556 404.22809939062057 34.56790774647425 398.30241350807114 34.56790774647425 L 388.4258684928434 34.56790774647425 M 19.042843796735664 174.81481760563196 C 18.05543042180017 164.9382725352108 20.030257171671156 157.03700633805008 25.95654587068878 151.111169718268 C 30.894818378302663 147.16046126762888 35.833090885916604 145.18518239436827 35.833090885916604 145.18518239436827 C 39.78334720212684 144.19746760567895 42.746792959869765 141.23462464784686 42.746792959869765 136.29635211263633 C 42.746792959869765 132.34564366199703 40.77136339353053 128.39508591547576 36.82050426085214 126.41980704221507 C 34.84507469451292 125.43209225352575 22.005686738010354 119.50610492962588 24.96852967928506 98.76545070421209 C 25.95654587068878 89.87646971836232 30.894818378302663 83.95063309858028 40.77136339353053 80.98763943663033 C 49.659892217354646 79.99992464794106 56.573594291307714 80.98763943663033 56.573594291307714 80.98763943663033 C 60.52445342398616 80.98763943663033 63.4872963652609 79.99992464794106 65.46272593160003 77.03708169010903 C 67.43815549793928 74.0740880281591 67.43815549793928 70.1233795775199 65.46272593160003 67.16053661968782 C 61.51186679892166 60.24683450709863 55.58618091637225 44.44445281689543 59.536437232582465 37.53090140842418 C 63.4872963652609 31.604914084524303 73.36384138048864 31.604914084524303 79.28952726303805 31.604914084524303 C 107.93174893378594 32.592628873213584 134.59854103819487 61.234549295787936 152.37620150231126 84.93819718315166 C 172.12929153276687 111.60498943658327 184.96867948926948 137.28391619720767 184.96867948926948 138.271630985897 C 185.95669568067314 141.23462464784686 188.91953862194777 143.20990352110752 190.89496818828692 143.20990352110752 C 267.93189874377015 160.9877147886893 312.3763513122954 224.1975429577379 312.3763513122954 224.1975429577379 C 314.3517808786346 227.1605366196879 319.29005338624853 229.1358154929484 323.2403097024587 228.1481007042593 C 327.19116883513703 227.1605366196879 330.1540117764117 223.2098281690485 330.1540117764117 219.25927042252732 C 329.1665984014763 149.1357401408896 343.9814159243179 95.80245704226222 355.83278768941665 64.19754295773788 C 371.6356214036622 25.678926760624417 381.5121664188902 18.76537535215314 399.2898268830067 18.76537535215314 C 416.08007397218734 18.76537535215314 429.9068753036253 30.61719929583502 433.8577344363038 45.43201690146684 C 433.8577344363038 45.43201690146684 433.8577344363038 45.43201690146684 433.8577344363038 45.43201690146684 C 433.8577344363038 45.43201690146684 432.87032106136843 45.43201690146684 432.87032106136843 45.43201690146684 C 432.87032106136843 45.43201690146684 432.87032106136843 45.43201690146684 432.87032106136843 45.43201690146684 C 431.8823048699646 45.43201690146684 431.8823048699646 45.43201690146684 430.894891495029 45.43201690146684 C 430.894891495029 45.43201690146684 430.894891495029 45.43201690146684 430.894891495029 45.43201690146684 C 430.894891495029 45.43201690146684 429.9068753036253 45.43201690146684 429.9068753036253 45.43201690146684 C 429.9068753036253 45.43201690146684 429.9068753036253 45.43201690146684 428.91946192868977 45.43201690146684 C 428.91946192868977 45.43201690146684 427.9320485537542 45.43201690146684 427.9320485537542 45.43201690146684 C 427.9320485537542 45.43201690146684 427.9320485537542 45.43201690146684 426.9440323623506 45.43201690146684 C 425.95661898741525 45.43201690146684 425.95661898741525 45.43201690146684 424.9686027960116 45.43201690146684 C 424.9686027960116 45.43201690146684 424.9686027960116 45.43201690146684 424.9686027960116 45.43201690146684 C 423.9811894210761 45.43201690146684 423.9811894210761 45.43201690146684 422.9937760461407 46.41973169015611 C 422.9937760461407 46.41973169015611 422.9937760461407 46.41973169015611 422.0057598547371 46.41973169015611 C 422.0057598547371 46.41973169015611 421.0183464798014 46.41973169015611 421.0183464798014 46.41973169015611 C 421.0183464798014 46.41973169015611 421.0183464798014 46.41973169015611 420.0303302883978 46.41973169015611 C 420.0303302883978 46.41973169015611 419.0429169134625 46.41973169015611 419.0429169134625 47.40744647884538 C 419.0429169134625 47.40744647884538 419.0429169134625 47.40744647884538 418.05550353852686 47.40744647884538 C 417.0674873471229 47.40744647884538 417.0674873471229 48.3950105634168 416.08007397218734 48.3950105634168 C 416.08007397218734 48.3950105634168 416.08007397218734 48.3950105634168 416.08007397218734 48.3950105634168 C 415.09205778078376 48.3950105634168 415.09205778078376 48.3950105634168 414.10464440584843 49.38272535210604 C 414.10464440584843 49.38272535210604 414.10464440584843 49.38272535210604 413.11723103091265 49.38272535210604 C 413.11723103091265 49.38272535210604 412.1292148395091 49.38272535210604 412.1292148395091 50.37028943667744 C 412.1292148395091 50.37028943667744 412.1292148395091 50.37028943667744 411.14180146457386 50.37028943667744 C 411.14180146457386 50.37028943667744 410.15378527317 51.35800422536672 410.15378527317 51.35800422536672 C 410.15378527317 51.35800422536672 410.15378527317 51.35800422536672 410.15378527317 51.35800422536672 C 409.1663718982346 51.35800422536672 409.1663718982346 52.34571901405602 408.1789585232988 52.34571901405602 C 408.1789585232988 52.34571901405602 408.1789585232988 52.34571901405602 408.1789585232988 52.34571901405602 C 408.1789585232988 52.34571901405602 407.1909423318951 53.33328309862738 407.1909423318951 53.33328309862738 C 407.1909423318951 53.33328309862738 407.1909423318951 53.33328309862738 407.1909423318951 53.33328309862738 C 407.1909423318951 53.33328309862738 406.20352895695976 54.32099788731665 406.20352895695976 54.32099788731665 C 406.20352895695976 54.32099788731665 406.20352895695976 54.32099788731665 406.20352895695976 54.32099788731665 C 406.20352895695976 59.25927042252726 405.21551276555607 59.25927042252726 405.21551276555607 60.24683450709863 C 405.21551276555607 61.234549295787936 404.22809939062057 61.234549295787936 404.22809939062057 62.22226408447719 C 404.22809939062057 62.22226408447719 404.22809939062057 62.22226408447719 404.22809939062057 62.22226408447719 C 404.22809939062057 63.209828169048606 403.2406860156849 63.209828169048606 403.2406860156849 64.19754295773788 C 403.2406860156849 64.19754295773788 403.2406860156849 64.19754295773788 403.2406860156849 64.19754295773788 C 403.2406860156849 64.19754295773788 402.2526698242814 65.18510704230924 402.2526698242814 66.17282183099852 C 402.2526698242814 66.17282183099852 402.2526698242814 66.17282183099852 402.2526698242814 66.17282183099852 C 402.2526698242814 67.16053661968782 402.2526698242814 67.16053661968782 401.26525644934594 68.14810070425916 C 401.26525644934594 68.14810070425916 401.26525644934594 68.14810070425916 401.26525644934594 68.14810070425916 C 401.26525644934594 69.1358154929485 401.26525644934594 69.1358154929485 401.26525644934594 70.1233795775199 C 401.26525644934594 70.1233795775199 401.26525644934594 70.1233795775199 401.26525644934594 70.1233795775199 C 401.26525644934594 71.11109436620917 401.26525644934594 71.11109436620917 401.26525644934594 72.09880915489843 C 401.26525644934594 72.09880915489843 401.26525644934594 72.09880915489843 401.26525644934594 72.09880915489843 C 401.26525644934594 73.0863732394698 401.26525644934594 73.0863732394698 401.26525644934594 74.0740880281591 C 401.26525644934594 74.0740880281591 401.26525644934594 74.0740880281591 401.26525644934594 74.0740880281591 C 401.26525644934594 75.06165211273048 401.26525644934594 75.06165211273048 401.26525644934594 76.04936690141975 C 401.26525644934594 76.04936690141975 401.26525644934594 76.04936690141975 401.26525644934594 76.04936690141975 C 394.3515543753926 85.92591197184096 376.57389391127634 118.51854084505452 388.4258684928434 151.111169718268 C 388.4258684928434 151.111169718268 388.4258684928434 151.111169718268 388.4258684928434 152.0987338028395 C 388.4258684928434 153.08644859152884 389.4132818677789 154.0740126761002 389.4132818677789 154.0740126761002 C 389.4132818677789 154.0740126761002 389.4132818677789 155.0617274647894 390.4006952427143 155.0617274647894 C 390.4006952427143 155.0617274647894 390.4006952427143 155.0617274647894 390.4006952427143 156.04944225347867 C 390.4006952427143 160.00000000000003 390.4006952427143 164.9382725352108 391.388711434118 169.87654507042123 C 393.364141000457 226.17282183099857 398.30241350807114 330.8642598591107 327.19116883513703 372.34571901405616 C 319.29005338624853 377.2839915492669 310.40092174595594 381.23454929578804 301.5117901056639 383.20997887316656 C 301.5117901056639 383.20997887316656 300.5243767307282 383.20997887316656 300.5243767307282 383.20997887316656 C 279.78387332533714 389.1358154929488 257.06733753713866 390.1235302816379 233.36399119047294 384.19754295773794 C 218.5491736676312 381.23454929578804 206.6971990860642 375.30871267600605 198.79608363717563 372.34571901405616 C 207.6846124609996 361.48145915494564 215.58633072635644 348.6420711266923 222.49942998384134 334.81481760563196 C 250.1542382796538 283.45681338026515 259.0427671034779 231.11109436620922 259.0427671034779 229.1358154929484 C 260.0307832948816 224.1975429577379 256.0799241622032 219.25927042252732 251.14165165458934 218.271555633838 C 246.20337914697544 217.2839915492666 241.26510663936162 221.23454929578804 240.27769326442592 226.17282183099857 C 240.27769326442592 227.1605366196879 231.38856162413376 277.5308260563654 204.72176951972503 326.9135514084714 C 189.90695199688318 355.5556225351634 172.12929153276687 377.2839915492669 151.38878812737576 392.0988091548984 C 126.69742558930618 409.8766204224803 99.04261729349363 417.77788661964087 67.43815549793928 415.8024570422622 C 64.47470974019636 415.8024570422622 61.51186679892166 414.8148929576908 60.52445342398616 414.8148929576908 C 62.49988299032539 411.8518992957411 65.46272593160003 407.9013415492196 67.43815549793928 403.9506330985802 C 80.27754345444174 386.1728218309986 102.99347642617207 355.5556225351634 101.01804685983286 311.11116971826823 C 101.01804685983286 306.17289718305767 96.079774352219 302.2221887324183 91.14150184460509 302.2221887324183 C 86.20322933699114 302.2221887324183 82.25297302078096 307.1604612676288 82.25297302078096 312.09873380283943 C 82.25297302078096 320.98771478868935 81.26495682937724 329.8765450704216 80.27754345444174 336.7900964788927 C 78.30211388810254 336.7900964788927 76.32668432176332 337.7778112675819 74.35125475542418 336.7900964788927 C 67.43815549793928 335.80253239432113 61.51186679892166 331.85182394368195 56.573594291307714 323.9507084506392 C 44.72161970974072 303.2099035211075 67.43815549793928 276.543261971794 67.43815549793928 276.543261971794 C 70.4009984392139 273.5802683098439 70.4009984392139 268.64199577463336 68.42556887287479 265.67900211268346 C 66.4501393065355 261.72844436616214 62.49988299032539 260.7407295774727 58.549023857646944 261.72844436616214 C 58.549023857646944 261.72844436616214 52.62333797509757 263.70372323942274 45.70963590114447 262.7160084507334 C 37.80852045225584 261.72844436616214 33.85766131957742 257.77773591552295 30.894818378302663 250.8641845070515 C 23.981116304349566 231.11109436620922 49.659892217354646 211.35800422536678 49.659892217354646 211.35800422536678 C 53.61075135003303 208.39501056341695 54.598164724968534 204.44445281689548 52.62333797509757 199.50618028168492 C 50.6479084087584 195.55562253516354 46.697049276079944 193.580192957785 41.75877676846604 193.580192957785 C 41.75877676846604 193.580192957785 31.88223175323818 195.55562253516354 25.95654587068878 190.61734999995303 C 22.993702929414052 187.65435633800303 20.030257171671156 182.7160838027924 19.042843796735664 174.81481760563196 L 19.042843796735664 174.81481760563196 Z M 416.08007397218734 158.0247211267394 C 414.10464440584843 159.01228521131077 410.15378527317 156.04944225347867 407.1909423318951 148.1481760563182 C 407.1909423318951 147.16046126762888 406.20352895695976 147.16046126762888 406.20352895695976 146.17289718305753 C 406.20352895695976 146.17289718305753 406.20352895695976 146.17289718305753 406.20352895695976 145.18518239436827 C 406.20352895695976 145.18518239436827 406.20352895695976 144.19746760567895 406.20352895695976 144.19746760567895 C 406.20352895695976 144.19746760567895 406.20352895695976 144.19746760567895 406.20352895695976 143.20990352110752 C 406.20352895695976 143.20990352110752 406.20352895695976 142.22218873241835 406.20352895695976 142.22218873241835 C 406.20352895695976 142.22218873241835 406.20352895695976 142.22218873241835 406.20352895695976 141.23462464784686 C 406.20352895695976 140.24690985915748 406.20352895695976 140.24690985915748 405.21551276555607 139.2591950704684 C 405.21551276555607 139.2591950704684 405.21551276555607 139.2591950704684 405.21551276555607 139.2591950704684 C 405.21551276555607 139.2591950704684 405.21551276555607 138.271630985897 405.21551276555607 138.271630985897 C 405.21551276555607 138.271630985897 405.21551276555607 138.271630985897 405.21551276555607 137.28391619720767 C 405.21551276555607 137.28391619720767 405.21551276555607 136.29635211263633 405.21551276555607 136.29635211263633 C 405.21551276555607 136.29635211263633 405.21551276555607 136.29635211263633 405.21551276555607 135.308637323947 C 405.21551276555607 135.308637323947 405.21551276555607 134.32092253525778 405.21551276555607 134.32092253525778 C 405.21551276555607 134.32092253525778 405.21551276555607 134.32092253525778 405.21551276555607 133.3333584506863 C 405.21551276555607 132.34564366199703 405.21551276555607 132.34564366199703 405.21551276555607 131.35807957742568 C 405.21551276555607 131.35807957742568 405.21551276555607 131.35807957742568 405.21551276555607 131.35807957742568 C 405.21551276555607 131.35807957742568 405.21551276555607 130.37036478873634 405.21551276555607 130.37036478873634 C 405.21551276555607 130.37036478873634 405.21551276555607 130.37036478873634 405.21551276555607 129.38265000004708 C 405.21551276555607 129.38265000004708 405.21551276555607 128.39508591547576 405.21551276555607 128.39508591547576 C 405.21551276555607 128.39508591547576 405.21551276555607 128.39508591547576 405.21551276555607 127.40737112678649 C 405.21551276555607 127.40737112678649 405.21551276555607 126.41980704221507 405.21551276555607 126.41980704221507 C 405.21551276555607 126.41980704221507 405.21551276555607 126.41980704221507 405.21551276555607 125.43209225352575 C 405.21551276555607 124.44437746483653 405.21551276555607 124.44437746483653 405.21551276555607 123.45681338026515 C 405.21551276555607 123.45681338026515 405.21551276555607 123.45681338026515 405.21551276555607 123.45681338026515 C 405.21551276555607 123.45681338026515 405.21551276555607 122.46909859157587 405.21551276555607 122.46909859157587 C 405.21551276555607 122.46909859157587 405.21551276555607 122.46909859157587 405.21551276555607 121.48153450700454 C 405.21551276555607 121.48153450700454 405.21551276555607 120.49381971831528 405.21551276555607 120.49381971831528 C 405.21551276555607 120.49381971831528 405.21551276555607 120.49381971831528 405.21551276555607 119.50610492962588 C 405.21551276555607 119.50610492962588 405.21551276555607 118.51854084505452 405.21551276555607 118.51854084505452 C 405.21551276555607 118.51854084505452 405.21551276555607 118.51854084505452 405.21551276555607 118.51854084505452 C 405.21551276555607 117.53082605636523 405.21551276555607 117.53082605636523 405.21551276555607 116.54326197179384 C 405.21551276555607 116.54326197179384 405.21551276555607 116.54326197179384 405.21551276555607 116.54326197179384 C 405.21551276555607 116.54326197179384 405.21551276555607 115.55554718310461 405.21551276555607 115.55554718310461 C 405.21551276555607 115.55554718310461 405.21551276555607 115.55554718310461 405.21551276555607 114.56783239441525 C 405.21551276555607 114.56783239441525 405.21551276555607 113.58026830984394 405.21551276555607 113.58026830984394 C 405.21551276555607 113.58026830984394 405.21551276555607 113.58026830984394 405.21551276555607 112.59255352115468 C 405.21551276555607 112.59255352115468 405.21551276555607 111.60498943658327 405.21551276555607 111.60498943658327 C 405.21551276555607 111.60498943658327 405.21551276555607 111.60498943658327 405.21551276555607 111.60498943658327 C 405.21551276555607 111.60498943658327 405.21551276555607 110.61727464789402 405.21551276555607 110.61727464789402 C 405.21551276555607 110.61727464789402 405.21551276555607 110.61727464789402 405.21551276555607 110.61727464789402 C 405.21551276555607 110.61727464789402 405.21551276555607 109.62955985920463 405.21551276555607 109.62955985920463 C 405.21551276555607 109.62955985920463 405.21551276555607 109.62955985920463 405.21551276555607 108.6419957746333 C 405.21551276555607 108.6419957746333 405.21551276555607 107.654280985944 405.21551276555607 107.654280985944 C 405.21551276555607 107.654280985944 405.21551276555607 107.654280985944 405.21551276555607 106.66671690137264 C 405.21551276555607 106.66671690137264 405.21551276555607 105.67900211268339 405.21551276555607 105.67900211268339 C 405.21551276555607 105.67900211268339 405.21551276555607 105.67900211268339 405.21551276555607 105.67900211268339 C 405.21551276555607 105.67900211268339 405.21551276555607 104.69128732399409 405.21551276555607 104.69128732399409 C 405.21551276555607 104.69128732399409 405.21551276555607 104.69128732399409 405.21551276555607 104.69128732399409 C 405.21551276555607 104.69128732399409 405.21551276555607 103.7037232394227 405.21551276555607 103.7037232394227 C 405.21551276555607 103.7037232394227 405.21551276555607 103.7037232394227 405.21551276555607 102.71600845073344 C 405.21551276555607 102.71600845073344 405.21551276555607 101.72844436616205 405.21551276555607 101.72844436616205 C 405.21551276555607 101.72844436616205 405.21551276555607 101.72844436616205 405.21551276555607 101.72844436616205 C 405.21551276555607 101.72844436616205 405.21551276555607 100.74072957747278 405.21551276555607 100.74072957747278 C 405.21551276555607 100.74072957747278 405.21551276555607 100.74072957747278 405.21551276555607 100.74072957747278 C 405.21551276555607 100.74072957747278 405.21551276555607 99.7530147887835 406.20352895695976 99.7530147887835 C 406.20352895695976 99.7530147887835 406.20352895695976 99.7530147887835 406.20352895695976 99.7530147887835 C 406.20352895695976 99.7530147887835 406.20352895695976 98.76545070421209 406.20352895695976 98.76545070421209 C 406.20352895695976 98.76545070421209 406.20352895695976 98.76545070421209 406.20352895695976 98.76545070421209 C 406.20352895695976 98.76545070421209 406.20352895695976 97.77773591552287 406.20352895695976 97.77773591552287 C 406.20352895695976 97.77773591552287 406.20352895695976 97.77773591552287 406.20352895695976 97.77773591552287 C 406.20352895695976 97.77773591552287 406.20352895695976 96.79017183095148 406.20352895695976 96.79017183095148 C 406.20352895695976 96.79017183095148 406.20352895695976 96.79017183095148 406.20352895695976 96.79017183095148 C 406.20352895695976 96.79017183095148 406.20352895695976 95.80245704226222 407.1909423318951 95.80245704226222 C 410.15378527317 98.76545070421209 413.11723103091265 100.74072957747278 416.08007397218734 101.72844436616205 C 429.9068753036253 136.29635211263633 421.0183464798014 156.04944225347867 416.08007397218734 158.0247211267394 L 416.08007397218734 158.0247211267394 Z M 456.57366740803394 91.85189929574086 C 448.6725519591453 91.85189929574086 439.7834203188534 89.87646971836232 431.8823048699646 87.90119084510164 C 430.894891495029 87.90119084510164 430.894891495029 86.91362676053028 429.9068753036253 86.91362676053028 C 429.9068753036253 86.91362676053028 429.9068753036253 86.91362676053028 429.9068753036253 86.91362676053028 C 429.9068753036253 86.91362676053028 428.91946192868977 86.91362676053028 428.91946192868977 86.91362676053028 C 424.9686027960116 84.93819718315166 422.9937760461407 83.95063309858028 421.0183464798014 81.97535422531965 C 421.0183464798014 81.97535422531965 421.0183464798014 81.97535422531965 421.0183464798014 81.97535422531965 C 421.0183464798014 81.97535422531965 421.0183464798014 81.97535422531965 421.0183464798014 80.98763943663033 C 421.0183464798014 80.98763943663033 421.0183464798014 80.98763943663033 421.0183464798014 80.98763943663033 C 421.0183464798014 80.98763943663033 421.0183464798014 80.98763943663033 421.0183464798014 80.98763943663033 C 421.0183464798014 80.98763943663033 421.0183464798014 80.98763943663033 421.0183464798014 80.98763943663033 C 421.0183464798014 80.98763943663033 421.0183464798014 80.98763943663033 421.0183464798014 80.98763943663033 C 421.0183464798014 80.98763943663033 421.0183464798014 80.98763943663033 421.0183464798014 79.99992464794106 C 421.0183464798014 79.99992464794106 421.0183464798014 79.99992464794106 421.0183464798014 79.99992464794106 C 421.0183464798014 79.99992464794106 421.0183464798014 79.99992464794106 421.0183464798014 79.99992464794106 C 421.0183464798014 79.0123605633697 421.0183464798014 79.0123605633697 420.0303302883978 78.02464577468038 C 420.0303302883978 78.02464577468038 420.0303302883978 78.02464577468038 420.0303302883978 78.02464577468038 C 420.0303302883978 77.03708169010903 420.0303302883978 77.03708169010903 420.0303302883978 77.03708169010903 C 420.0303302883978 76.04936690141975 420.0303302883978 75.06165211273048 421.0183464798014 75.06165211273048 C 421.0183464798014 75.06165211273048 421.0183464798014 75.06165211273048 421.0183464798014 75.06165211273048 C 421.0183464798014 75.06165211273048 421.0183464798014 75.06165211273048 422.0057598547371 74.0740880281591 C 422.0057598547371 74.0740880281591 422.0057598547371 74.0740880281591 422.0057598547371 74.0740880281591 C 422.0057598547371 74.0740880281591 422.0057598547371 74.0740880281591 422.9937760461407 73.0863732394698 C 422.9937760461407 73.0863732394698 422.9937760461407 73.0863732394698 422.9937760461407 73.0863732394698 C 422.9937760461407 73.0863732394698 422.9937760461407 73.0863732394698 423.9811894210761 72.09880915489843 C 423.9811894210761 72.09880915489843 423.9811894210761 72.09880915489843 423.9811894210761 72.09880915489843 C 423.9811894210761 72.09880915489843 424.9686027960116 72.09880915489843 424.9686027960116 71.11109436620917 C 424.9686027960116 71.11109436620917 424.9686027960116 71.11109436620917 424.9686027960116 71.11109436620917 C 424.9686027960116 71.11109436620917 425.95661898741525 71.11109436620917 425.95661898741525 70.1233795775199 C 425.95661898741525 70.1233795775199 425.95661898741525 70.1233795775199 425.95661898741525 70.1233795775199 C 425.95661898741525 70.1233795775199 426.9440323623506 70.1233795775199 426.9440323623506 70.1233795775199 C 426.9440323623506 70.1233795775199 426.9440323623506 70.1233795775199 426.9440323623506 70.1233795775199 C 426.9440323623506 70.1233795775199 427.9320485537542 70.1233795775199 427.9320485537542 70.1233795775199 C 427.9320485537542 70.1233795775199 427.9320485537542 70.1233795775199 427.9320485537542 70.1233795775199 C 427.9320485537542 70.1233795775199 428.91946192868977 70.1233795775199 428.91946192868977 70.1233795775199 C 428.91946192868977 70.1233795775199 428.91946192868977 70.1233795775199 428.91946192868977 70.1233795775199 C 428.91946192868977 70.1233795775199 429.9068753036253 70.1233795775199 429.9068753036253 70.1233795775199 C 429.9068753036253 70.1233795775199 429.9068753036253 70.1233795775199 429.9068753036253 70.1233795775199 C 429.9068753036253 70.1233795775199 430.894891495029 70.1233795775199 430.894891495029 70.1233795775199 C 430.894891495029 70.1233795775199 430.894891495029 70.1233795775199 430.894891495029 70.1233795775199 C 430.894891495029 70.1233795775199 431.8823048699646 70.1233795775199 431.8823048699646 70.1233795775199 C 431.8823048699646 70.1233795775199 431.8823048699646 70.1233795775199 431.8823048699646 70.1233795775199 C 431.8823048699646 70.1233795775199 432.87032106136843 70.1233795775199 432.87032106136843 70.1233795775199 C 432.87032106136843 70.1233795775199 432.87032106136843 70.1233795775199 432.87032106136843 70.1233795775199 C 432.87032106136843 70.1233795775199 433.8577344363038 70.1233795775199 433.8577344363038 70.1233795775199 C 433.8577344363038 70.1233795775199 433.8577344363038 70.1233795775199 433.8577344363038 70.1233795775199 C 433.8577344363038 70.1233795775199 434.8451478112393 70.1233795775199 434.8451478112393 70.1233795775199 C 434.8451478112393 70.1233795775199 434.8451478112393 70.1233795775199 434.8451478112393 70.1233795775199 C 434.8451478112393 70.1233795775199 435.833164002643 70.1233795775199 435.833164002643 70.1233795775199 C 435.833164002643 70.1233795775199 435.833164002643 70.1233795775199 435.833164002643 70.1233795775199 C 435.833164002643 70.1233795775199 436.82057737757833 70.1233795775199 436.82057737757833 70.1233795775199 C 436.82057737757833 70.1233795775199 436.82057737757833 70.1233795775199 436.82057737757833 70.1233795775199 L 456.57366740803394 91.85189929574086 Z M 0.2771671412155369 177.7778112675817 C 1.2651833326192465 190.61734999995303 7.19086921516865 200.49389507037418 15.091984664057271 206.4197316901562 C 18.05543042180017 208.39501056341695 20.030257171671156 209.38272535210615 22.993702929414052 210.37044014079535 C 14.104571289121768 221.23454929578804 6.203455840233151 238.02464577468044 12.129141722782567 256.7901718309515 C 18.05543042180017 272.59255352115485 29.906802186898975 278.5185408450546 41.75877676846604 280.49381971831497 C 34.84507469451292 294.3210732393758 28.919388811963476 314.0741633802181 39.78334720212684 333.8272535210605 C 49.659892217354646 349.6296352112639 62.49988299032539 355.5556225351634 74.35125475542418 355.5556225351634 C 68.42556887287479 370.3704401407953 59.536437232582465 383.20997887316656 52.62333797509757 392.0988091548984 C 43.73420633480521 403.9506330985802 37.80852045225584 412.83961408443 41.75877676846604 421.7284443661621 C 45.70963590114447 430.61727464789396 55.58618091637225 432.59270422527254 66.4501393065355 433.5802683098439 C 70.4009984392139 434.5679830985332 74.35125475542418 434.5679830985332 79.28952726303805 434.5679830985332 C 114.84545100773913 434.5679830985332 146.45051561976186 421.7284443661621 173.11670490770243 398.0247964787986 L 173.11670490770243 454.3210732393758 C 173.11670490770243 458.2716309858968 176.0801506654454 462.22233943653634 180.03040698165557 463.2099035211074 L 238.30226369808688 480 C 239.2896770730224 480 240.27769326442592 480 241.26510663936162 480 C 245.21596577203988 480 249.16622208825 477.03715704216813 250.1542382796538 473.08644859152884 C 251.14165165458934 468.148176056318 249.16622208825 463.2099035211074 244.22794958063616 461.2346246478469 L 191.88238156322245 446.4198070422151 L 191.88238156322245 390.1235302816379 C 200.77151320351473 394.0740880281593 212.6228849686136 399.01236056336984 226.45028911651974 401.9753542253195 C 239.2896770730224 404.93834788726986 251.14165165458934 406.9136267605306 263.9810396110917 406.9136267605306 C 273.8575846263196 406.9136267605306 282.74671626661194 405.925911971841 292.6232612818399 403.9506330985802 L 292.6232612818399 453.3333584506865 C 292.6232612818399 457.2840669013255 295.5861042231144 461.2346246478469 299.5369633557928 462.22233943653634 L 357.8082172557559 479.01243591542857 C 358.79623344715964 479.01243591542857 359.7836468220953 479.01243591542857 360.7710601970307 479.01243591542857 C 364.7219193297092 479.01243591542857 368.6727784623876 476.049442253479 369.6601918373233 472.0988845069573 C 370.64760521225844 467.1606119717465 368.6727784623876 462.22233943653634 363.73450595477374 460.24690985915765 L 311.38833512089167 445.43209225352564 L 311.38833512089167 398.0247964787986 C 319.29005338624853 395.06180281684834 327.19116883513703 391.11109436620916 335.0922842840254 387.16053661968806 C 370.64760521225844 366.4197316901563 393.364141000457 330.8642598591107 403.2406860156849 280.49381971831497 C 411.14180146457386 242.96291830989105 410.15378527317 203.45673802820616 408.1789585232988 174.81481760563196 C 410.15378527317 175.80253239432125 412.1292148395091 175.80253239432125 415.09205778078376 175.80253239432125 C 418.05550353852686 175.80253239432125 421.0183464798014 174.81481760563196 422.9937760461407 173.82710281694256 C 432.87032106136843 169.87654507042123 439.7834203188534 159.01228521131077 441.7588498851925 143.20990352110752 C 442.74686607659623 135.308637323947 443.73427945153185 122.46909859157587 439.7834203188534 106.66671690137264 C 448.6725519591453 107.654280985944 456.57366740803394 108.6419957746333 462.49995610705184 108.6419957746333 C 467.4382286146656 108.6419957746333 471.38848493087585 108.6419957746333 473.36391449721503 108.6419957746333 C 476.32675743848966 108.6419957746333 479.28960037976435 106.66671690137264 481.2650299461039 103.7037232394227 C 482.2530461375077 100.74072957747278 482.2530461375077 96.79017183095148 481.2650299461039 94.81474225357286 L 453.61082446675937 50.37028943667744 C 452.62341109182375 22.71608380279237 428.91946192868977 0 399.2898268830067 0 C 367.68476227098387 0 352.8699447481421 20.74065422541381 339.043143416704 57.283991549266574 C 327.19116883513703 86.91362676053028 314.3517808786346 133.3333584506863 312.3763513122954 193.580192957785 C 292.6232612818399 171.85182394368192 254.10449459586408 139.2591950704684 200.77151320351473 126.41980704221507 C 189.90695199688318 104.69128732399409 140.5242269207442 15.802381690203207 79.28952726303805 12.839538732371151 C 62.49988299032539 11.851823943681872 49.659892217354646 16.790096478892476 43.73420633480521 27.654356338002977 C 36.82050426085214 38.51846549299556 39.78334720212684 52.34571901405602 43.73420633480521 63.209828169048606 C 41.75877676846604 63.209828169048606 38.79593382719132 64.19754295773788 36.82050426085214 65.18510704230924 C 20.030257171671156 70.1233795775199 10.153712156443358 81.97535422531965 8.178885406572359 97.77773591552287 C 5.215439648829444 114.56783239441525 11.14172834784706 127.40737112678649 17.067414230396473 135.308637323947 C 7.19086921516865 143.20990352110752 -1.6976596086554547 156.04944225347867 0.2771671412155369 177.7778112675817 L 0.2771671412155369 177.7778112675817 Z" stroke="none" stroke-linejoin="miter" stroke-linecap="butt" fill="#F2C2CF" fill-rule="nonzero"/></g></svg></svg>