<svg id="draw.id" overflow="visible" v:ver="3" x="500.5" xmlns="http://www.w3.org/2000/svg" xmlns:v="http://vecta.io" xmlns:xlink="http://www.w3.org/1999/xlink" y="500.5" v:layers="{&quot;default&quot;:{&quot;name&quot;:&quot;Default&quot;,&quot;print&quot;:1,&quot;display&quot;:1,&quot;publish&quot;:1}}" v:stencils="{&quot;0&quot;:{&quot;id&quot;:&quot;stencil_25&quot;,&quot;expand&quot;:1,&quot;show_name&quot;:1},&quot;1&quot;:{&quot;id&quot;:&quot;stencil_65&quot;,&quot;expand&quot;:1,&quot;show_name&quot;:1}}"><style xmlns="http://www.w3.org/1999/xhtml"><![CDATA[#draw\.id{stroke:#000;stroke-linecap:round;stroke-linejoin:round;fill:#fff;fill-rule:evenodd;font-family:Roboto;font-size:14px;text-anchor:middle}#draw\.id text{paint-order:stroke;white-space:pre}#draw\.id .Text\.cls{stroke:none}]]></style><defs><style type="text/css">@import url('https://fonts.googleapis.com/css?family=Roboto+Condensed:400,400i,700,700i');@import url('https://fonts.googleapis.com/css?family=Roboto:400,400i,700,700i');@import url('https://fonts.googleapis.com/css?family=Cousine:400,400i,700,700i');@import url('https://fonts.googleapis.com/css?family=Anonymous+Pro:400,400i,700,700i');@import url('https://fonts.googleapis.com/css?family=Lato:400,400i,700,700i');@import url('https://fonts.googleapis.com/css?family=Open+Sans:400,400i,700,700i');</style></defs><title xmlns="http://www.w3.org/1999/xhtml">Untitled drawing</title><desc xmlns="http://www.w3.org/1999/xhtml"></desc><svg height="500" id="kwpfkecs3d" overflow="visible" v:setup="{&quot;paper&quot;:&quot;CUSTOM&quot;,&quot;unit&quot;:&quot;px&quot;,&quot;scale&quot;:{&quot;from&quot;:&quot;1&quot;,&quot;to&quot;:&quot;1&quot;},&quot;width&quot;:&quot;500px&quot;,&quot;height&quot;:&quot;500px&quot;,&quot;margin&quot;:{&quot;top&quot;:&quot;0&quot;,&quot;bottom&quot;:&quot;0&quot;,&quot;left&quot;:&quot;0&quot;,&quot;right&quot;:&quot;0&quot;}}" viewBox="0 0 500 500" width="500"><g id="kwphgg6y6mh" transform="translate(9.99995820239883 84.94999694824219)" class=""><path d="M 479.1657310041041 151.64461676853145 L 479.1657310041041 111.73813867154948 C 479.1657310041041 107.74749086185128 475.9730179004955 104.55502132805525 472.78079193651234 103.75684305215307 L 438.46083106140736 98.16996047555692 C 432.87431383953026 97.37178219965472 428.0852441841173 93.3811343899565 425.6909529262233 87.79425181336033 L 416.11330075502264 61.455951912370956 C 414.5169442032183 57.46530410267276 412.92107479103925 54.27283456887673 410.52629639352017 51.080243250174384 C 423.29666166832953 40.70465637288412 431.2779572877258 24.742065134091327 431.2779572877258 7.981295619396394 C 431.2779572877258 3.1924695337960363 428.0852441841173 0 423.29666166832953 0 L 127.98872375066279 0 C 70.52329786308364 0 24.231880698509645 46.29153894948034 24.231880698509645 103.75684305215307 L 24.231880698509645 195.5417426752116 L 3.480219804303886 209.1099208712042 C 0.2879938403204533 210.70615563810216 -0.5104280053943101 214.6968034478004 0.2879938403204533 217.8893947665028 L 24.231880698509645 313.6649421992594 C 25.02981540459919 316.8574117330555 28.222528508207834 320.0500030517578 32.21317631790602 320.0500030517578 L 72.11965441488792 320.0500030517578 C 72.11965441488792 320.0500030517578 72.91758912097751 320.0500030517578 72.91758912097751 320.0500030517578 C 76.90823693067573 319.25182477585565 80.10095003428434 315.2611769661575 80.10095003428434 311.27052915645936 L 72.91758912097751 254.60328154478242 L 100.85212378886484 249.8145772440883 C 108.83341940826124 248.21834247719033 116.81471502765771 245.02575115848805 124.79601064705403 241.03510334878973 C 159.91390622824835 250.61263373508424 196.6276712216217 255.4014598206846 234.13985806070986 255.4014598206846 C 256.48738836709475 255.4014598206846 278.83491867347954 253.8052250537865 301.1829361194897 249.8145772440883 C 301.98087082557925 253.00704677788434 303.57722737738356 255.4014598206846 305.1735839291879 258.5939293544805 L 337.0987664067734 316.05935524205967 C 338.69463581895263 318.4536464999535 341.08941421647165 320.0500030517578 344.2816401804552 320.0500030517578 L 376.2068226580407 320.0500030517578 C 377.0052445037554 320.0500030517578 377.0052445037554 320.0500030517578 377.80317920984515 320.0500030517578 C 381.7938270195433 319.25182477585565 384.98654012315177 315.2611769661575 384.18811827743707 310.47235088055714 L 369.023948884359 225.87069038589917 L 476.7714397462102 158.8277341120257 C 477.5693744523 157.23149934512765 479.1657310041041 154.03902981133166 479.1657310041041 151.64461676853145 Z M 463.20313976531133 146.85579068293106 L 367.4275923325548 206.71550782840401 L 367.4275923325548 175.58850362672067 L 351.46500109376194 175.58850362672067 L 351.46500109376194 223.47627734309896 C 351.46500109376194 224.27445561900115 351.46500109376194 224.27445561900115 351.46500109376194 225.07251210999695 L 365.83123578075043 303.2892335370629 L 348.2722879901534 303.2892335370629 L 318.7413967704616 249.8145772440883 C 313.95281425467374 241.83328162469192 311.5585229967799 232.25575123839752 311.5585229967799 222.67809906719685 L 311.5585229967799 175.58850362672067 L 295.5959317579872 175.58850362672067 L 295.5959317579872 222.67809906719685 C 295.5959317579872 226.66874687689503 295.5959317579872 229.86133819559728 296.3938664640767 233.85198600529557 C 244.515444938 242.63133811568787 191.04066686011916 240.23704685779398 139.9606671797573 227.46692515279716 C 152.73054531494145 213.89874695680462 159.91390622824835 196.33992095111384 159.91390622824835 177.98291666952076 L 159.91390622824835 175.58850362672067 L 143.9513149894555 175.58850362672067 L 143.9513149894555 177.98291666952076 C 143.9513149894555 205.1192730615059 124.79601064705403 228.26510342869932 98.45783253097095 233.05380772939338 L 62.542002243687236 239.4388685818918 C 58.551354433989076 240.23704685779398 55.35864133038045 244.2276946674921 56.15706317609523 248.21834247719033 L 63.33993694977682 303.2892335370629 L 38.59811538549809 303.2892335370629 L 17.846941630917573 218.68745125749865 L 37.00175883369376 205.91745133740818 C 39.39605009158766 204.32121657051016 40.19447193730241 201.92680352770995 40.19447193730241 199.53239048490983 L 40.19447193730241 140.47085161533903 C 44.18511974700061 142.06708638223702 48.175767556698794 142.8651428732329 52.166415366397004 143.66332114913504 C 67.33058475947496 143.66332114913504 80.10095003428434 130.8931994441383 80.10095003428434 115.72878648124772 C 80.10095003428434 109.34372562874933 85.68795439578682 103.75684305215307 92.0728934633789 103.75684305215307 L 104.04483689247348 103.75684305215307 L 104.04483689247348 87.79425181336033 L 92.0728934633789 87.79425181336033 C 76.90823693067573 87.79425181336033 64.13835879549157 100.56437351835707 64.13835879549157 115.72878648124772 L 64.13835879549157 115.72878648124772 C 64.13835879549157 122.11384733374605 58.551354433989076 127.7007299103423 52.166415366397004 127.7007299103423 C 45.78147629880492 127.7007299103423 40.19447193730241 122.11384733374605 40.19447193730241 115.72878648124772 L 40.19447193730241 103.75684305215307 C 40.19447193730241 55.070891059872594 79.30252818856957 15.962591238792788 127.98872375066279 15.962591238792788 L 321.9341098740702 15.962591238792788 C 323.5304664258746 15.962591238792788 325.1268229776789 15.962591238792788 327.52111423557267 15.962591238792788 L 327.52111423557267 15.962591238792788 L 415.31536604893313 15.962591238792788 C 412.92107479103925 27.93453466788737 404.93977917164284 38.31024333008395 393.76577044863785 43.09894763077799 L 390.57305734502916 44.695304182582326 C 380.19747046773887 49.48400848327638 368.22552703864443 48.6859519922805 357.849940161354 42.30089113978214 L 349.0707098358682 35.11765201138161 L 338.69463581895263 47.887773716378355 L 347.47435328406374 55.86906933577474 C 347.47435328406374 55.86906933577474 348.2722879901534 55.86906933577474 348.2722879901534 56.667247611676906 C 362.63852267714185 65.44659972206915 380.19747046773887 67.04283448896717 396.1600617065318 59.85971714547295 L 396.95848355224643 59.06153886957077 C 398.55435296442556 61.455951912370956 400.1507095162299 64.64854323107329 401.7470660680342 67.84101276486935 L 411.3247182392349 93.3811343899565 C 415.31536604893313 104.55502132805525 424.89301822013385 111.73813867154948 436.06653980351365 114.13255171434966 L 463.20313976531133 118.92125601504374 L 463.20313976531133 146.85579068293106 Z" stroke="none" stroke-linejoin="miter" stroke-linecap="butt" fill="#F2C2CF" fill-rule="nonzero"/></g></svg></svg>