<svg id="draw.id" overflow="visible" v:ver="3" x="500.5" xmlns="http://www.w3.org/2000/svg" xmlns:v="http://vecta.io" xmlns:xlink="http://www.w3.org/1999/xlink" y="500.5" v:layers="{&quot;default&quot;:{&quot;name&quot;:&quot;Default&quot;,&quot;print&quot;:1,&quot;display&quot;:1,&quot;publish&quot;:1}}" v:stencils="{&quot;0&quot;:{&quot;id&quot;:&quot;stencil_25&quot;,&quot;expand&quot;:1,&quot;show_name&quot;:1},&quot;1&quot;:{&quot;id&quot;:&quot;stencil_65&quot;,&quot;expand&quot;:1,&quot;show_name&quot;:1}}"><style xmlns="http://www.w3.org/1999/xhtml"><![CDATA[#draw\.id{stroke:#000;stroke-linecap:round;stroke-linejoin:round;fill:#fff;fill-rule:evenodd;font-family:Roboto;font-size:14px;text-anchor:middle}#draw\.id text{paint-order:stroke;white-space:pre}#draw\.id .Text\.cls{stroke:none}]]></style><defs><style type="text/css">@import url('https://fonts.googleapis.com/css?family=Roboto+Condensed:400,400i,700,700i');@import url('https://fonts.googleapis.com/css?family=Roboto:400,400i,700,700i');@import url('https://fonts.googleapis.com/css?family=Cousine:400,400i,700,700i');@import url('https://fonts.googleapis.com/css?family=Anonymous+Pro:400,400i,700,700i');@import url('https://fonts.googleapis.com/css?family=Lato:400,400i,700,700i');@import url('https://fonts.googleapis.com/css?family=Open+Sans:400,400i,700,700i');</style></defs><title xmlns="http://www.w3.org/1999/xhtml">Untitled drawing</title><desc xmlns="http://www.w3.org/1999/xhtml"></desc><svg height="500" id="kwpfkecs3d" overflow="visible" v:setup="{&quot;paper&quot;:&quot;CUSTOM&quot;,&quot;unit&quot;:&quot;px&quot;,&quot;scale&quot;:{&quot;from&quot;:&quot;1&quot;,&quot;to&quot;:&quot;1&quot;},&quot;width&quot;:&quot;500px&quot;,&quot;height&quot;:&quot;500px&quot;,&quot;margin&quot;:{&quot;top&quot;:&quot;0&quot;,&quot;bottom&quot;:&quot;0&quot;,&quot;left&quot;:&quot;0&quot;,&quot;right&quot;:&quot;0&quot;}}" viewBox="0 0 500 500" width="500"><g id="kwphbxcm6d6" class="Group.cls" transform="translate(-0.00003123974919105876 148.39999771118164)" v:abox="{&quot;x&quot;:-0.00003123974919105876,&quot;y&quot;:148.39999771118164,&quot;width&quot;:502.4974471019748,&quot;height&quot;:236.60000228881836}" fill="#F2C2CF"><g class="Prim.cls"><g id="kwphbxc06d2" transform="translate(-5.063686437573069e-14 0)" class=""><path d="M 25.021604703183183 193.84097162623996 C 24.309128179081387 193.1283319893808 22.88374016352485 193.1283319893808 22.171263639423056 193.1283319893808 L 22.171263639423056 193.1283319893808 L 22.171263639423056 193.1283319893808 C 12.19398249788028 189.56507943416597 4.3550008633487565 188.85238542638766 1.5042248322356948 193.84097162623996 C 0.7917483081338945 194.55361126309919 0.07883681667916356 195.97889053681746 0.07883681667916356 197.40422418145482 L 0.07883681667916356 197.40422418145482 C -0.6336397074226362 203.10539564724715 3.6420893718940253 206.66864820246204 6.492865403007089 208.8066214839586 L 6.492865403007089 208.8066214839586 L 7.205341927108885 208.8066214839586 C 7.918253418563619 208.8066214839586 7.918253418563619 209.51926112081767 7.918253418563619 209.51926112081767 L 7.918253418563619 209.51926112081767 C 13.619370513436815 212.36987403917342 19.320487608309993 213.79515331289173 25.021604703183183 213.79515331289173 C 30.722721798056376 213.79515331289173 36.4242738602825 212.36987403917342 42.12539095515571 209.51926112081767 C 76.33252849174784 193.1283319893808 98.42452034713881 128.277091987735 107.6893249645798 94.78253971708298 C 113.39044205945298 115.449415411513 118.37908263022437 148.94396768216504 99.13743183859356 164.62231154766195 L 96.2866558074805 166.76023045823936 L 105.5510254575685 236.60000228881836 L 166.83923038767594 236.60000228881836 L 167.55170691177767 230.898830823026 C 167.55170691177767 229.47349717838858 168.26461840323236 216.64576623124748 160.42520180134795 208.09398184709937 C 154.72408470647477 202.39275601038804 146.88510307194332 199.54214309203223 136.1953454062987 200.96747673666965 C 134.76995739074215 194.55361126309919 133.3445693751856 183.15121396059533 144.03432704083016 176.0247088501657 C 149.73544413570343 172.46145629495078 154.01160818237298 168.89820373973592 158.2873372616897 165.33495118452097 C 171.11495946699247 199.54214309203223 177.52898805332046 213.08251367603256 178.24146457742228 213.79515331289173 L 179.66685259297876 217.35840586810656 L 245.94326312650466 217.35840586810656 L 245.94326312650466 211.65723440231423 C 245.94326312650466 198.116863818314 241.66753404718813 188.85238542638766 233.82811744530363 183.86385359745447 C 223.85127127111375 177.44998812388394 210.31073757435612 180.30060104223966 202.4717559398246 183.15121396059533 C 198.9085033846096 171.0361226503133 203.18423246392635 164.62231154766195 203.89714395538115 163.90961753988367 C 205.32209700358473 162.4843382661654 211.73612558991263 155.3578331557356 215.29937814512746 145.38071512695018 C 228.83991184188514 149.65660731902418 245.94326312650466 153.21985987423903 264.4724373940339 153.21985987423903 C 285.1390412338683 153.21985987423903 305.8060800410557 148.94396768216504 325.7602073567883 140.39218329801702 C 325.0477308326865 162.4843382661654 327.89807189644665 213.08251367603256 360.68025638483516 235.17466864418088 L 362.1052094330389 236.60000228881836 L 416.9793857768182 236.60000228881836 L 416.26690925271635 230.18613681524766 C 415.5539977612618 220.2090187864623 409.14040414228674 200.96747673666965 389.89875335065574 200.96747673666965 C 387.0479773195427 200.96747673666965 384.1976362557826 200.96747673666965 381.3468602246694 202.39275601038804 C 378.4965191609094 192.41563798160263 376.35821965389823 177.44998812388394 381.3468602246694 172.46145629495078 C 382.7722482402261 171.0361226503133 384.1976362557826 169.61084337659506 385.6230242713391 167.4728700950985 C 404.1517635715153 213.79515331289173 424.10589088724805 218.78373951274403 426.9566669183611 219.49637914960311 L 481.8308432621402 219.49637914960311 L 481.8308432621402 213.79515331289173 C 481.8308432621402 199.54214309203223 478.2675907069257 189.56507943416597 469.7156975809394 185.28913287117285 C 459.73841643939653 179.5879614053805 448.3361822496503 183.86385359745447 441.9221536633224 186.71446651581024 C 431.9453074891325 176.0247088501657 427.669143442463 137.5415703796613 428.3820549339177 109.03554993794242 C 439.784289123664 109.74818957480156 457.60055189973826 111.88616285629811 468.29030956538276 120.43794724044615 L 470.4281741050412 121.86328088508355 L 472.5660386446993 121.86328088508355 C 481.8308432621402 121.15058687730524 498.93419454676 114.73677577465384 502.49744710197484 94.06990008022379 L 502.49744710197484 92.64456643558643 L 483.9687078017989 49.172896136148935 L 483.255796310344 48.46025649928977 C 482.54331978624214 47.74761686243062 467.5778330412808 32.78196700471202 451.1865233134104 28.506020441718885 L 446.9107942340939 0 L 441.2096771392205 1.4253336446374145 C 440.49676564776587 1.4253336446374145 421.96802634758967 5.701225836711425 410.5657921578433 22.804848975926582 C 404.8642400956171 24.230128249644885 389.186276826554 27.080741168000596 372.08249057458147 27.080741168000596 C 360.68025638483516 27.080741168000596 351.415451767394 25.65546189428229 342.8639936087608 23.517488612785733 C 335.737488498331 21.379515331289163 330.035936436105 20.66687569443002 324.3348193412317 20.66687569443002 C 320.05909026191506 20.66687569443002 315.7829262152454 21.379515331289163 310.794720611827 22.09220933906743 C 304.38069202549906 22.804848975926582 297.2541869150693 23.517488612785733 286.56442924942485 23.517488612785733 C 269.4606429974524 23.517488612785733 248.79403915761776 20.66687569443002 223.138359779659 15.678343865496856 C 213.16151360546917 13.540370584000298 203.18423246392635 12.827730947141145 193.91986281383834 12.827730947141145 C 123.36728823364291 12.827730947141145 101.98777290235368 71.97774511207548 101.98777290235368 72.69038474893466 L 101.27529637825187 74.82830365951209 L 101.27529637825187 74.82830365951209 C 99.13743183859356 84.80542168829753 86.30980963329066 135.4035970981647 65.64277082610323 169.61084337659506 C 48.5389845741307 195.97889053681746 31.43563328951112 195.26625089995827 25.021604703183183 193.84097162623996 Z M 195.34525082939481 155.3578331557356 L 195.34525082939481 155.3578331557356 C 194.6323393379401 156.07047279259479 183.2301051481937 169.61084337659506 193.91986281383834 193.1283319893808 L 196.77063884495135 198.82950345517312 L 202.4717559398246 195.97889053681746 C 206.74748501914124 193.84097162623996 220.2880187158989 188.85238542638766 228.12700035043028 193.1283319893808 C 231.69025290564534 195.26625089995827 233.82811744530363 199.54214309203223 234.54102893675835 204.5307292918846 L 188.2187457189651 204.5307292918846 C 185.3679696878521 199.54214309203223 178.95437606887694 182.43857432373622 168.9770949273342 153.9325538820173 C 173.96573549810557 146.80604877158757 178.24146457742228 138.96684965337968 181.80471713263722 128.277091987735 C 186.7933577034086 131.8403445429499 195.34525082939481 136.11629110594302 205.32209700358473 140.39218329801702 C 201.04636792426805 149.65660731902418 195.34525082939481 155.3578331557356 195.34525082939481 155.3578331557356 Z M 439.07181259956224 196.69158454459574 L 441.9221536633224 198.116863818314 L 444.77292969443545 195.97889053681746 C 447.62327075819564 193.84097162623996 458.3130284238399 188.85238542638766 464.01458048606577 192.41563798160263 C 467.5778330412808 194.55361126309919 469.0027860894846 199.54214309203223 469.7156975809394 204.5307292918846 L 429.0945314580195 204.5307292918846 C 426.9566669183611 204.5307292918846 409.8528806663886 196.69158454459574 394.1744824299725 153.21985987423903 C 402.7263755559589 141.1048229348762 411.2782686819451 125.42653344029847 416.26690925271635 112.59880249315728 C 416.9793857768182 138.25421001652043 419.83016180793146 186.00182687895102 439.07181259956224 196.69158454459574 Z M 161.1381132928026 29.21871444949716 C 156.86194924613315 39.90847211514174 151.8733086753617 56.29940124657864 155.43656123057664 74.82830365951209 L 166.83923038767594 72.69038474893466 C 162.56306634100625 50.59822978078633 172.54034748254907 32.06927299693375 176.1036000377639 25.65546189428229 C 181.09224060853535 24.94276788650403 186.7933577034086 24.230128249644885 193.20738628973655 24.230128249644885 C 196.77063884495135 24.230128249644885 199.6209799087115 24.230128249644885 203.18423246392635 24.94276788650403 C 198.195591893155 34.207246278430304 189.64413373452163 55.586761609719495 196.05772735349666 86.23075533293495 L 207.46039651059584 84.09278205143839 C 199.6209799087115 47.74761686243062 214.58690162102562 27.793380804859748 215.29937814512746 27.080741168000596 L 214.58690162102562 26.36810153114145 C 216.01185466922936 26.36810153114145 217.43724268478576 27.080741168000596 218.86263070034244 27.080741168000596 C 227.41452382632866 28.506020441718885 235.25350546086023 29.931354086356293 242.38001057129 31.356633360074618 C 237.39137000051846 42.046391025719196 231.69025290564534 61.287987446430904 237.39137000051846 89.08131388037155 L 248.79403915761776 86.94339496979408 C 243.0929220627446 58.437374528075196 250.9319036972762 40.62111175200091 254.49515625249097 33.49460664157118 C 264.4724373940339 34.91988591528946 273.0238955526672 35.632525552148614 281.57578867865345 35.632525552148614 C 276.587148107882 46.32228321779321 271.5989425044635 65.56387963850494 276.587148107882 92.64456643558643 L 287.9898172649812 90.50664752500897 C 281.57578867865345 59.862653801793506 290.8401583287415 41.33375138886004 294.4034108839563 35.632525552148614 C 300.10496294618247 34.91988591528946 305.09316854960093 34.91988591528946 309.3693325962705 34.207246278430304 C 313.64506167558716 33.49460664157118 317.92122572225685 33.49460664157118 321.48447827747174 33.49460664157118 C 316.4958377067003 44.18436430721575 311.5071971359288 63.425906357008394 316.4958377067003 90.50664752500897 L 327.89807189644665 88.36867424351242 C 322.1969548015734 61.287987446430904 329.3234599120032 43.4717246703566 332.886712467218 35.632525552148614 C 333.59918899131975 35.632525552148614 334.31210048277455 36.345219559926875 335.737488498331 36.345219559926875 C 342.8639936087608 38.48313847050432 350.7029752432923 39.90847211514174 359.9673448933803 40.62111175200091 C 357.1170038296202 49.172896136148935 354.2662277985072 64.8512400016458 357.1170038296202 81.2421691330827 L 368.51923801936647 79.10425022250526 C 365.6684619882536 63.425906357008394 369.94462603492315 47.74761686243062 372.08249057458147 41.33375138886004 C 393.46200590587074 40.62111175200091 411.2782686819451 36.345219559926875 411.990745206047 36.345219559926875 L 414.1290447130582 35.632525552148614 L 415.5539977612618 33.49460664157118 C 420.5426383320333 24.94276788650403 428.3820549339177 19.95423605757087 433.37026053733615 17.816262776074307 L 436.933513092551 39.19577810736348 L 441.2096771392205 39.90847211514174 C 453.32482282042173 41.33375138886004 466.15244502572455 52.73614869136379 469.7156975809394 56.29940124657864 L 486.106572341457 94.78253971708298 C 483.255796310344 106.18493701958671 473.9914266602559 109.74818957480156 469.7156975809394 110.46082921166072 C 454.03729934452355 99.058431909157 430.519919473576 97.63315263543868 417.6922972682732 97.63315263543868 C 412.70365669750163 97.63315263543868 409.14040414228674 97.63315263543868 409.14040414228674 97.63315263543868 L 404.1517635715153 98.34579227229787 L 404.1517635715153 103.33432410123102 C 403.4392870474135 118.30002832986868 380.63438370056775 154.6451935188765 369.94462603492315 166.04759082138023 C 356.4040923381655 179.5879614053805 367.8067614952648 210.94459476545515 369.23171454346834 214.50784732066998 L 371.3700140504796 220.2090187864623 L 377.07113114535275 218.07109987588484 C 380.63438370056775 216.64576623124748 384.1976362557826 215.93312659438828 387.7608888109975 215.93312659438828 C 395.599870445529 215.93312659438828 399.16312300074384 222.34699206795887 401.3009875404024 228.04816353375108 L 363.5305974485953 228.04816353375108 C 329.3234599120032 202.39275601038804 335.737488498331 135.4035970981647 335.737488498331 134.69095746130563 L 337.16244154653464 124.00119979566101 L 327.1855953723448 128.98978599551333 C 306.5185565651574 139.67954366115785 284.42656470976647 145.38071512695018 261.62166136292075 145.38071512695018 C 213.16151360546917 145.38071512695018 178.24146457742228 119.72530760358701 178.24146457742228 119.01266796672783 L 171.11495946699247 114.02408176687554 L 168.9770949273342 122.57592052194273 C 161.1381132928026 148.23132804530587 154.01160818237298 158.92108571095045 135.48243391484394 171.0361226503133 C 116.24078312321312 183.15121396059533 119.80403567842794 205.2433689287437 124.7926762491994 215.22048695752912 L 126.93054078885768 219.49637914960311 L 131.9191813596291 218.07109987588484 C 140.4710744856154 215.93312659438828 146.17219158048852 216.64576623124748 149.73544413570343 220.2090187864623 C 151.8733086753617 222.34699206795887 152.58622016681647 224.48491097853633 153.29869669091823 228.04816353375108 L 114.10291858355473 228.04816353375108 L 106.97641347312505 175.31206921330642 C 136.90782193040047 148.23132804530587 116.24078312321312 89.79400788814978 111.25257751979461 77.6789165778678 C 116.95369461466784 66.27651927536405 129.78131681997078 40.62111175200091 161.1381132928026 29.21871444949716 Z" stroke="none" stroke-linejoin="miter" stroke-linecap="butt" fill="#F2C2CF" fill-rule="nonzero" fill-opacity="1"/></g><g id="kwphbxc76d3" transform="translate(458.3130284238399 55.586761609719495)" class=""><path d="M 0 0 L 0 10.68975766564458 L 10.689757665644581 12.11503693936288 Z" stroke="none" stroke-linejoin="miter" stroke-linecap="butt" fill="#F2C2CF" fill-rule="nonzero" fill-opacity="1"/></g></g></g></svg></svg>