<svg id="draw.id" overflow="visible" v:ver="3" x="500.5" xmlns="http://www.w3.org/2000/svg" xmlns:v="http://vecta.io" xmlns:xlink="http://www.w3.org/1999/xlink" y="500.5" v:layers="{&quot;default&quot;:{&quot;name&quot;:&quot;Default&quot;,&quot;print&quot;:1,&quot;display&quot;:1,&quot;publish&quot;:1}}" v:stencils="{&quot;0&quot;:{&quot;id&quot;:&quot;stencil_25&quot;,&quot;expand&quot;:1,&quot;show_name&quot;:1},&quot;1&quot;:{&quot;id&quot;:&quot;stencil_65&quot;,&quot;expand&quot;:1,&quot;show_name&quot;:1}}"><style xmlns="http://www.w3.org/1999/xhtml"><![CDATA[#draw\.id{stroke:#000;stroke-linecap:round;stroke-linejoin:round;fill:#fff;fill-rule:evenodd;font-family:Roboto;font-size:14px;text-anchor:middle}#draw\.id text{paint-order:stroke;white-space:pre}#draw\.id .Text\.cls{stroke:none}]]></style><defs><style type="text/css">@import url('https://fonts.googleapis.com/css?family=Roboto+Condensed:400,400i,700,700i');@import url('https://fonts.googleapis.com/css?family=Roboto:400,400i,700,700i');@import url('https://fonts.googleapis.com/css?family=Cousine:400,400i,700,700i');@import url('https://fonts.googleapis.com/css?family=Anonymous+Pro:400,400i,700,700i');@import url('https://fonts.googleapis.com/css?family=Lato:400,400i,700,700i');@import url('https://fonts.googleapis.com/css?family=Open+Sans:400,400i,700,700i');</style></defs><title xmlns="http://www.w3.org/1999/xhtml">Untitled drawing</title><desc xmlns="http://www.w3.org/1999/xhtml"></desc><svg height="500" id="kwpfkecs3d" overflow="visible" v:setup="{&quot;paper&quot;:&quot;CUSTOM&quot;,&quot;unit&quot;:&quot;px&quot;,&quot;scale&quot;:{&quot;from&quot;:&quot;1&quot;,&quot;to&quot;:&quot;1&quot;},&quot;width&quot;:&quot;500px&quot;,&quot;height&quot;:&quot;500px&quot;,&quot;margin&quot;:{&quot;top&quot;:&quot;0&quot;,&quot;bottom&quot;:&quot;0&quot;,&quot;left&quot;:&quot;0&quot;,&quot;right&quot;:&quot;0&quot;}}" viewBox="0 0 500 500" width="500"><g id="kwphaut86bf" transform="translate(5.000017708342568 49.974577063797966)" class=""><path d="M 467.9658309793707 19.715758065983152 C 470.7821071990015 19.01158156882686 472.19046019331404 19.715758065983152 474.30277480028565 21.82812639407915 C 489.08983658707643 47.176922379101185 484.8647776041385 71.11747281205918 463.0368103837736 93.64977769295317 L 463.7407719964328 94.35390046898517 C 465.1491249907453 97.17044529423744 470.07814558634226 109.84481642618634 478.5278337832233 131.6729448099242 C 482.75246299716673 142.23494761377717 487.6814835927637 152.09282764159803 494.01842741367903 160.54246211735486 C 495.4267804079913 163.35895322148295 495.4267804079913 165.47137527070322 493.31446580101976 167.58379731992352 L 482.75246299716673 178.84992289980838 C 475.7111277945982 186.595380878409 470.07814558634226 190.1160484796931 465.8530866034045 190.1160484796931 C 463.7407719964328 190.1160484796931 455.995475181205 186.595380878409 441.91280477606784 180.2581684518723 C 429.2384873652433 174.62513252249198 422.1971521626748 171.80858769723972 419.38044617404927 171.80858769723972 C 413.74746396579366 171.80858769723972 408.1144817575374 176.0333780745561 402.4810697802871 185.1871353263449 L 385.58212315551884 220.39381133918792 C 382.76541716689405 226.73097004460013 378.5407879529507 233.06818247113662 374.3157289700128 239.40539489767332 C 374.3157289700128 248.5591521494622 375.7240819643255 259.82527772934725 377.8363965712969 273.9079481344842 L 382.76541716689405 304.1856572728547 C 383.46980854854746 307.70632487413894 386.286084768178 312.6352917486117 392.6234583580877 318.9725041751482 L 408.8184433701964 335.16759662950574 C 410.9307579771682 337.2799112364773 410.9307579771682 338.68826423079 410.22679636450925 341.50475533491795 C 409.5224049828558 343.61717738413813 407.41009037588395 345.0254229362022 405.2977757689125 345.0254229362022 L 377.1324349586378 345.0254229362022 C 375.7240819643255 345.0254229362022 374.3157289700128 344.321246439046 373.6117673573537 343.61717738413813 C 363.04976455350084 334.4634201323495 356.0084293509322 323.19724083134014 351.783800136989 309.8187469233594 L 351.783800136989 309.11462414732733 C 349.671055761023 295.7360765182221 346.1503881597386 282.3575288891169 342.62972055845427 268.97898126001166 C 333.47607074891397 273.20382535845226 323.6184593267146 275.31619368654833 312.3520651412083 275.31619368654833 C 307.42304454561145 275.31619368654833 302.494453719009 274.61207091051614 296.8610417417586 273.20382535845226 C 296.15708012909937 274.61207091051614 296.15708012909937 276.7244929597365 296.15708012909937 279.54098406386447 C 296.15708012909937 294.32783096615805 303.9023769443272 313.3394145246436 318.6894387311178 336.5758421815697 C 320.0977917254303 338.68826423079 320.0977917254303 340.09650978285384 318.6894387311178 342.2089318320742 C 317.98504734946425 344.321246439046 315.8727327424925 345.0254229362022 313.7604181355208 345.0254229362022 L 295.4531185164404 345.0254229362022 C 293.34037414047424 345.0254229362022 291.9324509151559 344.321246439046 291.2280595335026 342.2089318320742 C 275.03307452139364 317.56425862308413 265.8794247118535 302.0732889447587 263.06271872322816 297.144322070286 C 260.2464425035972 290.8071633648738 258.8380895092847 276.7244929597365 258.8380895092847 254.19218807884258 C 251.0923629250627 249.26327492549433 244.0510277224942 245.7426073242098 237.7140839015791 242.22193972292558 C 239.12243689589155 245.7426073242098 239.12243689589155 249.26327492549433 239.12243689589155 252.78394252677847 C 239.12243689589155 259.12115495331506 234.19341630029484 267.57073570794773 224.33537510910102 278.83686128783273 C 215.8856869122199 287.9906185396215 212.3650193109356 295.03195374219007 212.3650193109356 297.84849856744245 C 212.3650193109356 301.36916616872657 215.8856869122199 309.8187469233594 222.22306050212944 321.7889952792762 L 230.67274869901053 335.8716656844133 C 231.37671031166963 337.98408773363354 231.37671031166963 339.3923332856975 230.67274869901053 341.50475533491795 C 229.26439570469793 343.61717738413813 227.8560427103853 344.321246439046 225.74372810341364 344.321246439046 L 201.80301650708265 344.321246439046 C 199.69070190011092 344.321246439046 198.2823489057984 343.61717738413813 197.57838729313926 341.50475533491795 L 183.4957168880021 321.0849262243684 C 177.15834329809272 311.93116897257954 174.34206707846184 304.1856572728547 174.34206707846184 298.55262134347447 C 174.34206707846184 295.7360765182221 175.046028691121 291.51128614090595 176.45438168543353 286.58231926643333 C 177.86273467974598 280.24516056102084 178.5666962924051 276.02031646258035 178.5666962924051 274.61207091051614 C 178.5666962924051 270.38728053320017 176.45438168543353 265.4583136587275 171.52536108983665 259.82527772934725 L 160.96335828598376 247.15085287627394 C 148.99300248781842 257.00873290409487 132.79801747570943 263.3459453306313 111.6740118680037 266.16249015588363 C 98.99969445717902 268.27485848397987 89.14165326598538 278.83686128783273 81.3963564507576 297.84849856744245 C 76.46733585516077 312.6352917486117 73.65105963552992 324.6055938256526 73.65105963552992 335.16759662950574 L 73.65105963552992 336.5758421815697 C 74.35502124818905 337.98408773363354 74.35502124818905 340.09650978285384 72.9466682538765 341.50475533491795 C 71.53831525956386 342.9130008869819 70.1303920342456 343.61717738413813 68.0176476582796 343.61717738413813 L 50.41430965185822 343.61717738413813 C 49.00638642653991 343.61717738413813 47.59803343222736 342.9130008869819 46.18968043791479 341.50475533491795 C 44.78132744360222 340.09650978285384 44.78132744360222 338.68826423079 44.78132744360222 337.2799112364773 C 49.00638642653991 287.2864957635895 58.160036236080224 257.00873290409487 72.9466682538765 247.15085287627394 C 85.62098566470097 237.99714934560927 92.6623208672696 225.32272449253605 94.07067386158221 208.42350926214652 C 95.47902685589474 188.70780292762933 103.22432367112258 169.6961656480195 118.71534707057228 152.09282764159803 C 122.94040605350996 146.45979171221768 127.8689968801126 142.23494761377717 133.50240885736284 138.71428001249276 C 129.2773498744252 131.6729448099242 125.75668227314087 126.03990888054388 122.23601467185652 122.51924127925953 C 117.30699407625966 116.18202885272296 110.26565887369105 113.3654840274706 100.40804745149163 113.3654840274706 C 89.14165326598538 113.3654840274706 82.10031806341672 116.18202885272296 77.87568884947335 122.51924127925953 C 75.05898286084819 127.44815443260784 72.9466682538765 135.19361241120845 71.53831525956386 147.16391448824962 C 69.42600065259215 161.24658489338682 68.0176476582796 170.40028842405152 65.20137143864876 174.62513252249198 C 61.680703837364504 182.3705905010926 55.34333024745506 187.29950365444094 47.59803343222736 189.41192570366127 L 47.59803343222736 189.41192570366127 C 44.78132744360222 190.8201712557252 42.66901283663049 190.8201712557252 40.55669822965879 190.8201712557252 C 27.177989437180717 190.8201712557252 17.320378014981294 185.1871353263449 10.279042812412715 173.92095602533584 L 10.279042812412715 173.2168332493038 C 9.574651430759275 172.51271047327168 6.053983829474982 165.47137527070322 0.4210016212189777 152.09282764159803 C -0.28295999144016176 149.98045931350194 -0.28295999144016176 147.86803726428164 1.8293546155315532 145.7556152150614 C 3.941669222503268 144.34736966299744 6.053983829474982 143.64324688696544 8.166298436446702 145.05149243902943 C 17.320378014981294 149.98045931350194 22.953360223237297 153.50112691478628 25.769636442868148 153.50112691478628 L 33.51536302709017 152.79695041763 L 34.21932463974933 152.79695041763 C 44.07736583094304 152.79695041763 50.41430965185822 158.43004006813464 51.822662646170826 170.40028842405152 L 52.52705402782421 175.32925529852398 C 53.934977253142485 173.92095602533584 55.34333024745506 171.80858769723972 56.04772162910851 170.40028842405152 C 58.160036236080224 166.87962082276718 59.568389230392775 159.13416284416667 61.680703837364504 145.7556152150614 C 63.08905683167709 132.37712130708053 65.90533305130786 123.22336405529151 69.42600065259215 116.88615162875493 C 75.76337424250164 107.02827160093408 86.32537704635452 102.09935844758579 101.11200906415077 102.09935844758579 C 114.4907178566288 102.09935844758579 124.34832927882829 106.32414882490212 131.38966448139692 115.47790607669096 C 135.61472346433456 120.40681923003925 139.13539106561885 126.74403165657583 143.36002027956235 133.78536685914443 C 153.21806147075608 129.56057648182815 163.07567289295545 127.44815443260784 173.63767569680834 128.85645370579607 C 191.94540508488322 130.26469925786026 208.14039009699218 129.56057648182815 221.5190988894702 127.44815443260784 C 234.19341630029484 122.51924127925953 245.45938071680686 113.3654840274706 255.31742190800057 99.98693639836546 C 260.2464425035972 92.94560119579683 270.1040539257966 87.31256526641653 286.2990389379057 83.08777488910025 C 304.60676832598057 78.15880801462775 315.1687711298334 74.63814041334346 318.6894387311178 73.22989486127948 L 348.9670941483639 57.034802406922054 C 358.1207439579041 52.81001202960574 367.97878514909763 50.69758998038547 377.1324349586378 50.69758998038547 C 384.8777317738657 50.69758998038547 392.6234583580877 51.40176647754177 399.6647935606563 52.105889253573785 C 403.18546116194057 49.2893444283215 407.41009037588395 46.472799603069184 412.33911097148103 44.36043127497317 C 421.49276078102116 40.83976367368891 427.1257429892774 38.727341624468615 427.83013437093047 37.31909607240461 C 432.05476358487397 33.79842847112033 434.16707819184563 28.165338820615748 434.16707819184563 20.419880842015147 C 434.16707819184563 19.715758065983152 432.7591549665275 15.490913967542546 431.3508019722151 7.041333212909961 C 430.6464105905616 4.224788387657671 432.05476358487397 2.11242005956167 434.16707819184563 0.704120786373381 C 436.9837841804709 -0.7041247656906208 439.80049016909624 -0.000001989658619333534 441.20841339441444 2.8165428355936695 L 451.0664545856082 19.01158156882686 C 454.5871221868925 24.644671219331446 455.995475181205 30.981883645868027 455.2910837995517 38.727341624468615 C 454.5871221868925 47.176922379101185 448.9541399786363 54.92243407882605 438.39213717478344 62.66789205742664 L 435.5754311861584 64.78026038552261 L 442.6167663887269 69.7092272599952 C 455.995475181205 60.55547000820638 463.0368103837736 45.064554051005175 463.7407719964328 24.644671219331446 C 463.7407719964328 21.82812639407915 465.1491249907453 19.715758065983152 467.9658309793707 19.715758065983152 Z M 289.1157449265308 94.35390046898517 C 275.73703613405274 97.87456807026948 267.2877777061659 102.09935844758579 263.7671101048817 107.02827160093408 C 251.79675430671614 122.51924127925953 239.12243689589155 132.37712130708053 225.03976649075454 138.0101572364608 L 223.63141349644192 138.0101572364608 C 208.84435170965122 140.82670206171318 191.94540508488322 140.82670206171318 172.22975247149012 139.41845650964902 C 161.6677496676372 138.71428001249276 151.80970847644352 140.82670206171318 143.36002027956235 145.7556152150614 L 143.36002027956235 145.7556152150614 C 137.72703807130634 149.2762828163457 132.09405586305033 153.50112691478628 127.16503526745348 159.83828562019863 C 113.78632647497541 175.32925529852398 106.04102965974768 192.22847052891345 105.33706804708855 209.831808535335 C 103.92871505277591 230.25163764588444 95.47902685589474 245.7426073242098 79.98800345644504 256.3046101280628 C 68.72203903993304 264.0500681066633 60.97631245571108 289.3988640916855 56.751683241767644 333.0551745802854 L 63.79301844433621 333.0551745802854 C 64.49698005699533 321.7889952792762 67.31368604562043 308.41050137129537 72.2427066412173 293.6236544690018 C 80.69239483809847 270.38728053320017 94.07067386158221 257.71285568012695 110.97005025534455 254.89631085487454 C 132.79801747570943 251.37564325359017 148.99300248781842 245.0384845481778 158.851043679012 234.47648174432499 C 160.96335828598376 231.6599369190727 163.07567289295545 229.54751486985242 163.78006427460895 228.13926931778835 L 170.11700809552406 218.28138928996762 C 174.34206707846184 210.53593131136694 179.97504928671776 199.97392850751413 185.60803149497383 187.29950365444094 C 186.3124228766271 185.89125810237698 187.72034610194555 185.1871353263449 189.12869909625798 184.48295882918873 C 190.5370520905706 183.77883605315665 191.94540508488322 183.77883605315665 193.35375807919593 184.48295882918873 C 194.76168130451418 185.1871353263449 195.46607268616756 186.595380878409 196.1700342988267 188.00362643047282 C 196.87442568048002 189.41192570366127 196.87442568048002 190.8201712557252 196.1700342988267 191.5242940317572 L 181.38340228103033 218.9855120659995 L 204.61972249570786 218.9855120659995 C 208.14039009699218 219.6896348420316 216.5900782938733 221.80205689125185 229.968357317357 226.73097004460013 L 232.78506330598213 228.13926931778835 C 237.00969251992564 229.54751486985242 245.45938071680686 234.47648174432499 258.13369812763136 241.51781694689365 L 258.8380895092847 219.6896348420316 C 258.8380895092847 218.28138928996762 258.8380895092847 216.87314373790358 260.2464425035972 216.1689672407473 C 261.65436572891554 214.76072168868336 262.358757110569 214.76072168868336 263.7671101048817 214.76072168868336 C 265.17503333019994 214.76072168868336 266.5833863245126 214.76072168868336 267.2877777061659 216.1689672407473 C 268.6957009314842 217.5772665139356 268.6957009314842 218.28138928996762 268.6957009314842 219.6896348420316 C 269.4000923131375 223.91447894047212 268.6957009314842 234.47648174432499 267.9917393188251 251.37564325359017 C 267.9917393188251 273.9079481344842 269.4000923131375 287.2864957635895 271.51240692010924 292.21540891693775 C 273.624721527081 296.44019929425417 282.0744097239622 310.5228696993913 296.8610417417586 334.4634201323495 L 303.1984153316681 334.4634201323495 C 290.52409792084325 312.6352917486117 284.1867243309339 295.03195374219007 284.1867243309339 279.54098406386447 C 284.1867243309339 274.61207091051614 284.8911157125875 269.683157757168 287.0034303195592 264.75419088269547 C 289.1157449265308 259.12115495331506 293.34037414047424 252.07981975074662 298.26939473607115 245.0384845481778 C 306.71908293295235 233.77230524716873 310.9437121468956 226.73097004460013 310.9437121468956 224.61860171650414 C 308.8313975399239 205.6069644368944 308.1274359272648 194.34083885700957 308.8313975399239 190.1160484796931 C 308.8313975399239 188.70780292762933 309.53578892157736 187.29950365444094 310.9437121468956 186.595380878409 C 311.64810352854903 185.89125810237698 313.0564565228617 185.1871353263449 314.4643797481801 185.1871353263449 C 315.8727327424925 185.1871353263449 317.281085736805 185.89125810237698 317.98504734946425 187.29950365444094 C 318.6894387311178 188.70780292762933 319.3934003437769 189.41192570366127 319.3934003437769 190.8201712557252 C 319.3934003437769 196.4532609062299 320.0977917254303 207.0152637100827 322.21010633240184 223.2103024433158 L 322.21010633240184 223.91447894047212 C 322.21010633240184 228.84339209382043 317.281085736805 237.99714934560927 307.42304454561145 251.37564325359017 C 303.9023769443272 256.3046101280628 301.0861007246962 259.82527772934725 299.67774773038377 263.3459453306313 C 303.1984153316681 264.0500681066633 306.71908293295235 264.75419088269547 310.9437121468956 264.75419088269547 C 322.21010633240184 264.75419088269547 332.77210913625476 261.9376460574431 341.22179733313595 256.3046101280628 L 341.22179733313595 256.3046101280628 C 348.9670941483639 251.37564325359017 356.0084293509322 244.33430805102162 363.04976455350084 235.1806045203569 C 366.5704321547852 230.25163764588444 370.09109975606947 223.91447894047212 374.3157289700128 216.87314373790358 L 391.2151053637751 180.96229122790433 C 398.9604021790028 168.99204287198748 407.41009037588395 162.65483044545093 417.2681315670776 162.65483044545093 C 421.49276078102116 162.65483044545093 430.6464105905616 165.47137527070322 444.7290809956989 171.80858769723972 C 455.995475181205 176.7375008505881 462.3324190021201 179.55404567584029 463.7407719964328 180.2581684518723 C 465.8530866034045 179.55404567584029 468.66979259202975 177.44162362662 472.8944218059732 173.2168332493038 L 480.6401483901954 164.7672524946712 C 474.30277480028565 155.6134952428823 470.07814558634226 146.45979171221768 465.8530866034045 136.60191168439684 C 458.10778978817683 115.47790607669096 453.1787691925801 103.50760399964973 451.0664545856082 99.98693639836546 L 448.9541399786363 96.4662687970812 L 448.9541399786363 95.76214602104916 C 445.4334723773522 89.42493359451261 441.20841339441444 84.4960204411643 436.9837841804709 80.97535283987996 L 436.9837841804709 80.97535283987996 C 433.46311657918665 78.15880801462775 429.94244897790225 75.34226318937547 425.01342838230545 73.22989486127948 L 423.605075387993 75.34226318937547 C 423.605075387993 75.34226318937547 424.3094667696464 76.0464396865317 425.01342838230545 78.15880801462775 C 426.4217813766181 80.97535283987996 428.5340959835898 83.79189766513227 430.6464105905616 88.01668804244858 C 431.3508019722151 89.42493359451261 432.05476358487397 90.83323286770086 431.3508019722151 92.2414784197649 C 430.6464105905616 93.64977769295317 429.94244897790225 95.05802324501714 429.2384873652433 95.76214602104916 C 427.83013437093047 96.4662687970812 426.4217813766181 97.17044529423744 425.71781976395886 96.4662687970812 C 424.3094667696464 95.76214602104916 422.90111377533395 95.05802324501714 422.1971521626748 94.35390046898517 C 415.85977857276504 85.20014321719627 413.04307258414 79.56710728781603 413.04307258414 76.0464396865317 C 413.04307258414 71.82159558809111 415.85977857276504 67.5968052107749 420.0844077867087 63.37201483345866 C 422.1971521626748 61.25959278423836 425.01342838230545 58.44310168011036 429.2384873652433 56.330679630890074 C 436.9837841804709 50.69758998038547 441.20841339441444 45.064554051005175 441.91280477606784 40.135587176532624 C 441.91280477606784 37.31909607240461 441.91280477606784 33.79842847112033 441.20841339441444 31.686006421900032 C 439.80049016909624 38.023218848436606 436.9837841804709 42.952132001784896 432.05476358487397 47.176922379101185 C 429.94244897790225 49.2893444283215 423.605075387993 52.105889253573785 413.74746396579366 56.330679630890074 C 409.5224049828558 58.44310168011036 405.2977757689125 60.55547000820638 402.4810697802871 63.37201483345866 L 402.4810697802871 63.37201483345866 C 395.43973457771835 70.41335003602718 392.6234583580877 79.56710728781603 392.6234583580877 92.94560119579683 C 392.6234583580877 97.17044529423744 393.3274199707468 99.98693639836546 395.43973457771835 102.09935844758579 C 398.25644056634366 104.21178049680606 403.18546116194057 105.62002604887 411.6351493588219 107.73244809809033 C 413.04307258414 108.4365708741224 414.45142557845276 109.14069365015439 415.15581696010594 109.84481642618634 C 415.85977857276504 111.25311569937469 416.56374018542425 112.66136125143865 415.85977857276504 114.06960680350262 C 415.85977857276504 115.47790607669096 415.15581696010594 116.88615162875493 413.74746396579366 117.59027440478695 C 412.33911097148103 118.2944509019432 410.9307579771682 118.2944509019432 409.5224049828558 118.2944509019432 C 399.6647935606563 116.18202885272296 392.6234583580877 114.06960680350262 389.1027907568034 111.25311569937469 C 384.8777317738657 107.73244809809033 382.76541716689405 101.39523567155375 382.76541716689405 93.64977769295317 C 382.76541716689405 81.679475615912 384.8777317738657 71.82159558809111 389.8067523694624 64.07613760949063 C 386.9904761498318 63.37201483345866 382.06145555423484 63.37201483345866 375.7240819643255 63.37201483345866 C 367.2743937674443 63.37201483345866 359.52909695221655 65.48443688267892 352.4877617496482 69.00510448396317 L 322.91406794506133 85.20014321719627 C 319.3934003437769 85.20014321719627 308.1274359272648 88.7208108184806 289.1157449265308 94.35390046898517 Z M 456.69943679386415 83.79189766513227 C 467.9658309793707 71.82159558809111 472.8944218059732 59.85134723217435 471.4864985806547 46.472799603069184 C 467.9658309793707 58.44310168011036 461.628457389461 69.00510448396317 451.0664545856082 76.75056246256375 L 456.69943679386415 83.79189766513227 Z M 367.2743937674443 275.31619368654833 C 365.866470542126 265.4583136587275 365.16207916047244 257.71285568012695 364.4581175478131 252.07981975074662 C 360.23305856487565 256.3046101280628 355.304467738273 260.5294005053791 351.783800136989 263.3459453306313 C 356.0084293509322 278.1327385118006 359.52909695221655 292.21540891693775 362.3458029408417 307.0022020981071 C 365.866470542126 316.86008212592793 371.49945275038203 326.01383937771675 379.2447495656098 334.4634201323495 L 392.6234583580877 334.4634201323495 L 385.58212315551884 327.4220849297807 C 377.1324349586378 319.67657323005585 372.90780574469443 312.6352917486117 372.2034143630411 307.0022020981071 C 370.79506136872874 297.144322070286 369.3871381434103 287.2864957635895 367.2743937674443 275.31619368654833 Z M 19.432692621953013 168.99204287198748 C 24.36171321754987 176.7375008505881 31.403048420118452 180.2581684518723 41.26065984231793 179.55404567584029 L 40.55669822965879 172.51271047327168 C 39.85230684800534 166.87962082276718 37.73999224103362 164.06312971863915 33.51536302709017 164.06312971863915 L 25.065674830208998 164.7672524946712 C 22.953360223237297 165.47137527070322 20.136654234612138 164.06312971863915 15.912025020668725 161.9507076694189 L 19.432692621953013 168.99204287198748 Z M 203.21136950139535 229.54751486985242 L 175.75042007277432 229.54751486985242 L 168.70908487020586 239.40539489767332 C 171.52536108983665 242.92606249895755 175.046028691121 247.15085287627394 179.97504928671776 252.07981975074662 C 186.3124228766271 259.82527772934725 189.83309047791153 266.8666129319156 189.83309047791153 273.9079481344842 C 189.83309047791153 277.4286157357685 189.12869909625798 282.3575288891169 187.0163844892863 288.69474131565363 C 185.60803149497383 293.6236544690018 185.60803149497383 297.144322070286 185.60803149497383 298.55262134347447 C 185.60803149497383 302.0732889447587 187.72034610194555 307.70632487413894 192.64936669754238 314.7476600767075 C 197.57838729313926 321.7889952792762 201.0990548944236 328.12626142693694 204.61972249570786 333.0551745802854 L 215.8856869122199 333.0551745802854 L 212.3650193109356 326.01383937771675 C 204.61972249570786 311.93116897257954 201.0990548944236 302.7774117207907 201.0990548944236 297.144322070286 C 201.0990548944236 291.51128614090595 206.02807549002048 282.3575288891169 215.8856869122199 271.09140330923196 C 224.33537510910102 261.233523281411 227.8560427103853 254.89631085487454 227.8560427103853 252.07981975074662 C 227.8560427103853 249.26327492549433 227.15208109772624 245.7426073242098 226.44768971607274 242.92606249895755 L 223.63141349644192 235.884727296389 C 215.8856869122199 233.06818247113662 208.84435170965122 230.95581414304073 203.21136950139535 229.54751486985242 Z" stroke="none" stroke-linejoin="miter" stroke-linecap="butt" fill="#F2C2CF" fill-rule="nonzero"/></g></svg></svg>