<svg id="draw.id" overflow="visible" v:ver="3" x="500.5" xmlns="http://www.w3.org/2000/svg" xmlns:v="http://vecta.io" xmlns:xlink="http://www.w3.org/1999/xlink" y="500.5" v:layers="{&quot;default&quot;:{&quot;name&quot;:&quot;Default&quot;,&quot;print&quot;:1,&quot;display&quot;:1,&quot;publish&quot;:1}}" v:stencils="{&quot;0&quot;:{&quot;id&quot;:&quot;stencil_25&quot;,&quot;expand&quot;:1,&quot;show_name&quot;:1},&quot;1&quot;:{&quot;id&quot;:&quot;stencil_65&quot;,&quot;expand&quot;:1,&quot;show_name&quot;:1}}"><style xmlns="http://www.w3.org/1999/xhtml"><![CDATA[#draw\.id{stroke:#000;stroke-linecap:round;stroke-linejoin:round;fill:#fff;fill-rule:evenodd;font-family:Roboto;font-size:14px;text-anchor:middle}#draw\.id text{paint-order:stroke;white-space:pre}#draw\.id .Text\.cls{stroke:none}]]></style><defs><style type="text/css">@import url('https://fonts.googleapis.com/css?family=Roboto+Condensed:400,400i,700,700i');@import url('https://fonts.googleapis.com/css?family=Roboto:400,400i,700,700i');@import url('https://fonts.googleapis.com/css?family=Cousine:400,400i,700,700i');@import url('https://fonts.googleapis.com/css?family=Anonymous+Pro:400,400i,700,700i');@import url('https://fonts.googleapis.com/css?family=Lato:400,400i,700,700i');@import url('https://fonts.googleapis.com/css?family=Open+Sans:400,400i,700,700i');</style></defs><title xmlns="http://www.w3.org/1999/xhtml">Untitled drawing</title><desc xmlns="http://www.w3.org/1999/xhtml"></desc><svg height="500" id="kwpfkecs3d" overflow="visible" v:setup="{&quot;paper&quot;:&quot;CUSTOM&quot;,&quot;unit&quot;:&quot;px&quot;,&quot;scale&quot;:{&quot;from&quot;:&quot;1&quot;,&quot;to&quot;:&quot;1&quot;},&quot;width&quot;:&quot;500px&quot;,&quot;height&quot;:&quot;500px&quot;,&quot;margin&quot;:{&quot;top&quot;:&quot;0&quot;,&quot;bottom&quot;:&quot;0&quot;,&quot;left&quot;:&quot;0&quot;,&quot;right&quot;:&quot;0&quot;}}" viewBox="0 0 500 500" width="500"><g id="kwph95bt5m1" transform="translate(1.4976999999999983 82.27812850474095)" class=""><path d="M 86.46576982763168 310.95728867553856 L 86.46576982763168 305.6635402163789 C 87.34785929393259 286.25272531234145 75.8780036512333 277.4296765847021 68.81967237235352 272.1359281255422 C 66.17286545729331 269.48898658144276 62.64343055977458 267.7244037617228 62.64343055977458 265.9598209420027 C 63.5255200260754 261.54829657818317 78.52481056629345 250.07830630644452 95.28881855527088 241.25525757880558 L 96.17090802157173 241.25525757880558 L 97.93562547033115 240.3728988544258 L 113.81700547684989 272.1359281255422 C 112.05228802809053 279.19439403346155 107.64076366427099 299.4872984038 119.11115782312795 310.07506458019844 L 120.87533675572965 311.83964739991876 L 200.28277530448176 311.83964739991876 L 201.16540328694037 308.31034713143913 C 202.93012073569957 301.25201585255934 202.04749275324104 293.3111912202605 198.51859637187997 286.25272531234145 C 193.22444402560188 277.4296765847021 183.519305831662 270.37134530582233 168.52001529144383 266.84204503734304 C 169.40210475774484 261.54829657818317 170.28473274020325 257.1367722143637 172.93153965526335 252.72524785054412 C 179.10778146784244 239.4906747590855 183.519305831662 226.25610166762687 187.93083019548158 212.1391698517886 C 204.6942996683012 211.2568111274089 220.5762181909777 210.37458703206866 237.33968766379743 207.72764548796903 L 225.86983202109806 295.0757740399807 L 233.81079128243636 312.72187149525905 L 314.98240876379 312.72187149525905 L 314.98240876379 308.31034713143913 C 315.86503674624845 290.6642496761608 303.5125531210908 278.3120353090818 293.807414927151 273.01815222088266 C 297.3363113085118 258.01899630970394 299.9836567397296 243.01984039852542 301.7478356723316 227.1383257629671 L 305.27727056985 223.60916012352732 L 334.3932236678276 274.78286966964197 C 332.62850621906836 280.95897685318147 329.9816993040083 299.4872984038 339.6873760141059 310.95728867553856 L 341.4515549467074 312.72187149525905 L 421.74162147791805 312.72187149525905 L 421.74162147791805 307.42812303609895 C 420.8589934954594 287.135084036721 406.7423309376999 270.37134530582233 386.4494265673618 266.84204503734304 C 377.62637783972247 245.6667819426249 360.8623698507449 160.9654603056738 363.509176765805 152.14241157803477 C 367.038611663324 145.08394567011553 369.6854185783842 138.02561439123585 372.33222549344424 130.08478975893703 C 379.3910952884817 129.20256566359672 386.4494265673618 126.55562411949711 392.6256683799406 123.02632385101778 L 419.09481456285795 134.4963141227566 L 419.9769040291586 134.4963141227566 C 433.21147712061725 135.37867284713624 476.4446312925118 137.14325566685605 486.1497694864517 127.43784821483737 C 491.4433833165721 122.14409975567753 495.8549076803919 115.96799257213802 497.6196251291512 108.90952666421892 L 498.5022531116097 106.26258512011933 L 494.0907287477902 101.85106075629977 C 493.2081007653313 100.96870203192007 481.73824512263224 85.96954612074153 475.5620033100534 78.91108021282236 C 472.91519639499325 75.38191457338239 471.1504789462337 71.85274893394252 470.26838947993275 67.44122457012294 C 469.38576149747433 64.79428302602338 468.5036720311735 61.2649827575441 467.6215825648727 58.61817584248385 C 464.092147667354 49.79512711484473 449.0928571271359 35.6781952990064 442.0345258482563 30.38431221080716 C 445.563960745775 24.208205027267667 446.44605021207593 17.149739119348464 444.6813327633167 10.091407840468728 C 443.7992432970157 6.5621075719894275 441.1524363819554 3.0329419325495564 437.62300148443677 1.2683591128296159 C 430.5646702055572 -2.2609411556496823 420.8589934954594 2.150583208169872 412.9185727502788 7.444466296369111 C 364.3918047482638 -0.49635833592974404 314.10031929748914 8.326690391709368 270.8671651255945 32.149029659566516 C 264.69146182917325 33.03125375490677 230.28135638491761 33.913612479286456 165.8732083763837 30.38431221080716 C 119.11115782312795 26.85514657136728 71.46647928741372 43.618885302265845 41.467898206977694 72.7349730292828 C 17.646097455278223 94.79259484838062 5.293613830120391 126.55562411949711 7.058331278879748 159.20087748595375 C 8.823048727639112 241.25525757880558 0.8820894663008335 289.7820255808206 0 290.6642496761608 L 0 292.4289671249201 L 12.35194510900014 310.95728867553856 L 86.46576982763168 310.95728867553856 Z M 163.2264014613235 247.4313647623449 C 160.5790560301058 252.72524785054412 156.16753166628618 264.1951034932435 158.8148770975039 271.2535694011626 C 159.6969665638049 273.9005109452623 161.46168401256415 275.6650937649822 164.1084909276243 275.6650937649822 C 176.46097455278223 278.3120353090818 184.40139529796284 283.60591839728113 188.81291966178244 290.6642496761608 C 190.57763711054176 294.1935499446404 191.45972657684266 297.7227155840801 191.45972657684266 301.25201585255934 L 124.40477165324835 301.25201585255934 C 119.11115782312795 293.3111912202605 121.75796473818811 278.3120353090818 123.52268218694755 273.01815222088266 L 124.40477165324835 271.2535694011626 L 104.99395674921084 233.31443294650654 C 113.81700547684989 225.3737429432473 120.87533675572965 216.5506942156082 127.93420655076714 206.84528676358937 C 143.8155865572859 210.37458703206866 160.5790560301058 212.1391698517886 177.34306401908296 212.1391698517886 C 172.93153965526335 222.72680139914755 168.52001529144383 235.07915039526605 163.2264014613235 247.4313647623449 L 163.2264014613235 247.4313647623449 Z M 376.7437498572639 272.1359281255422 L 377.62637783972247 273.9005109452623 L 380.2731847547825 273.9005109452623 C 394.3898473125423 275.6650937649822 405.86024147139915 286.25272531234145 408.5070483864594 299.4872984038 L 344.98098984422603 299.4872984038 C 338.80474803164753 288.89966685644094 343.21627239546666 272.1359281255422 343.21627239546666 272.1359281255422 L 344.0989003779252 270.37134530582233 L 312.33560184873 213.90375267150839 L 344.0989003779252 186.55238239325084 L 344.98098984422603 185.6700236688712 L 345.8630793105267 184.7876649444916 C 347.62779675928647 181.25849930505169 351.15723165680504 175.08239212151224 353.8040385718652 168.02392621359292 C 357.3334734693841 202.4337623997698 370.5680465608425 261.54829657818317 376.7437498572639 272.1359281255422 L 376.7437498572639 272.1359281255422 Z M 16.7634694728197 158.31851876157413 C 14.998752024060332 129.20256566359672 26.46914618291734 100.08647793657983 47.644140019556566 79.79343893720197 C 75.8780036512333 52.441934029904985 120.87533675572965 37.44277811872632 164.99058039392537 40.08971966282595 C 238.2223156462559 44.50124402664546 270.8671651255945 43.618885302265845 272.63188257435394 42.73666120692554 L 273.51451055681247 42.73666120692554 L 275.2786894894141 42.73666120692554 C 314.10031929748914 21.561263483168027 359.0976524019855 12.738214755528922 402.33080657388075 17.149739119348464 C 400.56608912512127 18.914456568107838 398.80137167636167 20.67903938782778 397.91928221006094 21.561263483168027 L 405.86024147139915 28.61972939108722 C 414.68329019903825 18.914456568107838 428.7999527567978 8.326690391709368 433.21147712061725 10.973631935808982 C 434.0935665869179 11.855990660188672 434.97619456937656 11.855990660188672 434.97619456937656 13.620573479908606 C 434.97619456937656 18.914456568107838 434.0935665869179 25.09056375164736 431.4467596718578 29.50208811546689 L 425.2705178592788 37.44277811872632 L 432.3293876543163 43.618885302265845 L 435.85828403567746 39.20736093844628 C 444.6813327633167 46.265826846365435 455.26909893971487 56.8534583937245 457.9159058547751 63.02970020630344 C 458.7985338372335 65.67650712136361 459.6806233035347 68.32344866546322 460.56271276983523 70.97039020956284 C 461.44534075229404 76.26427329776207 464.092147667354 82.44038048130162 468.5036720311735 86.85190484512117 C 472.91519639499325 92.14565330428104 481.73824512263224 102.73341948067944 485.26768002015086 107.14494384449897 C 483.5029625713916 111.55646820831852 480.8561556563318 115.08563384775839 477.32672075881266 118.61479948719817 C 472.91519639499325 123.02632385101778 444.6813327633167 123.90868257539758 419.9769040291586 123.02632385101778 L 392.6256683799406 111.55646820831852 L 388.2141440161209 108.90952666421892 L 385.56679858490315 111.55646820831852 C 380.2731847547825 115.96799257213802 372.33222549344424 118.61479948719817 365.2738942145648 118.61479948719817 L 359.9802803844442 118.61479948719817 L 359.9802803844442 123.90868257539758 C 359.9802803844442 129.20256566359672 346.74570729298557 156.5539359418543 335.275851650286 180.37614058067203 L 290.27798002963203 219.19763575970774 L 290.27798002963203 220.96221857942768 C 288.51326258087266 237.72595731032618 284.9843661995118 264.1951034932435 281.45493130199304 269.48898658144276 L 277.9260349206319 274.78286966964197 L 284.10173821705337 276.54745248936194 C 293.807414927151 280.07661812880184 300.86574620603034 288.89966685644094 303.5125531210908 299.4872984038 L 239.10440511255678 299.4872984038 L 235.57497021503806 289.7820255808206 L 247.0453643738951 203.3161211241495 L 247.0453643738951 202.4337623997698 C 244.3980189426771 190.96390675707045 242.63384001007543 179.4939164853319 241.75121202761693 167.14156748921332 L 232.046073833677 167.14156748921332 C 232.046073833677 175.96461621685245 233.81079128243636 184.7876649444916 235.57497021503806 193.61071367213083 C 220.5762181909777 196.2576552162303 174.69625710402283 202.4337623997698 134.1099098471883 194.49307239651048 C 143.8155865572859 175.96461621685245 142.93295857482744 164.49476057415302 142.93295857482744 162.7300431253937 L 131.46310293212804 166.25934339387314 C 131.46310293212804 166.25934339387314 133.22782038088755 194.49307239651048 89.11257674269194 233.31443294650654 C 70.5843898211129 243.01984039852542 50.29094693461681 258.01899630970394 52.05566438337615 268.6066278570631 C 53.820381832135496 273.9005109452623 57.34981672965419 278.3120353090818 61.761341093473774 280.95897685318147 C 67.93704438989498 286.25272531234145 74.11328620247389 290.6642496761608 75.8780036512333 301.25201585255934 L 17.646097455278223 301.25201585255934 L 10.587227660240782 289.7820255808206 C 12.35194510900014 280.07661812880184 18.528186921579053 233.31443294650654 16.7634694728197 158.31851876157413 L 16.7634694728197 158.31851876157413 Z" stroke="none" stroke-linejoin="miter" stroke-linecap="butt" fill="#F2C2CF" fill-rule="nonzero"/></g></svg></svg>