<svg id="draw.id" overflow="visible" v:ver="3" x="500.5" xmlns="http://www.w3.org/2000/svg" xmlns:v="http://vecta.io" xmlns:xlink="http://www.w3.org/1999/xlink" y="500.5" v:layers="{&quot;default&quot;:{&quot;name&quot;:&quot;Default&quot;,&quot;print&quot;:1,&quot;display&quot;:1,&quot;publish&quot;:1}}" v:stencils="{&quot;0&quot;:{&quot;id&quot;:&quot;stencil_25&quot;,&quot;expand&quot;:1,&quot;show_name&quot;:1},&quot;1&quot;:{&quot;id&quot;:&quot;stencil_65&quot;,&quot;expand&quot;:1,&quot;show_name&quot;:1}}"><style xmlns="http://www.w3.org/1999/xhtml"><![CDATA[#draw\.id{stroke:#000;stroke-linecap:round;stroke-linejoin:round;fill:#fff;fill-rule:evenodd;font-family:Roboto;font-size:14px;text-anchor:middle}#draw\.id text{paint-order:stroke;white-space:pre}#draw\.id .Text\.cls{stroke:none}]]></style><defs><style type="text/css">@import url('https://fonts.googleapis.com/css?family=Roboto+Condensed:400,400i,700,700i');@import url('https://fonts.googleapis.com/css?family=Roboto:400,400i,700,700i');@import url('https://fonts.googleapis.com/css?family=Cousine:400,400i,700,700i');@import url('https://fonts.googleapis.com/css?family=Anonymous+Pro:400,400i,700,700i');@import url('https://fonts.googleapis.com/css?family=Lato:400,400i,700,700i');@import url('https://fonts.googleapis.com/css?family=Open+Sans:400,400i,700,700i');</style></defs><title xmlns="http://www.w3.org/1999/xhtml">Untitled drawing</title><desc xmlns="http://www.w3.org/1999/xhtml"></desc><svg height="500" id="kwpfkecs3d" overflow="visible" v:setup="{&quot;paper&quot;:&quot;CUSTOM&quot;,&quot;unit&quot;:&quot;px&quot;,&quot;scale&quot;:{&quot;from&quot;:&quot;1&quot;,&quot;to&quot;:&quot;1&quot;},&quot;width&quot;:&quot;500px&quot;,&quot;height&quot;:&quot;500px&quot;,&quot;margin&quot;:{&quot;top&quot;:&quot;0&quot;,&quot;bottom&quot;:&quot;0&quot;,&quot;left&quot;:&quot;0&quot;,&quot;right&quot;:&quot;0&quot;}}" viewBox="0 0 500 500" width="500"><g id="kwph7sa95bv" class="Group.cls" transform="translate(5.6629952888203405 131.03041349983147)" v:abox="{&quot;x&quot;:5.6629952888203405,&quot;y&quot;:131.03041349983147,&quot;width&quot;:484.33700471117965,&quot;height&quot;:278.96959272696296}" fill="#F2C2CF"><g class="Prim.cls"><g id="kwph7s8k5bl" transform="translate(272.12973339632356 16.770574422168647)" class=""><path d="M 200.00739790276617 45.275353891511 C 195.03208345405864 39.30499173651673 188.06712909641973 29.354362839101686 187.0717018037645 26.369143802967695 C 185.0814545566436 17.41356261183946 172.145758457642 4.477790595564128 169.16069125605537 1.4925715594301456 C 167.1704440089345 -0.4975238531433819 163.1905568528821 -0.4975238531433819 161.20030960576125 1.4925715594301456 C 159.21006235864036 3.482666972003673 159.21006235864036 7.462933714424423 161.20030960576125 9.453105044271645 C 166.17562405446876 15.423467199265929 175.1308256592286 24.37904839039419 176.12625295188386 29.354362839101686 C 177.12107290634947 34.32967728780922 183.09181464771228 41.29508714909028 191.05219629800632 52.240763752792056 C 194.03726349959297 56.221030495212794 199.01257794830042 62.191392650207106 200.00739790276617 64.18156398005429 C 199.01257794830042 65.17661168634108 195.03208345405864 68.16175480520133 187.0717018037645 67.16670709891459 C 181.1015674005913 66.17165939262782 174.1360057047629 66.17165939262782 169.16069125605537 66.17165939262782 C 162.195129560227 66.17165939262782 155.22956786439863 66.17165939262782 151.24968070834626 65.17661168634108 C 141.2990518109312 61.196344943920316 128.36335571192961 51.24571604650529 128.36335571192961 45.275353891511 C 128.36335571192961 38.30986811295626 132.34324286798187 26.369143802967695 134.33349011510285 22.38887706054697 C 135.32831006956846 19.403733941686664 134.33349011510285 16.418514905552673 131.34842291351615 14.428419492979154 C 128.36335571192961 13.433295869418702 125.37768117215352 14.428419492979154 123.38804126322208 17.41356261183946 C 123.38804126322208 19.403733941686664 116.42247956739374 35.32472499409595 116.42247956739374 46.270401597797786 C 116.42247956739374 51.24571604650529 119.40754676898028 56.221030495212794 123.38804126322208 60.201297237633575 C 93.53615457097699 79.10750732617683 74.62971673061266 99.00876512100683 63.684267878731966 124.88038507083121 C 59.70377338449014 135.82606167453292 51.74339173419602 142.79147153581403 40.79733554412577 144.78164286566118 C 42.78758279124668 135.82606167453292 45.77264999283329 127.86552818969142 48.75832453260941 119.90507062212369 C 59.70377338449014 91.04823163616535 59.70377338449014 52.240763752792056 34.82720114095259 35.32472499409595 C 32.83695389383167 33.33455366424877 28.857066737779377 34.32967728780922 26.866819490658454 36.31977270038274 C 24.876572243537552 39.30499173651673 25.871392198003242 42.290134855377026 27.861639445124162 44.28030618522424 C 48.75832453260941 59.206249531346785 45.77264999283329 95.0284983785861 37.812268342539184 115.92480387970295 C 26.866819490658454 145.77669057194794 20.896077749295728 181.59901533646087 20.896077749295728 224.3865981277076 C 20.896077749295728 228.3669407874021 22.886324996416644 231.35215982353597 24.876572243537552 235.33235064868302 C 25.871392198003242 237.32244606125667 26.866819490658454 239.31254147383015 27.861639445124162 241.30278872095107 C 27.861639445124162 242.2977605099641 28.857066737779377 244.2878559225377 28.857066737779377 245.2829795460981 L 5.9701344031731995 245.2829795460981 C 2.9850672015865998 245.2829795460981 0 248.26819858223223 0 251.25341761836603 C 0 254.2384848199527 2.9850672015865998 257.2237038560867 5.9701344031731995 257.2237038560867 L 36.8174483880735 257.2237038560867 C 38.80769563519439 257.2237038560867 40.79733554412577 256.2287320670736 41.792762836781 255.23360844351316 C 42.78758279124668 253.24351303093965 42.78758279124668 252.2483894073791 42.78758279124668 250.25829399480557 C 42.78758279124668 250.25829399480557 40.79733554412577 245.2829795460981 38.80769563519439 239.31254147383015 C 37.812268342539184 236.32747427224348 36.8174483880735 234.33722702512256 35.82202109541825 231.35215982353597 C 34.82720114095259 229.36191257641508 33.8323811864869 226.37684537482855 33.8323811864869 225.38172175126795 C 33.8323811864869 200.50514950773044 35.82202109541825 178.61379630032695 39.80251558966009 158.71253850549687 C 39.80251558966009 158.71253850549687 39.80251558966009 158.71253850549687 40.79733554412577 158.71253850549687 C 57.713526137369215 156.7223671756497 69.65440228190518 146.7717382782347 76.61996397773355 130.8507472258255 C 86.5705928751486 106.96922268857462 104.4816034228577 88.06301260003134 134.33349011510285 70.15192613504857 C 140.30362451827597 73.13706925390885 146.27436625963875 76.12228829004283 147.26918621410445 76.12228829004283 C 153.2399279554671 79.10750732617683 161.20030960576125 78.11238370261636 169.16069125605537 78.11238370261636 C 175.1308256592286 78.11238370261636 180.10614010793614 78.11238370261636 186.07688184929893 79.10750732617683 C 188.06712909641973 79.10750732617683 190.05676900535116 79.10750732617683 191.05219629800632 79.10750732617683 C 200.00739790276617 79.10750732617683 204.98271235147357 76.12228829004283 207.96838689124982 73.13706925390885 C 210.9534540928364 70.15192613504857 212.94370133995733 67.16670709891459 211.94827404730205 63.18644035649386 C 210.9534540928364 60.201297237633575 207.96838689124982 56.221030495212794 200.00739790276617 45.275353891511 Z" stroke="none" stroke-linejoin="miter" stroke-linecap="butt" fill="#F2C2CF" fill-rule="nonzero" fill-opacity="1"/></g><g id="kwph7s8n5bm" transform="translate(20.57262141735764 64.65792972888131)" class=""><path d="M 40.60365788612942 187.44499534197055 C 39.60883793166375 190.43021437810458 40.60365788612942 193.4154334142385 43.58872508771602 194.41040520325163 C 44.58415238037124 194.41040520325163 44.58415238037124 194.41040520325163 45.57897233483695 194.41040520325163 C 47.56921958195786 194.41040520325163 49.55946682907877 193.4154334142385 50.55428678354444 191.42518616711757 C 50.55428678354444 191.42518616711757 54.53478127778627 182.4696808932631 53.53935398513107 173.5141756194085 C 53.53935398513107 166.54861392358006 45.57897233483695 129.73131737005397 41.59908517878466 122.76590750877293 C 41.59908517878466 120.77581209619939 41.59908517878466 114.8053740239314 42.59390513325034 110.82518319878437 C 43.58872508771602 106.84491645636365 43.58872508771602 101.86960200765614 43.58872508771602 97.88933526523532 C 43.58872508771602 85.94861095524678 33.63809619030105 55.101600639441244 30.653028988714393 50.12628619073374 C 29.658209034248696 47.141143071873444 16.722512935247103 18.28430408591514 10.751771193884364 3.358360739792602 C 9.756951239418674 0.37314170365861954 5.776456745176841 -0.6219060026281444 3.7862094980559267 0.37314170365861954 C 0.8011422964693302 2.3633130335058397 -1.189104950651583 5.348456152366131 0.8011422964693302 8.333675188500111 C 1.7965695891245554 9.328722894786878 9.756951239418674 28.23493298333015 15.727085642591867 42.165828623165936 C 12.74201844100527 47.141143071873444 7.76670399229776 60.07691508814878 9.756951239418674 75.0028584342713 C 11.747198486539592 91.91897311024103 27.6679617871278 105.84986875007687 32.64327623583531 109.83005957522396 C 32.64327623583531 109.83005957522396 32.64327623583531 109.83005957522396 32.64327623583531 110.82518319878437 C 31.648456281369615 120.77581209619939 30.653028988714393 125.7511265449069 32.64327623583531 129.73131737005397 C 34.63352348295624 133.71166002974837 42.59390513325034 168.53886117070098 43.58872508771602 175.50427103198194 C 43.58872508771602 181.47455726970256 40.60365788612942 187.44499534197055 40.60365788612942 187.44499534197055 Z M 20.702400091299385 73.01276302169782 C 19.707580136833705 67.04240086670352 20.702400091299385 61.07203871170922 21.69782738395461 57.09177196928849 C 24.68289458554121 63.062134124282764 31.648456281369615 83.95843962539958 32.64327623583531 94.90411622910133 C 27.6679617871278 88.93375407410709 22.692647338420297 80.97329650653926 20.702400091299385 73.01276302169782 Z" stroke="none" stroke-linejoin="miter" stroke-linecap="butt" fill="#F2C2CF" fill-rule="nonzero" fill-opacity="1"/></g><g id="kwph7s8o5bn" transform="translate(60.181459349021374 50.10512808641737)" class=""><path d="M 215.9287685415439 148.2644616722123 C 216.9235884960095 158.21509056962728 217.91840845047525 168.1657194670423 215.9287685415439 178.11634836445734 C 214.9333412488886 184.08663460217787 213.93852129442303 191.05204446345886 211.94827404730205 200.00770157186093 C 211.94827404730205 202.99292060799488 213.93852129442303 205.97798780958155 216.9235884960095 205.97798780958155 C 216.9235884960095 205.97798780958155 217.91840845047525 205.97798780958155 217.91840845047525 205.97798780958155 C 220.90408299025142 205.97798780958155 222.89372289918276 203.98789239700793 223.889150191838 201.00267336087393 C 224.88397014630368 193.0422917105798 225.87939743895893 186.07673001475138 227.86903734789027 180.1064437770309 C 229.85928459501125 168.1657194670423 228.86446464054552 157.21996694606685 227.86903734789027 147.26933804865178 L 226.87421739342457 142.29402359994424 C 225.87939743895893 133.3385183260897 224.88397014630368 126.3729566302613 221.8989029447171 118.4124990626935 C 220.90408299025142 116.42240365012 219.9086556975962 113.43718461398602 218.91383574313048 111.44708920141245 C 215.9287685415439 105.4767270464182 213.93852129442303 100.50141259771068 211.94827404730205 94.5309745254427 C 210.9534540928364 88.56061237044844 209.95802680018116 81.5952025091674 208.9632068457154 75.62484035417316 C 208.9632068457154 72.63962131803912 205.97813964412887 70.64952590546562 202.9924651043527 70.64952590546562 C 200.00739790276617 70.64952590546562 197.0223307011795 73.63466902432589 198.0171506556452 76.61988806045989 C 198.0171506556452 83.58529792174095 199.01257794830042 90.55078370029567 201.00282519542137 97.51619356157667 C 201.00282519542137 98.51124126786343 201.99764514988695 100.50141259771068 201.99764514988695 101.49646030399744 C 194.037263499593 102.49150801028415 185.08145455664356 104.48160342285769 177.12107290634947 106.47177475270496 C 171.15093850317626 107.46682245899174 166.17562405446878 109.45691787156522 161.20030960576125 110.45204149512573 L 155.22956786439866 111.44708920141245 C 144.2841190125178 113.43718461398602 133.3380628224476 115.42735594383322 123.38743392503255 115.42735594383322 C 110.45173782603096 115.42735594383322 97.51604172702932 111.44708920141245 84.58034562802769 103.48655571657095 C 80.59985113378586 101.49646030399744 77.61478393219933 98.51124126786343 73.63428943795743 95.52609814900316 C 68.65897498924991 90.55078370029567 62.68884058607677 86.57051695787493 55.723278890248324 83.58529792174095 C 62.68884058607677 67.66430686933161 75.62453668507837 35.822324764513034 74.62971673061267 5.970438072267969 C 74.62971673061267 2.9852190361339845 71.64464952902604 0.9951236235604562 68.65897498924991 0 C 65.67390778766334 0 62.68884058607677 2.9852190361339845 62.68884058607677 5.970438072267969 C 63.68366054054241 33.832153434665805 51.74339173419602 63.684040126910894 44.777830038367604 78.60998347303342 C 42.787582791246685 82.59025021545415 40.797335544125765 85.57546925158816 38.80708829700486 89.55566007673521 C 36.8174483880735 92.54087911286916 34.82720114095259 95.52609814900316 32.83695389383167 99.50628897415021 C 29.85188669224507 106.47177475270496 26.866819490658454 113.43718461398602 24.876572243537552 119.40754676898025 L 24.876572243537552 120.4026703925407 C 23.881144950882337 122.39276580511422 22.886324996416644 124.38286121768776 21.891505041950946 127.36808025382179 C 18.905830502174812 135.32861373866322 14.925943346122535 144.28411901251778 14.925943346122535 152.24465249735934 C 14.925943346122535 156.22484332250636 16.916190593243453 169.16069125605543 19.90125779483004 186.07673001475138 C 19.90125779483004 193.0422917105798 20.896077749295728 199.01257794830042 20.896077749295728 201.99779698443447 C 21.891505041950946 206.9731114331419 23.881144950882337 213.938521294423 25.871392198003242 218.91383574313045 C 19.90125779483004 218.91383574313045 11.940876144535938 217.9188639541174 6.965561695828423 217.9188639541174 C 2.9850672015865998 216.92374033055694 0 218.91383574313045 0 221.89905477926453 C 0 224.88427381539847 1.9902472471209125 227.86949285153247 4.97531444870751 227.86949285153247 C 7.960381650294108 227.86949285153247 19.90125779483004 228.86446464054552 27.861639445124162 228.86446464054552 C 30.846706646710757 228.86446464054552 32.83695389383167 228.86446464054552 33.831773848297374 228.86446464054552 C 35.82202109541825 228.86446464054552 36.8174483880735 227.86949285153247 37.812268342539184 225.8792456044115 C 38.80708829700486 223.889150191838 38.80708829700486 222.8941784028249 37.812268342539184 220.90393115570404 C 35.82202109541825 216.92374033055694 31.842133939365983 204.9830160205683 30.846706646710757 199.01257794830042 C 30.846706646710757 196.0273589121665 29.85188669224507 191.05204446345886 28.856459399589845 184.08663460217787 C 26.866819490658454 172.14591029218937 24.876572243537552 155.22987153349328 23.881144950882337 151.24952887379885 C 23.881144950882337 147.26933804865178 25.871392198003242 141.29889997638386 27.861639445124162 136.32358552767627 C 29.85188669224507 136.32358552767627 31.842133939365983 137.3187091512368 34.82720114095259 137.3187091512368 L 34.82720114095259 139.30880456381036 C 34.82720114095259 142.29402359994424 37.812268342539184 145.27924263607824 40.797335544125765 145.27924263607824 C 43.78240274571238 145.27924263607824 46.7680772854885 142.29402359994424 46.7680772854885 139.30880456381036 L 46.7680772854885 136.32358552767627 L 46.7680772854885 136.32358552767627 C 55.723278890248324 134.33349011510282 70.64922223637085 130.35329928995577 75.62453668507837 113.43718461398602 C 75.62453668507837 113.43718461398602 76.61996397773355 114.43223232027276 76.61996397773355 114.43223232027276 C 91.54590732385614 123.38781351140109 106.47185066997866 127.36808025382179 121.39779401610114 127.36808025382179 C 133.3380628224476 127.36808025382179 144.2841190125178 125.37798484124829 155.22956786439866 123.38781351140109 L 161.20030960576125 122.39276580511422 C 166.17562405446878 121.39771809882753 172.14575845764196 120.4026703925407 178.1158928608152 118.4124990626935 C 187.0717018037645 116.42240365012 196.02751074671386 113.43718461398602 204.98271235147357 113.43718461398602 C 205.97813964412887 114.43223232027276 205.97813964412887 116.42240365012 206.9729595985945 117.41745135640674 C 207.9677795530603 119.40754676898025 208.9632068457154 121.39771809882753 209.95802680018116 123.38781351140109 C 212.94309400176775 129.3581756663953 213.93852129442303 135.32861373866322 213.93852129442303 143.28914722350476 L 215.9287685415439 148.2644616722123 Z M 44.777830038367604 125.37798484124829 C 43.78240274571238 125.37798484124829 42.787582791246685 125.37798484124829 41.792762836781 126.3729566302613 C 38.80708829700486 127.36808025382179 35.82202109541825 127.36808025382179 33.831773848297374 127.36808025382179 C 33.831773848297374 127.36808025382179 33.831773848297374 126.3729566302613 33.831773848297374 126.3729566302613 L 33.831773848297374 125.37798484124829 C 35.82202109541825 118.4124990626935 38.80708829700486 112.44213690769924 41.792762836781 106.47177475270496 C 43.78240274571238 103.48655571657095 45.77264999283329 100.50141259771068 47.76289723995421 97.51619356157667 C 48.757717194419875 96.5211458552899 48.757717194419875 95.52609814900316 49.753144487075105 94.5309745254427 C 55.723278890248324 96.5211458552899 60.69859333895583 100.50141259771068 65.67390778766334 104.48160342285769 C 65.67390778766334 104.48160342285769 66.66933508031853 105.4767270464182 66.66933508031853 105.4767270464182 C 64.67908783319767 120.4026703925407 53.733031643127404 122.39276580511422 44.777830038367604 125.37798484124829 Z" stroke="none" stroke-linejoin="miter" stroke-linecap="butt" fill="#F2C2CF" fill-rule="nonzero" fill-opacity="1"/></g><g id="kwph7s8v5bo" transform="translate(0 -3.53517353965139e-14)" class=""><path d="M 17.39387655777468 146.62627394170738 C 18.38869651224037 123.73979711074337 15.403629310653761 56.07556615868535 14.408202017998537 43.13971822513633 C 14.408202017998537 35.17918474029486 17.39387655777468 27.21872717272705 22.369191006482207 21.248365017732773 C 27.344505455189722 16.273050569025262 32.31981990389723 13.287831532891284 38.289954307070424 14.282879239178046 C 55.206144900313866 14.282879239178046 71.12690820090212 15.277926945464808 88.04309879414558 17.268098275312017 C 113.91449099214884 18.263145981598782 139.78649052834157 20.253241394172324 165.6578827263448 19.258193687885562 C 176.60393891641502 18.263145981598782 188.54420772276143 19.258193687885562 200.48508386729733 20.253241394172324 C 214.41620725895427 21.248365017732773 228.34672331242146 22.243412724019528 241.28302674961262 21.248365017732773 C 248.2479811072514 20.253241394172324 256.20897009573525 19.258193687885562 263.17392445337407 17.268098275312017 C 271.1349134418578 15.277926945464808 278.09986779949685 14.282879239178046 285.06542949532496 13.287831532891284 C 293.02581114561923 13.287831532891284 299.9913728414475 15.277926945464808 306.95693453727586 17.268098275312017 C 311.93224898598356 19.258193687885562 317.9023833891568 20.253241394172324 323.8731251305194 21.248365017732773 C 336.80882122952113 23.238460430306304 349.74451732852265 22.243412724019528 361.68539347305864 21.248365017732773 C 365.6658879673005 21.248365017732773 369.64577512335273 20.253241394172324 373.6262696175945 20.253241394172324 C 388.5522129637171 19.258193687885562 403.4781563098397 18.263145981598782 418.4040996559621 18.263145981598782 C 419.39891961042787 18.263145981598782 420.39434690308303 17.268098275312017 421.3891668575487 17.268098275312017 C 426.3644813062562 15.277926945464808 434.32486295655036 10.302612496757305 438.3053574507923 11.297736120317753 C 446.2657391010864 13.287831532891284 453.23130079691487 16.273050569025262 454.2261207513807 16.273050569025262 C 457.2111879529672 17.268098275312017 460.1968624927432 16.273050569025262 461.19168244720885 13.287831532891284 C 462.1865024016748 10.302612496757305 461.19168244720885 7.317469377897011 458.2066152456225 6.322421671610245 C 458.2066152456225 6.322421671610245 450.24623359532814 3.3372026354762627 441.29042465237876 0.35198359934227824 C 432.3346157094295 -1.63811181323125 421.3891668575487 5.327298048049789 417.4086723633069 8.312517084183765 C 402.48272901718445 9.307564790470535 388.5522129637171 10.302612496757305 374.62108957206016 10.302612496757305 C 370.64120241600807 10.302612496757305 366.6607079217662 11.297736120317753 361.68539347305864 11.297736120317753 C 349.74451732852265 12.292783826604525 337.80364118398677 13.287831532891284 325.86337237764025 11.297736120317753 C 320.8880579289329 10.302612496757305 315.91274348022523 9.307564790470535 310.93742903151764 7.317469377897011 C 302.97644004303413 4.332250341763028 294.0212384382743 2.3421549291894967 284.07060954085927 2.3421549291894967 C 276.11022789056534 2.3421549291894967 268.14923890208166 4.332250341763028 260.1888572517875 6.322421671610245 C 253.22329555595894 7.317469377897011 247.25316115278582 9.307564790470535 240.2875994569573 9.307564790470535 C 227.35190335795576 10.302612496757305 214.41620725895427 9.307564790470535 200.48508386729733 8.312517084183765 C 188.54420772276143 7.317469377897011 176.60393891641502 6.322421671610245 164.66306277187905 7.317469377897011 C 139.78649052834157 9.307564790470535 114.90991828480408 7.317469377897011 90.03334604126651 5.327298048049789 C 74.11197540248871 4.332250341763028 57.19639214743474 3.3372026354762627 40.280201554191336 2.3421549291894967 C 30.329572656776318 2.3421549291894967 22.369191006482207 6.322421671610245 15.403629310653761 13.287831532891284 C 7.443247660359658 21.248365017732773 3.4627531661178357 33.18908932772132 3.4627531661178357 44.13476593142309 C 5.453000413238746 70.00638588124747 7.443247660359658 143.64105490557336 5.453000413238746 150.6065406841281 C 2.4679332116521477 162.54726499411666 -7.482695685762877 202.34978058377675 10.428314861946246 239.16707713730295 C 11.423134816411947 241.1571725498765 13.413382063532854 242.15229617343695 15.403629310653761 242.15229617343695 C 16.398449265119453 242.15229617343695 17.39387655777468 242.15229617343695 18.38869651224037 241.1571725498765 C 21.373763713826964 240.1622007608633 22.369191006482207 236.1818581011689 21.373763713826964 233.19679089958234 C 10.428314861946246 211.3052858576313 10.428314861946246 187.42383723765417 13.413382063532854 171.50284618524492 C 15.403629310653761 180.4584273763732 16.398449265119453 191.40402806280122 16.398449265119453 204.33987599635026 C 16.398449265119453 207.3250950324843 18.38869651224037 210.31031406861823 21.373763713826964 210.31031406861823 C 21.373763713826964 210.31031406861823 21.373763713826964 210.31031406861823 21.373763713826964 210.31031406861823 C 24.358830915413566 210.31031406861823 27.344505455189722 208.32021865604472 27.344505455189722 205.33499961991077 C 28.339325409655405 174.48798930410524 19.38351646670606 150.6065406841281 19.38351646670606 149.61141706056765 C 18.38869651224037 147.62132164799408 18.38869651224037 147.62132164799408 17.39387655777468 146.62627394170738 Z" stroke="none" stroke-linejoin="miter" stroke-linecap="butt" fill="#F2C2CF" fill-rule="nonzero" fill-opacity="1"/></g><g id="kwph7s8y5bp" transform="translate(426.3644813062564 41.149622812562825)" class=""><path d="M 0 6.9654098612810404 C 0 3.106534839494496 3.106534839494496 0 6.965561695828424 0 C 10.823981213972816 0 13.931123391656849 3.106534839494496 13.931123391656849 6.9654098612810404 C 13.931123391656849 10.824284883067584 10.823981213972816 13.930819722562081 6.965561695828424 13.930819722562081 C 3.106534839494496 13.930819722562081 0 10.824284883067584 0 6.9654098612810404 Z" stroke="none" stroke-linejoin="miter" stroke-linecap="butt" fill="#F2C2CF" fill-rule="nonzero" fill-opacity="1"/></g></g></g></svg></svg>