<svg id="draw.id" overflow="visible" v:ver="3" x="500.5" xmlns="http://www.w3.org/2000/svg" xmlns:v="http://vecta.io" xmlns:xlink="http://www.w3.org/1999/xlink" y="500.5" v:layers="{&quot;default&quot;:{&quot;name&quot;:&quot;Default&quot;,&quot;print&quot;:1,&quot;display&quot;:1,&quot;publish&quot;:1}}" v:stencils="{&quot;0&quot;:{&quot;id&quot;:&quot;stencil_25&quot;,&quot;expand&quot;:1,&quot;show_name&quot;:1},&quot;1&quot;:{&quot;id&quot;:&quot;stencil_65&quot;,&quot;expand&quot;:1,&quot;show_name&quot;:1}}"><style xmlns="http://www.w3.org/1999/xhtml"><![CDATA[#draw\.id{stroke:#000;stroke-linecap:round;stroke-linejoin:round;fill:#fff;fill-rule:evenodd;font-family:Roboto;font-size:14px;text-anchor:middle}#draw\.id text{paint-order:stroke;white-space:pre}#draw\.id .Text\.cls{stroke:none}]]></style><defs><style type="text/css">@import url('https://fonts.googleapis.com/css?family=Roboto+Condensed:400,400i,700,700i');@import url('https://fonts.googleapis.com/css?family=Roboto:400,400i,700,700i');@import url('https://fonts.googleapis.com/css?family=Cousine:400,400i,700,700i');@import url('https://fonts.googleapis.com/css?family=Anonymous+Pro:400,400i,700,700i');@import url('https://fonts.googleapis.com/css?family=Lato:400,400i,700,700i');@import url('https://fonts.googleapis.com/css?family=Open+Sans:400,400i,700,700i');</style></defs><title xmlns="http://www.w3.org/1999/xhtml">Untitled drawing</title><desc xmlns="http://www.w3.org/1999/xhtml"></desc><svg height="500" id="kwpfkecs3d" overflow="visible" v:setup="{&quot;paper&quot;:&quot;CUSTOM&quot;,&quot;unit&quot;:&quot;px&quot;,&quot;scale&quot;:{&quot;from&quot;:&quot;1&quot;,&quot;to&quot;:&quot;1&quot;},&quot;width&quot;:&quot;500px&quot;,&quot;height&quot;:&quot;500px&quot;,&quot;margin&quot;:{&quot;top&quot;:&quot;0&quot;,&quot;bottom&quot;:&quot;0&quot;,&quot;left&quot;:&quot;0&quot;,&quot;right&quot;:&quot;0&quot;}}" viewBox="0 0 500 500" width="500"><g id="kwph6req53c" transform="translate(5 40.19031242530281)" class=""><path d="M 484.95245499498776 57.15095421350446 L 473.002789287517 73.08366469493897 L 428.1919987234363 73.08366469493897 L 434.16652768454924 61.13415082715217 L 459.06141133126056 33.251850504774445 C 461.05312358004625 31.260290184528788 461.05312358004625 28.272873731003898 459.06141133126056 26.28131341075821 C 457.0696990824744 24.289753090512512 454.0824346019183 24.289753090512512 452.0907223531322 26.28131341075821 L 452.0907223531322 26.28131341075821 L 431.17926320399295 50.18041711948822 L 422.2168619770783 36.23926695829932 C 421.2213097453081 33.251850504774445 418.23404526475156 32.25607034465162 415.24678078419544 33.251850504774445 C 412.2589085183938 34.24770663805368 411.26335628662343 37.23504711842218 412.2589085183938 40.22246357194707 C 412.2589085183938 40.22246357194707 412.2589085183938 41.2182437320699 413.25506853540963 41.2182437320699 L 424.20857422586454 59.14259050690649 L 417.2378852477363 73.08366469493897 L 382.3850481423403 68.10468792116845 L 389.3557371204686 39.22668341182423 L 416.24233301596615 13.335943409692241 C 418.23404526475156 11.344383089446548 418.23404526475156 8.35696663592168 416.24233301596615 6.365406315675995 C 414.2506207671797 4.373845995430302 411.26335628662343 4.373845995430302 409.2716440378377 6.365406315675995 L 409.2716440378377 6.365406315675995 L 387.36402487168243 28.272873731003898 L 381.38949591056996 11.344383089446548 C 380.39394367879953 8.35696663592168 377.40607141299796 7.3611864757988315 375.4149669494571 8.35696663592168 C 372.4270946836555 9.352822769200852 371.4315424518855 12.340163249569388 372.4270946836555 14.331799542971416 L 380.39394367879953 36.23926695829932 L 373.4232547006714 68.10468792116845 L 363.46530124198677 73.08366469493897 L 339.56596982704576 61.13415082715217 L 350.52008330274566 44.20566018559477 C 352.5111877662866 42.214023892192785 351.51563553451587 39.22668341182423 349.5239232857303 37.23504711842218 C 347.532211036944 35.24348679817653 344.54494655638786 36.23926695829932 342.55323430760205 38.23082727854506 C 342.55323430760205 38.23082727854506 342.55323430760205 38.23082727854506 342.55323430760205 38.23082727854506 L 331.5997286171471 54.16361373313594 L 316.66279842912013 36.23926695829932 L 337.57425757825945 18.314920183462785 C 339.56596982704576 16.323359863217078 339.56596982704576 13.335943409692241 338.5704175952754 11.344383089446548 C 336.5787053464892 9.352822769200852 333.59144086593295 9.352822769200852 331.5997286171471 10.3486029293237 L 311.68382169977787 27.277093570881053 L 299.7341559923075 2.3822097020282738 C 298.73860376053705 0.3906493817825873 295.7513392799808 -0.6051307783402566 292.76346701417907 0.3906493817825873 C 290.7723625506384 1.3864295419054322 289.77620253362295 4.373845995430302 290.7723625506384 6.365406315675995 L 304.71313272164946 37.23504711842218 C 304.71313272164946 37.23504711842218 304.71313272164946 38.23082727854506 305.70929273866534 38.23082727854506 L 305.70929273866534 38.23082727854506 L 328.61246413659086 66.11312760092271 C 328.61246413659086 66.11312760092271 328.61246413659086 66.11312760092271 329.608016368361 67.10890776104561 C 329.608016368361 67.10890776104561 329.608016368361 67.10890776104561 329.608016368361 67.10890776104561 L 329.608016368361 67.10890776104561 L 329.608016368361 67.10890776104561 L 358.4863245126441 83.0416182424801 L 358.4863245126441 84.03747437575932 C 350.52008330274566 79.05849760198872 341.55768207583156 76.07108114846388 336.5787053464892 76.07108114846388 C 331.5997286171471 77.06686130858672 328.61246413659086 81.0500579222344 329.608016368361 86.029034696005 C 330.60417638537655 92.99957179002121 333.59144086593295 99.9701848571938 338.5704175952754 105.94494179108726 L 305.70929273866534 143.7851956610059 C 277.8265368261522 144.7809758211289 248.94883646711412 146.77253614137464 222.06224057161677 151.75151291514518 C 204.13804590303357 154.73892936866986 183.22597896864877 152.74729307526795 162.31451981950946 150.75573275502228 C 133.43621167522596 147.76831630149726 105.55406354795826 144.7809758211289 89.62158112816103 157.72626984903854 C 84.64260439881885 161.70946646268624 80.65917990124686 166.68844323645683 76.67636318892019 171.66742001022752 C 68.70951419377633 173.65905630362946 45.806342795850874 182.62115371789136 45.806342795850874 231.41521726863053 C 45.806342795850874 234.4024817758426 47.798055044636854 236.39419404240095 50.78531952519317 236.39419404240095 C 55.76429625453545 236.39419404240095 60.74327298387779 233.40677758887614 64.72669748144968 229.42350500207198 C 64.72669748144968 234.4024817758426 64.72669748144968 238.38575436264668 64.72669748144968 243.36473113641728 L 64.72669748144968 247.34785177690858 C 63.73053746443402 250.3352682304335 62.73498523266374 253.32268468395824 60.74327298387779 256.3101011374834 C 58.751560735091765 259.2973656446955 57.756008503321425 263.2806382314996 57.756008503321425 266.2680546850245 C 49.78976729342284 270.25117532551565 42.8190783152946 274.234295966007 35.84838933716634 279.2132727397775 C 34.852837105396 280.20912887305684 34.852837105396 280.20912887305684 33.856677088380344 281.20498500633585 L 0 356.88534079986067 C 0 357.8811969331399 0 357.8811969331399 0 358.8769011201064 L 0 369.8307108009268 C 0 372.81812725445184 1.9917122487859702 374.80968757469725 4.978976729342281 374.80968757469725 L 21.907619166155108 374.80968757469725 C 24.89488364671142 374.80968757469725 26.886595895497372 372.81812725445184 26.886595895497372 369.8307108009268 L 26.886595895497372 360.8686133866647 C 28.87770035903808 354.8937804796152 40.8273660665086 319.0450869299421 71.69738645957793 298.13347564789336 C 77.67191542069055 294.15020306108926 83.64644438180318 290.167082420598 88.62542111114549 286.1839617801064 C 86.63431664760476 289.1712262873185 84.64260439881885 291.16293855387727 83.64644438180318 294.15020306108926 C 82.65089215003282 296.14191532764727 79.6636276694765 302.11659628838447 110.5330402773006 361.8643175736314 L 110.5330402773006 369.8307108009268 C 110.5330402773006 372.81812725445184 112.52475252608654 374.80968757469725 115.51201700664285 374.80968757469725 C 115.51201700664285 374.80968757469725 115.51201700664285 374.80968757469725 115.51201700664285 374.80968757469725 L 135.427923924012 374.80968757469725 C 138.41518840456823 374.80968757469725 140.4069006533543 372.81812725445184 140.4069006533543 370.82656693420597 C 141.40306067036988 362.8601737069105 135.427923924012 350.91065983912364 125.46997046532748 331.9904569310078 C 122.48270598477112 327.0114801572374 120.49099373598513 321.0367991965002 118.49928148719916 317.0535266096962 C 116.50817702365843 314.0661101561712 116.50817702365843 311.0788456489592 116.50817702365843 307.0955730621549 C 116.50817702365843 306.09986887518863 117.50372925542887 305.10401274190957 118.49928148719916 305.10401274190957 C 119.49544150421484 305.10401274190957 120.49099373598513 304.1081566086302 120.49099373598513 304.1081566086302 L 164.30623206829543 262.2847820982203 L 168.28904878062207 263.2806382314996 C 188.2049556979911 271.24703145879465 200.15462140546163 273.23859177904063 243.969859737772 272.24273564576134 C 245.96157198655786 282.20068919330225 251.93610094767035 307.0955730621549 258.9067899257987 318.04938274297535 C 255.9195254452424 333.9820172512536 252.9316531794409 367.8391504806808 252.9316531794409 368.8348546676475 C 252.9316531794409 371.8222711211725 254.92336542822684 373.813831441418 257.9106299087833 373.813831441418 C 257.9106299087833 373.813831441418 257.9106299087833 373.813831441418 257.9106299087833 373.813831441418 L 274.83927234559593 373.813831441418 C 277.8265368261522 373.813831441418 279.8182490749382 371.8222711211725 279.8182490749382 368.8348546676475 L 279.8182490749382 361.8643175736314 C 282.8055135554946 344.9358269320737 284.7972258042806 329.003040477483 285.79338582129617 312.0745498359259 C 285.79338582129617 303.11245242166353 286.7889380530663 284.19224951354823 287.7844902848367 273.23859177904063 C 303.71758048987925 282.20068919330225 322.63732739023277 292.1586427408434 322.63732739023277 292.1586427408434 C 326.6207518878046 295.1460591943684 330.60417638537655 299.12917983485966 331.5997286171471 304.1081566086302 C 333.59144086593295 314.0661101561712 347.532211036944 368.8348546676475 348.5283710539599 369.8307108009268 C 349.5239232857303 371.8222711211725 351.51563553451587 373.813831441418 353.5073477833022 373.813831441418 L 371.4315424518855 373.813831441418 C 372.4270946836555 373.813831441418 373.4232547006714 373.813831441418 374.4188069324417 372.81812725445184 C 378.4022314300136 368.8348546676475 377.40607141299796 359.8727572533853 370.43599022011523 344.9358269320737 C 363.46530124198677 326.0157759702709 356.4946122638586 307.0955730621549 352.5111877662866 287.17966596707305 C 352.5111877662866 284.19224951354823 350.52008330274566 276.2260082325655 336.5787053464892 267.2637588719908 C 333.59144086593295 265.2721985517452 330.60417638537655 263.2806382314996 326.6207518878046 262.2847820982203 L 324.6290396390189 261.2890779112536 C 334.5869930977034 258.30166145772904 343.5493943246175 252.32682855067915 350.52008330274566 244.36043532338388 C 354.50290001507244 240.37731468289238 358.4863245126441 237.38989822936745 362.4691412249709 233.40677758887614 C 372.4270946836555 225.44038436158058 380.39394367879953 214.4866506539168 383.3812081593558 202.53706081297352 L 393.3391616180401 159.71790614244046 C 397.32197833036656 159.71790614244046 402.3009550597095 158.72212598231775 406.2843795572814 158.72212598231775 C 412.2589085183938 157.72626984903854 418.23404526475156 157.72626984903854 424.20857422586454 157.72626984903854 C 442.1327688944476 157.72626984903854 447.11174562378983 154.73892936866986 452.0907223531322 149.75995259489946 C 457.0696990824744 144.7809758211289 457.0696990824744 127.85240920641513 454.0824346019183 121.87765227252176 C 453.08688237014775 119.88609195227609 451.0951701213617 117.89445565887411 449.10345787257586 117.89445565887411 C 435.1626877015646 113.91133501838267 416.24233301596615 104.94916163096434 413.25506853540963 100.96596501731662 C 409.2716440378377 94.99120808342323 392.34300160102487 93.9954279233004 377.40607141299796 93.9954279233004 L 369.4398302030992 81.0500579222344 L 377.40607141299796 77.06686130858672 L 419.22959749652193 83.0416182424801 L 475.99005376807315 83.0416182424801 C 477.98176601685935 83.0416182424801 478.97731824862944 82.04583808235722 479.97347826564527 81.0500579222344 L 493.9142484366565 63.125711147397865 C 495.9059606854423 61.13415082715217 494.9104084536723 58.14673437362731 492.91869620488615 56.15517405338161 C 489.93143172432974 55.15939389325879 486.9435594585284 55.15939389325879 484.95245499498776 57.15095421350446 L 484.95245499498776 57.15095421350446 Z M 56.760456271551114 224.44452822830155 C 57.756008503321425 203.53291694625293 63.73053746443402 193.57496339871156 69.705674210792 187.60013049166204 C 67.713961962006 195.56652371895737 65.72224971322 203.53291694625293 65.72224971322 212.4950143605148 C 62.73498523266374 216.47821097416244 59.74772075210742 220.46140758781013 56.760456271551114 224.44452822830155 Z M 114.51646477487255 296.14191532764727 C 111.52920029431618 297.13761951461396 109.53748804553025 300.12503596813883 107.54577579674424 303.11245242166353 C 105.55406354795826 309.0871333824007 105.55406354795826 316.05782242272966 108.54132802851461 321.0367991965002 C 110.5330402773006 325.01991983699156 113.5203047578569 330.99475274404136 116.50817702365843 335.973729517812 C 121.48715375300077 344.9358269320737 125.46997046532748 354.8937804796152 129.45339496289935 364.8517340271562 L 120.49099373598513 364.8517340271562 L 120.49099373598513 361.8643175736314 C 120.49099373598513 360.8686133866647 120.49099373598513 359.8727572533853 119.49544150421484 358.8769011201064 C 106.55022356497398 333.9820172512536 92.60884560871739 304.1081566086302 91.61329337694706 298.13347564789336 C 92.60884560871739 296.14191532764727 95.59611008927371 293.15449887412257 97.58782233805962 290.167082420598 C 102.56679906740199 284.19224951354823 106.55022356497398 278.21756855281075 109.53748804553025 271.24703145879465 C 117.50372925542887 265.2721985517452 122.48270598477112 262.2847820982203 124.47441823355706 260.29322177797434 C 133.43621167522596 258.30166145772904 142.3986129021403 258.30166145772904 151.36101412905444 260.29322177797434 L 114.51646477487255 296.14191532764727 Z M 269.8602956162536 361.8643175736314 C 269.8602956162536 361.8643175736314 269.8602956162536 362.8601737069105 269.8602956162536 361.8643175736314 L 269.8602956162536 364.8517340271562 L 262.8896066381255 364.8517340271562 C 263.885766655141 353.89792434633586 265.877478903927 329.003040477483 268.86474338448323 318.04938274297535 C 268.86474338448323 316.05782242272966 268.86474338448323 315.0619662894506 267.8685833674677 314.0661101561712 C 262.8896066381255 308.0914291954344 256.91507767701285 287.17966596707305 253.92781319645655 272.24273564576134 L 277.8265368261522 271.24703145879465 C 276.8309845943817 283.1965453265817 274.83927234559593 303.11245242166353 275.8354323626113 312.0745498359259 C 274.83927234559593 329.9988966107624 272.84756009680984 345.93168306535307 269.8602956162536 361.8643175736314 L 269.8602956162536 361.8643175736314 Z M 406.2843795572814 104.94916163096434 C 412.2589085183938 113.91133501838267 440.1416644309067 123.86928856592381 446.1161933920195 125.86084888616946 C 447.11174562378983 130.8398256599401 446.1161933920195 136.81458259383328 445.12064116024925 141.79355936760402 C 443.1289289114631 143.7851956610059 441.1372166626773 145.77675598125163 424.20857422586454 146.77253614137464 C 418.23404526475156 146.77253614137464 411.26335628662343 147.76831630149726 405.288827325511 147.76831630149726 C 393.3391616180401 148.7641724347766 381.38949591056996 150.75573275502228 373.4232547006714 146.77253614137464 C 363.46530124198677 141.79355936760402 361.4735889932007 135.8188024337107 361.4735889932007 135.8188024337107 C 361.4735889932007 132.8313859801858 358.4863245126441 130.8398256599401 355.49906003208815 131.83560582006282 C 352.5111877662866 131.83560582006282 350.52008330274566 134.82302227358767 351.51563553451587 137.81036275395638 C 351.51563553451587 138.80621888723542 353.5073477833022 148.7641724347766 368.44427797132875 156.73048968891564 C 372.4270946836555 158.72212598231775 377.40607141299796 159.71790614244046 381.38949591056996 159.71790614244046 L 372.4270946836555 200.54550049272788 C 369.4398302030992 210.5034540402691 363.46530124198677 219.46562742768734 355.49906003208815 225.44038436158058 C 350.52008330274566 229.42350500207198 346.53665880517394 232.410921455597 342.55323430760205 236.39419404240095 C 333.59144086593295 245.3562914566629 326.6207518878046 252.32682855067915 311.68382169977787 252.32682855067915 C 308.69655721922135 252.32682855067915 306.7048449704358 255.31424500420408 306.7048449704358 257.3058053244496 C 306.7048449704358 258.30166145772904 306.7048449704358 258.30166145772904 307.7003972022061 259.2973656446955 C 310.6882694680076 264.27634241846573 315.6672461973497 269.2553191922367 321.6417751584626 271.24703145879465 C 324.6290396390189 272.24273564576134 327.61630411957515 274.234295966007 329.608016368361 275.23015209928593 C 340.5621298440611 282.20068919330225 341.55768207583156 288.1755221003523 341.55768207583156 288.1755221003523 L 341.55768207583156 288.1755221003523 C 341.55768207583156 288.1755221003523 341.55768207583156 289.1712262873185 341.55768207583156 289.1712262873185 C 341.55768207583156 291.16293855387727 351.51563553451587 329.9988966107624 360.4780367614305 349.91480370584435 C 362.4691412249709 354.8937804796152 364.460853473757 359.8727572533853 365.45701349077257 364.8517340271562 L 355.49906003208815 364.8517340271562 C 352.5111877662866 351.90636402609 341.55768207583156 311.0788456489592 339.56596982704576 303.11245242166353 C 337.57425757825945 295.1460591943684 332.5952808489174 289.1712262873185 325.62519965603445 285.188105646827 C 325.62519965603445 285.188105646827 302.7214204728637 273.23859177904063 286.7889380530663 263.2806382314996 L 286.7889380530663 263.2806382314996 C 285.79338582129617 261.2890779112536 284.7972258042806 260.29322177797434 282.8055135554946 260.29322177797434 C 280.8144090919537 260.29322177797434 278.822696843168 261.2890779112536 277.8265368261522 263.2806382314996 C 201.15078142247742 265.2721985517452 191.19282796379267 264.27634241846573 170.28076102940796 255.31424500420408 C 154.34827860961067 249.33941209715448 137.41963617279796 248.34370791018787 120.49099373598513 251.3311243637128 C 119.49544150421484 251.3311243637128 119.49544150421484 252.32682855067915 118.49928148719916 252.32682855067915 C 118.49928148719916 252.32682855067915 112.52475252608654 256.3101011374834 101.57124683563165 264.27634241846573 C 101.57124683563165 264.27634241846573 100.575086818616 264.27634241846573 100.575086818616 265.2721985517452 C 91.61329337694706 271.24703145879465 79.6636276694765 280.20912887305684 63.73053746443402 290.167082420598 C 26.886595895497372 315.0619662894506 14.936930188026855 356.88534079986067 13.940770171011227 358.8769011201064 C 13.940770171011227 359.8727572533853 13.940770171011227 359.8727572533853 13.940770171011227 360.8686133866647 L 13.940770171011227 365.84759016043535 L 9.957953458684562 365.84759016043535 L 9.957953458684562 359.8727572533853 L 42.8190783152946 288.1755221003523 C 49.78976729342284 283.1965453265817 56.760456271551114 279.2132727397775 64.72669748144968 275.23015209928593 C 67.713961962006 274.234295966007 68.70951419377633 272.24273564576134 68.70951419377633 269.2553191922367 C 67.713961962006 266.2680546850245 68.70951419377633 265.2721985517452 70.7012264425623 262.2847820982203 C 72.69293869134825 258.30166145772904 74.68465094013426 254.31838887092468 75.68020317190455 249.33941209715448 C 75.68020317190455 249.33941209715448 75.68020317190455 248.34370791018787 75.68020317190455 248.34370791018787 L 75.68020317190455 243.36473113641728 C 75.68020317190455 232.410921455597 74.68465094013426 222.45296790805585 75.68020317190455 213.4908704937938 C 75.68020317190455 213.4908704937938 75.68020317190455 213.4908704937938 75.68020317190455 213.4908704937938 C 76.67636318892019 193.57496339871156 80.65917990124686 177.64217694412068 95.59611008927371 165.69266307633396 C 108.54132802851461 155.73470952879285 134.43237169224162 157.72626984903854 161.3189675877389 160.71368630256347 C 182.2304267368785 162.70524662280909 204.13804590303357 164.69688291621114 223.05779280338714 160.71368630256347 C 250.9405487159001 155.73470952879285 278.822696843168 152.74729307526795 307.7003972022061 152.74729307526795 C 308.69655721922135 152.74729307526795 310.6882694680076 151.75151291514518 311.68382169977787 150.75573275502228 L 345.5411065734036 110.92391856485779 C 348.5283710539599 113.91133501838267 352.5111877662866 115.90289533862838 357.49016449562896 116.89867549875125 L 358.4863245126441 116.89867549875125 C 361.4735889932007 116.89867549875125 363.46530124198677 114.9071151785055 364.460853473757 111.91969872498062 C 364.460853473757 108.93235824461213 362.4691412249709 106.94072195121005 359.4818767444147 105.94494179108726 C 352.5111877662866 103.95338147084149 346.53665880517394 98.97440469707095 343.5493943246175 92.99957179002121 C 341.55768207583156 91.00801146977551 340.5621298440611 88.02059501625064 339.56596982704576 85.03325453588215 C 345.5411065734036 86.029034696005 362.4691412249709 95.98698824354605 376.41051918122747 105.94494179108726 C 378.4022314300136 107.93650211133296 381.38949591056996 106.94072195121005 383.3812081593558 104.94916163096434 C 383.3812081593558 104.94916163096434 383.3812081593558 104.94916163096434 383.3812081593558 104.94916163096434 C 384.3767603911263 103.95338147084149 384.3767603911263 102.9575253375623 384.3767603911263 101.96174517743951 C 391.3474493692543 101.96174517743951 399.31369057915305 102.9575253375623 406.2843795572814 104.94916163096434 Z" stroke="none" stroke-linejoin="miter" stroke-linecap="butt" fill="#F2C2CF" fill-rule="nonzero"/></g></svg></svg>