<?xml version="1.0" encoding="UTF-8"?> <!-- Generator: Adobe Illustrator 22.1.0, SVG Export Plug-In . SVG Version: 6.00 Build 0) --> <svg xmlns="http://www.w3.org/2000/svg" xmlns:xlink="http://www.w3.org/1999/xlink" id="Layer_1" x="0px" y="0px" viewBox="0 0 30 34.1" style="enable-background:new 0 0 30 34.1;" xml:space="preserve"> <style type="text/css"> .st0{fill:#F2C2CF;} .st1{fill:#F2C2CF;} .st2{fill:#FFDF13;} .st3{fill-rule:evenodd;clip-rule:evenodd;fill:#156D69;} .st4{opacity:0.36;fill-rule:evenodd;clip-rule:evenodd;fill:#156D69;} .st5{fill:#FFFFFF;} .st6{clip-path:url(#SVGID_2_);stroke:#4794E0;stroke-width:5.52;} .st7{fill:#D31515;} .st8{fill:none;stroke:#2C2C2B;stroke-width:0.3354;stroke-linecap:round;stroke-linejoin:round;} .st9{fill:#2C2C2B;} .st10{fill:none;stroke:#2C2C2B;stroke-width:0.6653;} .st11{fill:#D31515;stroke:#2C2C2B;stroke-width:0.8559;stroke-linejoin:round;} .st12{fill:#FFFFFF;stroke:#2C2C2B;stroke-width:0.3354;stroke-linejoin:round;} .st13{fill:#FFFFFF;stroke:#2C2C2B;stroke-width:0.8559;stroke-linejoin:round;} .st14{fill:#FFFFFF;stroke:#2C2C2B;stroke-width:0.5596;} .st15{fill:#FFFFFF;stroke:#2C2C2B;stroke-width:7.289221e-02;} .st16{fill:#009B3A;} .st17{fill:#FEDF00;} .st18{fill:#002776;} .st19{fill:#212125;} .st20{fill:#C40008;} .st21{fill:#FFEC00;} .st22{fill:#294292;} .st23{opacity:0.38;} .st24{opacity:0.26;fill-rule:evenodd;clip-rule:evenodd;fill:#156D69;} .st25{opacity:0.51;fill-rule:evenodd;clip-rule:evenodd;fill:#156D69;} </style> <path class="st1" d="M0.5,9.8l0,0.2l2.3,1.6l-2-0.3L1.1,12c0.5,1.3,1.1,2.6,1.8,3.8L3,15.9l1.4,0.4l-1.1,0.1l0.5,0.7 c1,1.3,2.2,2.5,3.5,3.6l0.1,0.1l0,0l0.5,0.4c0.8,0.6,1.7,1.2,2.6,1.7l0.2,0.1l1.2-0.4l-0.3,0.9l0.4,0.2c1.2,0.6,2.2,0.9,2.6,1 c0,4.9-5.6,5.7-5.8,5.8l-1,0.1l0.7,0.7c1.5,1.4,3.4,2.2,5.7,2.4l0.4,0l0.5-0.6v0.6l0.4,0c1.5,0,2.3-0.3,2.3-0.3l0.5-0.2l-0.3-0.5 c-0.5-1.2-0.3-2.2-0.1-2.6c0.3-0.1,0.6-0.2,1-0.3c0.3,0.4,0.6,0.7,1,0.9c0,0,0,0,0,0c0.1,0,0.1,0.1,0.2,0.1c0,0,0,0,0,0 c0.1,0,0.2,0,0.2,0.1c0,0,0,0,0,0c0,0,0.1,0,0.1,0c0,0,0.1-0.1,0.1-0.1c0,0,0,0,0,0c0,0,0,0,0,0c0,0,0.1,0.1,0.1,0.1l0.6,1.6 L21,33.3l0.8,0.5l0.5-0.8l0-0.1c0.1-0.2,0.4-0.4,0.6-0.6l0,0.1L22.5,33l0.8,0.5l0.7-1.1l0-0.1c0.4-0.5,1.1-1.3,1.5-1.3c0,0,0,0,0,0 c0,0,0.1,0.1,0.2,0.3l0.8-0.5c-0.3-0.5-0.7-0.6-1-0.6c-0.4,0-0.7,0.1-1,0.3c0,0-0.1,0-0.1,0c0-0.1,0.1-0.1,0.1-0.2 c0.1-0.1,0.3-0.2,0.5-0.2l0-1c-0.4,0-0.9,0.1-1.2,0.4c-0.1,0.1-0.3,0.3-0.4,0.5l0-0.7c-0.2,0-0.3,0-0.5,0.1c0.1-0.8-0.3-1.8-0.6-2.6 c0.7-1,1.1-1.9,1.2-2.1c0.7-1.4,1.3-1.5,1.6-1.5c0.1,0,0.1,0,0.1,0l0,0v0c0.7,0.2,1.1,0.3,1.5,0.3c0.1,0,0.2,0,0.2,0 c0.1,0,0.2,0,0.2,0c0.8,0,1.4,1.1,1.4,1.1l0.4,0.7l0.4-0.7c0.7-1.1,0.7-2.3-0.1-3.3c-0.6-2.2-2.6-3.5-5.4-3.5 c-0.6,0-1.2,0.1-1.8,0.2c-0.9,0-1.5-0.3-1.9-0.9c-1-1.3-0.5-3.5-0.5-3.5l0-0.1c0.2-8.1-4.2-13.3-4.3-13.5L15.1,0l-0.4,0.3 c-2.3,1.8-3.1,5.1-3.2,6.9C6.7,3.3,1.1,2.1,0.7,2L0.2,1.9L0.2,2.4C-0.1,5,0,7.5,0.5,9.8z M20.2,18.7C18,18.3,17,14.9,17,14.9l0,0 C16,12,14.3,9.8,12.4,8c-0.1-0.8,0.4-4.7,2.5-6.7c1,1.3,3.9,6,3.8,12.4c-0.1,0.4-0.5,2.7,0.7,4.3C19.7,18.3,19.9,18.5,20.2,18.7z M27.8,22.9c0.3-0.3,0.7-0.4,0.9-0.5c0.3,0.4,0.4,0.9,0.2,1.3C28.7,23.4,28.3,23.1,27.8,22.9z M25.5,23.3l0.1-0.2L25.5,23.3 L25.5,23.3z M21.8,27.9c0.3,0.8,0.4,1.5,0.4,1.8c-0.1,0-0.3-0.1-0.5-0.3c0,0,0-0.1,0-0.1c-0.1-0.3-0.1-0.6-0.2-0.9 C21.5,28.2,21.6,28.1,21.8,27.9z M21.8,31l-0.2-0.5c0.1,0,0.2,0.1,0.4,0.1C21.9,30.7,21.9,30.9,21.8,31z M23.4,30.6 c0,0.1-0.1,0.1-0.1,0.2l-0.1-0.1C23.3,30.6,23.4,30.6,23.4,30.6z M1.1,3c2.4,0.6,12.1,3.7,15,12.1c0.1,0.3,1.4,4.5,4.4,4.5h0 c0.4,0,0.8-0.1,1.2-0.2c0.7-0.3,1.5-0.4,2.3-0.4c1.7,0,3.7,0.7,4.3,2.5c-0.2,0.1-0.4,0.2-0.7,0.3c-0.3-0.5-1.5-1.9-1.5-1.9l0.1,1.5 l1.3,0.5c-0.3,0.2-0.6,0.5-0.8,0.9c-0.3,0-0.6-0.1-1-0.2l-0.1,0c-0.1,0-0.3-0.1-0.5-0.1c-0.6,0-1.6,0.4-2.4,2.1l0,0 c0,0-0.6,1.4-1.7,2.7c-0.1-0.2-0.2-0.4-0.3-0.6l-0.9,0.4c0.1,0.3,0.3,0.6,0.4,0.9l0.1,0.3c0.1,0.2,0.1,0.3,0.1,0.4 c0,0.1,0,0.1,0.1,0.2c0,0,0,0,0,0c0,0.1,0,0.1,0.1,0.2c0.1,0.6,0.1,0.8,0.1,0.9c0,0,0,0,0,0c0,0,0,0,0,0c-0.1,0-0.2-0.1-0.4-0.2 c0,0,0,0,0,0c0,0-0.1-0.1-0.1-0.1c0,0-0.1-0.1-0.1-0.1c0,0-0.1-0.1-0.1-0.1c-0.1-0.1-0.1-0.1-0.2-0.2c0-0.1-0.1-0.1-0.1-0.2 c-0.2-0.3-0.5-0.7-0.7-1.2L18,28.4c0.1,0.2,0.2,0.5,0.4,0.7c-0.3,0.1-0.5,0.2-0.8,0.2l-0.2,0l-0.1,0.2c0,0.1-0.8,1.4-0.2,3.1 c-0.3,0-0.5,0.1-1.2,0.1V30L14,32.7c-1.6-0.2-2.9-0.7-4.1-1.5c1.9-0.5,5.9-2.2,5.7-6.9l0-0.4l-0.3-0.1c0,0-1-0.3-2.4-0.9l0.6-1.9 L10.9,22c-0.6-0.4-1.2-0.7-1.8-1.1l2.5-1.7l-3.9,0.7c-1-0.8-1.9-1.7-2.6-2.6l4.6-0.4l-6-1.7c-0.5-0.9-1-1.8-1.3-2.7L6.7,13L1.4,9.4 C1,7.4,0.9,5.3,1.1,3z"></path> </svg> 