<?xml version="1.0" encoding="UTF-8"?> <!-- Generator: Adobe Illustrator 22.1.0, SVG Export Plug-In . SVG Version: 6.00 Build 0) --> <svg xmlns="http://www.w3.org/2000/svg" xmlns:xlink="http://www.w3.org/1999/xlink" id="Layer_1" x="0px" y="0px" viewBox="0 0 28.3 36.5" style="enable-background:new 0 0 28.3 36.5;" xml:space="preserve"> <style type="text/css"> .st0{fill:#F2C2CF;} .st1{fill:#F2C2CF;} .st2{fill:#FFDF13;} .st3{fill-rule:evenodd;clip-rule:evenodd;fill:#156D69;} .st4{opacity:0.36;fill-rule:evenodd;clip-rule:evenodd;fill:#156D69;} .st5{fill:#FFFFFF;} .st6{clip-path:url(#SVGID_2_);stroke:#4794E0;stroke-width:5.52;} .st7{fill:#F2C2CF;} .st8{fill:none;stroke:#2C2C2B;stroke-width:0.3354;stroke-linecap:round;stroke-linejoin:round;} .st9{fill:#2C2C2B;} .st10{fill:none;stroke:#2C2C2B;stroke-width:0.6653;} .st11{fill:#D31515;stroke:#2C2C2B;stroke-width:0.8559;stroke-linejoin:round;} .st12{fill:#FFFFFF;stroke:#2C2C2B;stroke-width:0.3354;stroke-linejoin:round;} .st13{fill:#FFFFFF;stroke:#2C2C2B;stroke-width:0.8559;stroke-linejoin:round;} .st14{fill:#FFFFFF;stroke:#2C2C2B;stroke-width:0.5596;} .st15{fill:#FFFFFF;stroke:#2C2C2B;stroke-width:7.289221e-02;} .st16{fill:#009B3A;} .st17{fill:#FEDF00;} .st18{fill:#002776;} .st19{fill:#212125;} .st20{fill:#C40008;} .st21{fill:#FFEC00;} .st22{fill:#294292;} .st23{opacity:0.38;} .st24{opacity:0.26;fill-rule:evenodd;clip-rule:evenodd;fill:#156D69;} .st25{opacity:0.51;fill-rule:evenodd;clip-rule:evenodd;fill:#F2C2CF;} </style> <g> <path class="st1" d="M13.6,24.1c3.9-0.4,6.9-1.7,8.7-4c3.3-4,2.5-10,2-13.1c-0.1-0.8-0.2-1.7-0.2-1.9c0.1-0.2,0.2-0.3,0.4-0.5 l0.4-0.3c0.6-0.3,0.9-0.4,1.7-0.4c0.5,0,1,0,1.4,0c0.1,0,0.1,0,0.2-0.1c0-0.1,0-0.1-0.1-0.2c-1.1-0.8-2.1-1.7-3.1-2.6 c-0.6-0.6-1.7-0.9-2.7-0.6c-1.3,0.3-2.1,1.3-2.1,2.6c0,0.9,0.1,1.9,0.2,3.1c0.2,2.8,0.6,6.5-0.6,7.3c-0.5,0.3-1.4,0-2.1-0.4 c-4.4-2.4-8.8-2.5-12.5-0.3c-3.4,2-5.5,5.8-5.4,9.7c0,0.2,0.1,0.4,0.3,0.5c0.2,0.1,0.4,0.1,0.6,0c1.3-0.8,2.6-0.9,3.8-0.4 c-0.1,0.5-0.3,0.9-0.3,1.3c-0.1,0.3,0.1,0.6,0.4,0.7c2.2,1,4.7,1.3,7,0.1l0.5-0.3l-0.9,3.4c0,0.1,0,0.1,0,0.2l0.7,7.1h-0.8 c-0.3,0-0.6,0.3-0.6,0.6s0.3,0.6,0.6,0.6h3.7c0.3,0,0.6-0.3,0.6-0.6c0-0.3-0.3-0.6-0.6-0.6h-1.7l-0.7-7.1L13.6,24.1z M23.9,3.6 c-0.3,0.2-0.7,0.6-0.8,1.2c-0.1,0.4,0,1.1,0.1,2.5c0.4,3,1.2,8.6-1.8,12.2c-1.6,1.9-4.1,3.1-7.4,3.5c0.9-1.1,1.5-2.4,1.8-3.8 c0.1-0.3-0.2-0.7-0.5-0.7c-0.3-0.1-0.7,0.2-0.7,0.5c-0.4,2-1.6,3.8-3.3,4.7c-1.6,0.8-3.4,0.9-5.4,0.1c0.3-1.3,1-3,2-4.5 c0.7-0.9,1.7-2.1,2.8-2.5c1-0.3,0.7-0.9-0.3-0.7c-1.2,0.2-2.2,0.9-3.1,1.8c-1,1.1-1.6,2.4-2.1,3.6c-1.3-0.5-2.6-0.5-3.9,0 c0.3-3.1,2.1-6,4.8-7.6c3.2-1.9,7.2-1.8,11.2,0.3c1.4,0.8,2.5,0.9,3.4,0.3c1.8-1.2,1.5-4.9,1.2-8.4c-0.1-1.1-0.2-2.2-0.2-3 c0-1,0.9-1.3,1.2-1.4c0.6-0.1,1.4,0,1.7,0.6c0.2,0.4,0.2,0.9-0.1,1.1C24.2,3.3,24,3.4,23.9,3.6z M24.1,2.6c0-0.3-0.3-0.6-0.6-0.6 c-0.3,0-0.6,0.3-0.6,0.6c0,0.3,0.3,0.6,0.6,0.6C23.8,3.2,24.1,2.9,24.1,2.6z"></path> </g> </svg> 