<?xml version="1.0" encoding="UTF-8"?> <!-- Generator: Adobe Illustrator 22.1.0, SVG Export Plug-In . SVG Version: 6.00 Build 0) --> <svg xmlns="http://www.w3.org/2000/svg" xmlns:xlink="http://www.w3.org/1999/xlink" id="Layer_1" x="0px" y="0px" viewBox="0 0 29.6 21.8" style="enable-background:new 0 0 29.6 21.8;" xml:space="preserve"> <style type="text/css"> .st0{fill:#F2C2CF;} .st1{fill:#F2C2CF;} .st2{fill:#FFDF13;} .st3{fill-rule:evenodd;clip-rule:evenodd;fill:#156D69;} .st4{opacity:0.36;fill-rule:evenodd;clip-rule:evenodd;fill:#156D69;} .st5{fill:#FFFFFF;} .st6{clip-path:url(#SVGID_2_);stroke:#4794E0;stroke-width:5.52;} .st7{fill:#D31515;} .st8{fill:none;stroke:#2C2C2B;stroke-width:0.3354;stroke-linecap:round;stroke-linejoin:round;} .st9{fill:#2C2C2B;} .st10{fill:none;stroke:#2C2C2B;stroke-width:0.6653;} .st11{fill:#D31515;stroke:#2C2C2B;stroke-width:0.8559;stroke-linejoin:round;} .st12{fill:#FFFFFF;stroke:#2C2C2B;stroke-width:0.3354;stroke-linejoin:round;} .st13{fill:#FFFFFF;stroke:#2C2C2B;stroke-width:0.8559;stroke-linejoin:round;} .st14{fill:#FFFFFF;stroke:#2C2C2B;stroke-width:0.5596;} .st15{fill:#FFFFFF;stroke:#2C2C2B;stroke-width:7.289221e-02;} .st16{fill:#009B3A;} .st17{fill:#FEDF00;} .st18{fill:#002776;} .st19{fill:#212125;} .st20{fill:#C40008;} .st21{fill:#FFEC00;} .st22{fill:#294292;} .st23{opacity:0.38;} .st24{opacity:0.26;fill-rule:evenodd;clip-rule:evenodd;fill:#156D69;} .st25{opacity:0.51;fill-rule:evenodd;clip-rule:evenodd;fill:#156D69;} </style> <g> <path class="st1" d="M12.6,12.1c0-1.2,0.2-2.5,0.5-3.4c0.2-0.4,0.3-0.7,0.6-1c-0.1,0-0.2-0.1-0.3-0.2v0c-0.3-0.3-0.5-0.6-0.6-1.1 c-0.7-0.4-1.5-1.1-2.3-1.8C8.2,2.7,5.3,0,1.2,1.5c0.7,1.2,1.1,2.7,1.5,4.2c0.8,3.2,1.6,6.6,6.3,6.7c0.2,0,0.4,0.2,0.4,0.5 c0,0.2-0.2,0.4-0.4,0.4c-2.3,0.6-3.4,1.8-3.6,3.1c-0.2,0.7,0,1.4,0.2,2.1c0.2,0.6,0.7,1.3,1.2,1.7c0.9,0.7,2.1,1,3.2,0.3 c0.5-0.3,0.9-0.8,1.3-1.2c0.5-0.6,1-1.2,1.9-1.6c-0.2-0.5-0.2-1.1-0.2-1.7c0-0.2,0-0.6,0-0.9c0-0.2,0-0.4,0.1-0.6 C12.8,13.8,12.6,13.1,12.6,12.1z M13,5.5c0.1-0.3,0.2-0.5,0.4-0.7v0c0,0,0.1-0.1,0.1-0.1c-0.3-0.9-0.8-1.7-1.3-2.4s-1-1.2-1.5-1.4 c-0.2-0.1-0.3-0.4-0.2-0.6C10.7,0,11-0.1,11.2,0c0.6,0.3,1.2,0.9,1.8,1.7c0.5,0.7,0.9,1.5,1.3,2.5c0.1,0,0.2,0,0.4,0 c0.2,0,0.3,0,0.4,0.1c0.4-1,0.8-1.8,1.3-2.5c0.6-0.8,1.3-1.5,1.8-1.7c0.2-0.1,0.5,0,0.6,0.2c0.1,0.2,0,0.5-0.2,0.6 c-0.4,0.2-1,0.7-1.5,1.4C16.9,3,16.4,3.8,16,4.7c0,0,0.1,0.1,0.1,0.1v0c0.2,0.2,0.4,0.4,0.4,0.7c0.6-0.4,1.2-0.9,1.9-1.5 c2.5-2.2,5.9-5.2,10.8-3.2c0.2,0.1,0.3,0.4,0.2,0.6c0,0,0,0.1-0.1,0.1c-0.8,1.1-1.3,2.7-1.7,4.4c-0.7,3.1-1.5,6.3-5.2,7.2 c1.5,0.8,2.3,1.9,2.5,3.2c0.2,0.8,0,1.7-0.2,2.5c-0.3,0.8-0.8,1.5-1.5,2c-1.2,1-2.7,1.3-4.2,0.4c-0.6-0.4-1.1-0.9-1.5-1.4 c-0.4-0.5-0.9-1.1-1.5-1.3c-0.4,0.8-1,1.1-1.3,1.1s-0.9-0.4-1.3-1.1c-0.7,0.3-1.1,0.8-1.5,1.3c-0.4,0.5-0.8,1-1.5,1.4 c-1.5,0.9-3.1,0.6-4.2-0.4c-0.6-0.5-1.2-1.2-1.5-2c-0.3-0.8-0.4-1.7-0.2-2.5c0.2-1.2,1-2.4,2.5-3.2C3.3,12.2,2.5,9,1.8,5.9 C1.4,4.2,1,2.6,0.1,1.5c0,0,0-0.1,0-0.1c-0.1-0.2,0-0.5,0.2-0.6C5.2-1.2,8.6,1.7,11.1,4C11.8,4.6,12.4,5.1,13,5.5z M16.7,6.5 c0,0.4-0.2,0.8-0.5,1.1v0c-0.1,0.1-0.2,0.2-0.3,0.2c0.2,0.3,0.4,0.6,0.6,1c0.4,0.9,0.5,2.2,0.5,3.4c0,0.9-0.2,1.7-0.4,2.3 c0,0.2,0.1,0.4,0.1,0.7c0,0.3,0,0.6,0,0.8c0,0.7-0.1,1.3-0.2,1.7c0.8,0.4,1.3,1,1.9,1.6c0.4,0.4,0.8,0.9,1.3,1.2 c1.2,0.7,2.3,0.4,3.2-0.3c0.5-0.4,0.9-1,1.2-1.7c0.2-0.6,0.3-1.4,0.2-2.1c-0.2-1.3-1.3-2.5-3.7-3.1c-0.2,0-0.3-0.2-0.3-0.4 c0-0.2,0.2-0.4,0.4-0.5c4.6-0.2,5.5-3.6,6.2-6.7c0.4-1.6,0.8-3.1,1.5-4.2c-4.1-1.4-7.1,1.2-9.3,3.2C18.2,5.4,17.4,6.1,16.7,6.5z M15.8,15.6c-0.3,0.3-0.7,0.5-1,0.5l0,0c-0.3,0-0.7-0.2-1.1-0.5c0,0.1,0,0.2,0,0.3c0,0.8,0.2,1.5,0.4,1.9c0.3,0.6,0.6,0.9,0.7,0.9 c0.1,0,0.4-0.3,0.6-0.9c0.2-0.5,0.4-1.1,0.4-1.9C15.8,15.8,15.8,15.7,15.8,15.6z M14.8,7.2L14.8,7.2L14.8,7.2L14.8,7.2 c0.3,0,0.5-0.1,0.7-0.3c0.2-0.2,0.3-0.4,0.3-0.7c0-0.3-0.1-0.6-0.3-0.8c-0.2-0.2-0.4-0.3-0.7-0.3s-0.6,0.1-0.7,0.3 c-0.2,0.2-0.3,0.4-0.3,0.8c0,0.3,0.1,0.5,0.3,0.7C14.2,7.1,14.5,7.2,14.8,7.2z M14,9.1c-0.3,0.8-0.5,1.9-0.5,3 c0,0.9,0.2,1.7,0.4,2.2c0.3,0.5,0.6,0.8,0.8,0.8l0,0c0.2,0,0.6-0.3,0.8-0.8c0.2-0.6,0.4-1.3,0.4-2.2c0-1.1-0.2-2.3-0.5-3 c-0.2-0.6-0.5-1-0.8-1l0,0l0,0l0,0C14.5,8.1,14.2,8.5,14,9.1z"></path> </g> </svg> 