<?xml version="1.0" encoding="UTF-8"?> <!-- Generator: Adobe Illustrator 22.1.0, SVG Export Plug-In . SVG Version: 6.00 Build 0) --> <svg xmlns="http://www.w3.org/2000/svg" xmlns:xlink="http://www.w3.org/1999/xlink" id="Layer_1" x="0px" y="0px" viewBox="0 0 30.5 24.5" style="enable-background:new 0 0 30.5 24.5;" xml:space="preserve"> <style type="text/css"> .st0{fill:#358F8E;} .st1{fill:#F2C2CF;} .st2{fill:#FFDF13;} .st3{fill-rule:evenodd;clip-rule:evenodd;fill:#156D69;} .st4{opacity:0.36;fill-rule:evenodd;clip-rule:evenodd;fill:#156D69;} .st5{fill:#FFFFFF;} .st6{clip-path:url(#SVGID_2_);stroke:#4794E0;stroke-width:5.52;} .st7{fill:#D31515;} .st8{fill:none;stroke:#2C2C2B;stroke-width:0.3354;stroke-linecap:round;stroke-linejoin:round;} .st9{fill:#2C2C2B;} .st10{fill:none;stroke:#2C2C2B;stroke-width:0.6653;} .st11{fill:#D31515;stroke:#2C2C2B;stroke-width:0.8559;stroke-linejoin:round;} .st12{fill:#FFFFFF;stroke:#2C2C2B;stroke-width:0.3354;stroke-linejoin:round;} .st13{fill:#FFFFFF;stroke:#2C2C2B;stroke-width:0.8559;stroke-linejoin:round;} .st14{fill:#FFFFFF;stroke:#2C2C2B;stroke-width:0.5596;} .st15{fill:#FFFFFF;stroke:#2C2C2B;stroke-width:7.289221e-02;} .st16{fill:#009B3A;} .st17{fill:#FEDF00;} .st18{fill:#002776;} .st19{fill:#212125;} .st20{fill:#C40008;} .st21{fill:#FFEC00;} .st22{fill:#294292;} .st23{opacity:0.38;} .st24{opacity:0.26;fill-rule:evenodd;clip-rule:evenodd;fill:#156D69;} .st25{opacity:0.51;fill-rule:evenodd;clip-rule:evenodd;fill:#156D69;} </style> <path class="st1" d="M30.4,2.9c-0.3-0.6-1-0.8-2.2-0.8c-0.1,0-0.3,0-0.4,0c-0.3-0.6-1.4-1.9-4.3-2.1l0,0l0,0c-0.1,0-1.6,0.2-2.8,2.6 c-0.1,0.2-0.2,0.4-0.3,0.7c0,0,0,0.1,0,0.1c-1.1,2.7-2.6,4.1-7.5,4c-0.7,0-1.5,0-2.2,0C8.1,7.3,6,7.5,4.9,9.1C4.2,8.8,2.6,7.9,2.6,6 c0-1.3,0.8-1.8,1.6-2c0.7-0.1,1.4,0.1,1.7,0.8C6.3,5.9,7,6.1,7.5,6c0.7-0.2,1.1-0.9,0.9-1.6C8.3,3.7,7.6,2.6,6.5,2 c-0.8-0.4-2-0.8-3.6-0.1C1.7,2.4,0.8,3.2,0.3,4.3c-0.5,1.1-0.4,2.6,0.1,3.9C0.8,9,2.3,10.9,4,11.4c0,0,0,0.1,0,0.1 c-0.2,1.4-0.2,2.6-0.2,3.4c0,1.6,0,2.4-1.1,3.3l-0.1,0.1l0,0.2c-0.1,0.4-0.7,3.7,0.4,5l0.1,0.1h2.8h0.9h3.3l0-0.5 c0-1.1-0.3-1.8-0.9-2.1c-0.6-0.3-1.2-0.1-1.5,0c-0.1-0.1-0.1-0.2-0.1-0.3c0-0.2,0.2-0.4,0.3-0.5c2.5-1.8,3.2-3.7,3.4-4.6 c1.4,0.4,3.4,0.8,5.3,0.8c0.8,0,1.5-0.1,2.2-0.2l-0.1,3.9c0,0.3,0,2.7,1,3.7c0.3,0.3,0.7,0.5,1.1,0.5h2.9h0.2h2.5v-0.5 c0-1.1-0.3-1.9-0.9-2.3c-0.6-0.4-1.2-0.3-1.7-0.2c-1-3.3,1.2-8.5,1.2-8.6l0,0c0.4-1.2,0.7-2.9,0.5-5.1c1.1-0.1,3.6-0.6,4.3-2 C30.4,4.9,30.9,3.8,30.4,2.9z M25.1,22.5c0.3,0.2,0.4,0.5,0.5,1.1H24c0-0.3,0-0.7-0.2-1.1C24.2,22.3,24.7,22.2,25.1,22.5z M23.2,1 c0.6,1.2,1.3,3,0.9,3.5c-0.2,0.2-0.6,0.2-1,0.1c-1.5-0.3-1.9-0.8-1.9-1c0-0.1,0-0.1,0-0.2C21.9,1.8,22.8,1.2,23.2,1z M1.3,7.8 c-0.5-1-0.5-2.2-0.1-3.1c0.4-0.9,1-1.5,2.1-1.9c1-0.4,2-0.4,2.8,0.1c0.9,0.5,1.4,1.3,1.5,1.8c0.1,0.3-0.1,0.5-0.3,0.5 c-0.2,0-0.4-0.2-0.5-0.6C6.4,3.5,5.3,2.9,4,3.1C3,3.3,1.8,4.1,1.7,6c-0.1,2.2,1.5,3.5,2.7,4c-0.1,0.2-0.1,0.4-0.2,0.6 C2.8,10,1.6,8.4,1.3,7.8z M7.3,19.6c-0.1,0-0.6,0.5-0.7,1.2c0,0.5,0.2,0.9,0.6,1.3l0.3,0.2l0.3-0.2c0.1-0.1,0.7-0.3,1-0.2 C9,22,9.1,22.3,9.2,22.7H6.9c0-0.4-0.1-1-0.4-1.4c-0.3-0.3-0.6-0.4-1-0.4c0-0.3,0.1-0.8,0.9-1.4c1.4-1.1,2.9-2.3,3.4-4.2 c0.2,0.1,0.4,0.1,0.6,0.2C10.2,16.2,9.8,17.9,7.3,19.6z M22.9,21.4c-0.2-0.1-0.4-0.1-0.7-0.1c-0.2,0-0.3,0-0.5,0 c0.2-1.4,0.6-3.9,1.4-5.4C22.7,17.6,22.5,19.7,22.9,21.4z M23,14.6c-1.9,1.9-2.3,7.1-2.3,7.4l0,0.7l0.7-0.2c0.7-0.2,1.3-0.2,1.5,0.1 c0.2,0.3,0.3,0.6,0.2,1h-2.4c-0.2,0-0.3-0.1-0.5-0.2c-0.6-0.6-0.7-2.5-0.7-3.1l0.1-5.2L19,15.3c-0.7,0.2-1.5,0.4-2.5,0.4 c-3.3,0-6.9-1.4-7-1.4L9,14l-0.1,0.6c-0.2,1.7-1.4,2.8-3.1,4.1c-1.6,1.2-1.4,2.5-1,3L4.9,22l0.3-0.1c0.1,0,0.2-0.1,0.3-0.1 c0.1,0,0.2,0,0.2,0.1c0.1,0.2,0.2,0.5,0.2,0.8H5.9H3.5c-0.4-0.8-0.3-2.7-0.1-3.9c1.3-1.2,1.3-2.3,1.3-3.9c0-0.9,0-1.9,0.2-3.3 c0.4-2.9,2-3.4,5.7-3.4c0.6,0,1.3,0,2.2,0c3,0.1,4.9-0.4,6.2-1.4C19.7,7.6,21.5,9,24.3,9c0.1,0,0.2,0,0.4,0 C24.7,12.9,23.1,14.5,23,14.6z M29,5.4c-0.6,1.1-3.1,1.5-4.1,1.5l-0.5,0l0.1,0.5c0,0.2,0,0.4,0.1,0.6c-2.6,0.1-4.3-1.2-5-1.8 c0.4-0.5,0.8-1,1.1-1.6c0.4,0.4,1.2,0.8,2.2,1c0.2,0,0.5,0.1,0.7,0.1c0.6,0,1-0.2,1.2-0.6c0.7-1-0.1-2.9-0.6-4.1 C26.6,1.4,27,2.6,27,2.7l0.1,0.4l0.4,0c1.1-0.1,1.9,0,2.1,0.4C29.8,3.8,29.3,4.9,29,5.4z"></path> </svg> 