<?xml version="1.0" encoding="UTF-8"?> <!-- Generator: Adobe Illustrator 22.1.0, SVG Export Plug-In . SVG Version: 6.00 Build 0) --> <svg xmlns="http://www.w3.org/2000/svg" xmlns:xlink="http://www.w3.org/1999/xlink" id="Layer_1" x="0px" y="0px" viewBox="0 0 35.3 30.2" style="enable-background:new 0 0 35.3 30.2;" xml:space="preserve"> <style type="text/css"> .st0{fill:#358F8E;} .st1{fill:#F2C2CF;} .st2{fill:#FFDF13;} .st3{fill-rule:evenodd;clip-rule:evenodd;fill:#156D69;} .st4{opacity:0.36;fill-rule:evenodd;clip-rule:evenodd;fill:#156D69;} .st5{fill:#FFFFFF;} .st6{clip-path:url(#SVGID_2_);stroke:#4794E0;stroke-width:5.52;} .st7{fill:#D31515;} .st8{fill:none;stroke:#2C2C2B;stroke-width:0.3354;stroke-linecap:round;stroke-linejoin:round;} .st9{fill:#2C2C2B;} .st10{fill:none;stroke:#2C2C2B;stroke-width:0.6653;} .st11{fill:#D31515;stroke:#2C2C2B;stroke-width:0.8559;stroke-linejoin:round;} .st12{fill:#FFFFFF;stroke:#2C2C2B;stroke-width:0.3354;stroke-linejoin:round;} .st13{fill:#FFFFFF;stroke:#2C2C2B;stroke-width:0.8559;stroke-linejoin:round;} .st14{fill:#FFFFFF;stroke:#2C2C2B;stroke-width:0.5596;} .st15{fill:#FFFFFF;stroke:#2C2C2B;stroke-width:7.289221e-02;} .st16{fill:#009B3A;} .st17{fill:#FEDF00;} .st18{fill:#002776;} .st19{fill:#212125;} .st20{fill:#C40008;} .st21{fill:#FFEC00;} .st22{fill:#294292;} .st23{opacity:0.38;} .st24{opacity:0.26;fill-rule:evenodd;clip-rule:evenodd;fill:#156D69;} .st25{opacity:0.51;fill-rule:evenodd;clip-rule:evenodd;fill:#156D69;} </style> <g> <g> <path class="st1" d="M32.9,2.5c-0.7,0-1.5-0.2-2.2-0.4c-0.8-0.2-1.5-0.4-2.3-0.4c-0.9,0-1.5,0.4-1.8,0.8c-1,1.4-0.3,4-0.3,4.3 c0.1,0.2,0.1,1-0.2,1.4c-0.2,0.3-0.6,0.4-1.1,0.4c-0.8,0-1.3-0.7-1.9-2c-0.6-1.2-1.4-2.6-2.9-2.6c-2.2,0-2.7-0.9-3.3-2 c-0.5-1-1.1-2.1-3-2.1c-2,0-3,1.5-3.8,2.8C9.4,3.9,8.9,4.7,8,4.7C7,4.7,6,4.8,5,5.1C4,5.5,0.9,6.8,0.7,9.8 c-0.2,3.3-0.5,4.3-0.5,4.3c-0.1,0.3,0,0.6,0.3,0.7c0.1,0,0.1,0,0.2,0c0.2,0,0.4-0.1,0.5-0.4c0-0.1,0.3-1,0.5-3.9 c0.3,3.2,2,7.8,2.3,8.6l-0.1,4.2c0,0.1,0,0.2,0.1,0.3l3.4,6.4c0.1,0.2,0.3,0.3,0.5,0.3l2.7,0c0,0,0,0,0,0c0.3,0,0.5-0.2,0.5-0.5 c0-0.2-0.1-0.4-0.3-0.5l-2.7-1.7L7,22.9l0.2-3.9c0.2-0.4,0.9-1.6,0.9-3c0-0.6-0.1-1.2-0.2-1.8c0.8,0.7,1.8,1.4,3,1.8 c2,0.7,4.7,0.6,5.9,0.6L16,22.7l-0.2,6.8c0,0.1,0.1,0.3,0.2,0.4c0.1,0.1,0.2,0.2,0.4,0.2H19c0.4,0,0.7-0.4,0.5-0.9l-1.9-1.6 L20.8,15l1.4-1c0.9,0.1,4.1,0.3,6.2-1.4c1.1-1,1.7-2.4,1.7-4.1l0-0.4c0-0.1,0-1.7,1.1-1.7c1.2,0,1.8-0.4,2.1-0.7 c0.5,0,1.2,0,1.6-0.4c0.2-0.2,0.4-0.5,0.4-0.8C35.3,3.1,34.6,2.5,32.9,2.5z M8.7,29.1l-0.5,0l-0.3-0.5L8.7,29.1z M16.9,29l0-0.5 l0.5,0.5H16.9z M33.1,4.5c-0.2,0-0.3,0-0.4,0.1c-0.1,0.1-0.2,0.2-0.2,0.3c-0.1,0.1-0.3,0.4-1.3,0.4C29.5,5.3,29,7.1,29,8l0,0.4 c0,0,0,0,0,0c0,1.4-0.4,2.6-1.3,3.3c-2,1.7-5.5,1.2-5.6,1.2c-0.1,0-0.3,0-0.4,0.1L20,14.2c-0.1,0.1-0.2,0.2-0.2,0.3l-2.7,10.8 l0.1-2.5L18,16c0-0.2,0-0.3-0.1-0.4c-0.1-0.1-0.3-0.2-0.4-0.2c0,0-3.7,0.3-6.1-0.5C8.9,14.1,7.4,12,7.4,12 c-0.2-0.2-0.4-0.3-0.7-0.2c-0.2,0.1-0.4,0.4-0.3,0.7c0,0,0.6,2,0.6,3.4c0,1.3-0.8,2.6-0.8,2.6c-0.1,0.1-0.1,0.2-0.1,0.3l-0.2,4.1 c0,0.1,0,0.1,0,0.2l0.9,3.2L5,23.1L5.2,19c0-0.1,0-0.1,0-0.2c0-0.1-2.3-5.9-2.3-9.1c0-1.8,1-2.9,2.3-3.4c0.3-0.1,0.5-0.2,0.5-0.2 c0.1,0,0.1,0,0.1-0.1C6.5,5.8,7.2,5.7,8,5.7c1.6,0,2.4-1.3,3.1-2.4c0.8-1.2,1.4-2.2,2.8-2.2c1.2,0,1.5,0.6,2,1.5 c0.6,1.1,1.4,2.6,4.2,2.6c0.8,0,1.3,0.7,2,2c0.6,1.2,1.4,2.5,2.9,2.5c0.9,0,1.5-0.3,2-0.8c0.7-0.9,0.4-2.2,0.4-2.3 c-0.2-0.7-0.5-2.6,0.1-3.4c0.1-0.2,0.3-0.4,0.9-0.4c0.6,0,1.3,0.2,2,0.4c0.8,0.2,1.6,0.5,2.5,0.5c1.3,0,1.3,0.3,1.3,0.8 C34.1,4.5,33.5,4.6,33.1,4.5z"></path> </g> </g> </svg> 