<?xml version="1.0" encoding="UTF-8"?> <!-- Generator: Adobe Illustrator 22.1.0, SVG Export Plug-In . SVG Version: 6.00 Build 0) --> <svg xmlns="http://www.w3.org/2000/svg" xmlns:xlink="http://www.w3.org/1999/xlink" id="Layer_1" x="0px" y="0px" viewBox="0 0 30.5 24.8" style="enable-background:new 0 0 30.5 24.8;" xml:space="preserve"> <style type="text/css"> .st0{fill:#358F8E;} .st1{fill:#F2C2CF;} .st2{fill:#FFDF13;} .st3{fill-rule:evenodd;clip-rule:evenodd;fill:#156D69;} .st4{opacity:0.36;fill-rule:evenodd;clip-rule:evenodd;fill:#156D69;} .st5{fill:#FFFFFF;} .st6{clip-path:url(#SVGID_2_);stroke:#4794E0;stroke-width:5.52;} .st7{fill:#D31515;} .st8{fill:none;stroke:#2C2C2B;stroke-width:0.3354;stroke-linecap:round;stroke-linejoin:round;} .st9{fill:#2C2C2B;} .st10{fill:none;stroke:#2C2C2B;stroke-width:0.6653;} .st11{fill:#D31515;stroke:#2C2C2B;stroke-width:0.8559;stroke-linejoin:round;} .st12{fill:#FFFFFF;stroke:#2C2C2B;stroke-width:0.3354;stroke-linejoin:round;} .st13{fill:#FFFFFF;stroke:#2C2C2B;stroke-width:0.8559;stroke-linejoin:round;} .st14{fill:#FFFFFF;stroke:#2C2C2B;stroke-width:0.5596;} .st15{fill:#FFFFFF;stroke:#2C2C2B;stroke-width:7.289221e-02;} .st16{fill:#009B3A;} .st17{fill:#FEDF00;} .st18{fill:#002776;} .st19{fill:#212125;} .st20{fill:#C40008;} .st21{fill:#FFEC00;} .st22{fill:#294292;} .st23{opacity:0.38;} .st24{opacity:0.26;fill-rule:evenodd;clip-rule:evenodd;fill:#156D69;} .st25{opacity:0.51;fill-rule:evenodd;clip-rule:evenodd;fill:#156D69;} </style> <path class="st1" d="M25.1,7.7c0-0.5-0.5-1.9-0.7-2.3c0,0,0-0.1,0-0.1V5.1c0,0,0-0.1,0-0.1c0.4-0.8,0.4-1.4-0.7-1.9 c-0.1,0-0.2-0.1-0.2-0.2c0-0.2,0.1-0.3,0.3-0.3l2.8-0.3c0.1,0,0.2,0,0.2,0.1C27,2.2,29,3.8,30,4.8c1.2,1.2,0.1,2.9,0,3 C30,7.9,29.9,8,29.8,8h-4.3C25.3,8,25.1,7.9,25.1,7.7z M29.5,5.3c-0.9-0.9-2.5-2.2-3-2.5l-1.8,0.2c0.6,0.6,0.7,1.3,0.3,2.2v0.1 c0.1,0.3,0.6,1.4,0.7,2.2h3.9C29.8,7,30.2,5.9,29.5,5.3z"></path> <path class="st1" d="M18.4,19.3L18.4,19.3l2.9-0.2c0.1,0,0.3-0.1,0.3-0.2c0.2-0.8,0.5-2.1,0.6-2.4c0-0.1,0.1-0.2,0.2-0.3 c0.6-0.9,1.9-3,2.1-5.1c0.2-2.3,1.2-3.1,1.2-3.1c0.1-0.1,0.1-0.3,0-0.4c-0.1-0.1-0.3-0.1-0.4,0c0,0-1.1,1-1.4,3.5 c-0.2,2-1.5,4-2,4.8c-0.1,0.2-0.2,0.3-0.2,0.4c-0.2,0.4-0.5,1.8-0.6,2.3l-2.5,0.2l-1-1.4c-0.1-0.1-0.2-0.1-0.3-0.1 c-0.1,0-5.7,0.3-7.2-0.3c-0.7-0.3-1.4-0.2-2,0.2c-0.5,0.4-0.9,1-1,1.6H4.4c-0.2-0.1-1-0.7-1-4c0-0.1,0-0.1,0-0.1l-0.6-1.2 c0-0.5-0.3-3.9,1.4-5.7c0.7-0.8,1.6-1.1,2.8-1.1h9.4c0,0,0.1,0,0.1,0c0.1,0,2.7-1.2,3.6-2.9C20.9,1.7,21.8,1,23,1 c1.6,0,3.4,0.4,3.4,1.2c0,0.2,0.1,0.3,0.3,0.3c0.2,0,0.3-0.1,0.3-0.3c0-1.4-2.1-1.8-4-1.8s-2.8,1.5-3.5,2.9s-2.8,2.4-3.2,2.6H6.9 c-1.3,0-2.4,0.5-3.2,1.3c-1.9,2.2-1.5,6.1-1.5,6.3c0,0,0,0.1,0,0.1l0.6,1.1c0,4.1,1.3,4.5,1.5,4.6c0,0,0,0,0.1,0h3 c0.2,0,0.3-0.1,0.3-0.3c0-0.6,0.3-1.1,0.8-1.4c0.4-0.3,1-0.3,1.5-0.1c1.5,0.6,6.3,0.4,7.3,0.3l1,1.4C18.2,19.3,18.3,19.3,18.4,19.3z "></path> <path class="st1" d="M18.7,24.6h2.7c0.2,0,0.3-0.1,0.3-0.3v-1.2c0-0.1-0.1-0.2-0.2-0.3l-0.6-0.3v-3.7c0-0.2-0.1-0.3-0.3-0.3 s-0.3,0.1-0.3,0.3v3.9c0,0.1,0.1,0.2,0.2,0.3l0.6,0.3V24H19v-5c0-0.2-0.1-0.3-0.3-0.3s-0.3,0.1-0.3,0.3v5.3 C18.4,24.5,18.5,24.6,18.7,24.6z"></path> <path class="st1" d="M4.6,24.6h2.7c0.2,0,0.3-0.1,0.3-0.3v-1.2c0-0.1-0.1-0.2-0.2-0.3l-0.6-0.3v-3.4c0-0.2-0.1-0.3-0.3-0.3 s-0.3,0.1-0.3,0.3v3.6c0,0.1,0.1,0.2,0.2,0.3L7,23.3V24H4.9v-5c0-0.2-0.1-0.3-0.3-0.3c-0.2,0-0.3,0.1-0.3,0.3v5.3 C4.3,24.5,4.4,24.6,4.6,24.6z"></path> <path class="st1" d="M2.6,14c0.2,0,0.3-0.1,0.3-0.3c0-0.2-0.1-0.3-0.3-0.3c-0.7,0-1.2-0.2-1.6-0.6C0.5,12.1,0.5,11,0.9,9.5 C1,8.8,1.3,8.4,1.7,8.2c0.8-0.4,1.7-0.1,1.7-0.1c0.2,0.1,0.3,0,0.4-0.2s0-0.3-0.2-0.4c-0.1,0-1.2-0.5-2.2,0.1 c-0.6,0.3-1,0.9-1.2,1.7c-0.4,1.8-0.3,3,0.3,3.8C1,13.7,1.7,14,2.6,14z"></path> <path class="st1" d="M22.6,6.6c0.4,0,0.9-0.1,1.5-0.6c0.7-0.6,1.1-1.2,1.1-1.8c-0.1-1.3-1.8-2.2-1.9-2.3c-0.2-0.1-0.3,0-0.4,0.1 c-0.1,0.2,0,0.3,0.1,0.4c0,0,0,0,0,0l0,0c0.4,0.2,1.5,1,1.5,1.7c0,0.4-0.2,0.9-0.8,1.3c-0.8,0.6-1.4,0.6-1.9,0 c-0.4-0.4-0.4-1-0.3-1.1C21.8,4.1,22,4,22.2,4.1c0.3,0,0.5,0.4,0.6,0.5c0.1,0.2,0.3,0.2,0.4,0.1c0.1-0.1,0.2-0.3,0.1-0.4 c0,0-0.4-0.7-1-0.8c-0.4-0.1-0.8,0.1-1.3,0.5c-0.4,0.4-0.3,1.3,0.3,2C21.7,6.3,22.1,6.6,22.6,6.6z"></path> </svg> 