<?xml version="1.0" encoding="UTF-8"?> <!-- Generator: Adobe Illustrator 22.1.0, SVG Export Plug-In . SVG Version: 6.00 Build 0) --> <svg xmlns="http://www.w3.org/2000/svg" xmlns:xlink="http://www.w3.org/1999/xlink" id="Layer_1" x="0px" y="0px" viewBox="0 0 30 30" style="enable-background:new 0 0 30 30;" xml:space="preserve"> <style type="text/css"> .st0{fill:#358F8E;} .st1{fill:#F2C2CF;} .st2{fill:#FFDF13;} .st3{fill-rule:evenodd;clip-rule:evenodd;fill:#156D69;} .st4{opacity:0.36;fill-rule:evenodd;clip-rule:evenodd;fill:#156D69;} .st5{fill:#FFFFFF;} .st6{clip-path:url(#SVGID_2_);stroke:#4794E0;stroke-width:5.52;} .st7{fill:#D31515;} .st8{fill:none;stroke:#2C2C2B;stroke-width:0.3354;stroke-linecap:round;stroke-linejoin:round;} .st9{fill:#2C2C2B;} .st10{fill:none;stroke:#2C2C2B;stroke-width:0.6653;} .st11{fill:#D31515;stroke:#2C2C2B;stroke-width:0.8559;stroke-linejoin:round;} .st12{fill:#FFFFFF;stroke:#2C2C2B;stroke-width:0.3354;stroke-linejoin:round;} .st13{fill:#FFFFFF;stroke:#2C2C2B;stroke-width:0.8559;stroke-linejoin:round;} .st14{fill:#FFFFFF;stroke:#2C2C2B;stroke-width:0.5596;} .st15{fill:#FFFFFF;stroke:#2C2C2B;stroke-width:7.289221e-02;} .st16{fill:#009B3A;} .st17{fill:#FEDF00;} .st18{fill:#002776;} .st19{fill:#212125;} .st20{fill:#C40008;} .st21{fill:#FFEC00;} .st22{fill:#294292;} .st23{opacity:0.38;} .st24{opacity:0.26;fill-rule:evenodd;clip-rule:evenodd;fill:#156D69;} .st25{opacity:0.51;fill-rule:evenodd;clip-rule:evenodd;fill:#156D69;} </style> <g> <path class="st1" d="M22.5,8.5C23.3,8.5,24,7.8,24,7s-0.7-1.5-1.5-1.5C21.7,5.5,21,6.2,21,7S21.7,8.5,22.5,8.5z M22.5,7.5 C22.2,7.5,22,7.3,22,7c0-0.3,0.2-0.5,0.5-0.5C22.8,6.5,23,6.7,23,7C23,7.3,22.8,7.5,22.5,7.5z"></path> <path class="st1" d="M4.5,3H0l0,0.5C0,4.9,0.6,6.1,1.7,7H0l0,0.5c0,1.4,0.6,2.6,1.7,3.5H0l0,0.5c0,2.3,1.7,4.2,4,4.5 c0.3,4,4,8.6,9,9.7V27h-1v1h1v1h-2v1h8v-1h-2v-3.1c5.5-0.9,9.5-5.6,9.5-11.1v-0.6c0.4,0.2,0.8,0.4,1.2,0.4c1.2,0,2.2-1,2.3-2.2V12 c0-0.8-0.4-1.5-1.1-1.9l-1.7-1l2.6-1.1c0.1-0.1,0.2-0.1,0.3-0.3c0.1-0.3,0-0.5-0.3-0.7l-3.5-1.5h0c-0.4-1-1.2-1.8-2.2-2.2 C23.9,1.5,22.4,0,20.5,0L18,0c-0.3,0-0.5,0.2-0.5,0.5c0,1.5,1,2.8,2.4,3.3c-0.6,0.4-1.1,1-1.4,1.7L15,12.8l-2.2-4.6 C11.3,5,8,3,4.5,3z M22.9,3H21c-1.2,0-2.2-0.8-2.4-2h1.9C21.7,1,22.7,1.8,22.9,3z M28.2,7.5l-1.7,0.8V6.8L28.2,7.5z M26.5,12.2V9.9 l1.9,1.1c0.4,0.2,0.6,0.6,0.6,1.1v0.2c0,0.7-0.6,1.2-1.2,1.2S26.5,12.9,26.5,12.2z M14,25.9c0.4,0.1,0.8,0.1,1.2,0.1 c0.2,0,0.5,0,0.7,0v1h-1v1h1v1h-2V25.9z M1,4h3.5c3.2,0,6,1.8,7.4,4.7l3.1,6.5l4.4-9.2c0.5-1.1,1.5-1.8,2.7-1.9h0.2 c1.8,0,3.2,1.4,3.2,3.2v7.6c0,5.7-4.6,10.2-10.2,10.2C10.6,25,5,20.6,5,15.5V15H4.5c-1.7,0-3.2-1.3-3.5-3h3.5v-1 C2.8,11,1.3,9.7,1,8h3.5V7C2.8,7,1.3,5.7,1,4z"></path> <path class="st1" d="M13.5,16H7.6c0.5,1.5,1.9,2.5,3.4,2.5h1.5v1H9.6C10.1,21,11.5,22,13,22h2c3.6,0,6.5-2.9,6.5-6.5V15h1v0.5 c0,4.1-3.4,7.5-7.5,7.5h-2c-2.3,0-4.2-1.7-4.5-3.9l-0.1-0.4c-1.1-0.7-1.8-1.9-1.9-3.1L6.4,15h7.1V16z"></path> </g> </svg> 