<?xml version="1.0" encoding="UTF-8"?> <!-- Generator: Adobe Illustrator 22.1.0, SVG Export Plug-In . SVG Version: 6.00 Build 0) --> <svg xmlns="http://www.w3.org/2000/svg" xmlns:xlink="http://www.w3.org/1999/xlink" id="Layer_1" x="0px" y="0px" viewBox="0 0 17.4 30.2" style="enable-background:new 0 0 17.4 30.2;" xml:space="preserve"> <style type="text/css"> .st0{fill:#358F8E;} .st1{fill:#F2C2CF;} .st2{fill:#FFDF13;} .st3{fill-rule:evenodd;clip-rule:evenodd;fill:#156D69;} .st4{opacity:0.36;fill-rule:evenodd;clip-rule:evenodd;fill:#156D69;} .st5{fill:#FFFFFF;} .st6{clip-path:url(#SVGID_2_);stroke:#4794E0;stroke-width:5.52;} .st7{fill:#D31515;} .st8{fill:none;stroke:#2C2C2B;stroke-width:0.3354;stroke-linecap:round;stroke-linejoin:round;} .st9{fill:#2C2C2B;} .st10{fill:none;stroke:#2C2C2B;stroke-width:0.6653;} .st11{fill:#D31515;stroke:#2C2C2B;stroke-width:0.8559;stroke-linejoin:round;} .st12{fill:#FFFFFF;stroke:#2C2C2B;stroke-width:0.3354;stroke-linejoin:round;} .st13{fill:#FFFFFF;stroke:#2C2C2B;stroke-width:0.8559;stroke-linejoin:round;} .st14{fill:#FFFFFF;stroke:#2C2C2B;stroke-width:0.5596;} .st15{fill:#FFFFFF;stroke:#2C2C2B;stroke-width:7.289221e-02;} .st16{fill:#009B3A;} .st17{fill:#FEDF00;} .st18{fill:#002776;} .st19{fill:#212125;} .st20{fill:#C40008;} .st21{fill:#FFEC00;} .st22{fill:#294292;} .st23{opacity:0.38;} .st24{opacity:0.26;fill-rule:evenodd;clip-rule:evenodd;fill:#156D69;} .st25{opacity:0.51;fill-rule:evenodd;clip-rule:evenodd;fill:#156D69;} </style> <path class="st1" d="M17.4,4.9c0-0.1-0.1-0.1-0.1-0.2c-0.4-0.4-1-0.8-1.6-1.2l0.6-3c0-0.1,0-0.1,0-0.2c-0.1-0.2-0.3-0.2-0.4-0.2 l-1.6,0.7l-0.1-0.8c0,0,0-0.1,0-0.1c-0.1-0.2-0.2-0.2-0.4-0.2c-1,0.5-1.7,1.3-2,2.3c-0.9,0.4-2.3,1.6-2.4,4.4C9.2,7.4,8,8.1,6.5,9 c-2.3,1.3-5.2,3-6.3,6.4c-0.9,2.8,1.2,6.2,1.8,7c-0.4,0.7-1.5,2.9-0.6,4.9c0.7,1.5,2.4,2.4,5.1,2.8c0.6,0.1,1.3,0.1,1.9,0.1 c2.8,0,4.3-0.9,4.8-1.9c0.3-0.5,0.2-1.2-0.2-1.7c-0.6-0.6-1.7-0.7-2.9-0.2c-2.2,1-4.1,1.1-5.2,0.3c-0.6-0.5-1-1.2-0.9-2.2h10.5 c0.1,0,0.2,0,0.2-0.1c0.1-0.1,0.9-1,0.6-1.8c-0.2-0.6-0.9-0.9-2-1c-0.6-1.3-0.9-4.1,1.1-7c1.8-2.7,1.1-6.1,0.8-7.1 C16,7.2,17.7,6.3,17.4,4.9z M15.2,3.1c-0.4-0.2-0.7-0.5-0.8-0.6l-0.1-1L15.6,1L15.2,3.1z M13.9,3c0,0,1.9,1.3,2.9,2.1 c0.1,1.1-2,2-2,2c-0.2,0.1-0.2,0.2-0.2,0.4c0,0,1.2,4-0.7,6.8c-1.9,2.9-1.9,6-1,7.8c0,0.1,0.1,0.2,0.3,0.2c1,0.1,1.6,0.3,1.7,0.6 c0.1,0.3-0.2,0.8-0.4,1h-2.3c0,0,0,0,0-0.1c-0.8-1-1.1-5.3-1.1-6.8c0-0.2-0.1-0.3-0.3-0.3l0,0c-0.2,0-0.3,0.1-0.3,0.3 c0,1.7,0.2,3.4,0.5,5.1C10.6,22,10.3,22,10,22c-1.5,0-1.9,0.4-2,0.5l0,0c-0.1,0.1-0.1,0.3,0,0.4c0.1,0.1,0.3,0.1,0.4,0l0,0 c0,0,0.4-0.3,1.5-0.3c0.5,0,0.8,0.1,1,0.4c0.1,0.3,0.1,0.7,0,1H3.8c-0.2,0-0.3,0.1-0.3,0.3c-0.1,1.3,0.3,2.4,1.2,3 c1.3,0.9,3.4,0.8,5.8-0.2c0.4-0.2,0.8-0.3,1.3-0.3c0.3,0,0.7,0.1,0.9,0.3c0.2,0.3,0.3,0.6,0.1,0.9c-0.5,0.9-2.3,1.9-6,1.4 c-2.5-0.3-4-1.1-4.7-2.4c-0.9-2,0.6-4.4,0.6-4.4c0.1-0.1,0.1-0.2,0-0.4c0,0-2.7-3.7-1.8-6.6c1-3.2,3.7-4.8,6-6c1.7-1,3.1-1.8,3.1-3 C10,3.9,11.3,3,12.1,2.7c0.1,0,0.2-0.1,0.2-0.2c0.2-0.7,0.7-1.4,1.3-1.8l0.2,2.1C13.7,2.8,13.8,2.9,13.9,3L13.9,3z"></path> </svg> 