<?xml version="1.0" encoding="UTF-8"?> <!-- Generator: Adobe Illustrator 22.1.0, SVG Export Plug-In . SVG Version: 6.00 Build 0) --> <svg xmlns="http://www.w3.org/2000/svg" xmlns:xlink="http://www.w3.org/1999/xlink" id="Layer_1" x="0px" y="0px" viewBox="0 0 48.6 19.1" style="enable-background:new 0 0 48.6 19.1;" xml:space="preserve"> <style type="text/css"> .st0{fill:#358F8E;} .st1{fill:#F2C2CF;} .st2{fill:#FFDF13;} .st3{fill-rule:evenodd;clip-rule:evenodd;fill:#156D69;} .st4{opacity:0.36;fill-rule:evenodd;clip-rule:evenodd;fill:#156D69;} .st5{fill:#FFFFFF;} .st6{clip-path:url(#SVGID_2_);stroke:#4794E0;stroke-width:5.52;} .st7{fill:#D31515;} .st8{fill:none;stroke:#2C2C2B;stroke-width:0.3354;stroke-linecap:round;stroke-linejoin:round;} .st9{fill:#2C2C2B;} .st10{fill:none;stroke:#2C2C2B;stroke-width:0.6653;} .st11{fill:#D31515;stroke:#2C2C2B;stroke-width:0.8559;stroke-linejoin:round;} .st12{fill:#FFFFFF;stroke:#2C2C2B;stroke-width:0.3354;stroke-linejoin:round;} .st13{fill:#FFFFFF;stroke:#2C2C2B;stroke-width:0.8559;stroke-linejoin:round;} .st14{fill:#FFFFFF;stroke:#2C2C2B;stroke-width:0.5596;} .st15{fill:#FFFFFF;stroke:#2C2C2B;stroke-width:7.289221e-02;} .st16{fill:#009B3A;} .st17{fill:#FEDF00;} .st18{fill:#002776;} .st19{fill:#212125;} .st20{fill:#C40008;} .st21{fill:#FFEC00;} .st22{fill:#294292;} .st23{opacity:0.38;} .st24{opacity:0.26;fill-rule:evenodd;clip-rule:evenodd;fill:#156D69;} .st25{opacity:0.51;fill-rule:evenodd;clip-rule:evenodd;fill:#156D69;} </style> <path class="st1" d="M9.3,5.6c2.9-1.7,8.2-2.6,10.2-1.2l1.4,0.9l-0.6-1.5C19.6,2.3,15-0.6,9,0.3c-3.2,0.5-6,2-7.6,4.1 c-1,1.3-1.5,3-1.2,4.7c0.6,3.8,4.3,7.4,9.3,7.4c0.3,0,0.6,0,1,0c0.1,0.2,0.3,0.4,0.5,0.6c0.6,0.6,1.3,1.2,2,1.7l0.1,0.1l7.2-0.3 l-2.9-1.7l7.2,0c0.1,0.1,0.1,0.2,0.2,0.2c0.6,0.6,1.3,1.2,2,1.7l0.1,0.1l7.2-0.3l-2.9-1.7c2.5,0,7,0,10.5,0c2.7,0,4.8,0,5.2-0.1 c0.4,0,0.8-0.3,1-0.6c0.1-0.4,0.1-0.8,0-1.1c0.4-0.4,0.6-0.9,0.7-1.4c0.1-0.4,0.1-0.9-0.2-1.3c-0.4-0.4-1-0.3-1.8-0.2 c-0.7,0.1-1.4,0.2-2.2,0.2c-1.2-0.1-2.4-1.3-3.4-2.4c-1-1-1.8-1.9-2.7-2c-0.7-0.1-1.4,0.1-1.9,0.4c-1.2-0.5-5.8-2.5-9.4-2.2 c-3.8,0.4-15.5,1.1-16.5,1.1c-0.9-0.2-1.8-0.7-1.9-1C8.5,6.3,8.6,6,9.3,5.6z M3.4,13.1c0.7,0.3,1.5,0.5,2.3,0.6 C7,13.8,8.1,13.8,9,13.8c0.7,0,1.4,0,1.9,0l-0.3,0.4c-0.3,0.4-0.5,0.9-0.4,1.4C7.6,15.7,5.2,14.8,3.4,13.1z M15.7,15.8 C15.7,15.8,15.7,15.8,15.7,15.8c0-0.2,0.1-0.3,0.3-0.4c0.7-0.4,1.3-1,1.8-1.7l7-0.2l-0.4,0.5c-0.4,0.5-0.5,1.1-0.4,1.8L15.7,15.8z M47,15.7c0,0-0.1,0.1-0.2,0.1c-0.9,0.1-12.5,0-17.2,0c0,0,0-0.1,0-0.1c0-0.1,0.1-0.2,0.3-0.3c0.9-0.5,1.5-1.2,2-2.1 c1.2,0.3,3.9,1,5.6,0.5c1.6-0.5,3,1.4,3,1.4l0.1,0.2l5.9,0c0.2,0,0.3,0,0.5,0C47,15.5,47,15.6,47,15.7z M7.5,6.5 c0.2,1.2,2.3,1.7,2.7,1.8h0.1h0.1C10.5,8.4,23,7.6,27,7.2c3-0.3,7,1.3,8.5,1.9c-0.1,0.1-0.1,0.1-0.1,0.2l0.8,0.5 c0.4-0.6,1.2-0.9,1.9-0.9c0.5,0.1,1.3,0.9,2.1,1.7c1.2,1.2,2.5,2.6,4.1,2.7c0.8,0,1.6,0,2.4-0.2c0.3-0.1,0.6-0.1,0.9-0.1 c0,0.1,0,0.2,0,0.3c0,0.4-0.2,0.7-0.5,1c-0.1,0.1-0.3,0.1-0.4,0.1h-0.1l-5.6,0C40.5,14,39,12.4,37.1,13c-1.4,0.4-4.1-0.3-5.1-0.5 c0-0.6-0.2-1.2-0.6-1.7l-0.8,0.5c0.3,0.4,0.5,1,0.3,1.5c-0.2,0.9-1.2,1.6-1.6,1.8c-0.4,0.2-0.7,0.6-0.8,1c0,0.4,0.1,0.8,0.3,1.1 l1.7,1.1l-3.5,0.2c-0.6-0.4-1.2-0.9-1.7-1.5c-0.9-0.8-0.4-1.5-0.3-1.6l2.6-3.1L26.9,11l-1.3,1.5l-7.5,0.2c0.1-0.7-0.1-1.4-0.5-2 l-0.8,0.5c0.3,0.4,0.5,1,0.3,1.5c-0.2,0.9-1.2,1.6-1.6,1.8c-0.4,0.2-0.7,0.6-0.8,1c0,0.4,0.1,0.8,0.3,1.1l1.7,1.1l-3.5,0.2 c-0.6-0.4-1.2-0.9-1.7-1.5c-0.9-0.8-0.4-1.5-0.3-1.6l2.6-3.1L13.1,11l-1.4,1.7c-2,0.1-3.9,0.1-5.9,0c-1.8-0.1-3.5-1-4.4-2.6 C1.3,9.7,1.2,9.3,1.1,8.9C1,7.5,1.3,6.1,2.2,5C3.6,3,6.1,1.7,9.1,1.2C12,0.8,15,1.3,17.6,2.7c-2.7-0.3-6.5,0.6-8.9,2 C8.4,4.9,7.3,5.6,7.5,6.5z"></path> </svg> 