<?xml version="1.0" encoding="UTF-8"?> <!-- Generator: Adobe Illustrator 22.1.0, SVG Export Plug-In . SVG Version: 6.00 Build 0) --> <svg xmlns="http://www.w3.org/2000/svg" xmlns:xlink="http://www.w3.org/1999/xlink" id="Layer_1" x="0px" y="0px" viewBox="0 0 38.8 36.4" style="enable-background:new 0 0 38.8 36.4;" xml:space="preserve"> <style type="text/css"> .st0{fill:#358F8E;} .st1{fill:#F2C2CF;} .st2{fill:#FFDF13;} .st3{fill-rule:evenodd;clip-rule:evenodd;fill:#156D69;} .st4{opacity:0.36;fill-rule:evenodd;clip-rule:evenodd;fill:#156D69;} .st5{fill:#FFFFFF;} .st6{clip-path:url(#SVGID_2_);stroke:#4794E0;stroke-width:5.52;} .st7{fill:#D31515;} .st8{fill:none;stroke:#2C2C2B;stroke-width:0.3354;stroke-linecap:round;stroke-linejoin:round;} .st9{fill:#2C2C2B;} .st10{fill:none;stroke:#2C2C2B;stroke-width:0.6653;} .st11{fill:#D31515;stroke:#2C2C2B;stroke-width:0.8559;stroke-linejoin:round;} .st12{fill:#FFFFFF;stroke:#2C2C2B;stroke-width:0.3354;stroke-linejoin:round;} .st13{fill:#FFFFFF;stroke:#2C2C2B;stroke-width:0.8559;stroke-linejoin:round;} .st14{fill:#FFFFFF;stroke:#2C2C2B;stroke-width:0.5596;} .st15{fill:#FFFFFF;stroke:#2C2C2B;stroke-width:7.289221e-02;} .st16{fill:#009B3A;} .st17{fill:#FEDF00;} .st18{fill:#002776;} .st19{fill:#212125;} .st20{fill:#C40008;} .st21{fill:#FFEC00;} .st22{fill:#294292;} .st23{opacity:0.38;} .st24{opacity:0.26;fill-rule:evenodd;clip-rule:evenodd;fill:#156D69;} .st25{opacity:0.51;fill-rule:evenodd;clip-rule:evenodd;fill:#156D69;} </style> <path class="st1" d="M38.7,6.4l-0.1-0.5l-0.5-0.1c-1.2-0.3-2.4-0.6-2.7-0.9c-0.4-0.9-0.7-1.4-1.1-1.8c-0.1-1.1-0.8-1.9-1.9-2.5 c-2.5-1.2-6.7-0.6-8.6,0.8c-3.7,2.7-3.7,6.9-2,9.6c-1.9,1.8-5.7,1.9-7.2,1.9c-0.3,0-0.5,0-0.7,0c-2.2,0.2-3.8,0.9-4.9,1.9 c-0.7-0.4-1.6-0.5-2.3-0.1c-1.2,0.6-2,2.2-1.9,4.1c0,0.3,0,0.6,0,0.9c0.1,1.2,0.1,2.3-0.5,3.3c-0.9-0.2-1.8,0.2-2.3,0.9 c-0.8,1.1-0.9,2.2-0.9,3.2c0,0.7-0.1,1.4-0.4,2L0,30.4h1.2c1.1,0,2-0.3,2.7-0.7l0,6.7h4.8h0.8h4.1l0.9-3.5l-1.7-0.6l0.4-1.6 c2.1-0.8,3.5-1.8,4.9-3.7c0.6,0.1,1.2,0.2,1.7,0.2l0.9,9.2h4.8h0.8h4.1l1-3.5l-2.1-0.7c-0.4-2.9-0.2-5.5,0.8-7.9 c6.4-3.8,6.4-9.3,5.1-13.4c1.2-0.1,2.2-0.4,2.8-1.1C38.7,9,38.9,8,38.7,6.4z M6.3,19.8c0-0.3,0-0.6,0-0.9c0-1.5,0.5-2.4,1.1-2.7 c0.2-0.1,0.4-0.1,0.6,0c-0.6,1-0.9,2.2-0.8,3.4c0.2,2-0.4,3.8-1,5.1c-0.2-0.3-0.4-0.5-0.6-0.7C6.5,22.5,6.4,21,6.3,19.8z M11.9,29.5 l-0.8,3.9l1.7,0.5l-0.2,0.9h-2.5l0.5-1.9l-1.3-0.6l0.4-2.6C10.5,28.9,11.9,29.5,11.9,29.5z M24.2,33.3l1.2,0.5l-0.3,1h-3l-0.7-7.2 c0.4-0.8,1.7-3.4,1.8-6.6l-1.6-0.1c-0.1,1.9-0.6,3.7-1.1,4.8c-1.9,0-4-0.5-6.1-1.3l-0.6-0.2l-0.4,0.5c-1.8,2.9-2.9,3.2-4.8,3.7 l-0.5,0.1l-0.8,4.7l1.2,0.5l-0.2,1H5.5l0-6.2c0.9-0.9,3.6-4.4,3.2-9.2c-0.2-2,1.1-4.5,5.2-4.8c0.1,0,0.4,0,0.6,0 c1.8,0,5.6-0.2,8-2.1c0.4,0.8,0.4,1.2,0.5,1.9c0,0.4,0,0.7,0.2,1.2l0.2,0.9l0.8-0.2c1-0.3,2.3-0.8,3.3-1.5c0.1,0.4,0.1,0.7,0.1,0.9 v0.5l0.4,0.2c1,0.5,1.6,1.1,1.6,2.6c0,4.5-2.6,6.6-4.9,8.5c-0.2,0.1-0.3,0.3-0.5,0.4L24,27.9L24.2,33.3z M29.5,33.9l-0.2,0.9h-2.5 l0.5-1.9l-1.5-0.7l-0.1-3.7c0.1,0,0.1-0.1,0.2-0.2c2.5-0.9,1.7,2.3,2.1,4.5l0.1,0.5L29.5,33.9z M30.7,21.9c0.3-0.9,0.5-2,0.5-3.2 c0-2.1-1.1-3.1-2.1-3.7c-0.1-0.9-0.4-1.9-0.4-2l-0.4-1.4l-1,1c-0.6,0.6-1.8,1.2-2.8,1.6c0,0,0-0.1,0-0.2c-0.1-1-0.1-1.8-1.5-3.9 c-1.4-2.1-1.3-5.4,1.6-7.5c1.5-1.1,5.1-1.6,7-0.6c0.4,0.2,0.6,0.4,0.8,0.6c-0.5,0-1.1,0.1-1.9,0.2h-0.1c-1.2,0.3-1.5,2.3-1.4,3.7 c0.2,2.6,1.9,4.2,4.4,4.2c0.1,0,0.1,0,0.2,0C35.7,17,32.9,20.3,30.7,21.9z M36.9,8.8c-0.5,0.6-2,0.6-3.4,0.6l0,0 c-1.3,0-2.2-0.6-2.6-1.7c-0.5-1.4-0.2-2.8,0-3.2c1.1-0.2,1.9-0.3,2.2-0.1c0.2,0.1,0.4,0.5,0.9,1.4c0.1,0.2,0.4,0.8,3.2,1.5 C37.3,7.9,37.2,8.5,36.9,8.8z"></path> </svg> 