<?xml version="1.0" encoding="UTF-8"?> <!-- Generator: Adobe Illustrator 22.1.0, SVG Export Plug-In . SVG Version: 6.00 Build 0) --> <svg xmlns="http://www.w3.org/2000/svg" xmlns:xlink="http://www.w3.org/1999/xlink" id="Layer_1" x="0px" y="0px" viewBox="0 0 65.5 34.1" style="enable-background:new 0 0 65.5 34.1;" xml:space="preserve"> <style type="text/css"> .st0{fill:#358F8E;} .st1{fill:#F2C2CF;} .st2{fill:#FFDF13;} .st3{fill-rule:evenodd;clip-rule:evenodd;fill:#156D69;} .st4{opacity:0.36;fill-rule:evenodd;clip-rule:evenodd;fill:#156D69;} .st5{fill:#FFFFFF;} .st6{clip-path:url(#SVGID_2_);stroke:#4794E0;stroke-width:5.52;} .st7{fill:#D31515;} .st8{fill:none;stroke:#2C2C2B;stroke-width:0.3354;stroke-linecap:round;stroke-linejoin:round;} .st9{fill:#2C2C2B;} .st10{fill:none;stroke:#2C2C2B;stroke-width:0.6653;} .st11{fill:#D31515;stroke:#2C2C2B;stroke-width:0.8559;stroke-linejoin:round;} .st12{fill:#FFFFFF;stroke:#2C2C2B;stroke-width:0.3354;stroke-linejoin:round;} .st13{fill:#FFFFFF;stroke:#2C2C2B;stroke-width:0.8559;stroke-linejoin:round;} .st14{fill:#FFFFFF;stroke:#2C2C2B;stroke-width:0.5596;} .st15{fill:#FFFFFF;stroke:#2C2C2B;stroke-width:7.289221e-02;} .st16{fill:#009B3A;} .st17{fill:#FEDF00;} .st18{fill:#002776;} .st19{fill:#212125;} .st20{fill:#C40008;} .st21{fill:#FFEC00;} .st22{fill:#294292;} .st23{opacity:0.38;} .st24{opacity:0.26;fill-rule:evenodd;clip-rule:evenodd;fill:#156D69;} .st25{opacity:0.51;fill-rule:evenodd;clip-rule:evenodd;fill:#156D69;} </style> <path class="st1" d="M0,30.9c-0.1,0.7,0.7,1,2.6,1.5C3.9,32.8,5.2,33,6.5,33c4,0,6.3-2.4,8.4-8.1c1.5-4.2,5.6-8.2,8.4-10.6 c-0.2,2.1-0.3,5.5,0.8,7.8c-2.5,1.6-5.1,3-7.8,4.3c-0.5,0.2-0.8,0.6-0.9,1.1c-0.4,2,2.8,5.7,3.5,6.4c0.1,0.1,0.3,0.2,0.5,0.2h6.4 c0,0,0.1,0,0.1,0c0.4-0.1,0.6-0.4,0.6-0.8c-0.3-1.7-1.8-3-3.5-3.1c-0.5,0-1-0.1-1.4-0.3c2.6-0.2,7-1,8.7-3.8c1-1.5,1.7-3.3,1.9-5.1 c0.3,0.1,0.6,0.2,0.9,0.3c-0.5,2.3-1.3,7.4-1.3,7.6c0,0.2,0,0.4,0.1,0.5l3.4,4.4c0.1,0.2,0.3,0.3,0.5,0.3h6.3c0.1,0,0.2,0,0.3-0.1 c0.3-0.2,0.5-0.6,0.3-0.9c0-0.1-1.3-2.7-3.9-2.9c-0.9-0.1-1.7-0.7-2-1.6c-0.1-0.4-0.1-0.7,0-0.8c2-2,3.3-4.6,3.9-7.3h3.7l3.9,13.1 c0.1,0.3,0.4,0.5,0.7,0.5h7.1c0.1,0,0.1,0,0.2,0c0.4-0.1,0.6-0.5,0.5-0.8c-0.5-1.6-1.9-2.6-3.6-2.7l-1.8-0.1l-1.1-8.4l1.6-1.9v4 c0,0.1,0,0.3,0.1,0.4l6.1,9.2c0.1,0.2,0.3,0.3,0.6,0.3h6.1c0.4,0,0.7-0.3,0.7-0.7v-1.1c-0.1-2-3.2-2.3-4.6-2.3l-3.6-7.8 c0.3-2.3,0.5-4.6,0.5-6.9c0-2.6,2.4-4,4.3-5.1c0.3-0.2,0.6-0.3,0.9-0.5c0.7-0.4,1.2-1,1.3-1.8c0.1-1-0.4-2.1-1.6-3.4 c-0.3-0.3,0.2-1.1,0.4-1.4l0,0c0,0,0-0.1,0.1-0.1c0.1-0.2,0.1-0.5,0-0.7c-0.1-0.2-1.4-1.9-5.4-2.2c-3.1-0.2-4.4,0.9-4.9,1.6 c-0.6,0-1.2,0.2-1.7,0.7c-0.4,0.6-0.5,1.5-0.1,2.1l-0.9,1.5c-1.5,0-6.7-0.1-14.5-0.5c-9.9-0.5-16.2,4.6-19.8,9 c-2,2.4-3.4,5.6-4.6,8.4C10.2,25.8,9,28.4,8,29S4.4,29.8,2.7,30C0.7,30.1,0.1,30.2,0,30.9z M3.6,31.3c1.8-0.1,3.9-0.4,5.1-1.1 c1.5-0.9,2.6-3.5,3.9-6.5c1.2-2.8,2.6-5.9,4.4-8.1c3.4-4.1,9.4-9,18.7-8.5c9.1,0.4,14.9,0.5,14.9,0.5l0,0c0.2,0,0.5-0.1,0.6-0.3 L51.9,6c0.3,0.4,0.7,0.7,1.2,0.9C53.4,7,53.7,7.1,54,7.1c0.5,0,0.9-0.1,1.3-0.3c0.3-0.2,0.5-0.6,0.3-0.9c-0.2-0.3-0.6-0.5-0.9-0.3 c-0.4,0.2-0.8,0.2-1.1,0.1c-0.5-0.2-0.9-0.7-1.1-1.2c-0.3-0.6-0.3-1-0.2-1.1c0.2-0.3,1.1-0.2,1.6-0.1c0,0,0,0,0,0 c0.4,0.1,0.7-0.1,0.8-0.5c0-0.2,0-0.5-0.2-0.6c1-0.5,2.1-0.7,3.2-0.5c1.3,0,2.5,0.4,3.6,1c0,0.1,0,0.2,0,0.3c0,0.2,0.1,0.4,0.3,0.5 c-0.4,0.7-0.3,1.6,0.3,2.2c0.8,0.9,1.2,1.7,1.2,2.2c-0.1,0.4-0.3,0.7-0.7,0.8l-0.8,0.5c-2.1,1.2-5,2.9-5,6.3c0,2.3-0.2,4.6-0.5,6.9 c0,0.1,0,0.3,0.1,0.4l3.9,8.3c0.1,0.2,0.4,0.4,0.6,0.4l0,0c1.7,0,3.6,0.4,3.6,1v0.4h-5.1L53.3,24v-5.4l2-2.2l0,0 c0.2-0.3,0.2-0.7-0.1-1c-0.3-0.2-0.7-0.2-1,0.1l-2.3,2.6l0,0l-2.8,3.3C49,21.6,48.9,21.8,49,22l1.3,9.3c0.1,0.3,0.3,0.6,0.7,0.6 l2.4,0.1c0.7,0,1.3,0.3,1.8,0.8h-5.5L45.8,20l1.8-3.3c0.2-0.3,0.1-0.8-0.3-0.9c-0.3-0.2-0.8-0.1-0.9,0.3l-1.7,3.2H41 c0.1-0.9,0.1-1.9-0.1-2.8l0,0c-0.1-0.4-0.4-0.6-0.8-0.6c-0.4,0.1-0.6,0.4-0.6,0.8c0.8,5.2-2.9,9.6-3.6,10.3 c-0.6,0.6-0.7,1.5-0.4,2.2c0.5,1.4,1.7,2.4,3.2,2.5c0.8,0.1,1.6,0.5,2.1,1.2h-4.7l-2.9-3.9c0.2-1.3,1-6.6,1.4-7.9c0,0,0-0.1,0-0.1 c0.1-0.4-0.2-0.7-0.6-0.8c-0.7-0.1-1.4-0.4-2.1-0.8h0c-1.3-0.9-2.5-2-3.4-3.2c-0.2-0.3-0.6-0.4-1-0.2s-0.4,0.6-0.2,1 c1,1.3,2.2,2.5,3.5,3.4c0,0.6-0.1,2.4-1.8,5.1c-2,3.4-9.4,3.2-9.5,3.2c-0.3,0-0.5,0.1-0.6,0.3c-0.1,0.2-0.1,0.5,0,0.7 c0,0.1,1.1,1.7,3.9,1.9c0.8,0,1.5,0.5,1.9,1.2h-5.1c-1.6-1.8-3.1-4.1-3-5c0-0.1,0-0.1,0.1-0.1c2.9-1.4,5.7-3,8.5-4.7c0,0,0,0,0,0 c0.3-0.2,0.4-0.6,0.2-0.9c-1.7-2.6-0.9-7.7-0.7-8.9c0.9-0.7,1.4-1.1,1.4-1.1c0.3-0.2,0.4-0.6,0.2-1c-0.2-0.3-0.6-0.4-1-0.2 c-0.4,0.3-9.3,6.5-11.9,13.6C11.3,30.8,8.9,32.5,3.6,31.3z"></path> </svg> 