<?xml version="1.0" encoding="UTF-8"?> <!-- Generator: Adobe Illustrator 22.1.0, SVG Export Plug-In . SVG Version: 6.00 Build 0) --> <svg xmlns="http://www.w3.org/2000/svg" xmlns:xlink="http://www.w3.org/1999/xlink" id="Layer_1" x="0px" y="0px" viewBox="0 0 48.8 48.4" style="enable-background:new 0 0 48.8 48.4;" xml:space="preserve"> <style type="text/css"> .st0{fill:#358F8E;} .st1{fill:#F2C2CF;} .st2{fill:#FFDF13;} .st3{fill-rule:evenodd;clip-rule:evenodd;fill:#156D69;} .st4{opacity:0.36;fill-rule:evenodd;clip-rule:evenodd;fill:#156D69;} .st5{fill:#FFFFFF;} .st6{clip-path:url(#SVGID_2_);stroke:#4794E0;stroke-width:5.52;} .st7{fill:#D31515;} .st8{fill:none;stroke:#2C2C2B;stroke-width:0.3354;stroke-linecap:round;stroke-linejoin:round;} .st9{fill:#2C2C2B;} .st10{fill:none;stroke:#2C2C2B;stroke-width:0.6653;} .st11{fill:#D31515;stroke:#2C2C2B;stroke-width:0.8559;stroke-linejoin:round;} .st12{fill:#FFFFFF;stroke:#2C2C2B;stroke-width:0.3354;stroke-linejoin:round;} .st13{fill:#FFFFFF;stroke:#2C2C2B;stroke-width:0.8559;stroke-linejoin:round;} .st14{fill:#FFFFFF;stroke:#2C2C2B;stroke-width:0.5596;} .st15{fill:#FFFFFF;stroke:#2C2C2B;stroke-width:7.289221e-02;} .st16{fill:#009B3A;} .st17{fill:#FEDF00;} .st18{fill:#002776;} .st19{fill:#212125;} .st20{fill:#C40008;} .st21{fill:#FFEC00;} .st22{fill:#294292;} .st23{opacity:0.38;} .st24{opacity:0.26;fill-rule:evenodd;clip-rule:evenodd;fill:#156D69;} .st25{opacity:0.51;fill-rule:evenodd;clip-rule:evenodd;fill:#156D69;} </style> <g> <g> <path class="st1" d="M39.3,3.5c-0.5,0-1,0.4-1,1s0.4,1,1,1h1c0.5,0,1-0.4,1-1s-0.4-1-1-1H39.3 M1.9,17.7c-0.1-1,0.1-1.8,0.7-2.4 c0.5-0.4,1-0.6,1-0.6c0.4-0.1,0.7-0.4,0.7-0.9c0-0.4-0.2-0.8-0.6-1c-0.2-0.1-1.5-0.7-1.2-2.8c0.1-0.9,0.6-1.5,1.6-1.8 C5,8.1,5.7,8.2,5.7,8.2c0.4,0,0.7-0.1,0.9-0.4c0.2-0.3,0.2-0.7,0-1c-0.4-0.7-1-2.3-0.6-3C6.4,3.2,7.4,3.2,8,3.2 c2.9,0.1,5.6,3,7.4,5.4c2,2.7,3.3,5.3,3.3,5.4c0.1,0.3,0.4,0.5,0.6,0.5c7.8,1.8,12.3,8.2,12.3,8.2c0.2,0.3,0.7,0.5,1.1,0.4 c0.4-0.1,0.7-0.5,0.7-0.9C33.3,15.1,34.8,9.7,36,6.5c1.6-3.9,2.6-4.6,4.4-4.6c1.7,0,3.1,1.2,3.5,2.7c0,0,0,0,0,0c0,0-0.1,0-0.1,0 c0,0,0,0,0,0c-0.1,0-0.1,0-0.2,0c0,0,0,0,0,0c0,0-0.1,0-0.1,0c0,0,0,0-0.1,0c0,0-0.1,0-0.1,0c0,0,0,0-0.1,0c-0.1,0-0.1,0-0.2,0 c0,0,0,0,0,0c-0.1,0-0.1,0-0.2,0.1c0,0,0,0-0.1,0c0,0-0.1,0-0.1,0c0,0,0,0-0.1,0c0,0-0.1,0-0.1,0.1c0,0,0,0-0.1,0 c-0.1,0-0.1,0.1-0.2,0.1c0,0,0,0,0,0c-0.1,0-0.1,0-0.2,0.1c0,0,0,0-0.1,0c0,0-0.1,0-0.1,0.1c0,0,0,0-0.1,0c0,0-0.1,0.1-0.1,0.1 c0,0,0,0,0,0c-0.1,0-0.1,0.1-0.2,0.1c0,0,0,0,0,0c0,0-0.1,0.1-0.1,0.1c0,0,0,0,0,0c0,0-0.1,0.1-0.1,0.1c0,0,0,0,0,0 C41.1,6,41,6,41,6.1c0,0.1-0.1,0.1-0.1,0.2c0,0,0,0,0,0c0,0.1-0.1,0.1-0.1,0.2c0,0,0,0,0,0c0,0-0.1,0.1-0.1,0.2c0,0,0,0,0,0 c0,0.1,0,0.1-0.1,0.2c0,0,0,0,0,0c0,0.1,0,0.1,0,0.2c0,0,0,0,0,0c0,0.1,0,0.1,0,0.2c0,0,0,0,0,0c0,0.1,0,0.1,0,0.2c0,0,0,0,0,0 c0,0.1,0,0.1,0,0.2c0,0,0,0,0,0c-0.7,1-2.5,4.3-1.3,7.6c0,0,0,0,0,0.1c0,0.1,0.1,0.2,0.1,0.2c0,0,0,0.1,0.1,0.1c0,0,0,0,0,0.1 c0,0.4,0,0.9,0.1,1.4c0.2,5.7,0.7,16.3-6.5,20.5c-0.8,0.5-1.7,0.9-2.6,1.1c0,0-0.1,0-0.1,0c-2.1,0.6-4.4,0.7-6.8,0.1 c-1.5-0.3-2.7-0.9-3.5-1.2c0.9-1.1,1.7-2.4,2.4-3.8c2.8-5.2,3.7-10.5,3.7-10.7c0.1-0.5-0.3-1-0.8-1.1c-0.5-0.1-1,0.3-1.1,0.8 c0,0.1-0.9,5.2-3.6,10.2c-1.5,2.9-3.3,5.1-5.4,6.6c-2.5,1.8-5.3,2.6-8.5,2.4c-0.3,0-0.6-0.1-0.7-0.1c0.2-0.3,0.5-0.7,0.7-1.1 c1.3-1.8,3.6-4.9,3.4-9.4c0-0.5-0.5-0.9-1-0.9c-0.5,0-0.9,0.5-0.9,1c0,0.9-0.1,1.8-0.2,2.5c-0.2,0-0.4,0.1-0.6,0 c-0.7-0.1-1.3-0.5-1.8-1.3C4.5,30.7,6.8,28,6.8,28c0.3-0.3,0.3-0.8,0.1-1.1c-0.2-0.4-0.6-0.5-1-0.4c0,0-0.6,0.2-1.3,0.1 c-0.8-0.1-1.2-0.5-1.5-1.2c-0.7-2,1.9-4,1.9-4c0.4-0.3,0.5-0.7,0.3-1.2c-0.2-0.4-0.6-0.6-1.1-0.6c0,0-1,0.2-1.6-0.3 C2.3,19,2,18.5,1.9,17.7L1.9,17.7z M42.1,16c-0.2,0.1-0.6-0.2-0.9-1c0-0.1-0.1-0.1-0.1-0.2c0,0,0,0,0-0.1c0,0,0-0.1,0-0.1 c0,0,0,0,0-0.1c0,0,0-0.1,0-0.1c0,0,0,0,0-0.1c0-0.1,0-0.1-0.1-0.2c0,0,0,0,0,0c0,0,0-0.1,0-0.1c0,0,0,0,0-0.1c0,0,0-0.1,0-0.1 c0,0,0,0,0-0.1c0,0,0-0.1,0-0.1c0,0,0,0,0-0.1c0-0.1,0-0.1,0-0.2c0,0,0,0,0,0c0,0,0-0.1,0-0.1c0,0,0,0,0-0.1c0,0,0-0.1,0-0.1 c0,0,0,0,0-0.1c0,0,0-0.1,0-0.1c0,0,0,0,0-0.1c0-0.1,0-0.1,0-0.2c0,0,0,0,0,0c0,0,0-0.1,0-0.1c0,0,0,0,0-0.1c0,0,0-0.1,0-0.1 c0,0,0,0,0-0.1c0,0,0-0.1,0-0.1c0,0,0,0,0,0c0-0.1,0-0.1,0-0.2c0,0,0,0,0,0c0,0,0-0.1,0-0.1c0,0,0,0,0-0.1c0,0,0-0.1,0-0.1 c0,0,0,0,0-0.1c0,0,0-0.1,0-0.1c0,0,0,0,0,0c0,0,0-0.1,0-0.1c0,0,0,0,0,0c0,0,0-0.1,0-0.1c0,0,0,0,0-0.1c0,0,0-0.1,0-0.1 c0,0,0,0,0-0.1c0,0,0-0.1,0-0.1c0,0,0,0,0,0c0,0,0-0.1,0-0.1c0,0,0,0,0,0c0,0,0-0.1,0-0.1c0,0,0,0,0-0.1c0,0,0-0.1,0-0.1 c0,0,0,0,0,0c0,0,0-0.1,0-0.1c0,0,0,0,0,0c0,0,0-0.1,0.1-0.1c0,0,0,0,0,0c0,0,0-0.1,0-0.1c0,0,0,0,0,0c0,0,0-0.1,0-0.1 c0,0,0,0,0,0c0,0,0-0.1,0-0.1c0,0,0,0,0,0c0,0,0-0.1,0.1-0.1c0.3,0.3,0.6,0.5,0.9,0.6C43.5,13.8,42.6,15.8,42.1,16L42.1,16z M46.2,9.3c-0.8,0-1.7-0.2-2.5-0.4c-0.1,0-0.1-0.1-0.2-0.1c0,0,0,0,0,0c0,0-0.1,0-0.1,0c-0.4-0.2-0.6-0.3-0.8-0.5c0,0,0,0,0,0 c0,0,0,0,0-0.1c0,0,0,0,0,0c0,0,0,0,0,0c0,0,0,0,0,0c0,0,0,0,0,0c0,0,0,0,0-0.1c0,0,0,0,0,0c0,0,0,0,0,0c0-0.1,0-0.1-0.1-0.2 c0,0,0,0,0,0c0-0.1,0-0.1,0-0.1c0-0.1,0-0.2,0.1-0.2c0,0,0,0,0,0c0,0,0,0,0.1-0.1c0,0,0,0,0,0c0,0,0,0,0.1-0.1c0,0,0,0,0,0 c0,0,0,0,0.1-0.1c0,0,0,0,0,0c0,0,0.1,0,0.1-0.1c0,0,0,0,0,0c0,0,0.1,0,0.1-0.1c0,0,0,0,0,0c0,0,0.1,0,0.1,0c0,0,0,0,0,0 c0,0,0.1,0,0.1,0c0,0,0,0,0,0c0,0,0.1,0,0.1,0c0,0,0,0,0,0c0,0,0.1,0,0.1,0c0,0,0,0,0,0c0,0,0.1,0,0.1,0c0,0,0,0,0,0 c0,0,0.1,0,0.1,0c0,0,0,0,0,0c0,0,0.1,0,0.1,0c0,0,0,0,0,0c0,0,0.1,0,0.1,0c0,0,0,0,0,0c0,0,0.1,0,0.1,0c0,0,0,0,0,0 c0,0,0.1,0,0.1,0c0,0,0,0,0,0c0,0,0.1,0,0.1,0c0,0,0,0,0,0L46.2,9.3z M0,18c0.1,1.3,0.7,2.3,1.5,2.9c0.3,0.2,0.5,0.3,0.8,0.4 c-0.9,1.1-1.7,2.8-1.1,4.7c0.6,1.6,1.8,2.2,3,2.4c-0.7,1.4-1.3,3.4-0.2,5.4C5,35.4,6.3,36,7.5,36c-0.6,1.5-1.5,2.8-2.2,3.7 c-0.9,1.2-1.5,2.1-1.1,3c0.4,0.9,1.4,1.1,2.5,1.2C7.1,44,7.5,44,8,44c3.6,0,6.8-1.3,9.5-3.7V46c0,0.4,0.3,0.8,0.7,0.9l5.9,1.7 c0.1,0,0.2,0,0.3,0c0.4,0,0.8-0.3,0.9-0.7c0.1-0.5-0.1-1-0.6-1.2l-5.3-1.5v-5.7c0.9,0.4,2.1,0.9,3.5,1.2c1.3,0.3,2.5,0.5,3.8,0.5 c1,0,1.9-0.1,2.9-0.3v5c0,0.4,0.3,0.8,0.7,0.9l5.9,1.7c0.1,0,0.2,0,0.3,0c0.4,0,0.8-0.3,0.9-0.7c0.1-0.5-0.1-1-0.6-1.2l-5.3-1.5 v-4.8c0.8-0.3,1.6-0.7,2.4-1.1c3.6-2.1,5.9-5.7,6.9-10.8c0.8-3.8,0.7-7.8,0.5-10.7c0.2,0.1,0.4,0.1,0.7,0.1c0.3,0,0.6-0.1,0.8-0.2 c1-0.4,1.7-1.5,1.9-3.1c0.1-0.8,0.2-2.1-0.2-3.7c0.9,0.1,1.7,0.2,2.3,0.2c0.5,0,0.9,0,1.1,0c0.3,0,0.6-0.2,0.8-0.5 c0.1-0.3,0.1-0.7,0-0.9l-2.8-4.5C45.8,2.3,43.4,0,40.4,0c-3.2,0-4.7,2.1-6.1,5.8c-1.2,3-2.5,7.7-2.7,13.8c-2-2.2-5.9-5.5-11.3-6.8 C19.2,10.6,14.2,1.6,8,1.3C6.3,1.2,5,1.7,4.4,2.8C3.7,3.9,4,5.3,4.4,6.4c-0.2,0-0.5,0.1-0.7,0.2C2,7.1,1,8.3,0.8,9.9 c-0.3,1.7,0.3,3,0.9,3.8C0.7,14.5-0.2,15.8,0,18L0,18z"></path> </g> </g> </svg> 