<?xml version="1.0" encoding="UTF-8"?> <!-- Generator: Adobe Illustrator 22.1.0, SVG Export Plug-In . SVG Version: 6.00 Build 0) --> <svg xmlns="http://www.w3.org/2000/svg" xmlns:xlink="http://www.w3.org/1999/xlink" id="Layer_1" x="0px" y="0px" viewBox="0 0 70.4 33.1" style="enable-background:new 0 0 70.4 33.1;" xml:space="preserve"> <style type="text/css"> .st0{fill:#358F8E;} .st1{fill:#F2C2CF;} .st2{fill:#FFDF13;} .st3{fill-rule:evenodd;clip-rule:evenodd;fill:#156D69;} .st4{opacity:0.36;fill-rule:evenodd;clip-rule:evenodd;fill:#156D69;} .st5{fill:#FFFFFF;} .st6{clip-path:url(#SVGID_2_);stroke:#4794E0;stroke-width:5.52;} .st7{fill:#D31515;} .st8{fill:none;stroke:#2C2C2B;stroke-width:0.3354;stroke-linecap:round;stroke-linejoin:round;} .st9{fill:#2C2C2B;} .st10{fill:none;stroke:#2C2C2B;stroke-width:0.6653;} .st11{fill:#D31515;stroke:#2C2C2B;stroke-width:0.8559;stroke-linejoin:round;} .st12{fill:#FFFFFF;stroke:#2C2C2B;stroke-width:0.3354;stroke-linejoin:round;} .st13{fill:#FFFFFF;stroke:#2C2C2B;stroke-width:0.8559;stroke-linejoin:round;} .st14{fill:#FFFFFF;stroke:#2C2C2B;stroke-width:0.5596;} .st15{fill:#FFFFFF;stroke:#2C2C2B;stroke-width:7.289221e-02;} .st16{fill:#009B3A;} .st17{fill:#FEDF00;} .st18{fill:#002776;} .st19{fill:#212125;} .st20{fill:#C40008;} .st21{fill:#FFEC00;} .st22{fill:#294292;} .st23{opacity:0.38;} .st24{opacity:0.26;fill-rule:evenodd;clip-rule:evenodd;fill:#156D69;} .st25{opacity:0.51;fill-rule:evenodd;clip-rule:evenodd;fill:#156D69;} </style> <path class="st1" d="M3.5,27.2c-0.1-0.1-0.3-0.1-0.4-0.1l0,0v0c-1.4-0.5-2.5-0.6-2.9,0.1C0.1,27.3,0,27.5,0,27.7l0,0 c-0.1,0.8,0.5,1.3,0.9,1.6l0,0L1,29.3c0.1,0,0.1,0.1,0.1,0.1l0,0c0.8,0.4,1.6,0.6,2.4,0.6c0.8,0,1.6-0.2,2.4-0.6 c4.8-2.3,7.9-11.4,9.2-16.1c0.8,2.9,1.5,7.6-1.2,9.8l-0.4,0.3l1.3,9.8h8.6l0.1-0.8c0-0.2,0.1-2-1-3.2c-0.8-0.8-1.9-1.2-3.4-1 c-0.2-0.9-0.4-2.5,1.1-3.5c0.8-0.5,1.4-1,2-1.5C24,28,24.9,29.9,25,30l0.2,0.5h9.3v-0.8c0-1.9-0.6-3.2-1.7-3.9 c-1.4-0.9-3.3-0.5-4.4-0.1c-0.5-1.7,0.1-2.6,0.2-2.7c0.2-0.2,1.1-1.2,1.6-2.6c1.9,0.6,4.3,1.1,6.9,1.1c2.9,0,5.8-0.6,8.6-1.8 c-0.1,3.1,0.3,10.2,4.9,13.3l0.2,0.2h7.7l-0.1-0.9c-0.1-1.4-1-4.1-3.7-4.1c-0.4,0-0.8,0-1.2,0.2c-0.4-1.4-0.7-3.5,0-4.2 c0.2-0.2,0.4-0.4,0.6-0.7c2.6,6.5,5.4,7.2,5.8,7.3l7.7,0v-0.8c0-2-0.5-3.4-1.7-4c-1.4-0.8-3-0.2-3.9,0.2c-1.4-1.5-2-6.9-1.9-10.9 c1.6,0.1,4.1,0.4,5.6,1.6l0.3,0.2l0.3,0c1.3-0.1,3.7-1,4.2-3.9l0-0.2l-2.6-6.1l-0.1-0.1c-0.1-0.1-2.2-2.2-4.5-2.8L62.7,0l-0.8,0.2 c-0.1,0-2.7,0.6-4.3,3c-0.8,0.2-3,0.6-5.4,0.6c-1.6,0-2.9-0.2-4.1-0.5c-1-0.3-1.8-0.4-2.6-0.4c-0.6,0-1.2,0.1-1.9,0.2 c-0.9,0.1-1.9,0.2-3.4,0.2c-2.4,0-5.3-0.4-8.9-1.1c-1.4-0.3-2.8-0.4-4.1-0.4c-9.9,0-12.9,8.3-12.9,8.4l-0.1,0.3l0,0 c-0.3,1.4-2.1,8.5-5,13.3C6.8,27.5,4.4,27.4,3.5,27.2z M27.4,21.8L27.4,21.8c-0.1,0.1-1.7,2-0.2,5.3l0.4,0.8l0.8-0.4 c0.6-0.3,2.5-1,3.6-0.4c0.5,0.3,0.8,0.9,0.9,1.6h-6.5c-0.4-0.7-1.3-3.1-2.7-7.1c0.7-1,1.3-2.1,1.8-3.6c0.7,0.5,1.9,1.1,3.3,1.7 C28.2,21,27.4,21.8,27.4,21.8z M61.6,27.6l0.4,0.2l0.4-0.3c0.4-0.3,1.9-1,2.7-0.5c0.5,0.3,0.7,1,0.8,1.7h-5.7 c-0.3,0-2.7-1.1-4.9-7.2c1.2-1.7,2.4-3.9,3.1-5.7C58.5,19.4,58.9,26.1,61.6,27.6z M22.6,4.1c-0.6,1.5-1.3,3.8-0.8,6.4l1.6-0.3 c-0.6-3.1,0.8-5.7,1.3-6.6c0.7-0.1,1.5-0.2,2.4-0.2c0.5,0,0.9,0,1.4,0.1c-0.7,1.3-1.9,4.3-1,8.6l1.6-0.3c-1.1-5.1,1-7.9,1.1-8 l-0.1-0.1c0.2,0,0.4,0.1,0.6,0.1c1.2,0.2,2.3,0.4,3.3,0.6c-0.7,1.5-1.5,4.2-0.7,8.1l1.6-0.3c-0.8-4,0.3-6.5,0.8-7.5 c1.4,0.2,2.6,0.3,3.8,0.3c-0.7,1.5-1.4,4.2-0.7,8l1.6-0.3c-0.9-4.3,0.4-6.9,0.9-7.7c0.8-0.1,1.5-0.1,2.1-0.2 c0.6-0.1,1.2-0.1,1.7-0.1c-0.7,1.5-1.4,4.2-0.7,8l1.6-0.3c-0.8-3.8,0.2-6.3,0.7-7.4c0.1,0,0.2,0.1,0.4,0.1c1,0.3,2.1,0.5,3.4,0.6 c-0.4,1.2-0.8,3.4-0.4,5.7l1.6-0.3c-0.4-2.2,0.2-4.4,0.5-5.3c3-0.1,5.5-0.7,5.6-0.7l0.3-0.1l0.2-0.3c0.7-1.2,1.8-1.9,2.5-2.2l0.5,3 l0.6,0.1c1.7,0.2,3.5,1.8,4,2.3l2.3,5.4c-0.4,1.6-1.7,2.1-2.3,2.2c-2.2-1.6-5.5-1.8-7.3-1.8c-0.7,0-1.2,0-1.2,0l-0.7,0.1l0,0.7 c-0.1,2.1-3.3,7.2-4.8,8.8c-1.9,1.9-0.3,6.3-0.1,6.8l0.3,0.8l0.8-0.3c0.5-0.2,1-0.3,1.5-0.3c1.1,0,1.6,0.9,1.9,1.7h-5.3 c-4.8-3.6-3.9-13-3.9-13.1l0.2-1.5l-1.4,0.7c-2.9,1.5-6,2.3-9.2,2.3c-6.8,0-11.7-3.6-11.7-3.7l-1-0.7l-0.3,1.2 c-1.1,3.6-2.1,5.1-4.7,6.8c-2.7,1.7-2.2,4.8-1.5,6.2l0.3,0.6l0.7-0.2c1.2-0.3,2-0.2,2.5,0.3c0.3,0.3,0.4,0.6,0.5,1.1h-5.5l-1-7.4 c4.2-3.8,1.3-12,0.6-13.7C16.4,9.3,18.2,5.7,22.6,4.1z"></path> <polygon class="st1" points="64.3,7.8 64.3,9.3 65.8,9.5 "></polygon> </svg> 