<?xml version="1.0" encoding="UTF-8"?> <!-- Generator: Adobe Illustrator 22.1.0, SVG Export Plug-In . SVG Version: 6.00 Build 0) --> <svg xmlns="http://www.w3.org/2000/svg" xmlns:xlink="http://www.w3.org/1999/xlink" id="Layer_1" x="0px" y="0px" viewBox="0 0 70.4 48.8" style="enable-background:new 0 0 70.4 48.8;" xml:space="preserve"> <style type="text/css"> .st0{fill:#358F8E;} .st1{fill:#F2C2CF;} .st2{fill:#FFDF13;} .st3{fill-rule:evenodd;clip-rule:evenodd;fill:#156D69;} .st4{opacity:0.36;fill-rule:evenodd;clip-rule:evenodd;fill:#156D69;} .st5{fill:#FFFFFF;} .st6{clip-path:url(#SVGID_2_);stroke:#4794E0;stroke-width:5.52;} .st7{fill:#D31515;} .st8{fill:none;stroke:#2C2C2B;stroke-width:0.3354;stroke-linecap:round;stroke-linejoin:round;} .st9{fill:#2C2C2B;} .st10{fill:none;stroke:#2C2C2B;stroke-width:0.6653;} .st11{fill:#D31515;stroke:#2C2C2B;stroke-width:0.8559;stroke-linejoin:round;} .st12{fill:#FFFFFF;stroke:#2C2C2B;stroke-width:0.3354;stroke-linejoin:round;} .st13{fill:#FFFFFF;stroke:#2C2C2B;stroke-width:0.8559;stroke-linejoin:round;} .st14{fill:#FFFFFF;stroke:#2C2C2B;stroke-width:0.5596;} .st15{fill:#FFFFFF;stroke:#2C2C2B;stroke-width:7.289221e-02;} .st16{fill:#009B3A;} .st17{fill:#FEDF00;} .st18{fill:#002776;} .st19{fill:#212125;} .st20{fill:#C40008;} .st21{fill:#FFEC00;} .st22{fill:#294292;} .st23{opacity:0.38;} .st24{opacity:0.26;fill-rule:evenodd;clip-rule:evenodd;fill:#156D69;} .st25{opacity:0.51;fill-rule:evenodd;clip-rule:evenodd;fill:#156D69;} </style> <path class="st1" d="M66.6,2.7c0.4-0.1,0.6,0,0.9,0.3c2.1,3.6,1.5,7-1.6,10.2l0.1,0.1c0.2,0.4,0.9,2.2,2.1,5.3 c0.6,1.5,1.3,2.9,2.2,4.1c0.2,0.4,0.2,0.7-0.1,1l-1.5,1.6c-1,1.1-1.8,1.6-2.4,1.6c-0.3,0-1.4-0.5-3.4-1.4c-1.8-0.8-2.8-1.2-3.2-1.2 c-0.8,0-1.6,0.6-2.4,1.9l-2.4,5c-0.4,0.9-1,1.8-1.6,2.7c0,1.3,0.2,2.9,0.5,4.9l0.7,4.3c0.1,0.5,0.5,1.2,1.4,2.1l2.3,2.3 c0.3,0.3,0.3,0.5,0.2,0.9c-0.1,0.3-0.4,0.5-0.7,0.5h-4c-0.2,0-0.4-0.1-0.5-0.2c-1.5-1.3-2.5-2.9-3.1-4.8v-0.1 c-0.3-1.9-0.8-3.8-1.3-5.7c-1.3,0.6-2.7,0.9-4.3,0.9c-0.7,0-1.4-0.1-2.2-0.3c-0.1,0.2-0.1,0.5-0.1,0.9c0,2.1,1.1,4.8,3.2,8.1 c0.2,0.3,0.2,0.5,0,0.8c-0.1,0.3-0.4,0.4-0.7,0.4h-2.6c-0.3,0-0.5-0.1-0.6-0.4c-2.3-3.5-3.6-5.7-4-6.4c-0.4-0.9-0.6-2.9-0.6-6.1 c-1.1-0.7-2.1-1.2-3-1.7c0.2,0.5,0.2,1,0.2,1.5c0,0.9-0.7,2.1-2.1,3.7c-1.2,1.3-1.7,2.3-1.7,2.7c0,0.5,0.5,1.7,1.4,3.4l1.2,2 c0.1,0.3,0.1,0.5,0,0.8c-0.2,0.3-0.4,0.4-0.7,0.4h-3.4c-0.3,0-0.5-0.1-0.6-0.4l-2-2.9c-0.9-1.3-1.3-2.4-1.3-3.2c0-0.4,0.1-1,0.3-1.7 c0.2-0.9,0.3-1.5,0.3-1.7c0-0.6-0.3-1.3-1-2.1L23,35c-1.7,1.4-4,2.3-7,2.7c-1.8,0.3-3.2,1.8-4.3,4.5c-0.7,2.1-1.1,3.8-1.1,5.3v0.2 c0.1,0.2,0.1,0.5-0.1,0.7c-0.2,0.2-0.4,0.3-0.7,0.3H7.3c-0.2,0-0.4-0.1-0.6-0.3c-0.2-0.2-0.2-0.4-0.2-0.6c0.6-7.1,1.9-11.4,4-12.8 c1.8-1.3,2.8-3.1,3-5.5c0.2-2.8,1.3-5.5,3.5-8c0.6-0.8,1.3-1.4,2.1-1.9c-0.6-1-1.1-1.8-1.6-2.3c-0.7-0.9-1.7-1.3-3.1-1.3 c-1.6,0-2.6,0.4-3.2,1.3c-0.4,0.7-0.7,1.8-0.9,3.5c-0.3,2-0.5,3.3-0.9,3.9c-0.5,1.1-1.4,1.8-2.5,2.1H6.9C6.5,27,6.2,27,5.9,27 c-1.9,0-3.3-0.8-4.3-2.4l0-0.1c-0.1-0.1-0.6-1.1-1.4-3c-0.1-0.3-0.1-0.6,0.2-0.9c0.3-0.2,0.6-0.3,0.9-0.1c1.3,0.7,2.1,1.2,2.5,1.2 l1.1-0.1l0.1,0c1.4,0,2.3,0.8,2.5,2.5l0.1,0.7c0.2-0.2,0.4-0.5,0.5-0.7c0.3-0.5,0.5-1.6,0.8-3.5c0.2-1.9,0.6-3.2,1.1-4.1 c0.9-1.4,2.4-2.1,4.5-2.1c1.9,0,3.3,0.6,4.3,1.9c0.6,0.7,1.1,1.6,1.7,2.6c1.4-0.6,2.8-0.9,4.3-0.7c2.6,0.2,4.9,0.1,6.8-0.2 c1.8-0.7,3.4-2,4.8-3.9c0.7-1,2.1-1.8,4.4-2.4c2.6-0.7,4.1-1.2,4.6-1.4L49.7,8c1.3-0.6,2.7-0.9,4-0.9c1.1,0,2.2,0.1,3.2,0.2 c0.5-0.4,1.1-0.8,1.8-1.1c1.3-0.5,2.1-0.8,2.2-1c0.6-0.5,0.9-1.3,0.9-2.4c0-0.1-0.2-0.7-0.4-1.9c-0.1-0.4,0.1-0.7,0.4-0.9 c0.4-0.2,0.8-0.1,1,0.3l1.4,2.3c0.5,0.8,0.7,1.7,0.6,2.8c-0.1,1.2-0.9,2.3-2.4,3.4L62,9.1L63,9.8c1.9-1.3,2.9-3.5,3-6.4 C66,3,66.2,2.7,66.6,2.7z M41.2,13.3c-1.9,0.5-3.1,1.1-3.6,1.8c-1.7,2.2-3.5,3.6-5.5,4.4l-0.2,0c-2.1,0.4-4.5,0.4-7.3,0.2 c-1.5-0.1-2.9,0.2-4.1,0.9h0c-0.8,0.5-1.6,1.1-2.3,2c-1.9,2.2-3,4.6-3.1,7.1c-0.2,2.9-1.4,5.1-3.6,6.6c-1.6,1.1-2.7,4.7-3.3,10.9h1 c0.1-1.6,0.5-3.5,1.2-5.6c1.2-3.3,3.1-5.1,5.5-5.5c3.1-0.5,5.4-1.4,6.8-2.9c0.3-0.4,0.6-0.7,0.7-0.9l0.9-1.4 c0.6-1.1,1.4-2.6,2.2-4.4c0.1-0.2,0.3-0.3,0.5-0.4c0.2-0.1,0.4-0.1,0.6,0c0.2,0.1,0.3,0.3,0.4,0.5c0.1,0.2,0.1,0.4,0,0.5L25.9,31 l3.3,0c0.5,0.1,1.7,0.4,3.6,1.1l0.4,0.2c0.6,0.2,1.8,0.9,3.6,1.9l0.1-3.1c0-0.2,0-0.4,0.2-0.5c0.2-0.2,0.3-0.2,0.5-0.2 c0.2,0,0.4,0,0.5,0.2c0.2,0.2,0.2,0.3,0.2,0.5c0.1,0.6,0,2.1-0.1,4.5c0,3.2,0.2,5.1,0.5,5.8c0.3,0.6,1.5,2.6,3.6,6h0.9 c-1.8-3.1-2.7-5.6-2.7-7.8c0-0.7,0.1-1.4,0.4-2.1c0.3-0.8,0.9-1.8,1.6-2.8c1.2-1.6,1.8-2.6,1.8-2.9c-0.3-2.7-0.4-4.3-0.3-4.9 c0-0.2,0.1-0.4,0.3-0.5c0.1-0.1,0.3-0.2,0.5-0.2c0.2,0,0.4,0.1,0.5,0.3c0.1,0.2,0.2,0.3,0.2,0.5c0,0.8,0.1,2.3,0.4,4.6v0.1 c0,0.7-0.7,2-2.1,3.9c-0.5,0.7-0.9,1.2-1.1,1.7c0.5,0.1,1,0.2,1.6,0.2c1.6,0,3.1-0.4,4.3-1.2l0,0c1.1-0.7,2.1-1.7,3.1-3 c0.5-0.7,1-1.6,1.6-2.6l2.4-5.1c1.1-1.7,2.3-2.6,3.7-2.6c0.6,0,1.9,0.4,3.9,1.3c1.6,0.7,2.5,1.1,2.7,1.2c0.3-0.1,0.7-0.4,1.3-1 l1.1-1.2c-0.9-1.3-1.5-2.6-2.1-4c-1.1-3-1.8-4.7-2.1-5.2l-0.3-0.5l0-0.1c-0.5-0.9-1.1-1.6-1.7-2.1l0,0c-0.5-0.4-1-0.8-1.7-1.1 l-0.2,0.3c0,0,0.1,0.1,0.2,0.4c0.2,0.4,0.5,0.8,0.8,1.4c0.1,0.2,0.2,0.4,0.1,0.6c-0.1,0.2-0.2,0.4-0.3,0.5c-0.2,0.1-0.4,0.2-0.5,0.1 c-0.2-0.1-0.4-0.2-0.5-0.3c-0.9-1.3-1.3-2.1-1.3-2.6c0-0.6,0.4-1.2,1-1.8c0.3-0.3,0.7-0.7,1.3-1c1.1-0.8,1.7-1.6,1.8-2.3 c0-0.4,0-0.9-0.1-1.2c-0.2,0.9-0.6,1.6-1.3,2.2c-0.3,0.3-1.2,0.7-2.6,1.3c-0.6,0.3-1.2,0.6-1.6,1l0,0c-1,1-1.4,2.3-1.4,4.2 c0,0.6,0.1,1,0.4,1.3c0.4,0.3,1.1,0.5,2.3,0.8c0.2,0.1,0.4,0.2,0.5,0.3c0.1,0.2,0.2,0.4,0.1,0.6c0,0.2-0.1,0.4-0.3,0.5 c-0.2,0.1-0.4,0.1-0.6,0.1c-1.4-0.3-2.4-0.6-2.9-1c-0.6-0.5-0.9-1.4-0.9-2.5c0-1.7,0.3-3.1,1-4.2c-0.4-0.1-1.1-0.1-2-0.1 c-1.2,0-2.3,0.3-3.3,0.8l-4.2,2.3C45.5,12,43.9,12.5,41.2,13.3z M65,11.8c1.6-1.7,2.3-3.4,2.1-5.3c-0.5,1.7-1.4,3.2-2.9,4.3L65,11.8 z M52.3,39c-0.2-1.4-0.3-2.5-0.4-3.3c-0.6,0.6-1.3,1.2-1.8,1.6c0.6,2.1,1.1,4.1,1.5,6.2c0.5,1.4,1.3,2.7,2.4,3.9h1.9l-1-1 c-1.2-1.1-1.8-2.1-1.9-2.9C52.8,42.1,52.6,40.7,52.3,39z M2.9,23.9C3.6,25,4.6,25.5,6,25.4l-0.1-1c-0.1-0.8-0.4-1.2-1-1.2l-1.2,0.1 c-0.3,0.1-0.7-0.1-1.3-0.4L2.9,23.9z M29,32.5l-3.9,0l-1,1.4c0.4,0.5,0.9,1.1,1.6,1.8c0.9,1.1,1.4,2.1,1.4,3.1 c0,0.5-0.1,1.2-0.4,2.1c-0.2,0.7-0.2,1.2-0.2,1.4c0,0.5,0.3,1.3,1,2.3c0.7,1,1.2,1.9,1.7,2.6h1.6l-0.5-1c-1.1-2-1.6-3.3-1.6-4.1 c0-0.8,0.7-2.1,2.1-3.7c1.2-1.4,1.7-2.3,1.7-2.7c0-0.4-0.1-0.9-0.2-1.3l-0.4-1C30.8,33,29.8,32.7,29,32.5z"></path> </svg> 