<?xml version="1.0" encoding="UTF-8"?> <!-- Generator: Adobe Illustrator 22.1.0, SVG Export Plug-In . SVG Version: 6.00 Build 0) --> <svg xmlns="http://www.w3.org/2000/svg" xmlns:xlink="http://www.w3.org/1999/xlink" id="Layer_1" x="0px" y="0px" viewBox="0 0 56.2 35.4" style="enable-background:new 0 0 56.2 35.4;" xml:space="preserve"> <style type="text/css"> .st0{fill:#358F8E;} .st1{fill:#F2C2CF;} .st2{fill:#FFDF13;} .st3{fill-rule:evenodd;clip-rule:evenodd;fill:#156D69;} .st4{opacity:0.36;fill-rule:evenodd;clip-rule:evenodd;fill:#156D69;} .st5{fill:#FFFFFF;} .st6{clip-path:url(#SVGID_2_);stroke:#4794E0;stroke-width:5.52;} .st7{fill:#D31515;} .st8{fill:none;stroke:#2C2C2B;stroke-width:0.3354;stroke-linecap:round;stroke-linejoin:round;} .st9{fill:#2C2C2B;} .st10{fill:none;stroke:#2C2C2B;stroke-width:0.6653;} .st11{fill:#D31515;stroke:#2C2C2B;stroke-width:0.8559;stroke-linejoin:round;} .st12{fill:#FFFFFF;stroke:#2C2C2B;stroke-width:0.3354;stroke-linejoin:round;} .st13{fill:#FFFFFF;stroke:#2C2C2B;stroke-width:0.8559;stroke-linejoin:round;} .st14{fill:#FFFFFF;stroke:#2C2C2B;stroke-width:0.5596;} .st15{fill:#FFFFFF;stroke:#2C2C2B;stroke-width:7.289221e-02;} .st16{fill:#009B3A;} .st17{fill:#FEDF00;} .st18{fill:#002776;} .st19{fill:#212125;} .st20{fill:#C40008;} .st21{fill:#FFEC00;} .st22{fill:#294292;} .st23{opacity:0.38;} .st24{opacity:0.26;fill-rule:evenodd;clip-rule:evenodd;fill:#156D69;} .st25{opacity:0.51;fill-rule:evenodd;clip-rule:evenodd;fill:#156D69;} </style> <path class="st1" d="M9.8,35.4v-0.6c0.1-2.2-1.2-3.2-2-3.8c-0.3-0.3-0.7-0.5-0.7-0.7c0.1-0.5,1.8-1.8,3.7-2.8l0.1,0l0.2-0.1l1.8,3.6 c-0.2,0.8-0.7,3.1,0.6,4.3l0.2,0.2h9l0.1-0.4c0.2-0.8,0.1-1.7-0.3-2.5c-0.6-1-1.7-1.8-3.4-2.2c0.1-0.6,0.2-1.1,0.5-1.6 c0.7-1.5,1.2-3,1.7-4.6c1.9-0.1,3.7-0.2,5.6-0.5l-1.3,9.9l0.9,2h9.2l0-0.5c0.1-2-1.3-3.4-2.4-4c0.4-1.7,0.7-3.4,0.9-5.2l0.4-0.4 l3.3,5.8c-0.2,0.7-0.5,2.8,0.6,4.1l0.2,0.2h9.1v-0.6c-0.1-2.3-1.7-4.2-4-4.6c-1-2.4-2.9-12-2.6-13c0.4-0.8,0.7-1.6,1-2.5 c0.8-0.1,1.6-0.4,2.3-0.8l3,1.3h0.1c1.5,0.1,6.4,0.3,7.5-0.8c0.6-0.6,1.1-1.3,1.3-2.1l0.1-0.3L56,11.7c-0.1-0.1-1.4-1.8-2.1-2.6 c-0.3-0.4-0.5-0.8-0.6-1.3c-0.1-0.3-0.2-0.7-0.3-1c-0.4-1-2.1-2.6-2.9-3.2c0.4-0.7,0.5-1.5,0.3-2.3c-0.1-0.4-0.4-0.8-0.8-1 c-0.8-0.4-1.9,0.1-2.8,0.7c-5.5-0.9-11.2,0.1-16.1,2.8C30,3.9,26.1,4,18.8,3.6C13.5,3.2,8.1,5.1,4.7,8.4c-2.7,2.5-4.1,6.1-3.9,9.8 C1,27.5,0.1,33,0,33.1l0,0.2l1.4,2.1L9.8,35.4z M18.5,28.2c-0.3,0.6-0.8,1.9-0.5,2.7c0.1,0.3,0.3,0.5,0.6,0.5 c1.4,0.3,2.3,0.9,2.8,1.7c0.2,0.4,0.3,0.8,0.3,1.2h-7.6c-0.6-0.9-0.3-2.6-0.1-3.2l0.1-0.2l-2.2-4.3c1-0.9,1.8-1.9,2.6-3 c1.8,0.4,3.7,0.6,5.6,0.6C19.6,25.4,19.1,26.8,18.5,28.2L18.5,28.2z M42.7,31l0.1,0.2l0.3,0c1.6,0.2,2.9,1.4,3.2,2.9h-7.2 c-0.7-1.2-0.2-3.1-0.2-3.1l0.1-0.2l-3.6-6.4l3.6-3.1l0.1-0.1l0.1-0.1c0.2-0.4,0.6-1.1,0.9-1.9C40.5,23.1,42,29.8,42.7,31L42.7,31z M1.9,18.1C1.7,14.8,3,11.5,5.4,9.2c3.2-3.1,8.3-4.8,13.3-4.5C27,5.2,30.7,5.1,30.9,5H31L31.2,5c4.4-2.4,9.5-3.4,14.4-2.9 c-0.2,0.2-0.4,0.4-0.5,0.5L46,3.4c1-1.1,2.6-2.3,3.1-2c0.1,0.1,0.2,0.1,0.2,0.3c0,0.6-0.1,1.3-0.4,1.8l-0.7,0.9L49,5.1l0.4-0.5 c1,0.8,2.2,2,2.5,2.7c0.1,0.3,0.2,0.6,0.3,0.9c0.1,0.6,0.4,1.3,0.9,1.8c0.5,0.6,1.5,1.8,1.9,2.3c-0.2,0.5-0.5,0.9-0.9,1.3 c-0.5,0.5-3.7,0.6-6.5,0.5l-3.1-1.3L44,12.5l-0.3,0.3c-0.6,0.5-1.5,0.8-2.3,0.8h-0.6v0.6c0,0.6-1.5,3.7-2.8,6.4L32.9,25v0.2 c-0.2,1.9-0.6,4.9-1,5.5l-0.4,0.6l0.7,0.2c1.1,0.4,1.9,1.4,2.2,2.6h-7.3l-0.4-1.1l1.3-9.8v-0.1c-0.3-1.3-0.5-2.6-0.6-4h-1.1 c0,1,0.2,2,0.4,3c-1.7,0.3-6.9,1-11.5,0.1c1.1-2.1,1-3.4,1-3.6L14.9,19c0,0,0.2,3.2-4.8,7.6c-2.1,1.1-4.4,2.8-4.2,4 c0.2,0.6,0.6,1.1,1.1,1.4c0.7,0.6,1.4,1.1,1.6,2.3H2L1.2,33C1.4,31.9,2.1,26.6,1.9,18.1L1.9,18.1z"></path> </svg> 