<?xml version="1.0" encoding="UTF-8"?> <!-- Generator: Adobe Illustrator 22.1.0, SVG Export Plug-In . SVG Version: 6.00 Build 0) --> <svg xmlns="http://www.w3.org/2000/svg" xmlns:xlink="http://www.w3.org/1999/xlink" id="Layer_1" x="0px" y="0px" viewBox="0 0 48.6 28.1" style="enable-background:new 0 0 48.6 28.1;" xml:space="preserve"> <style type="text/css"> .st0{fill:#358F8E;} .st1{fill:#F2C2CF;} .st2{fill:#FFDF13;} .st3{fill-rule:evenodd;clip-rule:evenodd;fill:#156D69;} .st4{opacity:0.36;fill-rule:evenodd;clip-rule:evenodd;fill:#156D69;} .st5{fill:#FFFFFF;} .st6{clip-path:url(#SVGID_2_);stroke:#4794E0;stroke-width:5.52;} .st7{fill:#D31515;} .st8{fill:none;stroke:#2C2C2B;stroke-width:0.3354;stroke-linecap:round;stroke-linejoin:round;} .st9{fill:#2C2C2B;} .st10{fill:none;stroke:#2C2C2B;stroke-width:0.6653;} .st11{fill:#D31515;stroke:#2C2C2B;stroke-width:0.8559;stroke-linejoin:round;} .st12{fill:#FFFFFF;stroke:#2C2C2B;stroke-width:0.3354;stroke-linejoin:round;} .st13{fill:#FFFFFF;stroke:#2C2C2B;stroke-width:0.8559;stroke-linejoin:round;} .st14{fill:#FFFFFF;stroke:#2C2C2B;stroke-width:0.5596;} .st15{fill:#FFFFFF;stroke:#2C2C2B;stroke-width:7.289221e-02;} .st16{fill:#009B3A;} .st17{fill:#FEDF00;} .st18{fill:#002776;} .st19{fill:#212125;} .st20{fill:#C40008;} .st21{fill:#FFEC00;} .st22{fill:#294292;} .st23{opacity:0.38;} .st24{opacity:0.26;fill-rule:evenodd;clip-rule:evenodd;fill:#156D69;} .st25{opacity:0.51;fill-rule:evenodd;clip-rule:evenodd;fill:#156D69;} </style> <g> <g> <path class="st1" d="M47.4,6.2c-0.5-0.6-1.2-1.6-1.3-1.9c-0.2-0.9-1.5-2.2-1.8-2.5c-0.2-0.2-0.6-0.2-0.8,0c-0.2,0.2-0.2,0.6,0,0.8 c0.5,0.6,1.4,1.5,1.5,2c0.1,0.5,0.7,1.2,1.5,2.3c0.3,0.4,0.8,1,0.9,1.2c-0.1,0.1-0.5,0.4-1.3,0.3c-0.6-0.1-1.3-0.1-1.8-0.1 c-0.7,0-1.4,0-1.8-0.1c-1-0.4-2.3-1.4-2.3-2c0-0.7,0.4-1.9,0.6-2.3c0.1-0.3,0-0.6-0.3-0.8c-0.3-0.1-0.6,0-0.8,0.3 C39.7,3.6,39,5.2,39,6.3c0,0.5,0.3,1,0.7,1.4c-3,1.9-4.9,3.9-6,6.5c-0.4,1.1-1.2,1.8-2.3,2c0.2-0.9,0.5-1.7,0.8-2.5 c1.1-2.9,1.1-6.8-1.4-8.5C30.6,5,30.2,5.1,30,5.3c-0.2,0.3-0.1,0.6,0.1,0.8c2.1,1.5,1.8,5.1,1,7.2c-1.1,3-1.7,6.6-1.7,10.9 c0,0.4,0.2,0.7,0.4,1.1c0.1,0.2,0.2,0.4,0.3,0.6c0,0.1,0.1,0.3,0.1,0.4h-2.3c-0.3,0-0.6,0.3-0.6,0.6c0,0.3,0.3,0.6,0.6,0.6H31 c0.2,0,0.4-0.1,0.5-0.2c0.1-0.2,0.1-0.3,0.1-0.5c0,0-0.2-0.5-0.4-1.1c-0.1-0.3-0.2-0.5-0.3-0.8c-0.1-0.2-0.2-0.5-0.2-0.6 c0-2.5,0.2-4.7,0.6-6.7c0,0,0,0,0.1,0c1.7-0.2,2.9-1.2,3.6-2.8c1-2.4,2.8-4.3,5.8-6.1C41.4,9,42,9.3,42.1,9.3 c0.6,0.3,1.4,0.2,2.2,0.2c0.6,0,1.1,0,1.7,0.1c0.2,0,0.4,0,0.5,0c0.9,0,1.4-0.3,1.7-0.6c0.3-0.3,0.5-0.6,0.4-1 C48.5,7.7,48.2,7.3,47.4,6.2z"></path> <path class="st1" d="M6.1,25.3c-0.1,0.3,0,0.6,0.3,0.7c0.1,0,0.1,0,0.2,0c0.2,0,0.4-0.1,0.5-0.3c0,0,0.4-0.9,0.3-1.8 c0-0.7-0.8-4.4-1.2-5.1c0-0.2,0-0.8,0.1-1.2c0.1-0.4,0.1-0.9,0.1-1.3c0-1.2-1-4.3-1.3-4.8C5,11.2,3.7,8.3,3.1,6.8 C3,6.5,2.6,6.4,2.4,6.5C2.1,6.7,1.9,7,2.1,7.3c0.1,0.1,0.9,2,1.5,3.4C3.3,11.2,2.8,12.5,3,14c0.2,1.7,1.8,3.1,2.3,3.5 c0,0,0,0,0,0.1c-0.1,1-0.2,1.5,0,1.9c0.2,0.4,1,3.9,1.1,4.6C6.4,24.7,6.1,25.3,6.1,25.3z M4.1,13.8c-0.1-0.6,0-1.2,0.1-1.6 c0.3,0.6,1,2.7,1.1,3.8C4.8,15.4,4.3,14.6,4.1,13.8z"></path> <path class="st1" d="M27.7,19.9c0.1,1,0.2,2,0,3c-0.1,0.6-0.2,1.3-0.4,2.2c0,0.3,0.2,0.6,0.5,0.6c0,0,0.1,0,0.1,0 c0.3,0,0.5-0.2,0.6-0.5c0.1-0.8,0.2-1.5,0.4-2.1c0.2-1.2,0.1-2.3,0-3.3l-0.1-0.5c-0.1-0.9-0.2-1.6-0.5-2.4 c-0.1-0.2-0.2-0.5-0.3-0.7c-0.3-0.6-0.5-1.1-0.7-1.7c-0.1-0.6-0.2-1.3-0.3-1.9c0-0.3-0.3-0.5-0.6-0.5c-0.3,0-0.6,0.3-0.5,0.6 c0,0.7,0.1,1.4,0.3,2.1c0,0.1,0.1,0.3,0.1,0.4c-0.8,0.1-1.7,0.3-2.5,0.5c-0.6,0.1-1.1,0.3-1.6,0.4l-0.6,0.1 c-1.1,0.2-2.2,0.4-3.2,0.4c-1.3,0-2.6-0.4-3.9-1.2c-0.4-0.2-0.7-0.5-1.1-0.8c-0.5-0.5-1.1-0.9-1.8-1.2c0.7-1.6,2-4.8,1.9-7.8 c0-0.3-0.3-0.5-0.6-0.6c-0.3,0-0.6,0.3-0.6,0.6c0.1,2.8-1.1,5.8-1.8,7.3c-0.2,0.4-0.4,0.7-0.6,1.1c-0.2,0.3-0.4,0.6-0.6,1 c-0.3,0.7-0.6,1.4-0.8,2l0,0.1c-0.1,0.2-0.2,0.4-0.3,0.7c-0.3,0.8-0.7,1.7-0.7,2.5c0,0.4,0.2,1.7,0.5,3.4C8,24.4,8.1,25,8.1,25.3 c0.1,0.5,0.3,1.2,0.5,1.7c-0.6,0-1.4-0.1-1.9-0.1C6.3,26.8,6,27,6,27.3c0,0.3,0.2,0.6,0.5,0.6c0.3,0,1.5,0.1,2.3,0.1 c0.3,0,0.5,0,0.6,0c0.2,0,0.3-0.1,0.4-0.3c0.1-0.2,0.1-0.3,0-0.5c-0.2-0.4-0.6-1.6-0.7-2.2c0-0.3-0.1-0.8-0.2-1.5 c-0.2-1.2-0.4-2.9-0.5-3.3c0-0.4,0.2-1,0.4-1.5c0.2,0,0.4,0.1,0.7,0.1V19c0,0.3,0.3,0.6,0.6,0.6c0.3,0,0.6-0.3,0.6-0.6v-0.3l0,0 c0.9-0.2,2.4-0.6,2.9-2.3c0,0,0.1,0.1,0.1,0.1c1.5,0.9,3,1.3,4.5,1.3c1.2,0,2.3-0.2,3.4-0.4l0.6-0.1c0.5-0.1,1.1-0.2,1.7-0.4 c0.9-0.2,1.8-0.5,2.7-0.5c0.1,0.1,0.1,0.3,0.2,0.4c0.1,0.2,0.2,0.4,0.3,0.6c0.3,0.6,0.4,1.2,0.4,2L27.7,19.9z M10.5,17.6 c-0.1,0-0.2,0-0.3,0.1c-0.3,0.1-0.6,0.1-0.8,0.1c0,0,0-0.1,0-0.1l0-0.1c0.2-0.7,0.5-1.3,0.8-1.9c0.2-0.3,0.4-0.6,0.6-0.9 c0.1-0.1,0.1-0.2,0.2-0.3c0.6,0.2,1.1,0.6,1.6,1c0,0,0.1,0.1,0.1,0.1C12.5,17.1,11.4,17.3,10.5,17.6z"></path> <path class="st1" d="M1.7,14.7c0.1-2.3-0.2-9.1-0.3-10.4c0-0.8,0.3-1.6,0.8-2.2c0.5-0.5,1-0.8,1.6-0.7c1.7,0,3.3,0.1,5,0.3 C11.4,1.8,14,2,16.6,1.9c1.1-0.1,2.3,0,3.5,0.1c1.4,0.1,2.8,0.2,4.1,0.1c0.7-0.1,1.5-0.2,2.2-0.4c0.8-0.2,1.5-0.3,2.2-0.4 c0.8,0,1.5,0.2,2.2,0.4c0.5,0.2,1.1,0.3,1.7,0.4c1.3,0.2,2.6,0.1,3.8,0c0.4,0,0.8-0.1,1.2-0.1c1.5-0.1,3-0.2,4.5-0.2 c0.1,0,0.2-0.1,0.3-0.1C42.8,1.5,43.6,1,44,1.1c0.8,0.2,1.5,0.5,1.6,0.5c0.3,0.1,0.6,0,0.7-0.3c0.1-0.3,0-0.6-0.3-0.7 c0,0-0.8-0.3-1.7-0.6c-0.9-0.2-2,0.5-2.4,0.8C40.4,0.9,39,1,37.6,1c-0.4,0-0.8,0.1-1.3,0.1c-1.2,0.1-2.4,0.2-3.6,0 c-0.5-0.1-1-0.2-1.5-0.4c-0.8-0.3-1.7-0.5-2.7-0.5c-0.8,0-1.6,0.2-2.4,0.4c-0.7,0.1-1.3,0.3-2,0.3c-1.3,0.1-2.6,0-4-0.1 c-1.2-0.1-2.4-0.2-3.6-0.1C14,0.9,11.5,0.7,9,0.5c-1.6-0.1-3.3-0.2-5-0.3C3,0.2,2.2,0.6,1.5,1.3c-0.8,0.8-1.2,2-1.2,3.1 c0.2,2.6,0.4,10,0.2,10.7c-0.3,1.2-1.3,5.2,0.5,8.9c0.1,0.2,0.3,0.3,0.5,0.3c0.1,0,0.2,0,0.3-0.1c0.3-0.1,0.4-0.5,0.3-0.8 C1,21.2,1,18.8,1.3,17.2c0.2,0.9,0.3,2,0.3,3.3c0,0.3,0.2,0.6,0.5,0.6c0,0,0,0,0,0c0.3,0,0.6-0.2,0.6-0.5c0.1-3.1-0.8-5.5-0.8-5.6 C1.8,14.8,1.8,14.8,1.7,14.7z"></path> <circle class="st1" cx="43.5" cy="4.8" r="0.7"></circle> </g> </g> </svg> 